<?xml version="1.0" encoding="utf-8"?>
<!-- Generator: Adobe Illustrator 26.4.0, SVG Export Plug-In . SVG Version: 6.00 Build 0)  -->
<svg version="1.1" id="Layer_1" xmlns="http://www.w3.org/2000/svg" xmlns:xlink="http://www.w3.org/1999/xlink" x="0px" y="0px"
	 viewBox="0 0 161.5 89.1" style="enable-background:new 0 0 161.5 89.1;" xml:space="preserve">
<style type="text/css">
	.st0{fill:#ED3237;}
	.st1{fill:#003366;}
	.st2{enable-background:new    ;}
	.st3{clip-path:url(#SVGID_00000148629433426664446760000008415048596841537430_);}
	.st4{clip-path:url(#SVGID_00000175289211202474151800000015313993708705362607_);}
	.st5{clip-path:url(#SVGID_00000150814449138662915610000008281715227556336037_);}
	.st6{clip-path:url(#SVGID_00000166670452700494188290000002620142163367821487_);}
	.st7{clip-path:url(#SVGID_00000052785721188718839180000004489372309761334182_);}
	.st8{clip-path:url(#SVGID_00000004541233400047121090000009694796842759422091_);}
</style>
<g id="Group_16278" transform="translate(-887 -3511.154)">
	<path id="Path_8416" class="st0" d="M916.4,3537.1c6.3,0,11-3.6,11-9.9c0-6.3-4.8-9.9-11-9.9s-11,3.6-11,9.9
		C905.4,3533.4,910.2,3537.1,916.4,3537.1 M916.4,3532.5c-3,0-4.3-2.5-4.3-5.3c0-2.8,1.2-5.3,4.3-5.3s4.3,2.5,4.3,5.3
		C920.7,3530,919.4,3532.5,916.4,3532.5"/>
	<path id="Path_8417" class="st0" d="M926.8,3522.3h3.7v7.7c0,4.5,1.4,7.1,7.3,7.1c1.4,0,2.7-0.2,4.1-0.4l-0.2-4.3
		c-0.7,0.1-1.3,0.2-2,0.3c-2.1,0-2.6-1.2-2.6-3.5v-7h4.6v-4.6h-4.6v-6.6l-6.4,2.3v4.3h-3.9V3522.3z"/>
	<path id="Path_8418" class="st0" d="M964.6,3536.6h6.5v-9.4h0.1l5.2,9.4h7.9l-7.1-10.2l6.6-8.7h-7.2l-5.5,8h-0.1v-14.5l-6.5,2.3
		L964.6,3536.6z"/>
	<path id="Path_8419" class="st0" d="M888,3536.6h6.5v-9.4h0.1l5.2,9.4h7.9l-7.1-10.2l6.6-8.7h-7.2l-5.5,8h-0.1v-14.5l-6.5,2.2
		V3536.6z"/>
	<path id="Path_8420" class="st0" d="M962.3,3536.7c-0.3-1.5-0.4-3-0.4-4.5v-7.1c0-5.8-4.2-7.9-9.1-7.9c-2.6-0.1-5.2,0.4-7.7,1.4
		l0.1,4.5c1.9-1,4-1.5,6.1-1.4c2.4,0,4.3,0.7,4.4,3.3c-1-0.2-2.1-0.3-3.1-0.3c-3.5,0-9.9,0.7-9.9,6.5c0,4.2,3.4,6,7.2,6
		c2.5,0.1,4.9-1.2,6.1-3.5h0.1c0,1,0.1,2,0.1,3L962.3,3536.7z M948.9,3530.7c0-1.8,1.8-2.5,4-2.5c1,0,1.9,0.1,2.8,0.1
		c0.1,2.4-1.7,4.4-4.1,4.5C950.1,3532.8,948.9,3532,948.9,3530.7"/>
	<g id="Group_16275" transform="translate(0 -4)">
		<path id="Path_8434" class="st1" d="M900.6,3582.4c-1.2-0.5-2.6-0.8-3.9-0.8c-1.3,0-3,0.6-3,2.7c0,3.3,8.4,1.9,8.4,8.4
			c0,4.2-3.3,5.8-7.2,5.8c-1.7,0-3.3-0.3-4.9-0.7l0.4-3.5c1.3,0.7,2.8,1.2,4.4,1.2c1.5,0,3.4-0.7,3.4-2.5c0-3.7-8.4-2.1-8.4-8.5
			c0-4.3,3.3-5.9,6.7-5.9c1.6,0,3.1,0.2,4.6,0.7L900.6,3582.4z"/>
		<path id="Path_8435" class="st1" d="M905.9,3584.7c1.6-0.7,3.2-1,4.9-1.1c4.3,0,6.1,1.8,6.1,6v1.8c0,1.4,0,2.5,0.1,3.6
			c0,1.1,0.1,2.1,0.2,3.2h-3.3c-0.1-0.7-0.2-1.4-0.2-2.1h-0.1c-0.9,1.5-2.6,2.5-4.4,2.5c-2.5,0-5-1.5-5-4.2
			c-0.1-1.7,0.9-3.3,2.4-4.1c1.5-0.6,3.1-0.9,4.8-0.8h2c0-2.3-1-3.1-3.2-3.1c-1.6,0-3.1,0.6-4.4,1.5L905.9,3584.7z M910.2,3595.8
			c1,0,2-0.4,2.6-1.3c0.6-0.9,0.8-1.9,0.8-2.9H912c-1.7,0-4.1,0.3-4.1,2.5C907.8,3595.2,908.9,3595.8,910.2,3595.8"/>
		<path id="Path_8436" class="st1" d="M919,3583.9h4l3.5,10.3h0.1l3.4-10.3h3.7l-5.2,14.2h-4.2L919,3583.9z"/>
		<path id="Path_8437" class="st1" d="M936,3577.8h3.7v3.5H936V3577.8z M936,3583.9h3.7v14.2H936V3583.9z"/>
		<path id="Path_8438" class="st1" d="M943.5,3583.9h3.5v1.9h0.1c1.1-1.5,2.8-2.4,4.7-2.3c3.4,0,4.8,2.4,4.8,5.6v9h-3.7v-7.6
			c0-1.7,0-4.1-2.4-4.1c-2.7,0-3.3,2.9-3.3,4.7v6.9h-3.7L943.5,3583.9z"/>
		<path id="Path_8439" class="st1" d="M973.4,3583.9v12.8c0,3.9-1.5,7.5-7.5,7.5c-1.7,0-3.4-0.3-4.9-1l0.3-3.1
			c1.3,0.7,2.7,1.1,4.1,1.2c4.1,0,4.3-3.1,4.3-5.5h-0.1c-1,1.5-2.6,2.3-4.4,2.3c-4.2,0-5.8-3.4-5.8-7.2c0-3.4,1.8-7.4,6-7.4
			c1.8-0.1,3.4,0.8,4.4,2.3h0.1v-1.9L973.4,3583.9z M969.7,3590.9c0-2.4-0.9-4.4-3.1-4.4c-2.5,0-3.3,2.3-3.3,4.5
			c0,1.9,1,4.3,3.1,4.3C968.8,3595.3,969.7,3593.2,969.7,3590.9"/>
		<path id="Path_8440" class="st1" d="M985.6,3586.9c-1.1-0.4-2.2-0.6-3.3-0.6c-1,0-2.2,0.4-2.2,1.6c0,2.3,6.4,0.8,6.4,6
			c0,3.3-2.9,4.6-6,4.6c-1.4,0-2.8-0.2-4.2-0.6l0.2-3c1.1,0.6,2.4,0.9,3.6,0.9c0.9,0,2.4-0.4,2.4-1.7c0-2.8-6.4-0.9-6.4-6
			c0-3.1,2.7-4.4,5.6-4.4c1.4,0,2.7,0.2,4,0.5L985.6,3586.9z"/>
		<path id="Path_8441" class="st1" d="M997.1,3578.9h4.9c4.2,0,8,1.2,8,5.8c0,4.5-3.3,6.1-7.4,6.1h-1.6v7.3h-3.9L997.1,3578.9z
			 M1001,3587.8h1.4c1.9,0,3.7-0.6,3.7-2.9c0-2.2-1.7-3-3.7-3h-1.4V3587.8z"/>
		<rect id="Rectangle_2256" x="1012.5" y="3577.5" class="st1" width="3.7" height="20.7"/>
		<path id="Path_8442" class="st1" d="M1020.7,3584.7c1.6-0.7,3.2-1,4.9-1.1c4.3,0,6.1,1.8,6.1,6v1.8c0,1.4,0,2.5,0.1,3.6
			c0,1.1,0.1,2.1,0.2,3.2h-3.3c-0.1-0.7-0.2-1.4-0.2-2.1h-0.1c-0.9,1.5-2.6,2.5-4.4,2.5c-2.5,0-5-1.5-5-4.2
			c-0.1-1.7,0.9-3.3,2.4-4.1c1.5-0.6,3.1-0.9,4.8-0.8h2c0-2.3-1-3.1-3.2-3.1c-1.6,0-3.1,0.6-4.4,1.5L1020.7,3584.7z M1025.1,3595.8
			c1,0,2-0.4,2.6-1.3c0.6-0.9,0.8-1.9,0.8-2.9h-1.6c-1.7,0-4.1,0.3-4.1,2.5C1022.7,3595.2,1023.7,3595.8,1025.1,3595.8"/>
		<path id="Path_8443" class="st1" d="M1035.4,3583.9h3.5v1.9h0.1c1.1-1.5,2.8-2.4,4.7-2.3c3.4,0,4.8,2.4,4.8,5.6v9h-3.7v-7.6
			c0-1.7,0-4.1-2.4-4.1c-2.7,0-3.3,2.9-3.3,4.7v6.9h-3.7L1035.4,3583.9z"/>
	</g>
	<g id="Group_16277">
		<g class="st2">
			<path class="st1" d="M911.5,3568h-3.8c-0.4,0-0.8-0.1-1-0.3c-0.3-0.2-0.5-0.5-0.6-0.8l-1.6-4.6h-9.5l-1.6,4.6
				c-0.1,0.3-0.3,0.5-0.6,0.8c-0.3,0.2-0.6,0.3-1,0.3h-3.9l9.4-23.9h5.1L911.5,3568z M903.1,3558.9l-2.6-7.3
				c-0.2-0.4-0.3-0.8-0.5-1.4c-0.2-0.5-0.3-1.1-0.5-1.7c-0.2,0.6-0.3,1.2-0.5,1.7s-0.3,1-0.5,1.4l-2.6,7.3H903.1z"/>
			<path class="st1" d="M926.6,3548.6c-0.2,0.3-0.3,0.4-0.5,0.6c-0.2,0.1-0.4,0.2-0.6,0.2c-0.2,0-0.5-0.1-0.8-0.3
				c-0.3-0.2-0.6-0.4-1-0.6c-0.4-0.2-0.8-0.4-1.3-0.6c-0.5-0.2-1.1-0.3-1.7-0.3c-1.1,0-2,0.3-2.6,0.8c-0.6,0.5-0.9,1.2-0.9,2
				c0,0.5,0.2,1,0.5,1.3c0.3,0.3,0.7,0.6,1.2,0.9c0.5,0.3,1.1,0.5,1.7,0.7s1.3,0.4,2,0.7c0.7,0.2,1.3,0.5,2,0.8
				c0.6,0.3,1.2,0.7,1.7,1.2s0.9,1.1,1.2,1.8c0.3,0.7,0.5,1.5,0.5,2.5c0,1.1-0.2,2.1-0.6,3.1c-0.4,1-0.9,1.8-1.6,2.5
				c-0.7,0.7-1.6,1.3-2.6,1.7c-1.1,0.4-2.2,0.6-3.6,0.6c-0.8,0-1.5-0.1-2.3-0.2c-0.8-0.2-1.5-0.4-2.2-0.6c-0.7-0.3-1.4-0.6-2-1
				c-0.6-0.4-1.2-0.8-1.6-1.3l1.5-2.3c0.1-0.2,0.3-0.3,0.5-0.4c0.2-0.1,0.4-0.2,0.6-0.2c0.3,0,0.6,0.1,0.9,0.3s0.7,0.5,1.1,0.7
				c0.4,0.3,0.9,0.5,1.5,0.7c0.6,0.2,1.2,0.3,2,0.3c1.2,0,2-0.3,2.7-0.8c0.6-0.5,0.9-1.3,0.9-2.4c0-0.6-0.2-1.1-0.5-1.5
				s-0.7-0.7-1.2-0.9c-0.5-0.3-1.1-0.5-1.7-0.7c-0.6-0.2-1.3-0.4-2-0.6c-0.7-0.2-1.3-0.5-2-0.8c-0.6-0.3-1.2-0.7-1.7-1.2
				c-0.5-0.5-0.9-1.1-1.2-1.9s-0.5-1.7-0.5-2.8c0-0.9,0.2-1.8,0.5-2.6c0.4-0.8,0.9-1.6,1.6-2.2s1.5-1.2,2.5-1.6
				c1-0.4,2.1-0.6,3.4-0.6c1.4,0,2.8,0.2,4,0.7c1.2,0.4,2.3,1.1,3.1,1.9L926.6,3548.6z"/>
			<path class="st1" d="M944.8,3548.6c-0.2,0.3-0.3,0.4-0.5,0.6c-0.2,0.1-0.4,0.2-0.6,0.2c-0.2,0-0.5-0.1-0.8-0.3
				c-0.3-0.2-0.6-0.4-1-0.6c-0.4-0.2-0.8-0.4-1.3-0.6c-0.5-0.2-1.1-0.3-1.7-0.3c-1.1,0-2,0.3-2.6,0.8c-0.6,0.5-0.9,1.2-0.9,2
				c0,0.5,0.2,1,0.5,1.3c0.3,0.3,0.7,0.6,1.2,0.9c0.5,0.3,1.1,0.5,1.7,0.7s1.3,0.4,2,0.7c0.7,0.2,1.3,0.5,2,0.8
				c0.6,0.3,1.2,0.7,1.7,1.2s0.9,1.1,1.2,1.8c0.3,0.7,0.5,1.5,0.5,2.5c0,1.1-0.2,2.1-0.6,3.1c-0.4,1-0.9,1.8-1.6,2.5
				c-0.7,0.7-1.6,1.3-2.6,1.7c-1.1,0.4-2.2,0.6-3.6,0.6c-0.8,0-1.5-0.1-2.3-0.2c-0.8-0.2-1.5-0.4-2.2-0.6c-0.7-0.3-1.4-0.6-2-1
				c-0.6-0.4-1.2-0.8-1.6-1.3l1.5-2.3c0.1-0.2,0.3-0.3,0.5-0.4c0.2-0.1,0.4-0.2,0.6-0.2c0.3,0,0.6,0.1,0.9,0.3s0.7,0.5,1.1,0.7
				c0.4,0.3,0.9,0.5,1.5,0.7c0.6,0.2,1.2,0.3,2,0.3c1.2,0,2-0.3,2.7-0.8c0.6-0.5,0.9-1.3,0.9-2.4c0-0.6-0.2-1.1-0.5-1.5
				s-0.7-0.7-1.2-0.9c-0.5-0.3-1.1-0.5-1.7-0.7c-0.6-0.2-1.3-0.4-2-0.6c-0.7-0.2-1.3-0.5-2-0.8c-0.6-0.3-1.2-0.7-1.7-1.2
				c-0.5-0.5-0.9-1.1-1.2-1.9s-0.5-1.7-0.5-2.8c0-0.9,0.2-1.8,0.5-2.6c0.4-0.8,0.9-1.6,1.6-2.2s1.5-1.2,2.5-1.6
				c1-0.4,2.1-0.6,3.4-0.6c1.4,0,2.8,0.2,4,0.7c1.2,0.4,2.3,1.1,3.1,1.9L944.8,3548.6z"/>
			<path class="st1" d="M992.6,3568h-4.5c-0.8,0-1.4-0.3-1.8-1l-4.6-7.3c-0.2-0.3-0.4-0.5-0.6-0.6c-0.2-0.1-0.6-0.2-1-0.2h-1.7v9.1
				h-5v-23.9h7.5c1.7,0,3.1,0.2,4.3,0.5c1.2,0.3,2.2,0.8,2.9,1.4c0.8,0.6,1.3,1.3,1.7,2.2c0.4,0.9,0.5,1.8,0.5,2.8
				c0,0.8-0.1,1.5-0.3,2.3c-0.2,0.7-0.6,1.4-1,1.9c-0.4,0.6-1,1.1-1.6,1.6s-1.3,0.8-2.1,1.1c0.3,0.2,0.6,0.4,0.9,0.6
				c0.3,0.2,0.5,0.5,0.7,0.9L992.6,3568z M981,3555.4c0.8,0,1.5-0.1,2.1-0.3c0.6-0.2,1.1-0.5,1.4-0.8c0.4-0.4,0.6-0.8,0.8-1.3
				c0.2-0.5,0.3-1,0.3-1.6c0-1.1-0.4-2-1.1-2.6c-0.8-0.6-1.9-0.9-3.4-0.9h-2.6v7.6H981z"/>
			<path class="st1" d="M1000,3547.9v6.2h8v3.7h-8v6.3h10.3v3.9H995v-23.9h15.2v3.9H1000z"/>
			<path class="st1" d="M1035.4,3556c0,1.7-0.3,3.4-0.9,4.8c-0.6,1.5-1.4,2.7-2.5,3.8c-1.1,1.1-2.4,1.9-3.9,2.5
				c-1.5,0.6-3.2,0.9-5,0.9h-9.2v-23.9h9.2c1.8,0,3.5,0.3,5,0.9c1.5,0.6,2.8,1.4,3.9,2.5s1.9,2.3,2.5,3.8
				C1035.1,3552.7,1035.4,3554.3,1035.4,3556z M1030.3,3556c0-1.3-0.2-2.4-0.5-3.4s-0.8-1.8-1.4-2.5c-0.6-0.7-1.4-1.2-2.3-1.6
				s-1.9-0.6-3-0.6h-4.2v16.2h4.2c1.1,0,2.1-0.2,3-0.6c0.9-0.4,1.6-0.9,2.3-1.6c0.6-0.7,1.1-1.5,1.4-2.5S1030.3,3557.3,1030.3,3556z
				"/>
		</g>
		<g id="Group_16276" transform="translate(950 3543.857)">
			<g id="Group_16211">
				<g>
					<defs>
						<path id="SVGID_1_" d="M0.1,0C0,0,0,0.1,0,0.1v12.6c-0.1,4.6,2.2,8.8,6,11.3c0.1,0,0.1,0,0.2,0c0,0,0,0,0,0l1.2-3l-0.5,2.3
							c0.6,0.3,1,0.8,1.4,1.3c0,0,0.4-0.6,0.7-0.7c0.2-0.1,0.3-0.1,0.5,0C9.8,24,10,24.3,10,24.7c0.2-0.1,0.5-0.2,0.7-0.1
							c0.3,0.1,0.5,0.4,0.5,0.8c0.3-0.2,0.6-0.1,0.8,0.1c0.2,0.2,0.2,0.5,0.2,0.8c0,0.1-0.1,0.3-0.1,0.4c0.1,0.2,0.3,0.2,0.5,0.2
							c0.1-0.1,0.2-0.2,0.2-0.3c0-0.1,0-0.2-0.1-0.3L11.9,25l-0.1-0.1c0,0,0-0.1,0-0.1c0,0,0.1,0,0.1,0c0,0,0.9,1.3,1,1.5
							c0.1,0.2,0.3,0.3,0.5,0.2c0.2,0,0.3-0.1,0.5-0.2c0.1-0.1,0.1-0.3,0.1-0.5c-0.1-0.2-1.1-1.8-1.1-1.8c0,0,0-0.1,0-0.1
							c0,0,0.1-0.1,0.2-0.1c0.1,0.1,0.1,0.2,0.2,0.2c0.1,0.1,1,1.7,1,1.7s0.1,0.2,0.5,0.1c0.2,0,0.3-0.2,0.4-0.3
							c0.1-0.1,0.1-0.3,0-0.4c-0.1-0.2-1.3-2-1.3-2c0,0,0-0.1,0-0.1c0,0,0.1-0.1,0.2,0c0.1,0.1,0.1,0.1,0.2,0.2l1.1,1.7
							c0.1,0.1,0.3,0.2,0.4,0.1c0.2-0.1,0.3-0.3,0.4-0.4c0.1-0.2,0-0.4-0.1-0.5c0-0.1-1-1.9-1-1.9c-0.1-0.2-0.2-0.3-0.3-0.4
							c-0.6-0.4-1.3-0.8-2-1.2c-0.4-0.1-0.9-0.2-1.4-0.2c-0.1,0-0.2,0-0.2,0.1c-0.2,0.3-0.5,0.6-0.8,0.9c-0.4,0.3-0.8,0.3-1.2,0.1
							c-0.2-0.1-0.3-0.3-0.4-0.4c0-0.1,0-0.2,0-0.2c0.3-0.6,0.6-1.2,0.9-1.9c-0.4,0.1-0.8,0.2-1.2,0.3c-0.1,0-0.2,0-0.3,0l0.3-0.7
							c0-0.1,0-0.1,0-0.2c-1.7-1.3-2.8-3.4-2.7-5.6V0.1c0-0.1,0-0.1-0.1-0.1H0.1z"/>
					</defs>
					<clipPath id="SVGID_00000016784949499876140550000008927973989248648862_">
						<use xlink:href="#SVGID_1_"  style="overflow:visible;"/>
					</clipPath>
					<g id="Group_16210" style="clip-path:url(#SVGID_00000016784949499876140550000008927973989248648862_);">
						<path id="Path_38609" class="st1" d="M-9.6,5.3L13-7.2l12.8,28.8L3.2,34.2L-9.6,5.3z"/>
					</g>
				</g>
			</g>
			<g id="Group_16213" transform="translate(8.957 24.77)">
				<g>
					<defs>
						<path id="SVGID_00000116223047347392638740000006574551429919095199_" d="M0.7,0.3L0.1,1C-0.1,1.3,0,1.7,0.2,1.9c0,0,0,0,0,0
							L0.4,2c0.3,0.2,0.7,0.2,1-0.1c0.1-0.2,0.5-0.8,0.5-0.8c0.2-0.3,0.2-0.7-0.1-1L1.6,0.1C1.5,0,1.4,0,1.2,0C1,0,0.8,0.1,0.7,0.3"
							/>
					</defs>
					<clipPath id="SVGID_00000133521112438978116730000014893074162199117730_">
						<use xlink:href="#SVGID_00000116223047347392638740000006574551429919095199_"  style="overflow:visible;"/>
					</clipPath>
					
						<g id="Group_16212" transform="translate(0 0)" style="clip-path:url(#SVGID_00000133521112438978116730000014893074162199117730_);">
						
							<rect id="Rectangle_15185" x="-0.5" y="-0.4" transform="matrix(0.5193 -0.8546 0.8546 0.5193 -0.4911 1.3948)" class="st0" width="3.1" height="3"/>
					</g>
				</g>
			</g>
			<g id="Group_16215" transform="translate(7.566 23.932)">
				<g>
					<defs>
						<path id="SVGID_00000148636120995678256210000007868776939981385111_" d="M0.7,0.3c0,0-0.4,0.5-0.5,0.7
							C-0.1,1.3,0,1.8,0.3,2.1l0.1,0.1c0.3,0.2,0.8,0.2,1-0.1c0,0,0,0,0,0c0.2-0.3,0.4-0.5,0.6-0.8c0.2-0.3,0.1-0.7-0.1-1L1.7,0.1
							C1.4-0.1,0.9,0,0.7,0.3C0.7,0.3,0.7,0.3,0.7,0.3"/>
					</defs>
					<clipPath id="SVGID_00000128447142077858539030000004669038953670932149_">
						<use xlink:href="#SVGID_00000148636120995678256210000007868776939981385111_"  style="overflow:visible;"/>
					</clipPath>
					
						<g id="Group_16214" transform="translate(0 0)" style="clip-path:url(#SVGID_00000128447142077858539030000004669038953670932149_);">
						
							<rect id="Rectangle_15186" x="-0.6" y="-0.4" transform="matrix(0.5193 -0.8546 0.8546 0.5193 -0.5352 1.4268)" class="st0" width="3.2" height="3.1"/>
					</g>
				</g>
			</g>
			<g id="Group_16217" transform="translate(6.219 23.674)">
				<g>
					<defs>
						<path id="SVGID_00000062167948908119184450000010972214229722467513_" d="M0,0.6C0,0.9,0,1.1,0.1,1.3c0.2,0.2,0.4,0.3,0.6,0.2
							c0.3,0,0.6-0.2,0.7-0.5C1.2,0.7,0.9,0.3,0.5,0C0.3,0.2,0.1,0.4,0,0.6"/>
					</defs>
					<clipPath id="SVGID_00000024702941547859842570000017961805798992768684_">
						<use xlink:href="#SVGID_00000062167948908119184450000010972214229722467513_"  style="overflow:visible;"/>
					</clipPath>
					
						<g id="Group_16216" transform="translate(0 0)" style="clip-path:url(#SVGID_00000024702941547859842570000017961805798992768684_);">
						
							<rect id="Rectangle_15187" x="-0.3" y="-0.3" transform="matrix(0.5193 -0.8546 0.8546 0.5193 -0.3366 0.9951)" class="st0" width="2.1" height="2.1"/>
					</g>
				</g>
			</g>
			<g id="Group_16219" transform="translate(10.399 25.648)">
				<g>
					<defs>
						<path id="SVGID_00000014597210055626520560000012510897538704565637_" d="M0.5,0.3C0.4,0.4,0.1,0.8,0.1,0.8
							C-0.1,1,0,1.5,0.3,1.7c0,0,0,0,0,0l0.1,0c0.1,0,0.2,0.1,0.3,0.1h0c0.2,0,0.5-0.1,0.7-0.3c0.1-0.1,0.2-0.3,0.3-0.4
							c0.1-0.3,0.1-0.6,0-0.8L1.4,0.2C1.3,0.1,1.2,0,1,0C0.8,0,0.6,0.1,0.5,0.3"/>
					</defs>
					<clipPath id="SVGID_00000018917721942018956720000017895509727344436635_">
						<use xlink:href="#SVGID_00000014597210055626520560000012510897538704565637_"  style="overflow:visible;"/>
					</clipPath>
					
						<g id="Group_16218" transform="translate(0 0)" style="clip-path:url(#SVGID_00000018917721942018956720000017895509727344436635_);">
						
							<rect id="Rectangle_15188" x="-0.4" y="-0.3" transform="matrix(0.5193 -0.8546 0.8546 0.5193 -0.3865 1.1081)" class="st0" width="2.4" height="2.4"/>
					</g>
				</g>
			</g>
			<g id="Group_16221" transform="translate(6.097)">
				<g>
					<defs>
						<path id="SVGID_00000123413598318038002030000007574844145628086205_" d="M9,0C8.9,0,8.9,0.1,8.9,0.1v12.8
							c0,2.2-1,4.3-2.7,5.7c0,0-0.1,0.1,0,0.2L7,21L6,19.4l-0.5,0c-0.7-0.2-1.3-0.5-1.8-1c0,0-0.1-0.1-0.2-0.1c0,0-1.6,0.1-2.4,0.1
							c-0.1,0-0.1,0-0.2,0.1C0.8,19.5,0.4,20.3,0,21c0,0.1,0,0.1,0,0.2c0.2,0.3,0.7,0.4,1,0.2c0,0,0,0,0,0c0.6-0.4,1-0.9,1.1-1.6
							c0.1,0.1,0.1,0.3,0.1,0.4c0.6,0.1,1.1,0.1,1.7,0.3c0.9,0.5,1.7,1,2.5,1.7c0.2,0,0.3,0,0.5,0c-0.1,0.1-0.2,0.2-0.4,0.2
							c0.2,0.6,0.5,1.2,0.8,1.7L8,23.6l0.3,0.7c0,0.1,0.1,0.1,0.1,0.1c0,0,0,0,0,0c3.8-2.5,6.1-6.9,6-11.5V0.1c0-0.1,0-0.1-0.1-0.1
							H9z"/>
					</defs>
					<clipPath id="SVGID_00000116946107246733502610000017410811823491445380_">
						<use xlink:href="#SVGID_00000123413598318038002030000007574844145628086205_"  style="overflow:visible;"/>
					</clipPath>
					<g id="Group_16220" style="clip-path:url(#SVGID_00000116946107246733502610000017410811823491445380_);">
						<path id="Path_38610" class="st0" d="M-9.6,17.8l13.5-25L24,6.6l-13.5,25L-9.6,17.8z"/>
					</g>
				</g>
			</g>
		</g>
	</g>
</g>
</svg>
