<svg xmlns="http://www.w3.org/2000/svg" width="161" height="90" viewBox="0 0 161 90"><defs><clipPath id="d5e5a"><path d="M62.159 32.703c-.064 0-.116.058-.116.13v12.602c0 4.864 2.418 9.11 5.985 11.321.06.037.135.008.163-.061l1.21-3.05-.524 2.312c.486.298 1.04.733 1.411 1.32 0 0 .424-.627.718-.737 0 0 .232-.1.5 0 0 0 .586.299.533.878 0 0 .395-.252.737-.103.198.085.45.277.455.764 0 0 .467-.274.792.12.181.221.222.554.207.799-.007.102-.06.28-.109.379 0 0 .169.279.467.168 0 0 .199-.1.235-.282 0 0 .039-.142-.07-.303l-.788-1.297-.05-.092s-.026-.09.033-.118c.031-.015.095-.016.13.027 0 0 .851 1.338.991 1.54.14.2.28.252.457.229.18-.024.414-.16.464-.222.057-.07.124-.229.052-.477-.072-.248-1.072-1.765-1.072-1.765s-.044-.067-.039-.133c.004-.044.102-.143.175-.058.07.083.107.144.174.245.066.1 1.036 1.658 1.036 1.658s.112.222.491.1c.3-.096.383-.236.43-.32a.496.496 0 0 0-.008-.418c-.091-.191-1.313-2.035-1.313-2.035s-.012-.058.009-.099c.026-.048.113-.056.191.03.097.105.172.213.172.213l1.12 1.692s.178.222.42.067c0 0 .273-.207.363-.429.09-.222-.023-.422-.071-.536-.048-.115-.967-1.895-.967-1.895s-.121-.255-.332-.362c-.21-.108-1.39-.958-2.023-1.21 0 0-.636-.202-1.371-.249 0 0-.146-.043-.223.081 0 0-.391.582-.821.907-.234.177-.843.38-1.222.14-.326-.208-.437-.436-.437-.436s-.064-.117 0-.228c.062-.109.769-1.454.88-1.895 0 0-.648.222-1.248.304-.053.007-.153.01-.27-.001l.272-.685a.138.138 0 0 0-.042-.16c-1.64-1.21-2.726-3.285-2.726-5.638V32.833c0-.072-.052-.13-.116-.13z"/></clipPath><clipPath id="d5e5b"><path d="M71.663 57.737l-.515.735c-.229.306-.193.709.113.937l.137.104a.705.705 0 0 0 .967-.142c.139-.175.476-.756.476-.756a.693.693 0 0 0-.141-.968l-.07-.052a.662.662 0 0 0-.399-.122c-.226 0-.457.094-.568.264"/></clipPath><clipPath id="d5e5c"><path d="M70.31 56.923s-.412.492-.544.66c-.244.31-.202.908.114 1.143l.071.053a.712.712 0 0 0 1-.146c.146-.2.475-.578.577-.803.123-.274.17-.764-.146-1l-.072-.053a.713.713 0 0 0-.999.146"/></clipPath><clipPath id="d5e5d"><path d="M68.3 57.002c-.06.248-.062.562.097.72.248.25.473.22.64.21.489-.03.682-.463.682-.463-.4-.716-.973-1.092-.973-1.092-.198.171-.392.404-.446.625"/></clipPath><clipPath id="d5e5e"><path d="M72.96 58.624c-.104.116-.39.487-.39.487a.653.653 0 0 0 .135.914l.066.049c.08.05.179.072.283.073h.005a.974.974 0 0 0 .654-.277c.087-.088.208-.295.253-.42a.962.962 0 0 0-.034-.826l-.053-.077a.498.498 0 0 0-.39-.195c-.19 0-.382.109-.529.272"/></clipPath><clipPath id="d5e5f"><path d="M77.112 32.703c-.064 0-.116.059-.116.131v12.754c0 2.381-1.085 4.48-2.726 5.706a.14.14 0 0 0-.042.162l.87 2.22-.937-1.542-.497.046s-.742-.129-1.754-.957c0 0-.104-.072-.154-.072 0 0-1.621.102-2.368.136 0 0-.115-.02-.177.102 0 0-.766 1.913-1.055 2.341 0 0-.036.054 0 .177.036.122.41.516 1.011.231 0 0 .805-.418 1.106-1.584 0 0 .077.144.058.396 0 0 1.39.148 1.666.27 0 0 1.78.943 2.514 1.677 0 0 .268.056.503-.005 0 0-.096.217-.416.23 0 0 .169.507.804 1.714l.734-.514.26.66c.027.071.103.1.162.063 3.567-2.238 5.985-6.535 5.985-11.457V32.834c0-.072-.052-.13-.116-.13z"/></clipPath></defs><g><g><g><path fill="#ed3237" d="M28.476 21.343c-3.018 0-4.253-2.508-4.253-5.307 0-2.834 1.235-5.344 4.253-5.344 3.015 0 4.252 2.51 4.252 5.344 0 2.799-1.237 5.307-4.252 5.307m0 4.58c6.251 0 11.01-3.637 11.01-9.887 0-6.288-4.759-9.924-11.01-9.924-6.25 0-11.014 3.636-11.014 9.924 0 6.25 4.763 9.887 11.014 9.887"/></g><g><path fill="#ed3237" d="M38.89 11.128h3.742v7.709c0 4.505 1.418 7.085 7.27 7.085 1.634 0 2.87-.218 4.107-.363l-.22-4.253c-.653.11-1.343.256-1.997.256-2.073 0-2.618-1.167-2.618-3.454v-6.98h4.58V6.55h-4.58L49.172 0 42.74 2.295V6.55h-3.85z"/></g><g><path fill="#ed3237" d="M76.649 25.485h6.543v-9.377h.072l5.233 9.377h7.923L89.3 15.235l6.578-8.685h-7.162l-5.451 7.96h-.072V.024L76.65 2.289z"/></g><g><path fill="#ed3237" d="M.043 25.485h6.542v-9.377h.073l5.233 9.377h7.925l-7.125-10.25 6.58-8.685h-7.16l-5.453 7.96h-.073V.024L.043 2.184z"/></g><g><path fill="#ed3237" d="M74.326 25.577c-.295-1.51-.368-3.015-.368-4.524v-7.138c0-5.849-4.231-7.945-9.123-7.945-2.834 0-5.296.404-7.652 1.363l.112 4.485c1.838-1.03 3.973-1.436 6.107-1.436 2.39 0 4.34.701 4.377 3.311a19.554 19.554 0 0 0-3.09-.258c-3.533 0-9.897.7-9.897 6.55 0 4.155 3.385 6.032 7.177 6.032 2.72 0 4.558-1.066 6.067-3.455h.073c0 .991.11 1.983.147 3.015zm-13.352-6.07c0-1.84 1.765-2.54 4.01-2.54.993 0 1.948.074 2.795.112 0 2.245-1.583 4.524-4.084 4.524-1.545 0-2.721-.774-2.721-2.096"/></g><g><g><path fill="#036" d="M12.61 67.261a9.971 9.971 0 0 0-3.912-.827c-1.325 0-3.033.579-3.033 2.675 0 3.333 8.435 1.928 8.435 8.378 0 4.217-3.336 5.813-7.223 5.813-2.094 0-3.031-.274-4.934-.742l.36-3.473c1.322.716 2.838 1.185 4.355 1.185 1.46 0 3.417-.745 3.417-2.481 0-3.666-8.434-2.15-8.434-8.516 0-4.298 3.336-5.87 6.725-5.87 1.654 0 3.196.22 4.603.69z"/></g><g><path fill="#036" d="M17.903 69.52c1.433-.66 3.363-1.074 4.932-1.074 4.328 0 6.119 1.791 6.119 5.98v1.819c0 1.434.028 2.508.055 3.556.028 1.076.082 2.068.166 3.17h-3.253c-.138-.744-.138-1.68-.166-2.124h-.054c-.855 1.572-2.7 2.453-4.382 2.453-2.508 0-4.961-1.514-4.961-4.216 0-2.122 1.019-3.363 2.426-4.05 1.405-.69 3.223-.827 4.767-.827h2.04c0-2.288-1.02-3.06-3.198-3.06-1.57 0-3.14.607-4.381 1.544zM22.23 80.6c1.13 0 2.012-.495 2.59-1.267.607-.8.772-1.818.772-2.922h-1.6c-1.653 0-4.106.277-4.106 2.454 0 1.213 1.021 1.736 2.344 1.736"/></g><g><path fill="#036" d="M31.02 68.777h3.97l3.527 10.335h.055l3.417-10.335h3.694L40.447 82.97h-4.162z"/></g><g><path fill="#036" d="M48 68.777h3.693v14.194H48zm0-6.12h3.693v3.527H48z"/></g><g><path fill="#036" d="M55.578 68.777h3.5v1.93h.054c1.158-1.626 2.73-2.261 4.66-2.261 3.362 0 4.821 2.37 4.821 5.568v8.957H64.92v-7.58c0-1.735-.028-4.079-2.396-4.079-2.675 0-3.253 2.894-3.253 4.713v6.946h-3.693z"/></g><g><path fill="#036" d="M85.453 68.776v12.816c0 3.858-1.544 7.497-7.496 7.497-1.462 0-3.143-.221-4.906-.964l.303-3.143c1.129.605 2.976 1.24 4.134 1.24 4.078 0 4.272-3.058 4.272-5.511h-.055c-.69 1.213-2.343 2.259-4.41 2.259-4.19 0-5.788-3.362-5.788-7.166 0-3.416 1.765-7.36 6.009-7.36 1.873 0 3.335.636 4.354 2.262h.054v-1.93zm-3.693 6.946c0-2.426-.936-4.41-3.086-4.41-2.508 0-3.308 2.315-3.308 4.492 0 1.93 1.02 4.3 3.141 4.3 2.317 0 3.253-2.011 3.253-4.382"/></g><g><path fill="#036" d="M97.69 71.753c-1.131-.385-1.958-.605-3.308-.605-.991 0-2.177.358-2.177 1.57 0 2.26 6.421.827 6.421 5.952 0 3.31-2.949 4.632-5.953 4.632-1.404 0-2.838-.249-4.189-.607l.221-3.032c1.157.578 2.37.937 3.638.937.937 0 2.425-.359 2.425-1.736 0-2.784-6.42-.882-6.42-6.007 0-3.06 2.671-4.41 5.566-4.41 1.736 0 2.866.275 4.024.524z"/></g><g><path fill="#036" d="M113.013 66.764h1.35c1.985 0 3.666.773 3.666 3.004 0 2.232-1.736 2.867-3.665 2.867h-1.35zm-3.858 16.207h3.858v-7.304h1.627c4.134 0 7.413-1.627 7.413-6.118 0-4.602-3.83-5.815-8.019-5.815h-4.879z"/></g><g><path fill="#036" d="M124.562 82.97V62.303h3.694V82.97z"/></g><g><path fill="#036" d="M132.775 69.52c1.432-.66 3.363-1.074 4.932-1.074 4.328 0 6.119 1.791 6.119 5.98v1.819c0 1.434.028 2.508.055 3.556.028 1.076.082 2.068.166 3.17h-3.252c-.14-.744-.14-1.68-.167-2.124h-.054c-.855 1.572-2.7 2.453-4.381 2.453-2.509 0-4.962-1.514-4.962-4.216 0-2.122 1.019-3.363 2.426-4.05 1.405-.69 3.223-.827 4.767-.827h2.04c0-2.288-1.019-3.06-3.198-3.06-1.57 0-3.14.607-4.381 1.544zm4.327 11.08c1.13 0 2.012-.495 2.59-1.267.606-.8.772-1.818.772-2.922h-1.599c-1.654 0-4.107.277-4.107 2.454 0 1.213 1.021 1.736 2.344 1.736"/></g><g><path fill="#036" d="M147.464 68.777h3.5v1.93h.054c1.158-1.626 2.73-2.261 4.66-2.261 3.362 0 4.822 2.37 4.822 5.568v8.957h-3.694v-7.58c0-1.735-.027-4.079-2.396-4.079-2.674 0-3.253 2.894-3.253 4.713v6.946h-3.693z"/></g></g><g><g><g><text dominant-baseline="text-before-edge" style="line-height:26px;font-kerning:normal" fill="#036" font-family="'Lato','Lato-Black'" font-size="33" transform="translate(0 23)"><tspan>ASS RED</tspan></text></g></g><g><g><g><g><path fill="#036" d="M62.159 32.703c-.064 0-.116.058-.116.13v12.602c0 4.864 2.418 9.11 5.985 11.321.06.037.135.008.163-.061l1.21-3.05-.524 2.312c.486.298 1.04.733 1.411 1.32 0 0 .424-.627.718-.737 0 0 .232-.1.5 0 0 0 .586.299.533.878 0 0 .395-.252.737-.103.198.085.45.277.455.764 0 0 .467-.274.792.12.181.221.222.554.207.799-.007.102-.06.28-.109.379 0 0 .169.279.467.168 0 0 .199-.1.235-.282 0 0 .039-.142-.07-.303l-.788-1.297-.05-.092s-.026-.09.033-.118c.031-.015.095-.016.13.027 0 0 .851 1.338.991 1.54.14.2.28.252.457.229.18-.024.414-.16.464-.222.057-.07.124-.229.052-.477-.072-.248-1.072-1.765-1.072-1.765s-.044-.067-.039-.133c.004-.044.102-.143.175-.058.07.083.107.144.174.245.066.1 1.036 1.658 1.036 1.658s.112.222.491.1c.3-.096.383-.236.43-.32a.496.496 0 0 0-.008-.418c-.091-.191-1.313-2.035-1.313-2.035s-.012-.058.009-.099c.026-.048.113-.056.191.03.097.105.172.213.172.213l1.12 1.692s.178.222.42.067c0 0 .273-.207.363-.429.09-.222-.023-.422-.071-.536-.048-.115-.967-1.895-.967-1.895s-.121-.255-.332-.362c-.21-.108-1.39-.958-2.023-1.21 0 0-.636-.202-1.371-.249 0 0-.146-.043-.223.081 0 0-.391.582-.821.907-.234.177-.843.38-1.222.14-.326-.208-.437-.436-.437-.436s-.064-.117 0-.228c.062-.109.769-1.454.88-1.895 0 0-.648.222-1.248.304-.053.007-.153.01-.27-.001l.272-.685a.138.138 0 0 0-.042-.16c-1.64-1.21-2.726-3.285-2.726-5.638V32.833c0-.072-.052-.13-.116-.13z"/></g><g clip-path="url(#d5e5a)" transform="rotate(-26.446 70 46)"><path fill="#036" d="M57.884 30.992l25.881-1.162-1.325 31.537-25.88 1.162z"/></g></g></g><g><g><g><path fill="#ed3237" d="M71.663 57.737l-.515.735c-.229.306-.193.709.113.937l.137.104a.705.705 0 0 0 .967-.142c.139-.175.476-.756.476-.756a.693.693 0 0 0-.141-.968l-.07-.052a.662.662 0 0 0-.399-.122c-.226 0-.457.094-.568.264"/></g><g clip-path="url(#d5e5b)" transform="rotate(-58.713 72 58.5)"><path fill="#ed3237" d="M70.467 60.114V57.1h3.054v3.014z"/></g></g></g><g><g><g><path fill="#ed3237" d="M70.31 56.923s-.412.492-.544.66c-.244.31-.202.908.114 1.143l.071.053a.712.712 0 0 0 1-.146c.146-.2.475-.578.577-.803.123-.274.17-.764-.146-1l-.072-.053a.713.713 0 0 0-.999.146"/></g><g clip-path="url(#d5e5c)" transform="rotate(-58.713 70.5 57.5)"><path fill="#ed3237" d="M69.028 59.373v-3.095h3.163v3.095z"/></g></g></g><g><g><g><path fill="#ed3237" d="M68.3 57.002c-.06.248-.062.562.097.72.248.25.473.22.64.21.489-.03.682-.463.682-.463-.4-.716-.973-1.092-.973-1.092-.198.171-.392.404-.446.625"/></g><g clip-path="url(#d5e5d)" transform="rotate(-58.713 69 57)"><path fill="#ed3237" d="M67.913 58.221v-2.094h2.131v2.094z"/></g></g></g><g><g><g><path fill="#ed3237" d="M72.96 58.624c-.104.116-.39.487-.39.487a.653.653 0 0 0 .135.914l.066.049c.08.05.179.072.283.073h.005a.974.974 0 0 0 .654-.277c.087-.088.208-.295.253-.42a.962.962 0 0 0-.034-.826l-.053-.077a.498.498 0 0 0-.39-.195c-.19 0-.382.109-.529.272"/></g><g clip-path="url(#d5e5e)" transform="rotate(-58.713 73 59)"><path fill="#ed3237" d="M72.01 60.466v-2.433h2.447v2.433z"/></g></g></g><g><g><g><path fill="#ed3237" d="M77.112 32.703c-.064 0-.116.059-.116.131v12.754c0 2.381-1.085 4.48-2.726 5.706a.14.14 0 0 0-.042.162l.87 2.22-.937-1.542-.497.046s-.742-.129-1.754-.957c0 0-.104-.072-.154-.072 0 0-1.621.102-2.368.136 0 0-.115-.02-.177.102 0 0-.766 1.913-1.055 2.341 0 0-.036.054 0 .177.036.122.41.516 1.011.231 0 0 .805-.418 1.106-1.584 0 0 .077.144.058.396 0 0 1.39.148 1.666.27 0 0 1.78.943 2.514 1.677 0 0 .268.056.503-.005 0 0-.096.217-.416.23 0 0 .169.507.804 1.714l.734-.514.26.66c.027.071.103.1.162.063 3.567-2.238 5.985-6.535 5.985-11.457V32.834c0-.072-.052-.13-.116-.13z"/></g><g clip-path="url(#d5e5f)" transform="rotate(-58.713 75.5 45)"><path fill="#ed3237" d="M61.81 33.452l28.386-1.48-1.342 24.361-28.387 1.48z"/></g></g></g></g></g></g></g></svg>