<svg xmlns="http://www.w3.org/2000/svg" width="61" height="61" viewBox="0 0 61 61"><defs><clipPath id="6rc5a"><path fill="#fff" d="M0 30.5C0 13.655 13.655 0 30.5 0S61 13.655 61 30.5 47.345 61 30.5 61 0 47.345 0 30.5z"/></clipPath></defs><g><g><g><path fill="#404040" d="M49.263 17.127v4.956H43.42v-4.952c0-1.568 1.333-2.878 2.935-2.878h.018c1.606.016 2.898 1.297 2.89 2.869zM42.14 42.6c0 2.228-1.822 4.07-4.101 4.07h-.013c-2.29-.016-4.136-1.84-4.131-4.08v-3.02a.656.656 0 0 0-.64-.652H17.895l.165-22.022c0-1.456 1.23-2.644 2.744-2.644H43.35c-.73.783-1.212 1.774-1.212 2.88zm-25.736 4.07H16.4c-2.278 0-4.118-1.842-4.118-4.07v-2.43h20.332v2.42a5.243 5.243 0 0 0 1.582 3.762c.109.107.222.161.338.318zM46.374 13h-25.57c-2.22 0-4.025 1.75-4.025 3.893l-.165 22.026h-4.99c-.354 0-.624.306-.624.652v3.03c0 2.839 2.322 5.16 5.123 5.286v.037h21.533v-.041c.16.006.257.04.367.04h.016c2.988-.016 5.396-2.399 5.38-5.322V23.336h6.501c.354 0 .624-.313.624-.659v-5.561c.004-2.26-1.86-4.1-4.17-4.116z"/></g><g><path fill="#ed3237" d="M25.414 20.625l4.268-2.106 4.268 2.112v4.077c0 .944-.619 2.144-1.4 2.676l-2.875 1.967-2.865-1.966c-.78-.533-1.396-1.733-1.396-2.677zm.694 7.794l3.23 2.208c.21.146.489.146.7 0l3.22-2.207c1.118-.763 1.945-2.359 1.945-3.712v-4.467a.612.612 0 0 0-.334-.563L29.95 17.26a.615.615 0 0 0-.548 0l-4.908 2.413a.611.611 0 0 0-.333.562v4.474c0 1.353.828 2.949 1.946 3.711z"/></g><g><path fill="#ed3237" d="M28.629 25.654c.116.12.276.187.443.188h.002a.627.627 0 0 0 .442-.185l2.492-2.493a.627.627 0 1 0-.885-.887l-2.047 2.047-.819-.827a.627.627 0 1 0-.89.883z"/></g><g><path fill="#404040" d="M37.476 32.42H22.442a.626.626 0 0 0 0 1.252h15.034a.626.626 0 0 0 0-1.252z"/></g><g><path fill="#404040" d="M37.476 35.317H22.442a.626.626 0 0 0 0 1.253h15.034a.626.626 0 0 0 0-1.253z"/></g></g><g><path fill="none" stroke="#cecece" stroke-miterlimit="20" stroke-width="2" d="M0 30.5C0 13.655 13.655 0 30.5 0S61 13.655 61 30.5 47.345 61 30.5 61 0 47.345 0 30.5z" clip-path="url(&quot;#6rc5a&quot;)"/></g></g></svg>