<svg xmlns="http://www.w3.org/2000/svg" xmlns:xlink="http://www.w3.org/1999/xlink" width="61" height="61" viewBox="0 0 61 61">
  <defs>
    <clipPath id="clip-path">
      <rect id="Rectangle_2269" data-name="Rectangle 2269" width="37.031" height="36.965" fill="#404040"/>
    </clipPath>
  </defs>
  <g id="Group_16974" data-name="Group 16974" transform="translate(-138 -1304)">
    <g id="Group_8734" data-name="Group 8734" transform="translate(150 1316)">
      <g id="Group_8733" data-name="Group 8733" transform="translate(0)" clip-path="url(#clip-path)">
        <path id="Path_8484" data-name="Path 8484" d="M32.374,7.652c-.033.286-.064.572-.1.857-.08.656.108.91.756,1.113a8.147,8.147,0,0,1,1.316.506,2.37,2.37,0,0,1,1.282,3.12,8.263,8.263,0,0,1-.588,1.279.919.919,0,0,0,.258,1.308,8.659,8.659,0,0,1,1.189,1.191,2.261,2.261,0,0,1-.019,2.966,8.1,8.1,0,0,1-1.176,1.148.873.873,0,0,0-.26,1.265,5.148,5.148,0,0,1,.742,1.967,2.038,2.038,0,0,1-.819,2.043,7.888,7.888,0,0,1-1.82.88c-.786.283-.929.488-.855,1.325a5.61,5.61,0,0,1-.043,1.632A2.608,2.608,0,0,1,29.264,32.3c-.275-.016-.549-.049-.822-.088a.881.881,0,0,0-1.05.705,7.474,7.474,0,0,1-.559,1.456,2.4,2.4,0,0,1-3.041,1.2,8.584,8.584,0,0,1-1.326-.582.887.887,0,0,0-1.335.336,3.863,3.863,0,0,1-1.4,1.3,2.309,2.309,0,0,1-2.6-.116,8.127,8.127,0,0,1-1.293-1.247.929.929,0,0,0-1.373-.227,3.916,3.916,0,0,1-2.022.678A2.3,2.3,0,0,1,10.32,34.6,8.293,8.293,0,0,1,9.6,32.924a.917.917,0,0,0-1.089-.706A6.829,6.829,0,0,1,6.829,32.2a2.487,2.487,0,0,1-2.183-2.652,11.253,11.253,0,0,1,.084-1.213.832.832,0,0,0-.735-.977,6.348,6.348,0,0,1-1.262-.418,2.468,2.468,0,0,1-1.372-3.2,7.024,7.024,0,0,1,.519-1.182c.386-.723.335-1.013-.316-1.49a3.483,3.483,0,0,1-1.5-2A3.075,3.075,0,0,1,1.541,15.9c.682-.436.752-.741.353-1.455a4.716,4.716,0,0,1-.674-1.947,2.182,2.182,0,0,1,1.019-2.157,7.093,7.093,0,0,1,1.723-.715c.575-.171.8-.429.767-1.036a9.8,9.8,0,0,1-.02-1.64,2.377,2.377,0,0,1,2.237-2.2,9.632,9.632,0,0,1,1.565,0A.885.885,0,0,0,9.6,3.994a7.075,7.075,0,0,1,.466-1.244,2.552,2.552,0,0,1,3.275-1.336,6.4,6.4,0,0,1,1.166.552.931.931,0,0,0,1.314-.234A8.177,8.177,0,0,1,16.978.564a2.4,2.4,0,0,1,3.089,0,5.994,5.994,0,0,1,1.079,1.126.9.9,0,0,0,1.254.325A10.157,10.157,0,0,1,23.757,1.4a2.417,2.417,0,0,1,3.1,1.226,6.588,6.588,0,0,1,.526,1.345c.185.637.431.807,1.107.773a7.8,7.8,0,0,1,1.835.028,2.634,2.634,0,0,1,2.051,2.876M7.345,6.384c-.712-.032-1.02.272-.992.974a4.621,4.621,0,0,0,.053.468,2.972,2.972,0,0,1-2.3,3.581c-.163.048-.329.085-.493.129A.87.87,0,0,0,3.033,12.9a10.551,10.551,0,0,1,.52,1.054,2.625,2.625,0,0,1-.633,3.058,9.976,9.976,0,0,1-.8.7A.9.9,0,0,0,2.1,19.247a11.072,11.072,0,0,1,.981.905A2.457,2.457,0,0,1,3.6,22.879c-.167.424-.388.827-.6,1.234a.873.873,0,0,0,.586,1.313,9.117,9.117,0,0,1,1.153.379,2.5,2.5,0,0,1,1.623,2.1,10.4,10.4,0,0,1-.016,1.6c-.039.836.327,1.181,1.164,1.087a9.246,9.246,0,0,1,1.058-.065,2.448,2.448,0,0,1,2.588,1.813c.137.367.25.744.4,1.105a.865.865,0,0,0,1.342.454,9.144,9.144,0,0,1,.949-.47,2.632,2.632,0,0,1,3.218.682c.238.244.45.512.683.761a.929.929,0,0,0,1.494-.017,7.133,7.133,0,0,1,.88-.95,4.411,4.411,0,0,1,1.243-.705,2.761,2.761,0,0,1,1.964.35c.351.143.684.335,1.041.458a.769.769,0,0,0,1.058-.575c.032-.113.053-.229.08-.343a2.945,2.945,0,0,1,3.358-2.558c.275.009.548.061.823.067.718.017.983-.26.941-.966-.025-.417-.083-.835-.079-1.252a2.572,2.572,0,0,1,1.75-2.579c.377-.147.77-.255,1.151-.394a.863.863,0,0,0,.505-1.32c-.05-.092-.107-.18-.158-.272-1.07-1.911-.764-3.264,1.024-4.532a.894.894,0,0,0,.089-1.535c-.3-.272-.625-.523-.91-.811a2.281,2.281,0,0,1-.76-2.093,8.118,8.118,0,0,1,.671-1.86c.343-.712.182-1.215-.574-1.468-.36-.12-.727-.221-1.077-.365a2.577,2.577,0,0,1-1.711-2.568c0-.483.071-.965.085-1.448a.665.665,0,0,0-.711-.756,5.71,5.71,0,0,0-.864.043,2.935,2.935,0,0,1-3.477-2.285c-.04-.138-.069-.279-.1-.418-.191-.776-.637-.992-1.372-.669-.467.205-.93.424-1.406.606a2.208,2.208,0,0,1-2.443-.463,14.094,14.094,0,0,1-1-1.059A.939.939,0,0,0,17.749,2.1c-.351.371-.683.764-1.064,1.1a2.309,2.309,0,0,1-2.278.5,5.3,5.3,0,0,1-1.369-.572.954.954,0,0,0-1.557.58A13.14,13.14,0,0,1,10.948,5.1,2.07,2.07,0,0,1,9.185,6.374c-.609.054-1.226.011-1.84.011" transform="translate(0 0)" fill="#404040"/>
        <path id="Path_8485" data-name="Path 8485" d="M75.777,64.168a11.75,11.75,0,1,1-11.8,11.709,11.774,11.774,0,0,1,11.8-11.709M85.833,75.916a10.087,10.087,0,1,0-10.1,10.068,10.118,10.118,0,0,0,10.1-10.068" transform="translate(-57.252 -57.428)" fill="#ed3237"/>
        <path id="Path_8486" data-name="Path 8486" d="M124.321,142.464c.171-.206.3-.389.457-.545q2.724-2.727,5.458-5.445a1.656,1.656,0,0,1,.5-.366.813.813,0,0,1,.945.294.8.8,0,0,1,.007.986,2.156,2.156,0,0,1-.265.289l-6.348,6.335c-.6.6-1,.6-1.6,0-1.031-1.028-2.066-2.051-3.089-3.086a.851.851,0,0,1,.364-1.5.907.907,0,0,1,.874.335l2.7,2.7" transform="translate(-107.466 -121.763)" fill="#ed3237"/>
      </g>
    </g>
    <g id="Ellipse_297" data-name="Ellipse 297" transform="translate(138 1304)" fill="none" stroke="#cecece" stroke-width="1">
      <circle cx="30.5" cy="30.5" r="30.5" stroke="none"/>
      <circle cx="30.5" cy="30.5" r="30" fill="none"/>
    </g>
  </g>
</svg>
