<svg xmlns="http://www.w3.org/2000/svg" width="61" height="61" viewBox="0 0 61 61"><defs><clipPath id="oo4vb"><path fill="#fff" d="M0 30.5C0 13.655 13.655 0 30.5 0S61 13.655 61 30.5 47.345 61 30.5 61 0 47.345 0 30.5z"/></clipPath><clipPath id="oo4va"><path d="M12 48.965V12h37.031v36.965z"/></clipPath></defs><g><g><g><g><path fill="#404040" d="M12 48.965V12h37.031v36.965z"/></g><g clip-path="url(#oo4va)"><path fill="#404040" d="M19.346 18.385c-.712-.032-1.02.272-.992.974.006.157.03.313.052.468.259 1.809-.546 3.067-2.296 3.58-.163.049-.33.086-.494.13-.68.183-.914.74-.583 1.363.184.345.376.69.52 1.054.456 1.151.256 2.182-.633 3.058a9.98 9.98 0 0 1-.8.696c-.591.47-.6 1.045-.023 1.54.337.29.682.577.98.905.727.795.925 1.715.526 2.726-.168.424-.388.827-.596 1.234-.294.579-.042 1.137.586 1.313.39.11.783.22 1.153.38.922.397 1.513 1.088 1.623 2.098.058.527.009 1.067-.016 1.6-.04.837.327 1.182 1.163 1.088.352-.04.706-.066 1.059-.065 1.355.005 2.117.544 2.588 1.813.137.368.25.744.401 1.105.257.612.759.77 1.342.454.31-.168.622-.34.949-.47 1.291-.515 2.253-.308 3.218.682.238.244.45.512.683.761.464.499 1.046.488 1.493-.017.287-.323.544-.688.88-.95.373-.29.798-.553 1.243-.705.691-.237 1.334.092 1.964.35.351.143.684.335 1.04.458.506.175.916-.064 1.06-.575.03-.113.052-.23.08-.343.438-1.827 1.478-2.622 3.357-2.559.275.01.548.061.823.068.718.017.983-.26.94-.966-.024-.418-.082-.835-.079-1.252.01-1.24.577-2.122 1.75-2.579.378-.147.77-.255 1.151-.393.613-.223.813-.754.506-1.32-.05-.093-.107-.181-.158-.273-1.07-1.91-.764-3.263 1.024-4.531.609-.431.645-1.034.09-1.535-.303-.272-.625-.522-.91-.81-.573-.578-.928-1.282-.761-2.094.131-.64.386-1.268.671-1.86.343-.712.182-1.215-.574-1.468-.36-.12-.727-.221-1.077-.365-1.146-.47-1.707-1.345-1.711-2.568-.002-.483.07-.965.085-1.448.014-.47-.24-.739-.71-.756a5.71 5.71 0 0 0-.864.043c-1.781.207-2.976-.574-3.478-2.285-.04-.138-.069-.279-.103-.418-.191-.776-.637-.992-1.372-.669-.468.205-.93.424-1.406.606-.904.345-1.733.195-2.443-.463a14.094 14.094 0 0 1-.995-1.059c-.463-.528-1.04-.547-1.523-.036-.35.371-.683.764-1.064 1.102-.656.582-1.441.744-2.277.503-.474-.137-.957-.31-1.369-.572-.686-.436-1.296-.207-1.557.58-.156.47-.326.94-.534 1.389-.345.743-.943 1.2-1.762 1.272-.61.054-1.227.01-1.84.01m25.028 1.269c-.033.285-.065.571-.1.857-.08.655.109.91.756 1.113.448.14.901.291 1.316.507 1.292.67 1.731 1.74 1.282 3.12-.145.443-.37.864-.589 1.278-.286.542-.207.898.258 1.308.421.371.852.75 1.19 1.192.733.96.725 2.01-.02 2.965-.333.428-.758.794-1.175 1.148-.455.386-.557.751-.26 1.265.355.616.656 1.247.741 1.967.1.838-.138 1.57-.819 2.043-.548.38-1.187.653-1.82.88-.786.284-.93.488-.854 1.325.048.54.067 1.107-.043 1.632-.293 1.39-1.422 2.138-2.973 2.048a9.762 9.762 0 0 1-.822-.088c-.54-.077-.886.176-1.05.705-.153.496-.306 1.007-.558 1.456-.665 1.186-1.739 1.601-3.04 1.195-.46-.142-.897-.363-1.327-.582-.582-.297-.974-.21-1.335.336-.36.546-.819.986-1.396 1.299-.89.481-1.783.468-2.597-.116-.482-.346-.897-.8-1.293-1.247-.424-.479-.827-.574-1.373-.227-.618.393-1.277.659-2.022.678-.917.024-1.658-.346-2.13-1.105-.32-.513-.522-1.105-.721-1.681-.192-.552-.498-.75-1.089-.706-.559.042-1.137.083-1.682-.013-1.405-.25-2.141-1.173-2.183-2.652-.012-.403.052-.809.084-1.213.044-.55-.2-.845-.735-.977-.43-.107-.867-.225-1.262-.418-1.323-.646-1.814-1.801-1.372-3.203.129-.408.316-.803.518-1.182.387-.723.335-1.013-.315-1.49-.703-.513-1.296-1.118-1.5-1.997-.27-1.16.34-2.45 1.477-3.177.682-.436.752-.741.352-1.455-.34-.608-.62-1.237-.673-1.948-.07-.917.25-1.678 1.019-2.156.522-.325 1.128-.538 1.723-.715.575-.171.803-.429.767-1.036-.032-.546-.08-1.1-.02-1.64.138-1.249.982-2.073 2.238-2.205.516-.054 1.044-.026 1.565.005.642.039.91-.144 1.09-.751.126-.424.263-.854.466-1.244.674-1.302 1.874-1.791 3.275-1.337.406.132.792.34 1.165.552.514.293.921.216 1.314-.234.36-.412.724-.84 1.156-1.167.99-.753 2.095-.753 3.09-.002.41.31.761.717 1.078 1.127.355.457.735.58 1.255.324.445-.219.887-.459 1.357-.609 1.331-.426 2.422.004 3.097 1.226.23.418.392.884.526 1.345.185.637.43.807 1.107.773.611-.03 1.242-.085 1.834.028 1.314.252 2.038 1.335 2.052 2.876"/></g><g clip-path="url(#oo4va)"><path fill="#ed3237" d="M40.58 30.488c-.002-5.52-4.533-10.048-10.069-10.063-5.539-.015-10.105 4.534-10.104 10.067.001 5.517 4.534 10.047 10.069 10.064 5.535.017 10.107-4.538 10.104-10.068M30.525 18.74c6.533.062 11.778 5.32 11.742 11.77-.037 6.516-5.391 11.828-11.824 11.73-6.56-.1-11.793-5.363-11.723-11.79.07-6.524 5.36-11.771 11.805-11.71"/></g><g clip-path="url(#oo4va)"><path fill="#ed3237" d="M28.855 32.7c.171-.205.3-.389.457-.545a1955.31 1955.31 0 0 1 5.458-5.445c.146-.145.314-.29.5-.367.334-.139.737.004.945.295.232.324.232.659.007.985-.073.107-.172.197-.265.29l-6.348 6.335c-.602.6-.995.599-1.6-.004-1.03-1.028-2.066-2.05-3.088-3.086-.54-.547-.342-1.335.364-1.497.361-.083.633.093.874.334l2.696 2.705"/></g></g></g><g><path fill="none" stroke="#cecece" stroke-miterlimit="20" stroke-width="2" d="M0 30.5C0 13.655 13.655 0 30.5 0S61 13.655 61 30.5 47.345 61 30.5 61 0 47.345 0 30.5z" clip-path="url(&quot;#oo4vb&quot;)"/></g></g></svg>