<svg xmlns="http://www.w3.org/2000/svg" width="61" height="61" viewBox="0 0 61 61"><defs><clipPath id="zzeya"><path fill="#fff" d="M0 30.5C0 13.655 13.655 0 30.5 0S61 13.655 61 30.5 47.345 61 30.5 61 0 47.345 0 30.5z"/></clipPath></defs><g><g><g><path fill="#404040" d="M33.859 53H23.32a.734.734 0 0 1-.734-.734V36.617h-3.098a.734.734 0 0 1-.734-.734V24.34a5.674 5.674 0 0 1 5.668-5.668h8.335a5.674 5.674 0 0 1 5.668 5.668v8.002a.734.734 0 1 1-1.468 0V24.34c0-2.315-1.884-4.2-4.2-4.2h-8.335a4.205 4.205 0 0 0-4.2 4.2v10.81h3.098c.406 0 .734.329.734.734v15.649h9.07v-5.28a.734.734 0 1 1 1.469 0v6.014a.734.734 0 0 1-.734.734z"/></g><g><path fill="#404040" d="M28.59 53a.734.734 0 0 1-.734-.734V41.799a.734.734 0 1 1 1.468 0v10.467c0 .406-.33.734-.734.734z"/></g><g><path fill="#404040" d="M23.32 36.199a.734.734 0 0 1-.734-.734V25.76a.734.734 0 1 1 1.468 0v9.705a.734.734 0 0 1-.734.734z"/></g><g><path fill="#404040" d="M33.859 31.957a.734.734 0 0 1-.734-.734V25.71a.734.734 0 1 1 1.468 0v5.513a.734.734 0 0 1-.734.734z"/></g><g><path fill="#404040" d="M31.662 11.974a3.391 3.391 0 0 1-3.388 3.388 3.391 3.391 0 0 1-3.387-3.388 3.391 3.391 0 0 1 3.387-3.387 3.392 3.392 0 0 1 3.388 3.387zm1.567 0a4.96 4.96 0 0 0-4.955-4.954 4.96 4.96 0 0 0-4.954 4.954 4.96 4.96 0 0 0 4.954 4.954 4.96 4.96 0 0 0 4.955-4.954z"/></g><g><path fill="#404040" d="M46.818 53h-27.33a.734.734 0 1 1 0-1.468h27.33a.734.734 0 1 1 0 1.468z"/></g><g><path fill="#ed3237" d="M34.913 31.974c.786.451 2.64 1.33 5.74 1.754v6.43c0 1.77-.971 3.402-2.475 4.16l-3.265 1.644-3.264-1.644c-1.504-.757-2.476-2.39-2.476-4.16v-6.43c3.101-.425 4.956-1.303 5.74-1.754zm0 15.543a.717.717 0 0 0 .329-.078l3.594-1.81c1.996-1.005 3.284-3.152 3.284-5.471v-7.079a.734.734 0 0 0-.653-.73c-4.178-.457-6.084-1.807-6.118-1.832a.74.74 0 0 0-.872 0c-.018.015-1.923 1.374-6.118 1.833a.733.733 0 0 0-.654.73v7.078c0 2.319 1.29 4.466 3.284 5.471l3.594 1.81a.73.73 0 0 0 .33.078z"/></g><g><path fill="#ed3237" d="M34.912 35.164c.506.269 1.452.668 2.913.898v3.345c0 .877-.478 1.684-1.218 2.057l-1.695.853-1.694-.853c-.74-.372-1.218-1.18-1.218-2.057v-3.345c1.463-.23 2.407-.63 2.912-.898zm.001 8.709a.713.713 0 0 0 .33-.08l2.024-1.019c1.231-.62 2.026-1.942 2.026-3.368v-3.988a.734.734 0 0 0-.653-.729c-2.237-.244-3.265-.952-3.293-.973a.742.742 0 0 0-.867 0c-.01.008-1.037.727-3.294.974a.733.733 0 0 0-.654.73v3.987c0 1.427.795 2.749 2.027 3.368l2.024 1.02a.73.73 0 0 0 .33.078z"/></g></g><g><path fill="none" stroke="#cecece" stroke-miterlimit="20" stroke-width="2" d="M0 30.5C0 13.655 13.655 0 30.5 0S61 13.655 61 30.5 47.345 61 30.5 61 0 47.345 0 30.5z" clip-path="url(&quot;#zzeya&quot;)"/></g></g></svg>