<svg xmlns="http://www.w3.org/2000/svg" xmlns:xlink="http://www.w3.org/1999/xlink" width="61" height="61" viewBox="0 0 61 61">
  <defs>
    <clipPath id="clip-path">
      <rect id="Rectangle_15437" data-name="Rectangle 15437" width="41.226" height="40.293" fill="none"/>
    </clipPath>
  </defs>
  <g id="Group_16993" data-name="Group 16993" transform="translate(-333 -2564)">
    <g id="Ellipse_264" data-name="Ellipse 264" transform="translate(333 2564)" fill="none" stroke="#cecece" stroke-width="1">
      <circle cx="30.5" cy="30.5" r="30.5" stroke="none"/>
      <circle cx="30.5" cy="30.5" r="30" fill="none"/>
    </g>
    <g id="Group_16989" data-name="Group 16989" transform="translate(343 2574)">
      <g id="Group_16988" data-name="Group 16988" clip-path="url(#clip-path)">
        <path id="Path_40711" data-name="Path 40711" d="M39.21,22.914c.945-.734,2.017-1.565,2.017-2.768s-1.071-2.035-2.016-2.768c-.467-.362-1.172-.91-1.237-1.194a4.345,4.345,0,0,1,.609-1.687c.522-1.052,1.115-2.245.607-3.3-.515-1.068-1.83-1.349-2.991-1.6a4.361,4.361,0,0,1-1.665-.555,4.356,4.356,0,0,1-.175-1.757c.015-1.182.032-2.522-.89-3.258S31.25,3.611,30.1,3.887a4.339,4.339,0,0,1-1.765.218,4.359,4.359,0,0,1-.9-1.487c-.5-1.08-1.073-2.3-2.237-2.57-1.129-.258-2.154.581-3.058,1.321-.5.412-1.2.977-1.528.977s-1.024-.565-1.529-.978c-.9-.739-1.93-1.576-3.057-1.32-1.165.265-1.734,1.489-2.237,2.569a4.355,4.355,0,0,1-.9,1.487,4.353,4.353,0,0,1-1.765-.218C9.977,3.611,8.678,3.3,7.76,4.032s-.9,2.076-.89,3.258a4.347,4.347,0,0,1-.176,1.758A4.355,4.355,0,0,1,5.029,9.6c-1.16.248-2.475.53-2.99,1.6-.508,1.053.084,2.245.606,3.3a4.353,4.353,0,0,1,.609,1.687c-.065.284-.77.832-1.237,1.194C1.071,18.111,0,18.943,0,20.146s1.071,2.035,2.016,2.768c.467.363,1.172.91,1.237,1.194a4.342,4.342,0,0,1-.609,1.687c-.522,1.052-1.115,2.245-.607,3.3.515,1.068,1.83,1.35,2.991,1.6a4.355,4.355,0,0,1,1.665.555A4.36,4.36,0,0,1,6.869,33c-.015,1.182-.032,2.522.89,3.258s2.217.421,3.363.145a4.311,4.311,0,0,1,1.766-.217,4.359,4.359,0,0,1,.9,1.487c.5,1.08,1.073,2.3,2.238,2.569,1.129.259,2.154-.581,3.057-1.32.5-.413,1.2-.978,1.528-.978s1.025.565,1.529.978a4.565,4.565,0,0,0,2.625,1.369,1.942,1.942,0,0,0,.432-.049c1.165-.265,1.734-1.489,2.237-2.57.252-.54.631-1.357.9-1.487a4.327,4.327,0,0,1,1.765.217c1.146.275,2.445.587,3.363-.145s.9-2.076.89-3.257a4.353,4.353,0,0,1,.176-1.758,4.367,4.367,0,0,1,1.665-.555c1.16-.248,2.475-.529,2.99-1.6.508-1.053-.084-2.245-.606-3.3a4.35,4.35,0,0,1-.609-1.687c.065-.285.77-.832,1.237-1.194M36.9,26.628c.229.462.706,1.423.6,1.65s-1.182.469-1.695.579a4.583,4.583,0,0,0-2.737,1.218,4.594,4.594,0,0,0-.585,2.951c.007.521.02,1.605-.186,1.769s-1.252-.091-1.756-.212a4.612,4.612,0,0,0-3.017-.084,4.561,4.561,0,0,0-1.787,2.385c-.222.478-.685,1.472-.953,1.533-.275.031-1.066-.625-1.456-.944a4.662,4.662,0,0,0-2.715-1.4,4.661,4.661,0,0,0-2.715,1.4c-.391.319-1.206.988-1.456.944-.268-.061-.731-1.055-.954-1.533A4.563,4.563,0,0,0,13.7,34.5a2.511,2.511,0,0,0-1.1-.228,8.457,8.457,0,0,0-1.912.312c-.5.121-1.555.371-1.756.213s-.192-1.249-.186-1.77a4.6,4.6,0,0,0-.585-2.95,4.584,4.584,0,0,0-2.737-1.218c-.513-.11-1.578-.337-1.695-.579-.109-.227.368-1.188.6-1.65a4.64,4.64,0,0,0,.758-2.935,4.527,4.527,0,0,0-1.915-2.259c-.452-.35-1.292-1-1.292-1.288s.84-.937,1.293-1.289A4.531,4.531,0,0,0,5.081,16.6a4.636,4.636,0,0,0-.757-2.935c-.229-.462-.706-1.423-.6-1.649.117-.241,1.183-.469,1.695-.579a4.582,4.582,0,0,0,2.737-1.218,4.591,4.591,0,0,0,.585-2.95c-.006-.521-.02-1.606.186-1.77s1.252.091,1.756.213a4.613,4.613,0,0,0,3.017.083,4.564,4.564,0,0,0,1.786-2.384c.222-.478.685-1.472.953-1.533.251-.041,1.066.624,1.456.944a4.661,4.661,0,0,0,2.715,1.4,4.656,4.656,0,0,0,2.714-1.4c.391-.319,1.2-.988,1.456-.944.269.061.731,1.055.954,1.533a4.564,4.564,0,0,0,1.787,2.384,4.611,4.611,0,0,0,3.017-.083c.5-.121,1.555-.373,1.756-.212s.192,1.249.186,1.77a4.6,4.6,0,0,0,.585,2.951,4.586,4.586,0,0,0,2.738,1.218c.512.11,1.578.337,1.695.579.109.227-.368,1.188-.6,1.65a4.638,4.638,0,0,0-.758,2.935,4.528,4.528,0,0,0,1.915,2.259c.452.351,1.292,1,1.292,1.288s-.84.937-1.293,1.288a4.531,4.531,0,0,0-1.915,2.259,4.636,4.636,0,0,0,.757,2.935" transform="translate(0 0)" fill="#404040"/>
        <path id="Path_40712" data-name="Path 40712" d="M164.052,144.29a.937.937,0,0,0-1.325,0L149.61,157.407a.937.937,0,1,0,1.325,1.325l13.117-13.117a.937.937,0,0,0,0-1.325" transform="translate(-136.218 -131.365)" fill="#ed3237"/>
        <path id="Path_40713" data-name="Path 40713" d="M147.279,145.24A3.279,3.279,0,1,0,144,141.96a3.283,3.283,0,0,0,3.279,3.279m0-4.685a1.405,1.405,0,1,1-1.405,1.405,1.407,1.407,0,0,1,1.405-1.405" transform="translate(-131.351 -126.499)" fill="#ed3237"/>
        <path id="Path_40714" data-name="Path 40714" d="M253.946,245.347a3.279,3.279,0,1,0,3.279,3.279,3.284,3.284,0,0,0-3.279-3.279m0,4.685a1.405,1.405,0,1,1,1.405-1.405,1.407,1.407,0,0,1-1.405,1.405" transform="translate(-228.648 -223.796)" fill="#ed3237"/>
      </g>
    </g>
  </g>
</svg>
