<svg xmlns="http://www.w3.org/2000/svg" width="61" height="61" viewBox="0 0 61 61"><defs><clipPath id="c5w7a"><path fill="#fff" d="M0 30.5C0 13.655 13.655 0 30.5 0S61 13.655 61 30.5 47.345 61 30.5 61 0 47.345 0 30.5z"/></clipPath></defs><g><g><g><g><g><path fill="#404040" d="M49.9 37.416h-2.923a3.8 3.8 0 0 1 3.036-3.088V37.3a.113.113 0 0 1-.113.113zm-16.662 0a28.436 28.436 0 0 1-.12-2.589l.988.283a2.498 2.498 0 0 0 3.088-1.713l2.051-7.167.305-1.065.983-3.439h5.181a5.063 5.063 0 0 0 4.299 4.356v6.978a5.062 5.062 0 0 0-4.299 4.354zm-3.46-9.794a3.6 3.6 0 0 0-2.632 1.143 3.16 3.16 0 0 0-.865 2.4l.035.416-14.163-4.058a1.253 1.253 0 0 1-.86-1.547l1.886-6.56 24.699 7.067-1.884 6.566a1.25 1.25 0 0 1-1.547.86l-1.313-.375a45.82 45.82 0 0 1 .134-2.364 3.125 3.125 0 0 0-.844-2.39 3.61 3.61 0 0 0-2.647-1.158zm-3.14 9.787h-2.885a5.041 5.041 0 0 0-4.368-4.367V30.89l7.063 2.023a30.72 30.72 0 0 1 .19 4.5zm-7.257-.112V34.31a3.782 3.782 0 0 1 3.101 3.102h-2.988a.113.113 0 0 1-.113-.113zM13.925 16.79l.572-1.997 24.698 7.069-.979 3.418-24.693-7.068zm1.329-4.638a1.253 1.253 0 0 1 1.547-.86l22.293 6.385c.665.19 1.05.883.86 1.547l-.413 1.444-24.7-7.074zm34.76 9.686v2.972a3.8 3.8 0 0 1-3.033-3.086h2.922c.062.002.11.052.11.114zm-.114-1.361h-9.01l.259-.911a2.5 2.5 0 0 0-1.714-3.088L17.14 10.097a2.5 2.5 0 0 0-3.088 1.713l-1.499 5.239-.406 1.42-2.052 7.168a2.503 2.503 0 0 0 1.713 3.087l6.323 1.81V37.3c.001.752.61 1.361 1.362 1.362h7.027a6.776 6.776 0 0 1-1.376 3.49c-2.935 3.447-1.633 8.272-1.572 8.475a.624.624 0 0 0 .774.434.624.624 0 0 0 .43-.774c-.012-.044-1.188-4.384 1.322-7.33 2.334-2.744 1.865-7.426 1.555-10.525-.05-.5-.096-.961-.126-1.367a1.926 1.926 0 0 1 .534-1.461 2.349 2.349 0 0 1 1.72-.746 2.394 2.394 0 0 1 1.732.758c.368.385.555.908.516 1.44-.9 10.926 2.22 12.775 2.578 12.95a.625.625 0 0 0 .548-1.122c-.018-.009-1.203-.795-1.755-4.23h8.002c.384 3.709-1.495 7.949-3.65 11.44a.624.624 0 0 0 1.063.655c2.862-4.636 4.127-8.728 3.822-12.095h7.265a1.363 1.363 0 0 0 1.359-1.354V21.84c-.001-.752-.61-1.36-1.362-1.361z"/></g><g><path fill="#ed3237" d="M22.721 25.871l-7.86-2.25a.626.626 0 0 0-.344 1.204l7.86 2.248a.626.626 0 1 0 .344-1.204z"/></g><g><path fill="#ed3237" d="M43.61 30.818a1.248 1.248 0 1 1 .002-2.497 1.248 1.248 0 0 1-.001 2.497zm0-3.746a2.497 2.497 0 1 0 .002 4.995 2.497 2.497 0 0 0-.001-4.995z"/></g></g></g></g><g><path fill="none" stroke="#cecece" stroke-miterlimit="20" stroke-width="2" d="M0 30.5C0 13.655 13.655 0 30.5 0S61 13.655 61 30.5 47.345 61 30.5 61 0 47.345 0 30.5z" clip-path="url(&quot;#c5w7a&quot;)"/></g></g></svg>