<svg xmlns="http://www.w3.org/2000/svg" width="61" height="61" viewBox="0 0 61 61">
  <g id="Group_16996" data-name="Group 16996" transform="translate(-333 -2853)">
    <g id="Ellipse_307" data-name="Ellipse 307" transform="translate(333 2853)" fill="none" stroke="#cecece" stroke-width="1">
      <circle cx="30.5" cy="30.5" r="30.5" stroke="none"/>
      <circle cx="30.5" cy="30.5" r="30" fill="none"/>
    </g>
    <g id="Icons" transform="translate(344 2864)">
      <path id="Path_40719" data-name="Path 40719" d="M35.143,2.556H34.5V1.917a1.917,1.917,0,1,0-3.834,0v.639H25.559V1.917a1.917,1.917,0,1,0-3.834,0v.639H16.613V1.917a1.917,1.917,0,0,0-3.834,0v.639H7.668V1.917a1.917,1.917,0,1,0-3.834,0v.639H3.195A3.2,3.2,0,0,0,0,5.751v26.2a3.2,3.2,0,0,0,3.195,3.195h7.062a14.029,14.029,0,0,0,17.827,0h7.059a3.2,3.2,0,0,0,3.195-3.195V5.751A3.2,3.2,0,0,0,35.143,2.556Zm-3.195-.639a.639.639,0,0,1,1.278,0V4.473a.639.639,0,0,1-1.278,0ZM23,1.917a.639.639,0,1,1,1.278,0V4.473a.639.639,0,1,1-1.278,0Zm-8.946,0a.639.639,0,0,1,1.278,0V4.473a.639.639,0,1,1-1.278,0Zm-8.946,0a.639.639,0,1,1,1.278,0V4.473a.639.639,0,1,1-1.278,0ZM3.195,3.834h.639v.639a1.917,1.917,0,0,0,3.834,0V3.834h5.112v.639a1.917,1.917,0,0,0,3.834,0V3.834h5.112v.639a1.917,1.917,0,1,0,3.834,0V3.834H30.67v.639a1.917,1.917,0,1,0,3.834,0V3.834h.639A1.917,1.917,0,0,1,37.06,5.751V7.668H1.278V5.751A1.917,1.917,0,0,1,3.195,3.834ZM6.39,24.281A12.779,12.779,0,1,1,19.169,37.06,12.779,12.779,0,0,1,6.39,24.281Zm28.753,9.584h-5.7a14.057,14.057,0,1,0-20.54,0h-5.7a1.917,1.917,0,0,1-1.917-1.917v-23H37.06v23a1.917,1.917,0,0,1-1.917,1.917Z" fill="#404040"/>
      <path id="Path_40720" data-name="Path 40720" d="M35,31.5A11.5,11.5,0,1,0,23.5,43,11.5,11.5,0,0,0,35,31.5Zm-4.725,5.873a.639.639,0,1,0-.9.9l.879.879a10.169,10.169,0,0,1-6.114,2.535V40.447a.639.639,0,1,0-1.278,0v1.245a10.169,10.169,0,0,1-6.114-2.535l.879-.879a.639.639,0,1,0-.9-.9l-.879.879a10.169,10.169,0,0,1-2.535-6.114h1.245a.639.639,0,1,0,0-1.278H13.311a10.169,10.169,0,0,1,2.535-6.114l.879.879a.639.639,0,1,0,.9-.9l-.879-.879a10.169,10.169,0,0,1,6.114-2.535v1.245a.639.639,0,0,0,1.278,0V21.311a10.169,10.169,0,0,1,6.114,2.535l-.879.879a.639.639,0,1,0,.9.9l.879-.879a10.169,10.169,0,0,1,2.535,6.114H32.447a.639.639,0,0,0,0,1.278h1.245a10.169,10.169,0,0,1-2.535,6.114Z" transform="translate(-4.332 -7.221)" fill="#ef3e43"/>
      <path id="Path_40721" data-name="Path 40721" d="M32.44,35.4l-1.645-.985a1.894,1.894,0,0,0,.039-.383,1.917,1.917,0,0,0-1.278-1.8v-4.59a.639.639,0,1,0-1.278,0V32.23A1.911,1.911,0,1,0,30.13,35.5l1.656.992a.639.639,0,1,0,.657-1.1Zm-3.523-.73a.639.639,0,1,1,.639-.639A.639.639,0,0,1,28.916,34.668Z" transform="translate(-9.747 -9.748)" fill="#ef3e43"/>
    </g>
  </g>
</svg>
