<svg xmlns="http://www.w3.org/2000/svg" width="61" height="61" viewBox="0 0 61 61">
  <g id="Group_16996" data-name="Group 16996" transform="translate(-3613 -3619)">
    <g id="Ellipse_327" data-name="Ellipse 327" transform="translate(3613 3619)" fill="none" stroke="#cecece" stroke-width="1">
      <circle cx="30.5" cy="30.5" r="30.5" stroke="none"/>
      <circle cx="30.5" cy="30.5" r="30" fill="none"/>
    </g>
    <g id="XMLID_614_" transform="translate(3624 3629.91)">
      <g id="XMLID_592_" transform="translate(0 0.09)">
        <g id="XMLID_593_">
          <path id="XMLID_611_" d="M124.681,21.453A10.681,10.681,0,1,0,114,10.771,10.693,10.693,0,0,0,124.681,21.453Zm0-19.858a9.177,9.177,0,1,1-9.177,9.177A9.187,9.187,0,0,1,124.681,1.594Z" transform="translate(-105.425 -0.09)" fill="#ef3e43"/>
          <path id="XMLID_610_" d="M336.275,133.706h.639a.752.752,0,1,0,0-1.5h-.639a.752.752,0,0,0,0,1.5Z" transform="translate(-310.285 -122.264)" fill="#404040"/>
          <path id="XMLID_609_" d="M150.127,132.73a.752.752,0,0,0-.752-.752h-.639a.752.752,0,1,0,0,1.5h.639A.752.752,0,0,0,150.127,132.73Z" transform="translate(-136.852 -122.057)" fill="#404040"/>
          <path id="XMLID_608_" d="M246.864,36.216a.752.752,0,0,0,.752-.752v-.639a.752.752,0,1,0-1.5,0v.639A.752.752,0,0,0,246.864,36.216Z" transform="translate(-227.599 -31.517)" fill="#404040"/>
          <path id="XMLID_607_" d="M246.64,221.613a.752.752,0,0,0-.752.752V223a.752.752,0,0,0,1.5,0v-.639A.752.752,0,0,0,246.64,221.613Z" transform="translate(-227.392 -204.95)" fill="#404040"/>
          <path id="XMLID_606_" d="M206.333,69.437l.008.008a.752.752,0,0,0,1.063,0l5.2-5.2a.752.752,0,1,0-1.064-1.064l-4.668,4.668-2.712-2.712A.752.752,0,0,0,203.1,66.2Z" transform="translate(-187.616 -58.231)" fill="#ef3e43"/>
          <path id="XMLID_604_" d="M58.991,274.675a2.726,2.726,0,0,0-3.641.2l-5.3,5.3a2.583,2.583,0,0,0-1.938-2.182L41,276.206a6.275,6.275,0,0,0-4.4.508l-4.361,2.244-.411-.712a1.193,1.193,0,0,0-1.629-.437l-4.313,2.49a1.194,1.194,0,0,0-.437,1.629l5.447,9.435a1.185,1.185,0,0,0,.724.556,1.2,1.2,0,0,0,.311.041,1.186,1.186,0,0,0,.594-.16l4.313-2.49a1.194,1.194,0,0,0,.437-1.629l-4.283-7.419,4.3-2.211a4.772,4.772,0,0,1,3.345-.386l7.114,1.782a1.083,1.083,0,0,1-.263,2.133H41.893a.752.752,0,0,0,0,1.5h6.239a2.715,2.715,0,0,0,1.933-.8l6.349-6.349a1.224,1.224,0,0,1,1.635-.089,1.226,1.226,0,0,1,.1,1.822l-6.691,6.691a4.8,4.8,0,0,1-3.416,1.415H41.9a.752.752,0,1,0,0,1.5H48.04a6.294,6.294,0,0,0,4.48-1.855l6.691-6.691a2.73,2.73,0,0,0-.22-4.058ZM34.614,288.858l-1.87-3.239a.752.752,0,0,0-1.3.752l1.87,3.239-1.268.732-5.136-8.9,3.773-2.179,5.136,8.9Z" transform="translate(-23.387 -253.462)" fill="#404040"/>
          <path id="XMLID_603_" d="M452.752,2.633a.752.752,0,0,0,.752-.752V.842a.752.752,0,0,0-1.5,0V1.881A.752.752,0,0,0,452.752,2.633Z" transform="translate(-418 -0.09)" fill="#404040"/>
          <path id="XMLID_602_" d="M452.752,68.822a.752.752,0,0,0,.752-.752V67.031a.752.752,0,1,0-1.5,0V68.07A.752.752,0,0,0,452.752,68.822Z" transform="translate(-418 -61.3)" fill="#404040"/>
          <path id="XMLID_601_" d="M479.979,40.09H478.94a.752.752,0,1,0,0,1.5h1.039a.752.752,0,1,0,0-1.5Z" transform="translate(-442.218 -37.081)" fill="#404040"/>
          <path id="XMLID_600_" d="M412.752,41.594h1.039a.752.752,0,1,0,0-1.5h-1.039a.752.752,0,1,0,0,1.5Z" transform="translate(-381.009 -37.081)" fill="#404040"/>
          <path id="XMLID_599_" d="M40.752,208.633a.752.752,0,0,0,.752-.752v-1.039a.752.752,0,1,0-1.5,0v1.039A.752.752,0,0,0,40.752,208.633Z" transform="translate(-36.991 -190.594)" fill="#404040"/>
          <path id="XMLID_598_" d="M40.752,274.821a.752.752,0,0,0,.752-.752V273.03a.752.752,0,1,0-1.5,0v1.039A.752.752,0,0,0,40.752,274.821Z" transform="translate(-36.991 -251.804)" fill="#404040"/>
          <path id="XMLID_597_" d="M66.94,247.594h1.039a.752.752,0,0,0,0-1.5H66.94a.752.752,0,1,0,0,1.5Z" transform="translate(-61.209 -227.586)" fill="#404040"/>
          <path id="XMLID_596_" d="M2.543,246.842a.752.752,0,0,0-.752-.752H.752a.752.752,0,0,0,0,1.5H1.791A.752.752,0,0,0,2.543,246.842Z" transform="translate(0 -227.586)" fill="#404040"/>
          <path id="XMLID_595_" d="M196.9,429.667a.752.752,0,1,0,.532.22A.756.756,0,0,0,196.9,429.667Z" transform="translate(-181.394 -397.354)" fill="#404040"/>
          <path id="XMLID_594_" d="M85.949,388.177a.752.752,0,1,0,.532-.22A.758.758,0,0,0,85.949,388.177Z" transform="translate(-79.28 -358.781)" fill="#404040"/>
        </g>
      </g>
    </g>
  </g>
</svg>
