<svg xmlns="http://www.w3.org/2000/svg" width="384" height="357" viewBox="0 0 384 357"><defs><linearGradient id="pwyca" x1="90.23" x2="52.98" y1="246.09" y2="246.41" gradientUnits="userSpaceOnUse"><stop offset="0" stop-color="#fff" stop-opacity=".1"/><stop offset=".35" stop-color="#999fbb" stop-opacity=".2"/><stop offset=".99" stop-color="#38447a" stop-opacity=".3"/></linearGradient><linearGradient id="pwycb" x1="389.11" x2="127.19" y1="309.38" y2="309.99" gradientUnits="userSpaceOnUse"><stop offset="0" stop-color="#fff" stop-opacity=".1"/><stop offset=".35" stop-color="#999fbb" stop-opacity=".2"/><stop offset=".99" stop-color="#38447a" stop-opacity=".3"/></linearGradient><linearGradient id="pwycc" x1="252.98" x2="251.63" y1="158.84" y2="123.65" gradientUnits="userSpaceOnUse"><stop offset="0" stop-color="#f11221" stop-opacity="0"/><stop offset=".22" stop-color="#f1c312" stop-opacity="0"/><stop offset=".31" stop-color="#edb819" stop-opacity=".19"/><stop offset=".53" stop-color="#e32a2a" stop-opacity=".62"/><stop offset=".69" stop-color="#dd3535" stop-opacity=".89"/><stop offset=".77" stop-color="#db3939"/><stop offset="1" stop-color="#db3939"/></linearGradient><linearGradient id="pwycd" x1="226.35" x2="232.5" y1="83.07" y2="57.03" gradientUnits="userSpaceOnUse"><stop offset=".22" stop-color="#d9936c" stop-opacity="0"/><stop offset=".99" stop-color="#a6515a"/></linearGradient><radialGradient id="pwyce" cx="222.84" cy="60.63" r="16.74" gradientUnits="userSpaceOnUse"><stop offset="0" stop-color="#ec9981"/><stop offset=".28" stop-color="#ec9981" stop-opacity="0"/></radialGradient><linearGradient id="pwycf" x1="244.03" x2="232.25" y1="150.74" y2="134.72" gradientUnits="userSpaceOnUse"><stop offset=".22" stop-color="#d9936c" stop-opacity="0"/><stop offset=".98" stop-color="#975a40"/></linearGradient><radialGradient id="pwycg" cx="229.15" cy="40.99" r="11.18" gradientUnits="userSpaceOnUse"><stop offset="0" stop-color="#ec9981"/><stop offset=".78" stop-color="#ec9981" stop-opacity="0"/></radialGradient><linearGradient id="pwych" x1="266.84" x2="264.63" y1="129.35" y2="147.97" gradientUnits="userSpaceOnUse"><stop offset=".22" stop-color="#f1c312" stop-opacity="0"/><stop offset=".31" stop-color="#edb819" stop-opacity=".19"/><stop offset=".53" stop-color="#e39f2a" stop-opacity=".62"/><stop offset=".69" stop-color="#dd8f35" stop-opacity=".89"/><stop offset=".77" stop-color="#db8939"/></linearGradient><linearGradient id="pwyci" x1="206.1" x2="219.98" y1="73" y2="73" gradientUnits="userSpaceOnUse"><stop offset=".22" stop-color="#f1c312" stop-opacity="0"/><stop offset=".31" stop-color="#edb819" stop-opacity=".19"/><stop offset=".53" stop-color="#e39f2a" stop-opacity=".62"/><stop offset=".69" stop-color="#dd8f35" stop-opacity=".89"/><stop offset=".77" stop-color="#db8939"/></linearGradient><linearGradient id="pwycj" x1="237.74" x2="219.23" y1="104.03" y2="121.14" gradientUnits="userSpaceOnUse"><stop offset=".01" stop-color="#fff" stop-opacity="0"/><stop offset=".07" stop-color="#fff" stop-opacity=".09"/><stop offset=".27" stop-color="#fff" stop-opacity=".37"/><stop offset=".46" stop-color="#fff" stop-opacity=".59"/><stop offset=".63" stop-color="#fff" stop-opacity=".77"/><stop offset=".78" stop-color="#fff" stop-opacity=".89"/><stop offset=".91" stop-color="#fff" stop-opacity=".97"/><stop offset=".99" stop-color="#fff"/></linearGradient><linearGradient id="pwyck" x1="201.75" x2="216.83" y1="205.08" y2="202.98" gradientUnits="userSpaceOnUse"><stop offset="0" stop-color="#f77c74"/><stop offset="1" stop-color="#cc542c"/></linearGradient><linearGradient id="pwycl" x1="215.61" x2="215.61" y1="248.69" y2="289.38" gradientUnits="userSpaceOnUse"><stop offset="0" stop-color="#f77c74"/><stop offset="1" stop-color="#cc542c"/></linearGradient><linearGradient id="pwycm" x1="259.02" x2="236.26" y1="214.48" y2="213.48" gradientUnits="userSpaceOnUse"><stop offset="0" stop-color="#f77c74"/><stop offset="1" stop-color="#cc542c"/></linearGradient></defs><g><g><path fill="#f2f2f2" d="M5 178.5C5 79.917 84.917 0 183.5 0S362 79.917 362 178.5 282.083 357 183.5 357 5 277.083 5 178.5z"/></g><g><g><path fill="url(#pwyca)" d="M39.023 250.79a4 4 0 0 1-4-4v-.875a4 4 0 0 1 4-4h41.61a4 4 0 0 1 4 4v.874a4 4 0 0 1-4 4z"/></g><g opacity=".1"><path fill="#231f20" d="M91.12 114.889s-1.514 4.333-14.5 16.25c-12.986 11.916-18.472 26.388-23.111 46.374-1.986 8.556-2.611 19.527-2.68 29.166h-1.986c0-13.375 0-31.847.097-51.666.263-38.957-24.681-55.846-24.681-55.846 1.292 9.347-2.861 12.499-2.43 21.305.43 8.805 9.958 8.333 8.138 18.708-1.82 10.375.265 8.055 3.904 12.208 3.638 4.153-2.779 10.737 2.777 14.027 5.555 3.292 8.695 3.126 10 12.501.652 4.721.125 17.416-.57 28.819H33.01c-2.57 0-4.5 2.778-3.986 5.833l4.722 27.917c.889 5.263 4.764 9.054 9.264 9.054H54.62c4.5 0 8.333-3.791 9.264-9.054l4.513-26.653.14-.862c.554-3.249-1.529-6.29-4.306-6.29h-11.75c.209-9.39 2.14-18.626 8.583-23.264 12.195-8.777 6.473-15.708 10.404-18.055a14 14 0 0 0 6.402-10.96c.153-3.915-3.764-6.86 5.013-13.596 8.778-6.736 8.236-25.916 8.236-25.916z"/><path fill="none" stroke="#231f20" stroke-miterlimit="20" stroke-width="1.43" d="M91.12 114.889v0s-1.514 4.333-14.5 16.25c-12.986 11.916-18.472 26.388-23.111 46.374-1.986 8.556-2.611 19.527-2.68 29.166h-1.986c0-13.375 0-31.847.097-51.666.263-38.957-24.681-55.846-24.681-55.846 1.292 9.347-2.861 12.499-2.43 21.305.43 8.805 9.958 8.333 8.138 18.708-1.82 10.375.265 8.055 3.904 12.208 3.638 4.153-2.779 10.737 2.777 14.027 5.555 3.292 8.695 3.126 10 12.501.652 4.721.125 17.416-.57 28.819H33.01c-2.57 0-4.5 2.778-3.986 5.833l4.722 27.917c.889 5.263 4.764 9.054 9.264 9.054H54.62c4.5 0 8.333-3.791 9.264-9.054l4.513-26.653v0l.14-.862c.554-3.249-1.529-6.29-4.306-6.29h-11.75c.209-9.39 2.14-18.626 8.583-23.264 12.195-8.777 6.473-15.708 10.404-18.055a14 14 0 0 0 6.402-10.96c.153-3.915-3.764-6.86 5.013-13.596 8.778-6.736 8.236-25.916 8.236-25.916v0z"/></g><g><path fill="#fff" d="M19.565 99.959s25 16.889 24.68 55.845c-.32 38.958 0 72.736 0 72.736H39.83s3.374-40.527 2.083-49.874c-1.292-9.347-4.487-9.18-10-12.5-5.514-3.319.902-9.86-2.779-14.027-3.68-4.167-5.721-1.82-3.902-12.21 1.82-10.388-7.708-9.874-8.138-18.707-.431-8.834 3.763-11.916 2.472-21.263zm66.887 15.721s.57 19.195-8.208 25.93c-8.777 6.737-4.861 9.723-5.013 13.598a14 14 0 0 1-6.403 10.958c-3.945 2.361 1.79 9.291-10.402 18.055-12.196 8.764-8.223 33.986-7.029 45.57l-2.486.25s-2.597-32.168 1.945-51.737c4.639-19.972 10.124-34.457 23.11-46.374 12.986-11.917 14.486-16.25 14.486-16.25z"/></g><g><path fill="#d4d4d4" d="M19.565 99.959a26.5 26.5 0 0 1 6.306 17.263c0 10.695 2.61 9.556 7.277 15.027 4.667 5.473 2.61 6.264 2.958 14.68.348 8.418 7.403 14.57 7.736 23.792.333 9.223 4.778-3.069 4.778-3.069l-8-64.083-13.889-8.54-7.166 4.93z"/></g><g><path fill="#d4d4d4" d="M86.452 115.68s-2.139 11.209-7.597 17.222c-5.458 6.014-10.902 6.014-11.847 12.791-.944 6.778.458 9.056-5.444 14.181-3.514 3.056-3.208 5-4.166 11.027-.96 6.029-10.403 14.028-11.418 22.362-.486 3.972-2.096-7.32.306-27.055 1.723-14.111 9.723-38.362 9.723-38.362l28.776-15.277 1.694 2.445"/></g><g><path fill="#c9c9c9" d="M38.3 250.304h11.612c4.5 0 8.332-3.792 9.264-9.055l4.514-26.626c.625-3.694-1.737-7.152-4.89-7.152H28.245c-2.57 0-4.5 2.778-3.986 5.833l4.736 27.945c.945 5.263 4.819 9.055 9.307 9.055z"/></g><g><path fill="url(#pwycb)" d="M348.353 298.178c-21.056-6.736-202.595-3.971-222.803-3.971-17.111 0-98.79 5.972-124.04 8.193a1.21 1.21 0 0 0-.111 2.375c18.166 3.209 54.762 6.945 96.929 9.598l-21.597 4.944-3.153 6.944s28.042-9.112 34.347-10.86c6.306-1.751 30.236-4.501 33.333-5.556 28-.195 49.055-.458 52.972-.736 11.749-.82 175.192-4.196 154.124-10.93z"/></g><g><path fill="#8e8e8e" d="M297.742 225.915l18.568 74.763 1.237-.278-14.152-75.708zM22.467 211.68l-1.222-.292c-1.514.18-1.417.694-1.514 1.18l-.32 1.389-.652 2.902-1.291 5.792-2.584 11.598c-1.708 7.736-3.514 15.458-5.125 23.207L4.8 280.706c-1.555 7.778-3.207 15.528-4.693 23.306l1.236.277c2.041-7.653 3.916-15.347 5.875-23.027l5.555-23.097c1.903-7.68 3.624-15.416 5.444-23.125l2.695-11.57 1.388-5.791.681-2.888.333-1.39c.126-.485.375-.93-.847-1.721zm134.706 6.694l18.973 74.415 1.236-.264-12.736-75.721z"/></g><g><path fill="#d6d6d6" d="M128.535 98.292h206.748s2.43 103.277-46.374 122.123c-48.806 18.847-98.958-17.5-98.958-17.5l-126.221-1.68s57.903-10.445 64.805-102.943z"/></g><g><path fill="#606060" fill-opacity=".6" d="M303.353 98.32s0 67.721-21.514 92.402c-21.513 24.68-32.306 18.86-44 19.305-11.694.444-17.5-15.709-17.5-15.709l26.473-42.638 27.138-53.319 29.403-.042z"/></g><g><path fill="#4e273f" d="M160.16 85.987s-.263-2.167 4.5-2.876c4.764-.708 11.584 1.39 10.931 4.334-.652 2.944-9.389 7.375-9.847 7.375-.458 0-5.32-5.945-5.32-5.945l-.263-2.888z"/></g><g><path fill="#ba5427" d="M163.035 63.361a28.708 28.708 0 0 0-2.07 11.445c.14 6.625 9.722 1.791 9.722 1.791l-1.39-12-3.027-3.04z"/></g><g><path fill="#1b2246" d="M160.062 60.085a4.861 4.861 0 0 1 4.166-6.612l2.946-.375a7.597 7.597 0 0 1 7.902 5.083l4.986 16.097a5.292 5.292 0 0 1-4.166 6.945l-2.125.375a7.375 7.375 0 0 1-8-4.75z"/></g><g transform="rotate(-18.22 163.155 58.68)"><path fill="#6678b6" d="M162.055 58.682c0-.713.492-1.292 1.097-1.292.606 0 1.098.579 1.098 1.292 0 .714-.492 1.292-1.098 1.292-.605 0-1.097-.578-1.097-1.292z"/></g><g><path fill="#eeb08a" d="M161.146 88.514s-.848-14.833.597-18.639c.75-1.985 3.639-5.194 6.541-7.944a32.829 32.829 0 0 1 6.486-5.042c2.167-.916 2.376 2.292-.806 4.82-2.305 1.833-6.333 7.07-5.416 8.055.917.987 4.514-3.736 7.472-4.805 2.96-1.07 4.014 0 4.167.806a1.39 1.39 0 0 1-.5 1.388c-.556.347-1.028.265-1.708.611a19.446 19.446 0 0 0-4.695 5.167 49.206 49.206 0 0 1 4.917-3.791 2.362 2.362 0 0 1 2.264.443c.611.487.93 1.181.306 1.779-.376.375-.487 0-.945.444a38.647 38.647 0 0 0-4.07 4.875s3.278-1.236 4.07-2.777c.792-1.542 2.236-.306 1.875.902a5.778 5.778 0 0 1-1.75 3.111c-1.139 1.055-1.806 1.903-3.153 3.375-.944 1.028-1.917 5.042-3 8.11a3.82 3.82 0 0 1-2.43 2.251c-4.056 1.292-8.986 2.263-10.222-3.14z"/></g><g><path fill="#263238" d="M206.104 23.21v54.415l17.847-3.36-2.36-14.361-10.209-38.973z"/></g><g><path fill="#8e8e8e" d="M2.37 210.443s58.333 13.888 81.708 16.972c23.374 3.083 194.038 7.32 194.038 7.32l.528-8.333-87.498-16.736-188.776.777z"/></g><g><path fill="#ed1c24" d="M280.492 102.32c-1.68-27.944-17.833-27.944-17.833-27.944l-.667-.181-42.415-3.028a51.11 51.11 0 0 0-33.487 18.056c-13.805 16.832-24.735 25.749-27.944 33.999-3.208 8.25 1.014 20.527 12.625 15.152 9.32-4.319 12.667-10.263 15.556-16 .507 3.728 1.16 7.435 1.958 11.112 0 0-5.722 14.638-13.473 22.222 0 0 27.098 9.93 38.889 19.18a121.523 121.523 0 0 1 20.695 21.707s10.305-8.151 18.875-26.458c4.486 4.168 9.388 7.403 13.777 7.279 12.11-.333 12.791-14.806 12.791-14.806s2.333-32.36.653-60.29z"/></g><g><path fill="#f1c491" d="M221.59 59.93l-2.694 18.849s-1.68 10.096 6.737 7.069a20.958 20.958 0 0 0 11.443-9.084l4.709-15.152-5.722-6.736-14.472 5.055z"/></g><g><path fill="url(#pwycc)" d="M253.117 109.611s-1.75 17.68-8.917 28.833c0 0 11.89 7.056 15.64 8.333l-3.056-31.18z"/></g><g><path fill="url(#pwycd)" d="M237.076 76.736l4.709-15.152-5.722-6.736-14.472 5.083-.682 4.777c3.279 1.292 10.403 4.695 11.722 10.348a4.833 4.833 0 0 0 2.93 3.916 13.896 13.896 0 0 0 1.515-2.236z"/></g><g><path fill="#eeb08a" d="M208.77 21.709s-4.013 37.18 8.78 38.529c12.79 1.346 24.235-10.029 24.235-10.029s11.443-10.097 9.416-22.222c-2.028-12.125-11.444-19.527-24.903-18.18-13.457 1.347-17.527 11.902-17.527 11.902z"/></g><g transform="rotate(-65.225 219.13 61.49)"><path fill="url(#pwyce)" d="M212.322 61.49a6.807 6.807 0 1 1 13.615 0 6.807 6.807 0 0 1-13.615 0z"/></g><g><path fill="#ff3035" d="M160.188 85.681s5.374 8.958 15.402 1.764c0 0 3.32 34.43 1.111 40.041-2.208 5.611-5.263 11.263-11.305 12.124-6.042.862-10.36-5.152-10.695-15.847-.332-10.693 5.487-38.082 5.487-38.082z"/></g><g><path fill="none" stroke="#bb0a10" stroke-miterlimit="20" stroke-width="1.23" d="M176.73 100.542c.722 10.374 1.388 23.61 0 26.93a27.985 27.985 0 0 1-4.75 8.473"/></g><g><path fill="#1b2246" d="M224.063 147.971c-3.709-.319-6.487-2.777-6.487-8.082 0-5.305 3-8.737 6.723-8.737 6.583 0 6.736 3.459 6.736 8.737 0 5.277-.473 8.652-6.973 8.082zm.457-19.11c-4.43 0-8.013 4.93-8.013 11.028 0 6.097 3.582 11.027 8.013 11.027 7.056 0 8.015-4.93 8.015-11.027 0-6.098-.168-11.028-8.015-11.028z"/></g><g><path fill="#d6d6d6" d="M330.325 98.334h21.833s2.555 93.317-40.807 125.22c-39.735 29.236-110.066-6.944-119.956-13.888l-188.788.82v-25.14h190.427s68.972 46.527 104.291 19.972c33.666-25.374 33-106.984 33-106.984z"/></g><g><path fill="#263238" d="M153.618 170.318c3.236 9.236-8.875 32.973-8.875 32.973l-38.597 87.068s-2.777.986-6.944-2.014c-4.166-3-4.597-5.444-4.597-5.444s17.834-99.79 21.07-116.249c3-15.278 13.054-21.624 21.22-22.041 8.167-.417 38.153 11.11 38.153 11.11s52.514 14.653 59.583 40.889c0 0-17.472 14.806-31.153 13.417l-13.291-8.333-46.11-.668 9.54-30.708z"/></g><g><g><path fill="#151b1e" d="M154.024 169.224l41 9.472c12.124 2.778 28.152-1.278 28.152-1.278s12.333.598 15.056 9.334a27.86 27.86 0 0 1-.543 16.916l-18.29 1.097-67.959-17.194s3.945-11.806 2.584-18.347z"/></g><g><path fill="#151b1e" d="M128.802 144.6c4.93 5.097 15.278 20.721 21.166 44.943l-8.249 17.167-11.834-53.763-3.458-7.043z"/></g><g><path fill="#151b1e" d="M108.816 200.738s10.348 48.096 8.333 65.43l13.709-25.723-23.486-49.998 1.444 10.292z"/></g></g><g><path fill="#1e4679" d="M87.675 297.622c-1.556 2.375-16.125 14.264-22.889 17.806-6.764 3.542-5.805 8.667-.597 10.056a24.652 24.652 0 0 0 21.305-4.611c5.097-3.96 10.348-2.306 13.139-4.293 2.014-1.388 3.764-3.638 3.889-11.04a48.164 48.164 0 0 1 3.389-15.279"/></g><g><path fill="#eeb08a" d="M105.896 290.318l-11.32-7.82s-2.138 8.5-4.818 12.68a51.011 51.011 0 0 1-7.264 7.375c-.111 1.82.389 7.903 12.207 5.305a13.291 13.291 0 0 0 8.001-5 54.947 54.947 0 0 1 3.194-12.54z"/></g><g><path fill="#263238" d="M171.438 154.82s-20.763-14.057-39.5-21.543c-13.291-5.319-25-6.222-30.11-1.389-12.376 11.792-9.194 23.945-4.806 35.348 4.389 11.402 36.653 81.665 36.653 81.665s10.123.779 14.235-5.083L132.536 163.5s-.5-6.167-7.084-14.154l4.597-3.388 41.389 8.86z"/></g><g><path fill="#1e4679" d="M146.271 248.179s3.666 5.153 7.583 7.069c3.917 1.917 8.333 4.931 6.403 10.083-2.778 7.792-7.89 4.167-6.945 16.403.682 9.236-7.75 20.457-15.72 17.736-7.973-2.723-.335-16.57 1.387-25.5 1.723-8.93-4.958-25.236-4.958-25.236l12.25-.554z"/></g><g><path fill="#eeb08a" d="M152.2 254.248c-3.234-2.291-4.165-10.416-4.165-10.416l-14.041 4.902s5.943 15.486 5.138 23.848l.153.11s-1 13.195 5.556 3.764c3.86-5.485 8.041-18.18 7.36-22.208z"/></g><g><path fill="none" stroke="#bb0a10" stroke-miterlimit="20" stroke-width="1.23" d="M249.117 165.887a113.785 113.785 0 0 1-10.348-13.43m21.112-5.625s8.847 5.056 11.416 7.376m-25.471-14.195v0l14.055 6.82v0l-4.625-43.348v0"/></g><g><path fill="#eeb08a" d="M245.826 140.013a52.165 52.165 0 0 0-3.473-8.513c-2.986-5.75-12.5-2.542-15.597-.361-3.097 2.18-1.806 3.263-.235 3.708 0 0-4.487 2.778 0 4.708 0 0-3.598 2.916.332 4.375 0 0-3.042 2.598.39 3.972 2.513-1.139 3.568.14 3.568.14a5.208 5.208 0 0 0 2.918 3.763 8.403 8.403 0 0 0 5.485.36s8.21-5.374 6.612-12.152z"/></g><g><path fill="url(#pwycf)" d="M239.465 129.042s1.167 12.388-4.541 19.055a5.207 5.207 0 0 1-4.167 0c-2.778-1.39.319 9.138.319 9.138s7.444-1.166 7.736-1.263a74.093 74.093 0 0 0 7.264-6.195c0-.39 3-9.389 2.903-9.722-.097-.334-.39-7.153-1.07-7.736-.68-.584-6.291-4.263-6.68-4.444-.39-.18-1.764 1.167-1.764 1.167z"/></g><g><path fill="none" stroke="#bb0a10" stroke-miterlimit="20" stroke-width="1.23" d="M200.215 92.223v0s-14.222 11.652-14.582 20.388a55.63 55.63 0 0 0 .597 9.722l2.027 11.11v0m63.32-29.068s1.985 6.472 4.72 9.209"/></g><g><path fill="#8e8e8e" d="M225.34 202.624a161.304 161.304 0 0 1-32.542-17.055h-40.166l-11 24.513 49.527-.194c3.43 2.43 14.098 8.332 28.333 13.57z"/></g><g><path fill="none" stroke="#1b2246" stroke-miterlimit="20" stroke-width="1.23" d="M191.16 209.888l.805-12.611"/></g><g><path fill="#4e273f" d="M219.66 34.473c0-.737.447-1.334 1-1.334.552 0 1 .597 1 1.334 0 .736-.448 1.333-1 1.333-.553 0-1-.597-1-1.333z"/></g><g><path fill="#4e273f" d="M210.605 34.376c0-.736.447-1.333 1-1.333.552 0 1 .597 1 1.333 0 .737-.448 1.334-1 1.334-.553 0-1-.597-1-1.334z"/></g><g><path fill="#263238" d="M206.104 23.21s3.042-1.64 10.18-1.723c9.57-.11 11.806 1.888 11.806 1.888a19.833 19.833 0 0 1 3.445-6.346l.152 46.902s2.014 18.847 4.709 23.611c0 0 6.736-5.056 12.11-8.417 5.376-3.361 9.723-5.389 14.14-4.708 0 0-8.417-1.68-7.75-25.582.666-23.903-.334-31.945-10.764-39.042-10.43-7.097-33.638-5.098-38.028 13.416z"/></g><g><path fill="#4e273f" d="M208.492 28.96v-.001zm1.25-1.39c.516-.39 1.1-.683 1.723-.86a4.25 4.25 0 0 1 1.971 0c.649.145 1.23.502 1.653 1.013a11.101 11.101 0 0 0-1.75-.083 8.723 8.723 0 0 0-1.583.263c-1.028.21-2.056.64-3.264 1.056a4.166 4.166 0 0 1 1.25-1.389zm10.042-.138zm1.791-.64a5.25 5.25 0 0 1 1.93.098c.65.168 1.25.486 1.75.93.492.441.824 1.032.945 1.681a11.1 11.1 0 0 0-1.486-.93 8.75 8.75 0 0 0-1.5-.543c-1.056-.262-2.153-.374-3.43-.596a4.166 4.166 0 0 1 1.791-.64z"/></g><g><path fill="#eeb08a" d="M215.617 33.848a7.486 7.486 0 0 1-3.111 6.124c-3.305 2.307.959 4.612 3.278 5.82"/></g><g><path fill="#ba5427" d="M215.617 33.848a6.57 6.57 0 0 1-.583 3.959 6.845 6.845 0 0 1-1.195 1.708c-.474.45-.975.872-1.499 1.264-.386.285-.583.76-.515 1.236.177.535.493 1.015.917 1.389.961.861 1.976 1.66 3.042 2.389a12.498 12.498 0 0 1-3.57-1.779 3.597 3.597 0 0 1-1.388-1.749 1.902 1.902 0 0 1 0-1.278c.158-.367.39-.698.681-.973.582-.54 1.083-.777 1.5-1.236.443-.414.835-.88 1.166-1.388a9.722 9.722 0 0 0 1.444-3.542z"/></g><g><path fill="#91293b" d="M216.256 49.085c2.014 0 5.195-.431 7.097-2.362 0 0 .445 4.736-3.125 5.556-2.777.68-3.833-2.96-3.833-2.96a2.717 2.717 0 0 1-.139-.235z"/></g><g><path fill="#fff" d="M216.256 49.085s.153.36.263.638c.112.278 5.126.916 6.834-3 0 .014-1.971 2.236-7.097 2.36z"/></g><g><path fill="#ba5427" d="M218.284 52.112s1.847-2.583 4.166-1.236a3.486 3.486 0 0 1-4.166 1.236z"/></g><g transform="rotate(-65.28 226.675 41.575)"><path fill="url(#pwycg)" d="M222.116 41.572a4.556 4.556 0 1 1 9.111 0 4.556 4.556 0 0 1-9.111 0z"/></g><g><path fill="url(#pwych)" d="M270.936 153.375l-11.833-17.347 1.084 10.569s7.763 4.444 10.75 6.778z"/></g><g><path fill="url(#pwyci)" d="M206.104 74.584a41.078 41.078 0 0 1 13.347.195l.514-3.57s-4.583-.167-13.86 3.375z"/></g><g><path fill="#eeb08a" d="M226.534 139.569a19.567 19.567 0 0 1 7.166-1.611M226.631 144a13 13 0 0 1 6.305-1.39m-6.708-7.68a16.665 16.665 0 0 1 6.945-1.596"/><path fill="none" stroke="#ba5427" stroke-miterlimit="20" stroke-width="1.11" d="M226.534 139.569a19.567 19.567 0 0 1 7.166-1.611M226.631 144a13 13 0 0 1 6.305-1.39m-6.708-7.68a16.665 16.665 0 0 1 6.945-1.596"/></g><g><path fill="#8e8e8e" d="M193.965 217.526l-10.318 98.75-1.266-.098 4.765-99.166z"/></g><g><path fill="#43c59e" d="M280.729 177.805s1.54 21.263 12 27.694c10.457 6.43 6.457 10.139 7.068 14.444a15.542 15.542 0 0 0 8.333 11.39c4.612 2.15-.915 10.457 13.542 18.762 14.459 8.306 12.917 36.611 12.917 49.528h2.777s-.763-35.805-8-56.944c-7.388-21.528-15.068-36.916-30.763-48.61-15.694-11.695-17.874-16.264-17.874-16.264z"/></g><g><path fill="url(#pwycj)" d="M209.076 127.624s-2.486-9.805 5.876-11.722c6.347-1.389 12.207 1.126 14.417-.374 3.277-2.236-1.39-5.39-5.557-7.472-3.791-1.875-2.777-6.125.612-7.528 3.75-1.57 18.25.195 13.986-7.111l15.277.583s1.82 7.889-7.902 10.375c-9.722 2.486-8.917 2.111-7.306 5.555 1.611 3.444-1.39 9.223-12.166 9.611-10.778.39-9.125 5.764-8.112 8.07z"/></g><g><path fill="#263238" d="M222.576 152.305l-17.806-.166-1.958-25.042h21.75z"/></g><g><path fill="#dedede" fill-opacity=".18" d="M221.493 127.083l-11.334 25.111 12.417.111 1.986-25.208z"/></g><g opacity=".3"><path fill="none" stroke="#87670e" stroke-miterlimit="20" stroke-width="1.23" d="M219.978 71.223v0s-1.957 9.721-1.207 11.444c.75 1.722 2.042 5.709 8.888 2.334 6.848-3.376 6.611-4.376 6.611-4.376v0"/></g><g><g><path fill="#fea7a7" d="M224.29 207.85c.242-.31.38-.69.518-1.069a18.014 18.014 0 0 1 2.518-4.76c.241-.31.483-.62.62-1 .346-.897-.068-1.897-.551-2.76-2.587-4.38-7.279-7.071-12.073-8.83-3.243-1.173-6.658-2.036-10.107-1.898-1.38.07-2.795.31-3.898 1.07-1.104.793-1.794 2.035-2.14 3.38-.344 1.31-.344 2.69-.31 4.036.104 3.863.518 7.796 2.001 11.349.414.966.897 1.932 1.621 2.656.725.759 1.76 1.276 2.795 1.207 1.069-.034 2-.655 2.932-1.173a20.071 20.071 0 0 1 8.416-2.414c1.38-.07 2.863-.07 4.243.276 1.104.345 2.518 1 3.415-.07z"/></g><g><path fill="url(#pwyck)" d="M212.872 211.404c-3.622 2.138-4.794 5.277-7.002 9.658-2.311-2.104-3.657-5.174-4.795-8.072-2.277-5.864-4.553-12.142-3.277-18.316.517-2.553 1.932-5.21 4.38-6.071 1.83-.656 3.864-.173 5.624.69 3.587 1.69 6.312 4.76 8.934 7.726 1.38 1.587 2.794 3.14 4.001 4.83.897 1.241 3.691 4.208 3.588 5.83-.138 1.69-3.83.827-5.244 1.069-2.276.31-4.242 1.517-6.209 2.656z"/></g><g><g><path fill="#fa8780" d="M274.688 337.828c-11.35-.552-15.213-4.07-15.627-6.899l-2.104-22.284c0-1.38 3.208-1.448 4.588-1.448h28.01c1.38 0 3.725 1.069 3.725 2.449l-1.241 21.283c-.173 3.691-8.452 7.313-17.351 6.9z"/></g><g><path fill="#fa8780" d="M336.365 328.307c10.624-1.655 13.901-5.346 14.04-8.071l2.483-39.014c-.138-1.311-5.588-4.209-6.899-4.07l-26.734 23.766c-1.31.138-3.415 1.38-3.277 2.691l3.277 19.938c.621 3.484 8.762 6.071 17.11 4.76z"/></g><g><path fill="#fa8780" d="M237.778 326.272c-10.28-.483-13.764-3.69-14.178-6.243l-1.897-20.214c0-1.242 2.932-1.311 4.174-1.311h25.388c1.242 0 3.381.966 3.381 2.207l-1.138 19.318c-.173 3.346-7.658 6.623-15.73 6.243z"/></g><g><path fill="#f0756e" d="M289.555 307.162h-1.242l-1.207 20.87c-.207 3.725-8.452 7.347-17.386 6.899-4.001-.207-7.037-.76-9.348-1.518 1.932 2.104 6.21 4.001 14.316 4.38 8.9.45 17.178-3.207 17.385-6.898l1.242-21.284c-.035-1.38-2.38-2.449-3.76-2.449z"/></g><g><path fill="#f0756e" d="M346.023 277.151l-.241.207c1.138.725 2 1.483 2.035 2l-2.449 39.015c-.138 2.725-3.415 6.416-14.04 8.072-3.483.552-6.933.414-9.796-.173 3.07 1.932 8.934 2.967 14.867 2.07 10.625-1.656 13.902-5.347 14.04-8.072l2.484-39.014c-.138-1.31-5.589-4.243-6.9-4.105z"/></g><g><path fill="#f0756e" d="M251.265 298.47h-2.518l-1.035 17.902c-.172 3.346-7.658 6.658-15.764 6.244-3.208-.173-5.76-.586-7.761-1.173 1.345 2.173 5.243 4.38 13.625 4.795 8.072.38 15.592-2.898 15.765-6.244l1.138-19.317c-.069-1.242-2.208-2.208-3.45-2.208z"/></g><g><path fill="#fa8780" d="M302.111 323.616c-9.59-.483-12.867-3.69-13.211-6.243l-1.794-20.214c0-1.242 2.725-1.311 3.898-1.311h23.698c1.173 0 3.173.966 3.173 2.207l-1.034 19.318c-.207 3.346-7.21 6.623-14.73 6.243z"/></g></g><g><g><path fill="#fa8780" d="M369.342 250.59c0 39.187-19.076 69.956-87.376 71.37-56.123 1.139-85.548-31.804-85.548-70.99 0-39.187 41.774-73.302 89.067-73.164 61.918.241 83.857 33.598 83.857 72.784z"/></g></g><g><g><path fill="#f0756e" d="M326.637 231.238c-1.38 1-2.104 2.657-2.38 4.312-.656 3.898.828 7.796 1.69 11.66.863 3.863.932 8.416-1.862 11.21-2.553 2.519-6.59 2.795-9.487 4.864-3.38 2.45-4.622 7.244-3.346 11.211 1.242 3.967 4.657 7.037 8.59 8.486 3.898 1.449 8.244 1.414 12.314.517 2.553-.551 5.106-1.483 6.934-3.311 2.414-2.415 3.173-5.968 4.415-9.176 1.311-3.38 3.312-6.52 5.795-9.175 2.036-2.14 4.381-4.002 6.14-6.382 4.45-6.106 3.933-14.833.449-21.525-.862-1.656-1.932-3.277-3.45-4.312-3.242-2.173-7.52-1.276-11.314-.31-2.656.69-4.726 1.07-7.416.966-2.38-.07-5.037-.483-7.072.965z"/></g><g><path fill="#f0756e" d="M293.384 286.224c-4.243.896-8.348 3.484-9.935 7.52-.793 2.07-.759 4.69.863 6.14 1.38 1.241 3.415 1.31 5.243 1.31h13.35c1.034 0 2.104 0 3.035-.448 2.484-1.173 2.829-4.588 4.519-6.761 1.035-1.345 2.76-2.484 2.553-4.174-.138-1.173-1.208-2.035-2.243-2.587-4.38-2.311-12.66-2-17.385-1z"/></g><g><path fill="#f0756e" d="M298.938 271.011c-.483-.172-1-.31-1.518-.276-1.863.207-2.69 2.553-4.346 3.415-.932.483-2.208.621-2.622 1.587-.242.586-.035 1.276.345 1.794 1 1.449 2.932 1.966 4.691 1.897 1.76-.069 3.45-.655 5.174-.966 1.725-.31 3.622-.31 5.106.69.552.38 1.31.897 1.828.448a.983.983 0 0 0 .276-.482c.552-1.484-.104-3.208-1.242-4.243-1.242-1.104-2.69-1.07-4.105-1.69-1.276-.587-2.242-1.656-3.587-2.174z"/></g><g><path fill="#f0756e" d="M355.44 220.993c-1-.276-2.07-.517-3.035-.172-.966.345-1.656 1.621-1.07 2.449.656.931 2.174.586 3.07 1.31.518.38.725 1.036 1.14 1.553.413.483 1.241.759 1.655.276-.207-1.518-.07-3.07.345-4.553.103-.345.207-.725-.07-1.035-.172-.207-.448-.31-.724-.31-.551 0-1 .31-1.414.62"/></g><g><path fill="#f0756e" d="M319.014 289.88c-.552.862-1.104 1.828-1.07 2.829.035 1 1.035 2.07 2.036 1.724 1.07-.344 1.207-1.897 2.173-2.552.517-.38 1.207-.38 1.794-.621.586-.242 1.103-.966.758-1.483-1.517-.276-2.966-.828-4.242-1.69-.207-.139-.414-.311-.69-.311-.449-.035-.828.414-.897.862-.07.449.069.897.241 1.311"/></g><g><path fill="#f0756e" d="M276.62 297.745c-.76.138-1.553.31-2.036.897-.483.586-.414 1.656.31 1.897.207.07.414.035.621.104.518.137.966.793 1.484.62.655-.206.414-1.207.724-1.828.104-.207.31-.38.38-.586.206-.552-.587-1.173-1.07-.828"/></g><g><path fill="#f0756e" d="M318.703 250.176c-.759.138-1.552.31-2.035.897-.483.587-.414 1.656.31 1.897.208.07.415.035.622.104.517.138.965.793 1.483.62.655-.206.414-1.207.724-1.827.104-.207.31-.38.38-.587.207-.552-.587-1.173-1.07-.828"/></g></g><g><path fill="#f0756e" d="M238.364 258.386c0-3.277 2.487-5.933 5.554-5.933s5.554 2.656 5.554 5.933c0 3.277-2.487 5.933-5.554 5.933s-5.554-2.656-5.554-5.933z"/></g><g><path fill="url(#pwycl)" d="M210.423 248.796c-1.138-.069-4.312-.138-7.416-.103v40.704c2.621-.034 5.243-.241 6.968-.172 10.348.517 17.696-9.073 18.213-19.904.518-10.831-7.416-20.007-17.765-20.525z"/></g><g><g><path fill="#fea7a7" d="M269.479 218.406c-.759-4.208-2.208-8.244-4.14-12.073-1.207-2.346-2.483-4.726-4.208-6.726-2.139-2.45-5.036-4.347-8.21-5.071a8.047 8.047 0 0 0-3.139-.725c-.931 0-1.897.173-2.69.621-.863.483-1.553 1.242-2.174 2-3.656 4.554-5.933 10.039-8.003 15.49-.275.724-.344 1.517-.138 2.276.449 1.656 1.553 1.207 2.691 1.276 1.31.07 2.587.483 3.795 1.07 2.552 1.241 5.001 2.863 6.623 5.174 4.346 6.278 3.242 12.487 3.242 12.35 0 0 .07.827.414 1.034 1.897 1.138 4.898.138 6.865-.794 3.863-1.828 7.761-4.518 9.003-8.623.759-2.311.517-4.864.069-7.279z"/></g></g><g><g><path fill="#d8592f" d="M313.495 190.362c-.207 0-.414-.035-.656-.104-26.25-8.037-44.878-.931-45.085-.862-1.138.448-2.38-.104-2.829-1.242-.448-1.138.104-2.38 1.242-2.829.828-.31 20.249-7.726 47.948.725 1.139.345 1.794 1.587 1.45 2.725a2.163 2.163 0 0 1-2.07 1.587z"/></g></g><g><g><path fill="#fa8780" d="M371.446 215.06c.656-.207 1.38-.414 2.173-.62 1.346-.38 2.519-.208 3.484.448 1.898 1.276 2.864 4.277 3.036 6.002.276 2.484-.828 4.967-2.656 6.002-.655.38-1.414.483-1.863.276-4.243-2.035-4.484-6.692-4.312-10.038v-.828c-.034-.38.035-.793.138-1.242zm7.83 15.006c3.105-1.76 4.899-5.589 4.45-9.521-.276-2.725-1.655-6.623-4.553-8.59a7.304 7.304 0 0 0-4.726-1.241 17.287 17.287 0 0 1 5.554-3.726c.897-.38 1.31-1.448.932-2.345-.38-.897-1.45-1.311-2.346-.932-3.174 1.346-6.002 3.484-8.21 6.14-.655.794-1.207 1.587-1.621 2.38-1.415.518-2.725 1.105-4.312 1.794-.483.207-.966.414-1.483.656-2.07.897-4.45 2.035-6.14 4.105-2.036 2.449-2.45 5.83-1.035 8.21.517.862 1.586 1.138 2.449.62.862-.517 1.138-1.586.62-2.449-.724-1.242-.206-3 .725-4.105 1.207-1.448 3.139-2.345 4.83-3.104.517-.242 1.034-.449 1.483-.656a39.68 39.68 0 0 1 1.862-.827v.069c0 .103-.034.241-.034.414-.345 6.76 1.794 11.28 6.347 13.453 1.173.551 2.621.586 4.001.138.414-.138.794-.31 1.208-.483z"/></g></g><g><g transform="rotate(-79.17 206.2 235.11)"><path fill="#a64424" d="M200.435 235.111c0-1.486 2.58-2.69 5.76-2.69 3.183 0 5.762 1.204 5.762 2.69s-2.58 2.691-5.761 2.691c-3.182 0-5.76-1.205-5.76-2.69z"/></g><g><path fill="#7a321b" d="M205.525 240.76c-1.449-.277-2.173-3.036-1.552-6.176.552-2.828 1.966-4.967 3.277-5.14-1.45-.24-3.105 2.036-3.691 5.14-.587 3.14.103 5.865 1.552 6.175.138.035.31.035.414 0 .034 0 0 0 0 0z"/></g></g><g><g transform="rotate(-79.17 228.315 240.36)"><path fill="#a64424" d="M222.277 240.364c0-1.563 2.703-2.829 6.037-2.829s6.037 1.266 6.037 2.829c0 1.562-2.703 2.828-6.037 2.828s-6.037-1.266-6.037-2.828z"/></g><g><path fill="#7a321b" d="M227.602 246.278c-1.518-.276-2.277-3.173-1.622-6.45.552-2.967 2.036-5.21 3.45-5.416-1.518-.242-3.243 2.139-3.863 5.416-.621 3.277.103 6.174 1.62 6.45.139.035.311.035.45 0h-.035z"/></g></g><g transform="rotate(-87.207 202.435 269.005)"><path fill="#fea7a7" d="M182.152 269.006c0-9.83 9.08-17.8 20.283-17.8 11.202 0 20.283 7.97 20.283 17.8 0 9.83-9.081 17.799-20.283 17.799-11.202 0-20.283-7.97-20.283-17.8z"/></g><g><g><path fill="#d8592f" d="M191.382 267.734c0-3.143 1.158-5.691 2.587-5.691 1.429 0 2.587 2.548 2.587 5.691 0 3.144-1.158 5.692-2.587 5.692-1.429 0-2.587-2.548-2.587-5.692z"/></g><g><path fill="#fff" d="M194.728 262.25c.966.862 1.656 2.966 1.656 5.484s-.69 4.623-1.656 5.485c1.07-.69 2.104-2.863 2.104-5.45 0-2.622-1.035-4.795-2.104-5.52z"/></g><g><path fill="#a64424" d="M192.003 267.907c0-3.14 1.173-5.692 2.587-5.692-.207-.104-.38-.172-.621-.172-1.414 0-2.587 2.552-2.587 5.691 0 3.14 1.138 5.692 2.587 5.692-1.138-.587-1.966-2.829-1.966-5.52z"/></g></g><g><g><path fill="#d8592f" d="M202.144 270.632c0-3.144 1.159-5.692 2.588-5.692 1.428 0 2.587 2.548 2.587 5.692 0 3.143-1.159 5.691-2.587 5.691-1.43 0-2.588-2.548-2.588-5.691z"/></g><g><path fill="#fff" d="M205.456 265.147c.966.862 1.656 2.967 1.656 5.485 0 2.518-.69 4.622-1.656 5.484 1.07-.69 2.07-2.897 2.07-5.484 0-2.622-1-4.795-2.07-5.485z"/></g><g><path fill="#a64424" d="M202.73 270.804c0-3.139 1.174-5.691 2.588-5.691-.207-.104-.38-.173-.621-.173-1.414 0-2.587 2.553-2.587 5.692 0 3.139 1.138 5.691 2.587 5.691-1.138-.586-1.966-2.828-1.966-5.519z"/></g></g><g><path fill="url(#pwycm)" d="M249.54 222.235c2.312 3.622 3.312 7.934 3.657 12.246 3.83-6.278 5.036-13.798 5.899-21.111.483-4.07.862-8.279-.449-12.177-1.31-3.898-4.76-7.347-8.83-7.382-.932 0-1.898.173-2.691.621-.862.483-1.552 1.242-2.173 2-3.415 4.278-5.657 9.418-7.624 14.523-.414 1.035-.793 2.173-.483 3.243.449 1.621 1.553 1.207 2.691 1.276 1.31.07 2.587.483 3.795 1.07 2.483 1.276 4.656 3.311 6.209 5.691z"/></g><g><path fill="#ee7460" d="M358.718 209.714c4.035 8.485 6.07 17.799 6.07 27.561 0 39.187-29.872 70.956-101.208 72.336-17.213.345-32.011-2.276-44.326-7.071 14.35 12.418 35.392 19.972 62.746 19.42 68.266-1.38 87.377-32.183 87.377-71.37-.035-15.005-3.243-29.114-10.66-40.876z"/></g><g><path fill="#fff" d="M202.834 251.142c.897-.034 1.829.104 2.725.31.897.208 1.76.518 2.622.897.828.38 1.656.863 2.415 1.38.172.138.38.276.552.414l.552.449.517.483c.172.172.31.345.483.482.62.69 1.207 1.415 1.725 2.208.069.104.138.207.172.31l.173.311c.103.207.241.414.345.621.207.414.413.828.586 1.276.69 1.725 1.138 3.519 1.276 5.313-.517-1.76-1.104-3.45-1.897-5.037-.103-.207-.207-.414-.31-.586l-.31-.587c-.104-.207-.242-.379-.346-.551l-.172-.276c-.07-.104-.138-.173-.173-.276l-.38-.552-.413-.518-.414-.517-.207-.242c-.07-.069-.138-.172-.242-.241a11.949 11.949 0 0 0-1.966-1.76c-.69-.551-1.449-1-2.207-1.448-.104-.07-.207-.104-.276-.173l-.31-.138c-.208-.103-.415-.207-.587-.276-.207-.103-.414-.172-.621-.276-.207-.069-.414-.172-.621-.241a16.66 16.66 0 0 0-2.69-.759z"/></g><g><path fill="#fff" d="M257.785 197.33c.31.172.586.38.828.62.241.242.483.518.69.794a9.311 9.311 0 0 1 1.035 1.794c.552 1.276.862 2.656 1.035 4.001.138 1.38.138 2.76.034 4.105a22.725 22.725 0 0 1-.759 4.002c.035-1.38.07-2.726.07-4.036 0-1.346-.07-2.656-.208-3.967-.138-1.311-.38-2.622-.793-3.864a12.032 12.032 0 0 0-.76-1.828c-.344-.586-.689-1.138-1.172-1.621z"/></g><g><path fill="#fff" d="M206.284 188.016c.276-.034.552 0 .828.035.138 0 .276.034.414.034.138 0 .276.035.414.07.552.103 1.069.275 1.586.448 1.035.379 2.001.93 2.898 1.552l.655.483.621.517c.207.173.414.345.621.552l.587.587.138.138.138.138.275.31.518.62c.172.208.31.45.483.656.138.207.31.449.448.69-.414-.345-.793-.724-1.207-1.07l-.621-.517c-.207-.172-.38-.345-.586-.517-.414-.345-.794-.69-1.242-1-.207-.173-.414-.31-.621-.483l-.655-.449a26.508 26.508 0 0 0-2.691-1.621 18.482 18.482 0 0 0-1.449-.655c-.517-.207-1-.38-1.552-.518z"/></g><g><path fill="#fff" d="M327.43 189.568c1.346.449 2.657 1 3.933 1.622 1.276.62 2.553 1.242 3.76 1.966l.931.517c.31.173.621.38.897.552l.897.552.897.587a62.547 62.547 0 0 1 3.45 2.483c1.138.863 2.207 1.794 3.277 2.725.517.483 1.069.966 1.552 1.45.241.24.517.482.759.758l.724.759c.242.241.483.517.724.793.242.276.483.518.725.794.448.552.931 1.07 1.38 1.621a34.97 34.97 0 0 1 2.483 3.45c-.931-1.07-1.828-2.14-2.828-3.174a81.197 81.197 0 0 0-2.967-3.001c-1-.966-2.07-1.897-3.104-2.829-.552-.448-1.07-.897-1.622-1.345-.552-.448-1.104-.862-1.655-1.31-2.243-1.691-4.52-3.312-6.9-4.796-.586-.38-1.207-.724-1.793-1.103-.31-.173-.621-.345-.897-.552l-.931-.518a41.874 41.874 0 0 0-3.691-2z"/></g></g><g transform="rotate(19 297.715 160.215)"><g><g><path fill="#f5b104" d="M302.213 184.341a7.58 7.58 0 0 0 1.448-.31c7.141-2.622 8.797-13.35 8.797-23.802 0-10.349-2.69-20.559-9.52-23.698-2.036-.931-5.969-.449-8.176-.449-9.762 0-17.696 10.832-17.696 24.182 0 12.9 7.382 23.422 16.695 24.112h8.452z"/></g></g><g><g><g><path fill="#fffea3" d="M283.206 164.265c-.07-.448-.104-.897-.138-1.345l-5.864.31c.034.449.103.897.138 1.345z"/></g></g><g><g><path fill="#fffea3" d="M284.517 170.13l-.414-1.346-5.795.31.414 1.346z"/></g></g><g><g><path fill="#fffea3" d="M287.173 175.924c-.242-.345-.449-.724-.656-1.104l-5.726.31c.207.38.449.76.656 1.105z"/></g></g><g><g><path fill="#fffea3" d="M291.312 180.754c-.31-.276-.62-.552-.931-.863l-5.588.31c.31.311.655.587 1 .863z"/></g></g><g><g><path fill="#fffea3" d="M295.348 183.306c-.31-.138-.586-.276-.862-.414l-5.312.276c.31.138.655.276.965.414z"/></g></g><g><g><path fill="#fffea3" d="M283.723 153.123c.07-.38.173-.759.276-1.138l-5.83-.276c-.103.38-.206.759-.275 1.104z"/></g></g><g><g><path fill="#fffea3" d="M285.517 147.673c.173-.38.345-.76.517-1.104l-5.726-.31c-.172.344-.38.724-.552 1.103z"/></g></g><g><g><path fill="#fffea3" d="M282.895 142.257l5.658.31c.241-.31.483-.586.724-.862l-5.623-.31c-.241.276-.517.586-.758.862z"/></g></g><g><g><path fill="#fffea3" d="M287.897 137.945l5.416.276.724-.414-5.346-.276a4.37 4.37 0 0 0-.794.414z"/></g></g><g><g><path fill="#fffea3" d="M282.964 158.987c0-.448.035-.897.07-1.345h-5.9c-.034.448-.068.897-.068 1.345z"/></g></g></g><g><g><path fill="#ffd000" d="M282.964 160.229c0-13.355 7.923-24.181 17.696-24.181 9.774 0 17.696 10.826 17.696 24.181s-7.922 24.181-17.696 24.181c-9.773 0-17.696-10.826-17.696-24.181z"/></g></g><g><g opacity=".54"><g opacity=".54"><path fill="#fff" d="M303.73 136.427l-20.42 28.631a32.287 32.287 0 0 0 1.276 5.313l23.077-32.322c-1.242-.76-2.553-1.277-3.933-1.622z"/></g></g><g opacity=".54"><g opacity=".54"><path fill="#fff" d="M317.839 154.537a31.686 31.686 0 0 0-1.38-5.174L293.106 182.1c1.207.759 2.484 1.38 3.829 1.76z"/></g></g><g opacity=".54"><g opacity=".54"><path fill="#fff" d="M318.356 160.229c0-.862-.034-1.69-.103-2.518l-19.007 26.63c.449.035.932.07 1.38.07.38 0 .724 0 1.07-.035l16.626-23.285c.034-.31.034-.586.034-.862z"/></g></g></g><g><g><path fill="#ffbf00" d="M288.415 160.229c0-9.24 5.482-16.73 12.245-16.73 6.764 0 12.246 7.49 12.246 16.73s-5.482 16.73-12.246 16.73c-6.763 0-12.245-7.49-12.245-16.73z"/></g></g><g><path fill="#d9891a" d="M289.829 160.126c0-8.59 4.726-15.661 10.831-16.627h-.034c-6.761 0-12.246 7.485-12.246 16.73 0 9.245 5.485 16.73 12.246 16.73.483 0 .931-.034 1.414-.103-6.726-.035-12.211-7.52-12.211-16.73z"/></g><g><g><path fill="#f2ae00" d="M312.7 160.229c0 9.107-5.417 16.523-12.04 16.523-6.657 0-12.038-7.416-12.038-16.523s5.415-16.523 12.038-16.523 12.04 7.416 12.04 16.523zm-12.04 16.937c6.865 0 12.453-7.589 12.488-16.937 0-9.348-5.623-16.937-12.488-16.937-6.899 0-12.487 7.589-12.487 16.937s5.623 16.937 12.487 16.937z"/></g></g><g><g><path fill="#fff" d="M303.593 184.065c-.69.173-1.415.31-2.174.38-.38.034-.724.069-1.104.034h-.551c-.173 0-.38-.034-.552-.034-.725-.035-1.484-.173-2.208-.345-.173-.035-.345-.104-.552-.138-.173-.07-.345-.104-.517-.173-.345-.138-.69-.241-1.035-.414a3.478 3.478 0 0 1-.518-.241l-.483-.276c-.345-.173-.655-.38-.965-.587-.173-.103-.31-.207-.449-.31l-.448-.31-.449-.345-.207-.173-.103-.069-.104-.103a20.533 20.533 0 0 1-3.035-3.208c-1.794-2.346-3.105-5.037-4.002-7.865a31 31 0 0 1-1.449-8.693c-.034-1.483 0-2.932.173-4.415.138-1.45.414-2.933.759-4.347a28.06 28.06 0 0 1 3.38-8.14 24.031 24.031 0 0 1 2.726-3.52c1.034-1.069 2.173-2.034 3.414-2.828l.483-.276c.173-.103.345-.172.483-.241l.242-.138.138-.07.138-.068.517-.207.518-.207.517-.173.518-.138c.172-.034.344-.103.551-.138.345-.069.725-.172 1.07-.207.172-.034.38-.069.552-.069l.552-.034c.38-.035.724-.035 1.103-.035h.276l.276.035.552.034h-1.104c-.379.035-.724.035-1.069.104l-.552.069-.517.103c-.345.07-.69.173-1.035.276a3.034 3.034 0 0 0-.518.173l-.517.172-.483.207c-.172.07-.345.138-.483.207l-.483.242-.103.069-.104.069-.241.138c-.138.103-.31.172-.449.276l-.448.31c-.31.173-.586.414-.897.587l-.414.31-.414.345-.414.345c-.138.103-.276.241-.414.345l-.38.38-.206.172c-.07.069-.138.138-.173.207-1 1.035-1.862 2.207-2.656 3.415-1.552 2.449-2.621 5.174-3.311 7.968a29.937 29.937 0 0 0-.725 4.278c-.138 1.448-.207 2.897-.138 4.346.104 2.897.552 5.795 1.45 8.52.862 2.76 2.172 5.381 3.897 7.693a19.64 19.64 0 0 0 2.967 3.139 16.563 16.563 0 0 0 3.622 2.31c.31.173.655.311.965.45.173.068.345.137.518.172.172.069.345.103.517.172.69.207 1.38.38 2.105.449.172.034.345.069.551.069l.552.034c.345.035.725.035 1.104.035.552.103 1.277.034 1.967-.104z"/></g></g></g></g></g></svg>