<svg xmlns="http://www.w3.org/2000/svg" width="60" height="60" viewBox="0 0 60 60"><defs><mask id="d63ib" width="2" height="2" x="-1" y="-1"><path fill="#fff" d="M8 5h44v44H8z"/><path d="M8 27C8 14.85 17.85 5 30 5s22 9.85 22 22-9.85 22-22 22S8 39.15 8 27z"/></mask><filter id="d63ia" width="80" height="83" x="-10" y="-13" filterUnits="userSpaceOnUse"><feOffset dy="3" in="SourceGraphic" result="FeOffset4175Out"/><feGaussianBlur in="FeOffset4175Out" result="FeGaussianBlur4176Out" stdDeviation="3.2 3.2"/></filter><clipPath id="d63ic"><path fill="#fff" d="M8 27C8 14.85 17.85 5 30 5s22 9.85 22 22-9.85 22-22 22S8 39.15 8 27z"/></clipPath></defs><g><g><g filter="url(#d63ia)"><path fill="none" d="M8 27C8 14.85 17.85 5 30 5s22 9.85 22 22-9.85 22-22 22S8 39.15 8 27z" mask="url(&quot;#d63ib&quot;)"/><path fill="red" fill-opacity=".27" d="M8 27C8 14.85 17.85 5 30 5s22 9.85 22 22-9.85 22-22 22S8 39.15 8 27z"/></g><path fill="#fff" d="M8 27C8 14.85 17.85 5 30 5s22 9.85 22 22-9.85 22-22 22S8 39.15 8 27z"/><path fill="none" stroke="#ed3237" stroke-miterlimit="20" stroke-width="2" d="M8 27C8 14.85 17.85 5 30 5s22 9.85 22 22-9.85 22-22 22S8 39.15 8 27z" clip-path="url(&quot;#d63ic&quot;)"/></g><g><g><path fill="none" stroke="#ed3237" stroke-linecap="round" stroke-linejoin="round" stroke-miterlimit="20" d="M37.5 26.773v5.334c0 .736-.672 1.333-1.5 1.333H24c-.828 0-1.5-.597-1.5-1.333v-5.334 0"/></g><g><path fill="none" stroke="#ed3237" stroke-linecap="round" stroke-linejoin="bevel" stroke-miterlimit="20" d="M30 20.56v10.76"/></g><g><path fill="none" stroke="#ed3237" stroke-linecap="round" stroke-linejoin="bevel" stroke-miterlimit="20" d="M26.415 28.393v0l3.083 2.734a.818.818 0 0 0 1.057 0l3-2.667v0"/></g></g></g></svg>