<svg xmlns="http://www.w3.org/2000/svg" width="228" height="94" viewBox="0 0 228 94"><g><g><g><g><path fill="#ed3237" d="M28.434 21.343c-3.019 0-4.253-2.508-4.253-5.307 0-2.834 1.234-5.344 4.253-5.344 3.014 0 4.25 2.51 4.25 5.344 0 2.799-1.236 5.307-4.25 5.307m0 4.58c6.25 0 11.01-3.637 11.01-9.887 0-6.288-4.76-9.924-11.01-9.924-6.251 0-11.015 3.636-11.015 9.924 0 6.25 4.764 9.887 11.015 9.887"/></g><g><path fill="#ed3237" d="M38.847 11.127h3.742v7.71c0 4.505 1.418 7.085 7.27 7.085 1.633 0 2.87-.218 4.107-.363l-.22-4.253c-.653.11-1.343.256-1.997.256-2.073 0-2.618-1.167-2.618-3.454v-6.98h4.58V6.55h-4.58L49.129 0l-6.432 2.295V6.55h-3.85z"/></g><g><path fill="#ed3237" d="M76.606 25.486h6.543v-9.378h.072l5.233 9.378h7.923l-7.122-10.25 6.579-8.686h-7.162l-5.451 7.96h-.072V.024L76.606 2.29z"/></g><g><path fill="#ed3237" d="M0 25.486h6.542v-9.378h.073l5.233 9.378h7.925l-7.125-10.25 6.58-8.686h-7.16l-5.453 7.96h-.073V.024L0 2.184z"/></g><g><path fill="#ed3237" d="M74.283 25.576c-.295-1.509-.368-3.014-.368-4.523v-7.139c0-5.848-4.231-7.944-9.123-7.944-2.834 0-5.296.404-7.652 1.363l.112 4.485c1.838-1.03 3.973-1.436 6.107-1.436 2.39 0 4.34.701 4.377 3.311a19.554 19.554 0 0 0-3.09-.258c-3.533 0-9.897.7-9.897 6.55 0 4.155 3.385 6.032 7.177 6.032 2.72 0 4.558-1.066 6.067-3.455h.073c0 .991.11 1.983.147 3.015zm-13.352-6.07c0-1.84 1.765-2.538 4.01-2.538.993 0 1.948.073 2.795.111 0 2.244-1.583 4.524-4.084 4.524-1.545 0-2.721-.774-2.721-2.096"/></g><g><path fill="#002c62" d="M188.759 39.338h4.78a3.616 3.616 0 0 0 3.612-3.61V33.68h-8.392z"/></g><g><path fill="#036" d="M12.162 44.944H22.56v14.464c-1.535.766-4.682 1.497-8.097 1.497C6.215 60.905 0 56.146 0 47.206c0-8.094 4.756-14.003 14.81-14.003 3.49 0 5.83.691 6.943 1.076l-.384 5.716c-1.381-.883-3.414-1.496-5.869-1.496-5.563 0-8.058 3.529-8.058 8.746 0 5.22 2.649 8.212 6.024 8.212.92 0 1.765-.116 2.34-.461v-5.064h-3.644z"/></g><g><path fill="#036" d="M33.953 50.622c-.077 2.955.651 4.989 3.147 4.989 2.493 0 3.145-2.034 3.145-4.99V33.665h7.058v16.728c0 7.827-4.564 10.513-10.203 10.513-5.64 0-10.206-2.686-10.206-10.513V33.664h7.06z"/></g><g><path fill="#036" d="M64.107 49.625h-5.294l2.878-10.513h.076zm2.762 10.819h7.444l-8.518-26.78h-7.94l-8.902 26.78h6.906l1.726-5.679h7.865z"/></g><g><path fill="#036" d="M83.751 44.828v-6.023h1.994c2.11 0 3.069 1.304 3.069 3.146 0 1.727-1.42 2.877-2.954 2.877zm5.717 15.616h7.44l-2.415-8.364c-1.074-3.723-2.073-4.451-3.608-4.95v-.115c2.341-.575 5.142-2.187 5.142-6.138 0-4.95-3.07-7.213-8.479-7.213H76.843v26.78h7.213V49.969h.384c1.15 0 2.34.307 3.032 2.878z"/></g><g><path fill="#036" d="M113.136 49.625h-5.294l2.877-10.513h.077zm2.762 10.819h7.444l-8.517-26.78h-7.942l-8.901 26.78h6.905l1.727-5.679h7.864z"/></g><g><path fill="#036" d="M132.164 41.874h-.153v18.57h-6.291v-26.78h8.364l7.02 18.454h.077V33.665h6.291v26.779h-8.44z"/></g><g><path fill="#036" d="M156.066 39.112h-5.756v-5.448h18.724v5.448h-5.755v21.331h-7.213z"/></g><g><path fill="#036" d="M212.616 38.96h.576c3.913 0 7.21 1.34 7.21 8.21 0 5.179-2.07 8.133-6.213 8.133h-1.573zm-7.213 21.483h9.208c8.48 0 13.389-4.258 13.389-13.542 0-7.982-4.413-13.237-12.276-13.237h-10.321z"/></g><g><path fill="#ed3237" d="M188.76 60.464V54.82h4.148v5.645z"/></g><g><path fill="#036" d="M185.973 54.814l-8.13-.01a.235.235 0 0 1-.195-.23V39.572c0-.121.091-.222.208-.235h8.117v-5.656h-5.069l-.078-.001h-5.408a3.616 3.616 0 0 0-3.611 3.61v19.563a3.615 3.615 0 0 0 3.611 3.611h5.408c.025 0 .049 0 .078-.002h5.069z"/></g><g><path fill="#fff" d="M177.655 49.49v-4.835h7.394v4.835z"/></g><g><path fill="#ed3237" d="M198.573 33.68H189.115v.007h-.357v5.645h4.506v-.006l2.883.013a.234.234 0 0 1 .196.233v15.002c0 .12-.092.219-.207.232h-3.41a3.615 3.615 0 0 0-3.611 3.611v2.047h9.458a3.614 3.614 0 0 0 3.61-3.61V37.29c0-1.99-1.619-3.61-3.61-3.61"/></g><g><path fill="#fff" d="M189.83 49.49v-4.835h6.512v4.835z"/></g><g><path fill="#036" d="M185.05 46.597a4.163 4.163 0 1 1-8.327 0 4.163 4.163 0 0 1 8.326 0"/></g><g><path fill="#ed3237" d="M197.25 46.597a4.164 4.164 0 1 1-8.327 0 4.164 4.164 0 0 1 8.327 0"/></g><g><path fill="#036" d="M12.568 71.261a9.971 9.971 0 0 0-3.913-.827c-1.325 0-3.033.578-3.033 2.675 0 3.333 8.435 1.928 8.435 8.378 0 4.217-3.336 5.813-7.222 5.813-2.095 0-3.032-.274-4.935-.742l.36-3.474c1.322.717 2.838 1.186 4.355 1.186 1.46 0 3.417-.745 3.417-2.481 0-3.666-8.433-2.15-8.433-8.516 0-4.298 3.335-5.87 6.725-5.87 1.653 0 3.196.22 4.602.69z"/></g><g><path fill="#036" d="M17.86 73.52c1.433-.66 3.363-1.074 4.932-1.074 4.328 0 6.12 1.791 6.12 5.98v1.819c0 1.434.027 2.508.054 3.556.028 1.076.082 2.067.167 3.17H25.88c-.14-.744-.14-1.68-.167-2.124h-.054c-.854 1.572-2.7 2.453-4.382 2.453-2.508 0-4.96-1.514-4.96-4.217 0-2.121 1.018-3.362 2.425-4.05 1.405-.689 3.223-.826 4.767-.826h2.04c0-2.288-1.019-3.06-3.198-3.06-1.57 0-3.14.607-4.381 1.544zm4.327 11.08c1.13 0 2.012-.496 2.59-1.268.607-.799.772-1.817.772-2.92h-1.6c-1.653 0-4.105.276-4.105 2.452 0 1.213 1.02 1.736 2.343 1.736"/></g><g><path fill="#036" d="M30.978 72.777h3.97l3.526 10.335h.055l3.417-10.335h3.694L40.404 86.97h-4.161z"/></g><g><path fill="#036" d="M47.957 72.777h3.693V86.97h-3.693zm0-6.12h3.693v3.527h-3.693z"/></g><g><path fill="#036" d="M55.535 72.777h3.499v1.93h.055c1.158-1.627 2.73-2.261 4.66-2.261 3.362 0 4.821 2.37 4.821 5.568v8.957h-3.693v-7.58c0-1.735-.028-4.08-2.397-4.08-2.674 0-3.252 2.895-3.252 4.714v6.946h-3.693z"/></g><g><path fill="#036" d="M85.41 72.776v12.816c0 3.858-1.544 7.497-7.496 7.497-1.462 0-3.143-.222-4.906-.964l.303-3.143c1.129.605 2.976 1.24 4.134 1.24 4.078 0 4.272-3.058 4.272-5.511h-.055c-.69 1.213-2.343 2.259-4.41 2.259-4.19 0-5.788-3.362-5.788-7.166 0-3.416 1.765-7.36 6.009-7.36 1.873 0 3.335.636 4.354 2.262h.054v-1.93zm-3.693 6.946c0-2.426-.936-4.41-3.086-4.41-2.508 0-3.308 2.315-3.308 4.492 0 1.93 1.02 4.3 3.141 4.3 2.317 0 3.253-2.011 3.253-4.382"/></g><g><path fill="#036" d="M97.646 75.753c-1.13-.385-1.957-.605-3.307-.605-.991 0-2.177.358-2.177 1.57 0 2.26 6.421.826 6.421 5.952 0 3.31-2.949 4.632-5.953 4.632-1.404 0-2.838-.249-4.189-.607l.221-3.032c1.157.578 2.37.937 3.638.937.937 0 2.425-.359 2.425-1.737 0-2.784-6.42-.88-6.42-6.007 0-3.06 2.672-4.41 5.566-4.41 1.736 0 2.866.276 4.024.525z"/></g><g><path fill="#036" d="M112.97 70.764h1.35c1.985 0 3.666.773 3.666 3.004 0 2.232-1.736 2.867-3.665 2.867h-1.35zm-3.858 16.207h3.858v-7.304h1.627c4.134 0 7.413-1.627 7.413-6.118 0-4.602-3.83-5.815-8.019-5.815h-4.879z"/></g><g><path fill="#036" d="M124.519 86.97V66.302h3.694v20.67z"/></g><g><path fill="#036" d="M132.732 73.52c1.432-.66 3.363-1.074 4.932-1.074 4.328 0 6.119 1.791 6.119 5.98v1.819c0 1.434.028 2.508.055 3.556.028 1.076.082 2.067.166 3.17h-3.252c-.14-.744-.14-1.68-.167-2.124h-.054c-.855 1.572-2.7 2.453-4.381 2.453-2.509 0-4.962-1.514-4.962-4.217 0-2.121 1.019-3.362 2.426-4.05 1.405-.689 3.223-.826 4.767-.826h2.04c0-2.288-1.019-3.06-3.198-3.06-1.57 0-3.14.607-4.381 1.544zm4.327 11.08c1.13 0 2.012-.496 2.59-1.268.606-.799.772-1.817.772-2.92h-1.599c-1.654 0-4.107.276-4.107 2.452 0 1.213 1.021 1.736 2.344 1.736"/></g><g><path fill="#036" d="M147.421 72.777h3.5v1.93h.054c1.158-1.627 2.73-2.261 4.66-2.261 3.362 0 4.822 2.37 4.822 5.568v8.957h-3.694v-7.58c0-1.735-.027-4.08-2.396-4.08-2.674 0-3.253 2.895-3.253 4.714v6.946h-3.693z"/></g><g/></g></g></g></svg>