<svg xmlns="http://www.w3.org/2000/svg" width="34" height="34" viewBox="0 0 34 34"><defs><clipPath id="icmaa"><path fill="#fff" d="M0 17C0 7.61 7.61 0 17 0c9.388 0 17 7.611 17 17s-7.612 17-17 17C7.61 34 0 26.389 0 17z"/></clipPath></defs><g><g><path fill="#fff" d="M0 17C0 7.61 7.61 0 17 0c9.388 0 17 7.611 17 17s-7.612 17-17 17C7.61 34 0 26.389 0 17z"/><path fill="none" stroke="#ed3237" stroke-miterlimit="20" stroke-width="2" d="M0 17C0 7.61 7.61 0 17 0c9.388 0 17 7.611 17 17s-7.612 17-17 17C7.61 34 0 26.389 0 17z" clip-path="url(&quot;#icmaa&quot;)"/></g><g><path fill="#dc3129" d="M14.596 22.09c-.308-.105-.495-.357-.695-.586-.164-.187-.147-.49.009-.684a1.63 1.63 0 0 1 .118-.128l3.767-3.767c.03-.028.066-.048.105-.076l-.102-.107-3.796-3.797c-.225-.225-.294-.504-.126-.73.155-.208.35-.395.555-.553.194-.149.455-.105.647.052.029.024.056.05.083.076 1.53 1.528 3.058 3.057 4.587 4.587.23.229.279.496.135.743a.85.85 0 0 1-.136.166c-1.528 1.53-3.056 3.06-4.588 4.585-.093.092-.224.147-.337.219h-.226z"/></g></g></svg>