<svg xmlns="http://www.w3.org/2000/svg" width="35" height="35" viewBox="0 0 35 35"><defs><clipPath id="7c8ha"><path fill="#fff" d="M0 17.5C0 7.835 7.835 0 17.5 0S35 7.835 35 17.5 27.165 35 17.5 35 0 27.165 0 17.5z"/></clipPath></defs><g><g><path fill="#fff" d="M0 17.5C0 7.835 7.835 0 17.5 0S35 7.835 35 17.5 27.165 35 17.5 35 0 27.165 0 17.5z"/><path fill="none" stroke="#ed3237" stroke-miterlimit="20" stroke-width="2" d="M0 17.5C0 7.835 7.835 0 17.5 0S35 7.835 35 17.5 27.165 35 17.5 35 0 27.165 0 17.5z" clip-path="url(&quot;#7c8ha&quot;)"/></g><g><path fill="#da251c" d="M19.856 22.365c.308-.105.495-.357.695-.586.163-.187.147-.49-.009-.684a1.632 1.632 0 0 0-.118-.128 6860.32 6860.32 0 0 0-3.768-3.767c-.028-.028-.065-.048-.104-.076l.102-.107 3.796-3.797c.225-.225.294-.504.125-.73a2.885 2.885 0 0 0-.554-.553c-.194-.149-.455-.105-.647.052-.029.024-.057.05-.083.076-1.53 1.528-3.058 3.057-4.587 4.587-.23.229-.28.496-.135.743a.852.852 0 0 0 .135.166c1.529 1.53 3.057 3.06 4.59 4.585.092.092.223.147.336.219h.226z"/></g></g></svg>