<svg xmlns="http://www.w3.org/2000/svg" width="61" height="61" viewBox="0 0 61 61">
  <g id="Group_16976" data-name="Group 16976" transform="translate(-158 -2564)">
    <g id="Ellipse_263" data-name="Ellipse 263" transform="translate(158 2564)" fill="none" stroke="#cecece" stroke-width="1">
      <circle cx="30.5" cy="30.5" r="30.5" stroke="none"/>
      <circle cx="30.5" cy="30.5" r="30" fill="none"/>
    </g>
    <g id="guarantee" transform="matrix(0.208, -0.978, 0.978, 0.208, 163.992, 2610.392)">
      <path id="Path_38437" data-name="Path 38437" d="M105.427,108.49a2.437,2.437,0,0,0-1.736.717l-3.5,3.5a.806.806,0,0,0,1.14,1.14l1.179-1.179,1.192,1.192-1.179,1.179a.806.806,0,0,0,1.14,1.14l3.5-3.5a2.453,2.453,0,0,0-1.736-4.188Zm.6,3.048-1.179,1.179-1.192-1.192,1.179-1.179A.843.843,0,0,1,106.023,111.538Z" transform="translate(-91.87 -99.745)" fill="#ef3e43"/>
      <path id="Path_38438" data-name="Path 38438" d="M363.768,367.326l1.192-1.192.865.865a.806.806,0,0,0,1.14-1.14l-.865-.865,1.192-1.192,1.47,1.47a.806.806,0,1,0,1.14-1.14l-2.04-2.04a.811.811,0,0,0-1.14,0l-4.663,4.663a.811.811,0,0,0,0,1.14l2.04,2.04a.806.806,0,0,0,1.14-1.14Z" transform="translate(-332.632 -332.694)" fill="#ef3e43"/>
      <path id="Path_38439" data-name="Path 38439" d="M328.253,322.122a.8.8,0,0,0,.57-.236l4.093-4.093.45.45a.806.806,0,0,0,1.14-1.14l-2.04-2.04a.806.806,0,1,0-1.14,1.14l.45.45-4.093,4.093a.806.806,0,0,0,.57,1.376Z" transform="translate(-301.025 -289.453)" fill="#ef3e43"/>
      <path id="Path_38440" data-name="Path 38440" d="M4.218,6.521l.861-.861a.811.811,0,0,0,0-1.14L4.5,3.938a.806.806,0,1,0-1.14,1.14l.013.013-.291.291A.843.843,0,0,1,1.887,4.19L4.218,1.859a.842.842,0,0,1,1.4.859.806.806,0,0,0,1.534.5A2.454,2.454,0,0,0,3.078.719L.747,3.05A2.455,2.455,0,0,0,4.218,6.521Z" transform="translate(0 0)" fill="#ef3e43"/>
      <path id="Path_38441" data-name="Path 38441" d="M267.064,271.759l4.663-4.663a.806.806,0,0,0-1.14-1.14l-2.249,2.249,1.252-3.755a.806.806,0,0,0-1.335-.825l-4.663,4.663a.806.806,0,0,0,1.14,1.14l2.249-2.249-1.252,3.755a.806.806,0,0,0,1.335.825Z" transform="translate(-242.099 -242.16)" fill="#ef3e43"/>
      <path id="Path_38442" data-name="Path 38442" d="M160.236,154.49a.811.811,0,0,0-1.14,0l-4.663,4.663a.806.806,0,0,0,1.14,1.14l1.762-1.762.244.244L156.57,161.8a.806.806,0,0,0,1.529.51l.856-2.569a2.456,2.456,0,0,0,2.446-4.085Zm.026,3.5a.851.851,0,0,1-1.186.005l-.016-.015-.586-.586,1.192-1.192.6.6A.843.843,0,0,1,160.262,157.987Z" transform="translate(-141.738 -141.823)" fill="#ef3e43"/>
      <path id="Path_38443" data-name="Path 38443" d="M54.922,52.956a2.471,2.471,0,0,0,3.471,0l3.5-3.5a.806.806,0,0,0-1.14-1.14l-3.5,3.5a.843.843,0,0,1-1.192-1.192l3.5-3.5a.806.806,0,1,0-1.14-1.14l-3.5,3.5a2.457,2.457,0,0,0,0,3.471Z" transform="translate(-49.804 -42.063)" fill="#ef3e43"/>
      <path id="Path_38444" data-name="Path 38444" d="M211.006,224.71a.806.806,0,0,0,1.14,0l3.5-3.5a2.454,2.454,0,0,0-3.471-3.471l-3.5,3.5a.806.806,0,0,0,1.14,1.14l1.179-1.179,1.192,1.192-1.179,1.179A.806.806,0,0,0,211.006,224.71Zm1.127-4.65,1.179-1.179a.843.843,0,0,1,1.192,1.192l-1.179,1.179Z" transform="translate(-191.608 -199.537)" fill="#ef3e43"/>
      <path id="Path_38445" data-name="Path 38445" d="M416.887,411.141l-2.04-2.04a.811.811,0,0,0-1.14,0l-4.663,4.663a.806.806,0,0,0,0,1.14l2.04,2.04a.806.806,0,0,0,1.14-1.14l-1.47-1.47,1.192-1.192.865.865a.806.806,0,0,0,1.14-1.14l-.865-.865,1.192-1.192,1.47,1.47a.806.806,0,1,0,1.14-1.14Z" transform="translate(-375.829 -375.913)" fill="#ef3e43"/>
      <path id="Path_38446" data-name="Path 38446" d="M158.558,19.007l3.89,1.018a.806.806,0,0,0,.691-.137l2.717-2.06,2.717,2.06a.807.807,0,0,0,.691.137l3.3-.863,1.722,2.943a.806.806,0,0,0,.586.391l3.378.465.465,3.378a.806.806,0,0,0,.391.586l2.943,1.722-.863,3.3a.806.806,0,0,0,.137.691l2.06,2.717-2.06,2.717a.806.806,0,0,0-.137.691l1.018,3.89a.806.806,0,1,0,1.559-.408l-.919-3.511,2.192-2.892a.806.806,0,0,0,0-.974l-2.192-2.892.919-3.511a.806.806,0,0,0-.373-.9l-3.132-1.833-.495-3.6a.806.806,0,0,0-.689-.689l-3.6-.495-1.833-3.132a.806.806,0,0,0-.9-.373l-3.511.919-2.892-2.192a.806.806,0,0,0-.974,0l-2.892,2.192-3.511-.919a.806.806,0,0,0-.408,1.559Z" transform="translate(-145.194 -14.719)" fill="#404040"/>
      <path id="Path_38447" data-name="Path 38447" d="M42.616,182.234l-3.89-1.018a.8.8,0,0,0-.691.137l-2.717,2.06-2.717-2.06a.806.806,0,0,0-.691-.137l-3.3.863-1.722-2.943a.806.806,0,0,0-.586-.391l-3.378-.465-.465-3.378a.806.806,0,0,0-.391-.586l-2.943-1.722.863-3.3a.806.806,0,0,0-.137-.691l-2.06-2.717,2.06-2.717a.806.806,0,0,0,.137-.691l-1.018-3.89a.806.806,0,1,0-1.559.408l.919,3.511L16.139,165.4a.806.806,0,0,0,0,.974l2.192,2.892-.919,3.511a.806.806,0,0,0,.373.9l3.132,1.833.495,3.6a.806.806,0,0,0,.689.689l3.6.495,1.833,3.132a.806.806,0,0,0,.9.373l3.511-.919,2.892,2.192a.806.806,0,0,0,.974,0l2.892-2.192,3.511.919a.806.806,0,0,0,.408-1.559Z" transform="translate(-14.656 -145.254)" fill="#404040"/>
      <path id="Path_38448" data-name="Path 38448" d="M227.269,102.473a13.758,13.758,0,0,0-16.42-16.419.81.81,0,0,0-.39,1.356l15.454,15.454a.806.806,0,0,0,1.356-.39Zm-1.327-1.861L212.71,87.38A12.135,12.135,0,0,1,225.942,100.612Z" transform="translate(-193.25 -78.776)" fill="#404040"/>
      <path id="Path_38449" data-name="Path 38449" d="M86.016,210.864a13.758,13.758,0,0,0,16.42,16.42.81.81,0,0,0,.39-1.356L87.372,210.473a.806.806,0,0,0-1.356.39Zm1.327,1.861,13.232,13.232A12.135,12.135,0,0,1,87.343,212.724Z" transform="translate(-78.711 -193.292)" fill="#404040"/>
    </g>
  </g>
</svg>
