<svg xmlns="http://www.w3.org/2000/svg" width="307" height="132" viewBox="0 0 307 132"><g><g><g><path fill="#ed3237" d="M38.209 28.68c-4.056 0-5.716-3.37-5.716-7.13 0-3.809 1.66-7.182 5.716-7.182 4.05 0 5.712 3.373 5.712 7.181 0 3.76-1.662 7.131-5.712 7.131m0 6.155c8.4 0 14.795-4.887 14.795-13.286 0-8.45-6.396-13.337-14.795-13.337-8.4 0-14.801 4.888-14.801 13.337 0 8.399 6.4 13.286 14.8 13.286"/></g><g><path fill="#ed3237" d="M52.201 14.953h5.03v10.36c0 6.054 1.904 9.52 9.769 9.52 2.195 0 3.856-.292 5.518-.487l-.295-5.715c-.877.148-1.804.344-2.684.344-2.786 0-3.518-1.568-3.518-4.642v-9.38h6.155v-6.15h-6.155L66.02 0l-8.643 3.085v5.718H52.2z"/></g><g><path fill="#ed3237" d="M102.942 34.247h8.793V21.646h.096l7.033 12.601h10.646l-9.57-13.774 8.84-11.67h-9.623l-7.326 10.695h-.096V.034l-8.793 3.043z"/></g><g><path fill="#ed3237" d="M0 34.247h8.79V21.646h.099l7.032 12.601h10.65l-9.575-13.774 8.842-11.67h-9.621L8.889 19.497H8.79V.034L0 2.934z"/></g><g><path fill="#ed3237" d="M99.82 34.37c-.396-2.029-.494-4.052-.494-6.08v-9.592c0-7.86-5.686-10.676-12.26-10.676-3.807 0-7.116.543-10.282 1.831l.15 6.028c2.47-1.384 5.34-1.93 8.207-1.93 3.211 0 5.831.942 5.881 4.45a26.277 26.277 0 0 0-4.153-.347c-4.746 0-13.298.941-13.298 8.8 0 5.585 4.548 8.107 9.644 8.107 3.654 0 6.125-1.432 8.154-4.643h.098c0 1.333.147 2.665.197 4.051zm-17.942-8.157c0-2.473 2.371-3.412 5.388-3.412 1.335 0 2.618.098 3.756.15 0 3.016-2.126 6.08-5.487 6.08-2.077 0-3.657-1.04-3.657-2.818"/></g><g><path fill="#002c62" d="M253.651 56.316h6.424a4.86 4.86 0 0 0 4.854-4.852v-2.75h-11.278z"/></g><g><path fill="#036" d="M16.343 63.849h13.973v19.437c-2.063 1.03-6.291 2.011-10.88 2.011C8.35 85.297 0 78.903 0 66.89c0-10.878 6.39-18.818 19.9-18.818 4.692 0 7.836.929 9.33 1.445l-.516 7.682c-1.856-1.187-4.587-2.01-7.886-2.01-7.475 0-10.828 4.741-10.828 11.752 0 7.014 3.56 11.035 8.095 11.035 1.237 0 2.371-.155 3.144-.62v-6.804h-4.897z"/></g><g><path fill="#036" d="M45.626 71.48c-.103 3.97.875 6.703 4.228 6.703 3.35 0 4.226-2.733 4.226-6.704V48.692h9.486V71.17c0 10.519-6.133 14.127-13.712 14.127S36.14 81.69 36.14 71.17V48.692h9.486z"/></g><g><path fill="#036" d="M86.146 70.14h-7.114L82.9 56.012h.103zm3.712 14.537H99.86L88.415 48.692h-10.67L65.781 84.677h9.28l2.32-7.63H87.95z"/></g><g><path fill="#036" d="M112.543 63.694V55.6h2.68c2.836 0 4.124 1.754 4.124 4.229 0 2.32-1.907 3.866-3.97 3.866zm7.682 20.983h10l-3.247-11.239c-1.443-5.002-2.786-5.98-4.848-6.652v-.154c3.146-.772 6.91-2.938 6.91-8.248 0-6.651-4.125-9.692-11.394-9.692h-14.385v35.985h9.692V70.601h.517c1.545 0 3.144.414 4.073 3.868z"/></g><g><path fill="#036" d="M152.03 70.14h-7.113l3.866-14.128h.103zm3.712 14.537h10.003L154.3 48.692h-10.672l-11.962 35.985h9.28l2.32-7.63h10.568z"/></g><g><path fill="#036" d="M177.6 59.724h-.206v24.954h-8.453V48.692h11.238l9.436 24.798h.102V48.692h8.454v35.986H186.83z"/></g><g><path fill="#036" d="M209.719 56.012h-7.734v-7.32h25.16v7.32h-7.733v28.665h-9.693z"/></g><g><path fill="#036" d="M285.71 55.808h.774c5.258 0 9.69 1.802 9.69 11.032 0 6.96-2.782 10.93-8.35 10.93h-2.114zm-9.693 28.869h12.374c11.395 0 17.992-5.723 17.992-18.198 0-10.726-5.93-17.788-16.497-17.788h-13.87z"/></g><g><path fill="#cd1213" d="M253.652 84.705V77.12h5.575v7.586z"/></g><g><path fill="#036" d="M249.908 77.112l-10.924-.013a.316.316 0 0 1-.264-.31V56.63c0-.162.124-.297.28-.315h10.908v-7.6h-6.811c-.035-.002-.07-.002-.106-.002h-7.267a4.86 4.86 0 0 0-4.853 4.851v26.288a4.858 4.858 0 0 0 4.853 4.853h7.267c.034 0 .066 0 .106-.002h6.81z"/></g><g><path fill="#fff" d="M238.73 69.958v-6.496h9.936v6.496z"/></g><g><path fill="#ed3237" d="M266.84 48.712h-7.265c-.034 0-.066 0-.106.002h-5.339v.008h-.48v7.586h6.055V56.3l3.874.018c.15.024.263.154.263.312v20.16a.314.314 0 0 1-.277.312h-4.582a4.858 4.858 0 0 0-4.853 4.852v2.751h12.709a4.857 4.857 0 0 0 4.853-4.852V53.565a4.858 4.858 0 0 0-4.853-4.853"/></g><g><path fill="#fff" d="M255.09 69.958v-6.496h8.752v6.496z"/></g><g><path fill="#036" d="M248.666 66.07a5.594 5.594 0 1 1-11.188 0 5.594 5.594 0 0 1 11.188 0"/></g><g><path fill="#ed3237" d="M265.061 66.07a5.595 5.595 0 0 1-11.188 0 5.593 5.593 0 0 1 5.593-5.592 5.593 5.593 0 0 1 5.595 5.592"/></g><g><path fill="#036" d="M16.888 102.668c-1.63-.702-3.444-1.111-5.258-1.111-1.78 0-4.076.777-4.076 3.594 0 4.479 11.336 2.591 11.336 11.259 0 5.666-4.483 7.811-9.706 7.811-2.815 0-4.073-.368-6.63-.997l.482-4.668c1.778.964 3.815 1.593 5.853 1.593 1.962 0 4.592-1.001 4.592-3.334 0-4.927-11.333-2.888-11.333-11.443 0-5.776 4.482-7.888 9.037-7.888 2.222 0 4.295.295 6.184.927z"/></g><g><path fill="#036" d="M24 105.703c1.926-.886 4.519-1.442 6.628-1.442 5.816 0 8.222 2.407 8.222 8.036v2.443c0 1.928.038 3.37.075 4.779.037 1.446.11 2.778.223 4.26h-4.371c-.187-1-.187-2.259-.224-2.854h-.073c-1.148 2.112-3.629 3.296-5.888 3.296-3.37 0-6.667-2.035-6.667-5.666 0-2.851 1.37-4.518 3.26-5.442 1.888-.927 4.332-1.112 6.406-1.112h2.741c0-3.074-1.369-4.112-4.297-4.112-2.11 0-4.22.816-5.887 2.075zm5.814 14.89c1.52 0 2.704-.666 3.481-1.704.816-1.073 1.037-2.442 1.037-3.925h-2.149c-2.222 0-5.517.371-5.517 3.297 0 1.63 1.371 2.332 3.148 2.332"/></g><g><path fill="#036" d="M41.628 104.705h5.334l4.739 13.888h.074l4.592-13.888h4.963l-7.035 19.073h-5.593z"/></g><g><path fill="#036" d="M64.443 104.705h4.964v19.073h-4.964zm0-8.223h4.964v4.74h-4.964z"/></g><g><path fill="#036" d="M74.626 104.705h4.703v2.593h.074c1.556-2.185 3.668-3.038 6.261-3.038 4.518 0 6.48 3.186 6.48 7.483v12.035H87.18v-10.184c0-2.333-.037-5.482-3.22-5.482-3.594 0-4.37 3.889-4.37 6.333v9.334h-4.964z"/></g><g><path fill="#036" d="M114.773 104.704v17.222c0 5.184-2.075 10.074-10.073 10.074-1.965 0-4.224-.297-6.593-1.295l.408-4.224c1.516.814 3.999 1.667 5.554 1.667 5.48 0 5.741-4.11 5.741-7.406h-.074c-.926 1.63-3.149 3.035-5.927 3.035-5.628 0-7.777-4.518-7.777-9.628 0-4.592 2.372-9.89 8.074-9.89 2.518 0 4.482.853 5.852 3.039h.073v-2.594zm-4.963 9.334c0-3.26-1.258-5.927-4.147-5.927-3.37 0-4.445 3.112-4.445 6.038 0 2.593 1.37 5.777 4.22 5.777 3.114 0 4.372-2.702 4.372-5.888"/></g><g><path fill="#036" d="M131.216 108.705c-1.52-.519-2.63-.814-4.444-.814-1.333 0-2.926.482-2.926 2.11 0 3.037 8.629 1.11 8.629 7.998 0 4.447-3.963 6.224-8 6.224-1.887 0-3.814-.334-5.629-.816l.297-4.073c1.554.777 3.184 1.259 4.888 1.259 1.26 0 3.259-.482 3.259-2.334 0-3.74-8.628-1.184-8.628-8.072 0-4.113 3.59-5.926 7.48-5.926 2.333 0 3.852.37 5.408.705z"/></g><g><path fill="#036" d="M151.808 102h1.814c2.667 0 4.926 1.039 4.926 4.037 0 3-2.333 3.853-4.926 3.853h-1.814zm-5.185 21.778h5.185v-9.815h2.185c5.556 0 9.963-2.186 9.963-8.22 0-6.185-5.148-7.815-10.776-7.815h-6.557z"/></g><g><path fill="#036" d="M167.327 123.778V96.003h4.964v27.775z"/></g><g><path fill="#036" d="M178.364 105.703c1.924-.886 4.518-1.442 6.627-1.442 5.816 0 8.223 2.407 8.223 8.036v2.443c0 1.928.037 3.37.074 4.779.037 1.446.11 2.778.223 4.26h-4.37c-.188-1-.188-2.259-.225-2.854h-.072c-1.149 2.112-3.63 3.296-5.888 3.296-3.37 0-6.667-2.035-6.667-5.666 0-2.851 1.369-4.518 3.26-5.442 1.887-.927 4.33-1.112 6.406-1.112h2.74c0-3.074-1.368-4.112-4.297-4.112-2.109 0-4.22.816-5.887 2.075zm5.813 14.89c1.52 0 2.704-.666 3.481-1.704.814-1.073 1.037-2.442 1.037-3.925h-2.148c-2.222 0-5.518.371-5.518 3.297 0 1.63 1.371 2.332 3.148 2.332"/></g><g><path fill="#036" d="M198.102 104.705h4.702v2.593h.074c1.556-2.185 3.669-3.038 6.261-3.038 4.518 0 6.48 3.186 6.48 7.483v12.035h-4.963v-10.184c0-2.333-.037-5.482-3.22-5.482-3.594 0-4.371 3.889-4.371 6.333v9.334h-4.963z"/></g><g/></g></g></svg>