<svg xmlns="http://www.w3.org/2000/svg" width="61" height="61" viewBox="0 0 61 61"><defs><clipPath id="3hmya"><path fill="#fff" d="M0 30.5C0 13.655 13.655 0 30.5 0S61 13.655 61 30.5 47.345 61 30.5 61 0 47.345 0 30.5z"/></clipPath></defs><g><g><path fill="none" stroke="#cecece" stroke-miterlimit="20" stroke-width="2" d="M0 30.5C0 13.655 13.655 0 30.5 0S61 13.655 61 30.5 47.345 61 30.5 61 0 47.345 0 30.5z" clip-path="url(&quot;#3hmya&quot;)"/></g><g transform="rotate(-78 30 30.5)"><g><path fill="#ef3e43" d="M23.959 21.628l-1.179 1.179-1.191-1.192 1.178-1.179c.821-.755 1.95.37 1.192 1.192zm-.596-3.048c-.657 0-1.273.254-1.735.717l-3.498 3.497a.806.806 0 0 0 1.14 1.14l1.179-1.179 1.192 1.192-1.18 1.178a.806.806 0 0 0 1.14 1.14l3.498-3.497a2.457 2.457 0 0 0 0-3.471 2.437 2.437 0 0 0-1.736-.717z"/></g><g><path fill="#ef3e43" d="M40.943 44.467l1.192-1.192.865.866A.806.806 0 0 0 44.14 43l-.865-.866 1.191-1.191 1.47 1.47a.806.806 0 0 0 1.14-1.14l-2.04-2.04a.81.81 0 0 0-1.14 0l-4.663 4.663a.81.81 0 0 0 0 1.14l2.04 2.04a.806.806 0 0 0 1.14-1.14z"/></g><g><path fill="#ef3e43" d="M37.035 42.504a.803.803 0 0 0 .57-.236l4.093-4.093.45.45a.806.806 0 0 0 1.14-1.14l-2.04-2.04a.806.806 0 0 0-1.14 1.14l.45.45-4.093 4.093a.806.806 0 0 0 .57 1.376z"/></g><g><path fill="#ef3e43" d="M14.025 16.357l.86-.861a.81.81 0 0 0 0-1.14l-.583-.583a.806.806 0 0 0-1.14 1.14l.014.013-.291.29a.851.851 0 0 1-1.192 0 .851.851 0 0 1 0-1.19l2.332-2.332a.844.844 0 0 1 1.395.859.806.806 0 0 0 1.534.495 2.448 2.448 0 0 0-.598-2.494 2.457 2.457 0 0 0-3.471 0l-2.332 2.331c-.95.91-.95 2.561 0 3.471.91.95 2.561.95 3.471 0z"/></g><g><path fill="#ef3e43" d="M34.77 39.434l4.663-4.663a.806.806 0 0 0-1.14-1.14l-2.248 2.25 1.252-3.756a.806.806 0 0 0-1.335-.825L31.3 35.963a.806.806 0 0 0 1.14 1.14l2.249-2.25-1.252 3.756a.806.806 0 0 0 1.335.825z"/></g><g><path fill="#ef3e43" d="M28.33 26a.851.851 0 0 1-1.201-.01l-.586-.586 1.192-1.192.595.596a.843.843 0 0 1 0 1.191zm-.025-3.498a.81.81 0 0 0-1.14 0l-4.663 4.663a.806.806 0 1 0 1.14 1.14l1.761-1.762.244.244-1.009 3.025a.806.806 0 0 0 1.53.51l.856-2.57c.227.069.466.104.71.104 2.165.02 3.275-2.669 1.736-4.188z"/></g><g><path fill="#ef3e43" d="M14.925 20.728c.91.95 2.56.95 3.47 0l3.498-3.497a.806.806 0 0 0-1.14-1.14l-3.497 3.497c-.821.755-1.95-.369-1.192-1.192l3.498-3.497a.806.806 0 0 0-1.14-1.14l-3.497 3.498a2.457 2.457 0 0 0 0 3.47z"/></g><g><path fill="#ef3e43" d="M30.332 30.358l1.178-1.179a.851.851 0 0 1 1.192 0 .844.844 0 0 1 0 1.192l-1.179 1.179zm-1.127 4.65a.806.806 0 0 0 1.14 0l3.497-3.497a2.457 2.457 0 0 0 0-3.471c-.91-.95-2.561-.95-3.472 0l-3.497 3.497a.806.806 0 0 0 1.14 1.14l1.179-1.18 1.192 1.193-1.18 1.178a.806.806 0 0 0 0 1.14z"/></g><g><path fill="#ef3e43" d="M50.865 45.063l-2.04-2.04a.81.81 0 0 0-1.14 0l-4.663 4.663a.806.806 0 0 0 0 1.14l2.04 2.04a.806.806 0 0 0 1.14-1.14l-1.47-1.47 1.191-1.192.866.865a.806.806 0 0 0 1.14-1.14l-.866-.865 1.192-1.192 1.47 1.47a.806.806 0 1 0 1.14-1.14z"/></g><g><path fill="#404040" d="M23.17 14.123l3.89 1.018c.24.063.494.012.691-.137l2.718-2.06 2.717 2.06c.197.15.451.2.69.137l3.3-.863 1.721 2.943c.125.213.341.357.586.391l3.378.465.465 3.378c.033.245.178.46.391.586l2.943 1.721-.863 3.3a.806.806 0 0 0 .137.69l2.06 2.717-2.06 2.717a.806.806 0 0 0-.137.691l1.018 3.89a.806.806 0 1 0 1.559-.408l-.919-3.511 2.193-2.892a.806.806 0 0 0 0-.974l-2.193-2.892.919-3.51a.806.806 0 0 0-.373-.9l-3.132-1.833-.495-3.595a.806.806 0 0 0-.688-.689l-3.595-.494-1.833-3.133a.806.806 0 0 0-.9-.372l-3.51.919-2.893-2.193a.806.806 0 0 0-.973 0l-2.892 2.193-3.511-.92a.806.806 0 0 0-.408 1.56z"/></g><g><path fill="#404040" d="M37.766 46.815l-3.89-1.018a.805.805 0 0 0-.69.138l-2.717 2.06-2.718-2.06a.806.806 0 0 0-.69-.138l-3.3.863-1.721-2.943a.806.806 0 0 0-.586-.39l-3.378-.466-.465-3.377a.806.806 0 0 0-.39-.586l-2.944-1.722.864-3.299a.806.806 0 0 0-.138-.69l-2.06-2.718 2.06-2.717c.15-.197.2-.452.138-.691l-1.019-3.89a.806.806 0 1 0-1.559.408l.919 3.511-2.193 2.892a.806.806 0 0 0 0 .974l2.193 2.892-.919 3.51c-.091.35.06.718.373.9l3.132 1.833.495 3.596c.049.357.33.639.688.688l3.595.495 1.833 3.132c.183.312.55.464.9.373l3.51-.92 2.893 2.193a.806.806 0 0 0 .973 0l2.892-2.192 3.511.919a.806.806 0 0 0 .408-1.56z"/></g><g><path fill="#404040" d="M43.825 33.532c2.333-9.693-6.728-18.752-16.42-16.42-.607.129-.838.922-.39 1.356L42.47 33.922a.806.806 0 0 0 1.355-.39zm-1.327-1.86L29.266 18.438"/></g><g><path fill="#404040" d="M17.112 27.407c-2.333 9.692 6.729 18.752 16.42 16.42.608-.13.837-.924.39-1.356L18.467 27.016a.806.806 0 0 0-1.355.39zm1.327 1.86L31.67 42.5"/></g></g></g></svg>