<svg xmlns="http://www.w3.org/2000/svg" width="61" height="61" viewBox="0 0 61 61"><defs><clipPath id="gf1za"><path fill="#fff" d="M0 30.5C0 13.655 13.655 0 30.5 0S61 13.655 61 30.5 47.345 61 30.5 61 0 47.345 0 30.5z"/></clipPath></defs><g><g><g><path fill="#404040" d="M27.957 40.548H22.93a.718.718 0 1 1 0-1.436h5.026a.718.718 0 1 1 0 1.436z"/></g><g><path fill="#404040" d="M32.134 43.505c-.32 0-.646.018-.97.052l-3.9.43a13.044 13.044 0 0 1-6.931-1.141L10.258 38.04a1.42 1.42 0 0 1-.586-2.07c.377-.574 1.17-.78 1.843-.48l11.123 4.995a.718.718 0 0 0 1.008-.733 3.243 3.243 0 0 1 .698-2.402 3.249 3.249 0 0 1 2.193-1.204l8.022-.882a8.667 8.667 0 0 1 3.442.311 8.646 8.646 0 0 1 3.243 1.786l3.256 2.84-7.066 5.186c-1.464-1.22-3.333-1.882-5.3-1.882zm5.27 3.538c.174 0 .349-.063.487-.188.065-.06.133-.117.206-.171l7.976-5.855a.718.718 0 0 0 .047-1.12l-3.932-3.428a10.084 10.084 0 0 0-3.777-2.08 10.085 10.085 0 0 0-4.009-.362l-8.021.882a4.672 4.672 0 0 0-3.156 1.733 4.675 4.675 0 0 0-.99 2.278L12.102 34.18c-1.309-.58-2.87-.151-3.63 1.003a2.854 2.854 0 0 0 1.174 4.158l10.074 4.806a14.46 14.46 0 0 0 7.702 1.269l3.9-.43c2.092-.228 4.114.435 5.58 1.854.141.135.321.203.502.203z"/></g><g><path fill="#404040" d="M38.74 53.574a.718.718 0 0 1-.588-.304l-1.727-2.448c-1.23-1.677-.866-4.06.822-5.298l8.797-6.457a3.803 3.803 0 0 1 5.31.814l2.162 2.996a.717.717 0 1 1-1.166.839l-2.158-2.99a2.364 2.364 0 0 0-3.298-.502l-8.797 6.457a2.364 2.364 0 0 0-.506 3.301l1.736 2.46a.718.718 0 0 1-.588 1.132z"/></g><g><path fill="#404040" d="M37.012 51.126a.718.718 0 0 1-.404-1.312l14.13-9.593a.719.719 0 0 1 .806 1.188l-14.13 9.593a.721.721 0 0 1-.402.124z"/></g><g><path fill="#ef3e43" d="M22.842 28.025a3.855 3.855 0 0 1-3.85 3.85 3.854 3.854 0 0 1-3.851-3.85 3.855 3.855 0 0 1 3.85-3.851 3.855 3.855 0 0 1 3.851 3.85zm1.436 0a5.293 5.293 0 0 0-5.286-5.287 5.293 5.293 0 0 0-5.287 5.287 5.293 5.293 0 0 0 5.287 5.285 5.293 5.293 0 0 0 5.286-5.285z"/></g><g><path fill="#ef3e43" d="M18.991 21.006a.718.718 0 0 1-.718-.718v-6.559a.718.718 0 1 1 1.436 0v6.559a.718.718 0 0 1-.718.718z"/></g><g><path fill="#ef3e43" d="M22.602 22.885a.718.718 0 0 1-.718-.719v-6.558a.718.718 0 1 1 1.436 0v6.558a.718.718 0 0 1-.718.719z"/></g><g><path fill="#ef3e43" d="M15.382 22.885a.718.718 0 0 1-.718-.719v-6.558a.718.718 0 1 1 1.436 0v6.558a.718.718 0 0 1-.718.719z"/></g><g><path fill="#ef3e43" d="M39.22 23.014a3.855 3.855 0 0 1-3.85 3.85 3.854 3.854 0 0 1-3.85-3.85 3.855 3.855 0 0 1 3.85-3.85 3.855 3.855 0 0 1 3.85 3.85zm1.437 0a5.293 5.293 0 0 0-5.287-5.286 5.293 5.293 0 0 0-5.286 5.286A5.292 5.292 0 0 0 35.37 28.3a5.293 5.293 0 0 0 5.287-5.286z"/></g><g><path fill="#ef3e43" d="M35.37 15.995a.718.718 0 0 1-.718-.719V8.718a.718.718 0 1 1 1.436 0v6.558a.718.718 0 0 1-.718.719z"/></g><g><path fill="#ef3e43" d="M38.98 17.874a.718.718 0 0 1-.717-.718v-6.559a.718.718 0 1 1 1.436 0v6.559a.718.718 0 0 1-.718.718z"/></g><g><path fill="#ef3e43" d="M31.76 17.874a.718.718 0 0 1-.719-.718v-6.559a.718.718 0 1 1 1.436 0v6.559a.718.718 0 0 1-.718.718z"/></g></g><g><path fill="none" stroke="#cecece" stroke-miterlimit="20" stroke-width="2" d="M0 30.5C0 13.655 13.655 0 30.5 0S61 13.655 61 30.5 47.345 61 30.5 61 0 47.345 0 30.5z" clip-path="url(&quot;#gf1za&quot;)"/></g></g></svg>