<svg xmlns="http://www.w3.org/2000/svg" width="61" height="61" viewBox="0 0 61 61"><defs><clipPath id="pc32a"><path fill="#fff" d="M0 30.5C0 13.655 13.655 0 30.5 0S61 13.655 61 30.5 47.345 61 30.5 61 0 47.345 0 30.5z"/></clipPath></defs><g><g><path fill="none" stroke="#cecece" stroke-miterlimit="20" stroke-width="2" d="M0 30.5C0 13.655 13.655 0 30.5 0S61 13.655 61 30.5 47.345 61 30.5 61 0 47.345 0 30.5z" clip-path="url(&quot;#pc32a&quot;)"/></g><g><g><g><g><path fill="#404040" d="M50.77 31.22l-9.141 9.141c-2.463 2.463-10.31 2.616-13.734 2.393-1.985-.124-3.96.632-5.416 2.088l-.625.625-6.773-6.821 5.406-4.516c.48-.4.964-.703 1.44-.9 2.757-1.137 5.547-.426 6.965.1a7.378 7.378 0 0 0 2.574.456h5.72a2.677 2.677 0 0 1 2.68 2.696.834.834 0 0 1-.838.818H26.173a.719.719 0 1 0 0 1.437h12.855a2.275 2.275 0 0 0 2.276-2.245 4.08 4.08 0 0 0-.137-1.087l5.726-5.218a2.931 2.931 0 0 1 3.822-.095c.35.288.372.81.055 1.128zm-35.69 7.426c.023.023.235.236 0 0zm0 0c-.002-.003-.002-.003 0 0zm6.864 10.119L19.39 51.32a.834.834 0 0 1-1.175.001L9.68 42.788a.83.83 0 0 1 0-1.174l2.556-2.556a.83.83 0 0 1 1.174 0l8.533 8.533a.83.83 0 0 1 0 1.174zM51.63 28.98a4.379 4.379 0 0 0-5.704.143l-5.403 4.923a4.108 4.108 0 0 0-3.337-1.698h-5.72c-.72 0-1.418-.124-2.073-.367-1.615-.598-4.802-1.406-8.013-.08a7.079 7.079 0 0 0-1.813 1.124L13.972 37.7a2.265 2.265 0 0 0-2.751.342l-2.556 2.556a2.266 2.266 0 0 0 0 3.207l8.533 8.533a2.271 2.271 0 0 0 3.207 0l2.555-2.556a2.27 2.27 0 0 0 0-3.207l-.09-.09.626-.626c1.163-1.163 2.729-1.776 4.305-1.67 3.995.262 12.014.022 14.844-2.81l9.141-9.142a2.203 2.203 0 0 0-.157-3.255z"/></g><g><path fill="#ef3e43" d="M30.265 17.224l2.215-.323a2.486 2.486 0 0 0 1.872-1.358l.998-2.017c.386-.78 1.5-.781 1.886.002l.992 2.011a2.488 2.488 0 0 0 1.873 1.363l2.22.323a1.051 1.051 0 0 1 .583 1.794l-1.6 1.561a2.489 2.489 0 0 0-.718 2.199L40.963 25a1.051 1.051 0 0 1-1.528 1.107l-1.977-1.045a2.485 2.485 0 0 0-2.323-.001l-1.984 1.046a1.05 1.05 0 0 1-1.527-1.108l.38-2.216a2.487 2.487 0 0 0-.718-2.205l-1.603-1.559a1.05 1.05 0 0 1 .582-1.795zm.019 4.385c.248.241.361.59.303.931l-.38 2.216c-.348 2.025 1.78 3.588 3.614 2.622l1.984-1.045c.308-.162.675-.162.982 0l1.977 1.044c1.825.965 3.962-.585 3.617-2.617l-.377-2.221a1.053 1.053 0 0 1 .303-.93l1.6-1.56c1.476-1.44.661-3.949-1.379-4.246l-2.219-.324a1.052 1.052 0 0 1-.791-.576l-.992-2.011c-.913-1.852-3.55-1.849-4.464-.004l-.998 2.017c-.153.31-.449.524-.79.574l-2.217.323c-2.04.298-2.855 2.81-1.376 4.248z"/></g><g><path fill="#ef3e43" d="M36.293 9.473a.719.719 0 0 0 .719-.719V7.72a.719.719 0 1 0-1.438 0v1.035c0 .398.322.719.719.719z"/></g><g><path fill="#ef3e43" d="M30.255 10.565a.719.719 0 1 0 1.244-.72l-.518-.896a.719.719 0 0 0-1.245.719z"/></g><g><path fill="#ef3e43" d="M25.656 14.276l.896.517a.72.72 0 0 0 .719-1.245l-.896-.518a.718.718 0 1 0-.72 1.246z"/></g><g><path fill="#ef3e43" d="M24.425 20.305h1.035a.719.719 0 1 0 0-1.437h-1.035a.719.719 0 1 0 0 1.437z"/></g><g><path fill="#ef3e43" d="M46.407 19.586c0 .398.322.72.719.72h1.035a.719.719 0 1 0 0-1.438h-1.035a.719.719 0 0 0-.72.718z"/></g><g><path fill="#ef3e43" d="M46.034 14.793l.896-.517a.72.72 0 0 0-.719-1.246l-.896.518a.72.72 0 0 0 .719 1.245z"/></g><g><path fill="#ef3e43" d="M41.35 10.828c.34.196.782.083.982-.263l.517-.897a.719.719 0 1 0-1.244-.719l-.518.897a.719.719 0 0 0 .263.982z"/></g></g></g></g></g></svg>