<svg xmlns="http://www.w3.org/2000/svg" width="61" height="61" viewBox="0 0 61 61"><defs><clipPath id="d3m4a"><path fill="#fff" d="M0 30.5C0 13.655 13.655 0 30.5 0S61 13.655 61 30.5 47.345 61 30.5 61 0 47.345 0 30.5z"/></clipPath><clipPath id="d3m4b"><path d="M27.6 24.014V13.5h6.716v10.514z"/></clipPath></defs><g><g><path fill="none" stroke="#cecece" stroke-miterlimit="20" stroke-width="2" d="M0 30.5C0 13.655 13.655 0 30.5 0S61 13.655 61 30.5 47.345 61 30.5 61 0 47.345 0 30.5z" clip-path="url(&quot;#d3m4a&quot;)"/></g><g><g><g><path fill="#404040" d="M27.586 43.211a.843.843 0 1 0 0-1.687.843.843 0 0 0 0 1.687z"/></g><g><path fill="#404040" d="M30.961 25.857c-4.183 0-7.586-3.403-7.586-7.586 0-4.182 3.403-7.585 7.586-7.585s7.586 3.403 7.586 7.585c0 4.183-3.403 7.586-7.586 7.586zm7.32 13.983l-.461 1.685h-6.862a.843.843 0 0 0 0 1.686h6.4l-1.986 7.249h-8.829l-2.91-10.62zm-3.109-5.9a4.22 4.22 0 0 1 4.215-4.215h.842v.843a4.22 4.22 0 0 1-4.214 4.214h-.843zm-8.429.842h-.842a4.22 4.22 0 0 1-4.215-4.214v-.843h.843a4.22 4.22 0 0 1 4.214 4.214zm13.49-16.51c0-5.113-4.16-9.272-9.272-9.272s-9.271 4.159-9.271 9.271c0 4.827 3.708 8.804 8.425 9.233v9.307l-1.686-1.555V33.94c0-3.254-2.646-5.9-5.9-5.9h-1.685a.843.843 0 0 0-.843.842v1.686c0 3.253 2.646 5.9 5.9 5.9h1.356l1.828 1.686h-8.241a.843.843 0 1 0 0 1.686h1.042l3.202 11.685c.1.367.433.62.813.62h10.114c.38 0 .713-.253.813-.62L40.03 39.84h1.042a.843.843 0 0 0 0-1.686h-8.241l1.828-1.686h1.356c3.253 0 5.9-2.647 5.9-5.9v-1.686a.843.843 0 0 0-.843-.843h-1.685a5.907 5.907 0 0 0-5.9 5.9v1.317L31.8 36.81v-9.307c4.72-.425 8.432-4.403 8.432-9.233z"/></g></g><g><g><g><path fill="#ed1c24" d="M27.6 24.014V13.5h6.716v10.514z"/></g><g clip-path="url(#d3m4b)"><path fill="#ed1c24" d="M34.316 14.298h-2.632c.463.367.798.893.893 1.627h1.74v.798h-1.724c-.16 1.627-1.452 2.664-3.494 2.728 1.245 1.292 2.601 2.92 3.941 4.563H31.51c-1.245-1.5-2.41-2.888-3.91-4.483v-.99h.878c1.723 0 2.649-.717 2.76-1.818H27.6v-.798h3.59c-.224-.925-1.07-1.388-2.458-1.388H27.6V13.5h6.716z"/></g></g></g></g></g></svg>