<svg xmlns="http://www.w3.org/2000/svg" xmlns:xlink="http://www.w3.org/1999/xlink" width="92.232" height="106.745" viewBox="0 0 92.232 106.745">
  <defs>
    <linearGradient id="linear-gradient" y1="0.5" x2="1" y2="0.5" gradientUnits="objectBoundingBox">
      <stop offset="0" stop-color="#6c7500"/>
      <stop offset="1" stop-color="#b2c300"/>
    </linearGradient>
  </defs>
  <g id="Group_22072" data-name="Group 22072" transform="translate(-70.721 -820.737)">
    <g id="Group_12" data-name="Group 12" transform="translate(70.721 820.737)">
      <path id="Path_42" data-name="Path 42" d="M81.416,862.09a26.657,26.657,0,1,1,26.723,26.678A26.616,26.616,0,0,1,81.416,862.09Zm43.907,14.224c15.036-22.366-9.931-47.046-31.91-30.763A9.237,9.237,0,0,0,91.5,847.47c-16.325,22.1,8.667,47.071,30.97,31.73A10.859,10.859,0,0,0,125.323,876.314Z" transform="translate(-61.999 -808.737)" fill="url(#linear-gradient)"/>
      <path id="Path_43" data-name="Path 43" d="M113.127,904.066c-1.211-1.216-1.289-2.691-.252-3.711,1.657-1.63,4.466-.332,5.512,3.831a2,2,0,0,0,1.236,1.376c6.583,2.445,6.793,5.884.483,8.295a2.916,2.916,0,0,0-1.719,1.814c-1.316,4.036-3.923,5.163-5.555,3.473a2.469,2.469,0,0,1,.269-3.625c.9-.911,1.812-1.8,2.859-2.847-1.663-.149-3.148-.249-4.624-.417C92.294,910.068,76.224,896,72.059,877.29c-4.074-18.3,1.193-33.747,15.255-46.174a3.138,3.138,0,0,1,2.295-1.078,2.424,2.424,0,0,1,1.376,4.332,47.2,47.2,0,0,0-5.534,5.377c-18.861,21.678-9.44,56.45,17.788,65.689a41,41,0,0,0,13.669,2.282C115.65,906.5,114.361,905.31,113.127,904.066Z" transform="translate(-70.721 -813.157)" fill="url(#linear-gradient)"/>
      <path id="Path_44" data-name="Path 44" d="M99.833,833.206c1.171,1.126,2.364,2.229,3.507,3.38,1.2,1.205,1.262,2.714.216,3.714-1.688,1.614-4.575.29-5.336-3.974a1.385,1.385,0,0,0-.9-1.077c-7.06-2.487-7.411-5.893-1.109-8.478a3.6,3.6,0,0,0,2.021-2.173c1.291-3.751,3.818-4.749,5.4-3.085.968,1.017.857,2.444-.305,3.627-.891.911-1.806,1.8-2.868,2.859,2.191.176,4.185.212,6.145.57,18.107,3.317,30.518,13.565,36.663,30.9a45.553,45.553,0,0,1-14.426,50.3c-1.394,1.133-2.861,1.1-3.8-.074-.922-1.151-.672-2.518.69-3.653a41.212,41.212,0,0,0-6.632-68.27,40.442,40.442,0,0,0-18.47-4.84c-.216,0-.434,0-.65,0Z" transform="translate(-53.577 -820.737)" fill="url(#linear-gradient)"/>
      <path id="Path_45" data-name="Path 45" d="M122.845,874.588a8.806,8.806,0,0,1-2.1,2.128C98.327,892.7,72.891,867.544,89.324,845.3a9.239,9.239,0,0,1,1.917-1.919C113.368,826.987,138.519,852.108,122.845,874.588Z" transform="translate(-59.828 -806.565)" fill="url(#linear-gradient)"/>
    </g>
    <g id="Group_13" data-name="Group 13" transform="translate(106.925 858.305)">
      <path id="Path_46" data-name="Path 46" d="M92.535,841.43h17.951v.045a29.391,29.391,0,0,1-1.8,2.974H103.9a7.551,7.551,0,0,1,1.343,3.193h5.11q.087.022.087.087-1.718,2.908-1.761,2.93h-3.3a9.57,9.57,0,0,1-1.256,3.613,8.4,8.4,0,0,1-2.952,2.774,10.444,10.444,0,0,1-4.978,1.411v.043a8.3,8.3,0,0,0,1.167,1.741l8.856,12.136v.572a.079.079,0,0,1-.089.089h-3.9Q91.7,859.14,91.7,859.074v-2.819l.045-.111a13.345,13.345,0,0,0,2.18.154q5.879,0,7.334-4.339a3.956,3.956,0,0,0,.22-1.3H90.663q1.827-3.017,1.872-3.017h8.48V847.6A5.247,5.247,0,0,0,98.2,845a7.907,7.907,0,0,0-2.689-.55H90.774v-.111Q92.492,841.43,92.535,841.43Z" transform="translate(-90.663 -841.43)" fill="#fff"/>
    </g>
  </g>
</svg>
