<svg xmlns="http://www.w3.org/2000/svg" xmlns:xlink="http://www.w3.org/1999/xlink" width="94.303" height="86.4" viewBox="0 0 94.303 86.4">
  <defs>
    <linearGradient id="linear-gradient" y1="0.5" x2="1" y2="0.5" gradientUnits="objectBoundingBox">
      <stop offset="0" stop-color="#e90010"/>
      <stop offset="0" stop-color="#6c7500"/>
      <stop offset="1" stop-color="#b2c300"/>
    </linearGradient>
  </defs>
  <g id="Group_63" data-name="Group 63" transform="translate(-244.206 -1616.976)">
    <g id="Group_42" data-name="Group 42">
      <path id="Path_103" data-name="Path 103" d="M289.476,1661.906c.6-1.639-.609-2.342-2.1-2.956a31.318,31.318,0,0,0-4.084-1.49c-2.849-.735-5.428.245-8,1.273a14.129,14.129,0,0,1-2.776,1.051c-1.265.222-2.269-.811-3.344-.757a7.008,7.008,0,0,1-3.455-.3,17.3,17.3,0,0,0-4.033-1.275,9.88,9.88,0,0,0-6.192,1.215c-1.136.543-2.215,1.205-3.353,1.744a5.429,5.429,0,0,1-7.872-3.714,7.8,7.8,0,0,1,.5-3.491c2.956-10.735,9.461-18.817,18.735-24.75a49.986,49.986,0,0,1,24.987-7.813c.8-.039,1.109-.269.99-1.058a3.546,3.546,0,0,1,0-.8,1.832,1.832,0,0,1,1.854-1.8,1.873,1.873,0,0,1,1.819,1.728c.087.62-.332,1.446.257,1.812.455.282,1.195.087,1.8.144,16.242,1.531,29.414,8.349,38.332,22.391a36.375,36.375,0,0,1,4.832,12.31,4.67,4.67,0,0,1-1.811,5,5.3,5.3,0,0,1-5.742.532c-1.691-.8-3.343-1.683-4.981-2.587a9.255,9.255,0,0,0-7.868-.487,12.139,12.139,0,0,1-3.143,1,10.991,10.991,0,0,0-4.343.649,2.687,2.687,0,0,1-2.126-.206,3.658,3.658,0,0,1-.416-.193c-4.967-2.944-9.662-1.876-14.261.928a.969.969,0,0,0-.541,1c.03.918.03,1.839,0,2.758a1.837,1.837,0,1,1-3.669.049C289.456,1663.264,289.476,1662.726,289.476,1661.906ZM272,1655.984c.112.033.157.064.184.052.631-.264,1.264-.524,1.889-.8,4.439-1.977,8.906-2.38,13.419-.245,1.346.636,2.692,1.8,4.028,1.783,1.381-.015,2.743-1.179,4.124-1.818a13.686,13.686,0,0,1,11.874-.08c.753.338,1.522.64,2.361.991a23.874,23.874,0,0,0-1-8.057c-2.969-9.71-9.352-16.876-17.188-22.951a.731.731,0,0,0-1,.034c-7.215,4.9-12.964,11.064-16.4,19.185A27.927,27.927,0,0,0,272,1655.984Zm25.422-31.237a55.218,55.218,0,0,1,11.205,13.3,33.474,33.474,0,0,1,4.959,16.388c.018.772.456.893,1.085.676.289-.1.561-.244.848-.349,3.571-1.307,7.152-1.966,10.813-.287,1.981.909,3.919,1.893,5.809,2.976a1.91,1.91,0,0,0,2.165-.006c.712-.493.49-1.2.34-1.881a33.809,33.809,0,0,0-3.892-9.992c-5.719-9.693-14.219-15.816-24.829-19.174A29.693,29.693,0,0,0,297.426,1624.747Zm-12.873.073c-.426-.02-.609-.04-.792-.034a4.2,4.2,0,0,0-.571.057,46.38,46.38,0,0,0-20.872,8.914c-7.227,5.587-12.226,12.671-14.294,21.672a1.366,1.366,0,0,0,1.376,1.864,3.249,3.249,0,0,0,1.934-.607,21.823,21.823,0,0,1,7.188-2.905,15.389,15.389,0,0,1,8.475,1.473c1.011.422,1.286.273,1.315-.739a35.388,35.388,0,0,1,6.34-18.872A51.041,51.041,0,0,1,284.553,1624.82Z" fill="#fff"/>
      <path id="Path_104" data-name="Path 104" d="M272,1655.984a27.927,27.927,0,0,1,2.285-11.908c3.44-8.121,9.189-14.283,16.4-19.185a.731.731,0,0,1,1-.034c7.836,6.075,14.219,13.241,17.188,22.951a23.874,23.874,0,0,1,1,8.057c-.839-.351-1.608-.653-2.361-.991a13.686,13.686,0,0,0-11.874.08c-1.381.639-2.743,1.8-4.124,1.818-1.336.014-2.682-1.147-4.028-1.783-4.513-2.135-8.98-1.732-13.419.245-.625.278-1.258.538-1.889.8C272.161,1656.048,272.116,1656.017,272,1655.984Z" fill="url(#linear-gradient)"/>
      <path id="Path_105" data-name="Path 105" d="M297.426,1624.747a29.693,29.693,0,0,1,8.5,1.65c10.61,3.358,19.11,9.481,24.829,19.174a33.809,33.809,0,0,1,3.892,9.992c.15.682.372,1.388-.34,1.881a1.91,1.91,0,0,1-2.165.006c-1.89-1.083-3.828-2.067-5.809-2.976-3.661-1.679-7.242-1.02-10.813.287-.287.1-.559.249-.848.349-.629.217-1.067.1-1.085-.676a33.474,33.474,0,0,0-4.959-16.388A55.218,55.218,0,0,0,297.426,1624.747Z" fill="url(#linear-gradient)"/>
      <path id="Path_106" data-name="Path 106" d="M284.553,1624.82a51.041,51.041,0,0,0-9.9,10.823,35.388,35.388,0,0,0-6.34,18.872c-.029,1.012-.3,1.161-1.315.739a15.389,15.389,0,0,0-8.475-1.473,21.823,21.823,0,0,0-7.188,2.905,3.249,3.249,0,0,1-1.934.607,1.366,1.366,0,0,1-1.376-1.864c2.068-9,7.067-16.085,14.294-21.672a46.38,46.38,0,0,1,20.872-8.914,4.2,4.2,0,0,1,.571-.057C283.944,1624.78,284.127,1624.8,284.553,1624.82Z" fill="url(#linear-gradient)"/>
    </g>
    <g id="Group_43" data-name="Group 43">
      <path id="Path_107" data-name="Path 107" d="M301.268,1703.369H286.817a2.566,2.566,0,0,1-2.9-2.943,14.791,14.791,0,0,1,12.694-14.269,31.69,31.69,0,0,1,10.724.23,14.823,14.823,0,0,1,11.218,12.23c.087.634.149,1.273.176,1.912a2.521,2.521,0,0,1-2.715,2.838Q308.639,1703.376,301.268,1703.369Z" fill="url(#linear-gradient)"/>
      <path id="Path_108" data-name="Path 108" d="M278.91,1683.457a9.951,9.951,0,1,1,9.979-10A9.956,9.956,0,0,1,278.91,1683.457Z" fill="url(#linear-gradient)"/>
      <path id="Path_109" data-name="Path 109" d="M301.346,1683.457a9.951,9.951,0,1,1,9.931-9.987A9.953,9.953,0,0,1,301.346,1683.457Z" fill="url(#linear-gradient)"/>
      <path id="Path_110" data-name="Path 110" d="M284.757,1686.83a21.325,21.325,0,0,0-2.719,3.392,19.758,19.758,0,0,0-3.107,10.51,6.878,6.878,0,0,0,.328,2.237c.088.27.133.408-.251.407-4.158-.011-8.315.007-12.472-.015a2.451,2.451,0,0,1-2.526-2.385,13.943,13.943,0,0,1,7.409-13.438,13.276,13.276,0,0,1,5.847-1.572A17.757,17.757,0,0,1,284.757,1686.83Z" fill="url(#linear-gradient)"/>
    </g>
  </g>
</svg>
