<svg xmlns="http://www.w3.org/2000/svg" xmlns:xlink="http://www.w3.org/1999/xlink" width="83.271" height="83.263" viewBox="0 0 83.271 83.263">
  <defs>
    <linearGradient id="linear-gradient" y1="0.5" x2="1" y2="0.5" gradientUnits="objectBoundingBox">
      <stop offset="0" stop-color="#6c7500"/>
      <stop offset="1" stop-color="#b2c300"/>
    </linearGradient>
    <linearGradient id="linear-gradient-3" x1="0" y1="0.5" x2="1" y2="0.5" xlink:href="#linear-gradient"/>
    <linearGradient id="linear-gradient-4" x1="0" y1="0.5" x2="1" y2="0.5" xlink:href="#linear-gradient"/>
  </defs>
  <g id="Group_22073" data-name="Group 22073" transform="translate(-258.922 -820.736)">
    <path id="Path_55" data-name="Path 55" d="M297.145,820.736h6.5c.072.221.26.137.407.154,1.074.126,2.16.193,3.225.38a41.764,41.764,0,0,1,34.538,46.641,39.571,39.571,0,0,1-8.99,20.712c-8.181,9.826-18.708,15.032-31.511,15.361a39.606,39.606,0,0,1-23.484-6.774,41.136,41.136,0,0,1-18.458-28.678,11.188,11.188,0,0,0-.454-2.742v-6.832c.217-.067.151-.256.167-.4a48.486,48.486,0,0,1,.788-5.05A41.8,41.8,0,0,1,294.4,821.188,10.308,10.308,0,0,0,297.145,820.736ZM335.05,862.36a34.491,34.491,0,1,0-34.516,34.5A34.506,34.506,0,0,0,335.05,862.36Z" transform="translate(0 0)" fill="url(#linear-gradient)"/>
    <path id="Path_56" data-name="Path 56" d="M332.486,859.8a34.491,34.491,0,1,1-34.465-34.474A34.512,34.512,0,0,1,332.486,859.8Zm-2.508-.02A31.982,31.982,0,1,0,298.01,891.8,32.058,32.058,0,0,0,329.979,859.775Z" transform="translate(2.564 2.565)" fill="#f4f4f4"/>
    <path id="Path_57" data-name="Path 57" d="M329.079,858.877a31.982,31.982,0,1,1-32.037-31.951A32.066,32.066,0,0,1,329.079,858.877Zm-36.035,8.435c2.358-.483,3.609-2.087,3.4-4.184a3.738,3.738,0,0,0-3.984-3.252q-1.827-.009-3.655,0c-1.2,0-1.619.418-1.622,1.6,0,1.949,0,3.9,0,5.848,0,1.191-.011,2.383.008,3.574a1.208,1.208,0,0,0,1.034,1.268,1.17,1.17,0,0,0,1.3-.611,1.9,1.9,0,0,0,.172-1.028v-3.085c1.391,1.485,2.606,2.782,3.822,4.077a1.583,1.583,0,0,0,.772.566,1.237,1.237,0,0,0,1.422-.521A1.191,1.191,0,0,0,295.55,870C294.757,869.126,293.94,868.272,293.043,867.313Zm20.676-7.437c-.894,0-1.789-.016-2.682,0a1.244,1.244,0,0,0-1.375,1.36q-.028,4.8,0,9.6a1.234,1.234,0,0,0,1.315,1.349q2.723.051,5.447,0a1.262,1.262,0,1,0-.011-2.517c-.812-.023-1.627-.006-2.439-.006-1.9,0-1.885,0-1.8-1.885.019-.416.164-.491.529-.485a16.218,16.218,0,0,0,1.946-.05A1.1,1.1,0,0,0,315.7,866.1a1.182,1.182,0,0,0-1-1.285,3.418,3.418,0,0,0-.809-.044c-1.756-.008-1.74,0-1.708-1.807.009-.454.122-.611.593-.6,1.22.03,2.439.025,3.659,0a1.247,1.247,0,1,0-.027-2.484C315.508,859.861,314.614,859.875,313.719,859.875Zm-10.631,0c-.867,0-1.734-.009-2.6,0-1,.014-1.452.441-1.455,1.427q-.014,4.716,0,9.432c0,.961.426,1.436,1.358,1.452,1.789.03,3.577.026,5.366,0a1.292,1.292,0,0,0,1.38-1.29,1.314,1.314,0,0,0-1.443-1.227c-.812-.017-1.627,0-2.439,0-1.8,0-1.779,0-1.756-1.773.006-.451.114-.625.588-.6a12.874,12.874,0,0,0,1.867-.036,1.155,1.155,0,0,0,1.1-1.192,1.237,1.237,0,0,0-1.123-1.274,4.515,4.515,0,0,0-.649-.022c-1.84-.008-1.821-.008-1.787-1.817.008-.469.148-.6.6-.589,1.218.026,2.439.023,3.659,0a1.248,1.248,0,1,0,.011-2.483C304.877,859.863,303.982,859.877,303.088,859.875Zm4.239-5.753c.763,1.135,1.446,2.169,2.147,3.191.533.778,1.224.981,1.859.571.667-.43.756-1.17.212-1.988-.778-1.171-1.549-2.349-2.37-3.49a.817.817,0,0,1,.017-1.124c.814-1.146,1.589-2.322,2.366-3.495.522-.787.446-1.485-.184-1.929-.653-.46-1.351-.264-1.912.558s-1.106,1.669-1.678,2.489c-.143.2-.2.512-.536.566-.7-1.037-1.38-2.076-2.085-3.1-.532-.774-1.223-.958-1.862-.527a1.281,1.281,0,0,0-.212,1.923c.791,1.2,1.577,2.4,2.406,3.567a.78.78,0,0,1-.011,1.062c-.766,1.081-1.491,2.191-2.23,3.292-.664.989-.643,1.729.061,2.2.681.449,1.351.195,2-.763S306.608,855.192,307.327,854.122ZM291.532,858.1a1.275,1.275,0,0,0,1.093-.886c.292-.727.586-1.452.872-2.182.1-.254.153-.505.524-.494a8.41,8.41,0,0,1,2.888.117c.657.282.68,1.441,1.018,2.2.011.025.019.05.03.075.357.844,1.02,1.209,1.709.942a1.285,1.285,0,0,0,.638-1.829c-1.23-3.141-2.478-6.277-3.713-9.418a1.289,1.289,0,0,0-2.5.009c-.421,1.11-.869,2.21-1.3,3.316-.823,2.085-1.656,4.165-2.462,6.255A1.293,1.293,0,0,0,291.532,858.1Zm-15.111,7.872c0,1.624-.011,3.249,0,4.874a1.247,1.247,0,0,0,1.2,1.358,1.259,1.259,0,0,0,1.269-1.375c.014-.541,0-1.082,0-1.623,0-1.931,0-1.931,1.91-1.942,1.157-.008,1.719-.417,1.715-1.251s-.588-1.241-1.726-1.245h-.164c-1.778,0-1.758,0-1.748-1.77,0-.5.129-.655.636-.641,1.244.036,2.491.026,3.735.006.875-.014,1.4-.508,1.382-1.252a1.266,1.266,0,0,0-1.425-1.22q-2.678-.014-5.36,0c-.981.006-1.424.457-1.432,1.449C276.411,862.885,276.419,864.428,276.421,865.971Zm8.81-13.263c0,1.355-.019,2.71.008,4.064a1.262,1.262,0,1,0,2.523.073,5.649,5.649,0,0,0,.013-.65c0-2.087,0-4.173,0-6.26,0-.563-.167-1.266.106-1.65s1.011-.075,1.542-.128c.027,0,.055,0,.081,0a1.277,1.277,0,0,0,1.213-1.284,1.178,1.178,0,0,0-1.184-1.215c-2.03-.041-4.064-.045-6.094,0a1.137,1.137,0,0,0-1.149,1.23,1.229,1.229,0,0,0,1.22,1.26,6.293,6.293,0,0,0,1.137,0c.452-.042.6.1.591.572C285.209,850.052,285.229,851.381,285.23,852.708Z" transform="translate(3.464 3.463)" fill="url(#linear-gradient)"/>
    <path id="Path_58" data-name="Path 58" d="M285.127,855.492c.9.959,1.714,1.814,2.506,2.69a1.191,1.191,0,0,1,.164,1.563,1.237,1.237,0,0,1-1.422.521,1.583,1.583,0,0,1-.772-.566c-1.216-1.294-2.431-2.592-3.822-4.077v3.085a1.9,1.9,0,0,1-.172,1.028,1.17,1.17,0,0,1-1.3.611,1.208,1.208,0,0,1-1.034-1.268c-.019-1.191-.008-2.383-.008-3.574,0-1.949,0-3.9,0-5.848,0-1.182.424-1.6,1.622-1.6q1.829-.009,3.655,0a3.738,3.738,0,0,1,3.984,3.252C288.735,853.406,287.485,855.009,285.127,855.492Zm-1.609-2.542c.407,0,.813.011,1.22,0a1.235,1.235,0,0,0,1.326-1.145,1.255,1.255,0,0,0-1.315-1.252c-.812-.025-1.625.017-2.436-.014-.444-.019-.533.159-.549.565C281.693,852.95,281.68,852.95,283.517,852.95Z" transform="translate(11.381 15.283)" fill="#f5f5f5"/>
    <path id="Path_59" data-name="Path 59" d="M297.742,848.056c.9,0,1.789-.014,2.684,0a1.247,1.247,0,1,1,.026,2.484c-1.22.023-2.439.028-3.659,0-.471-.012-.583.145-.593.6-.033,1.8-.048,1.8,1.708,1.807a3.418,3.418,0,0,1,.809.044,1.182,1.182,0,0,1,1,1.285,1.1,1.1,0,0,1-1.045,1.149,16.217,16.217,0,0,1-1.946.05c-.365-.006-.51.069-.529.485-.087,1.885-.1,1.885,1.8,1.885.813,0,1.627-.017,2.439.006a1.262,1.262,0,1,1,.011,2.517q-2.723.042-5.447,0a1.234,1.234,0,0,1-1.315-1.349q-.03-4.8,0-9.6a1.244,1.244,0,0,1,1.375-1.36C295.953,848.041,296.848,848.056,297.742,848.056Z" transform="translate(19.441 15.282)" fill="#f2f2f2"/>
    <path id="Path_60" data-name="Path 60" d="M290.922,848.055c.894,0,1.789-.012,2.682,0a1.248,1.248,0,1,1-.011,2.483c-1.22.022-2.441.025-3.659,0-.455-.011-.6.12-.6.589-.034,1.809-.053,1.809,1.787,1.817a4.515,4.515,0,0,1,.649.022,1.237,1.237,0,0,1,1.123,1.274,1.155,1.155,0,0,1-1.1,1.192,12.874,12.874,0,0,1-1.867.036c-.474-.022-.582.153-.588.6-.023,1.773-.041,1.773,1.756,1.773.812,0,1.627-.014,2.439,0a1.314,1.314,0,0,1,1.443,1.227,1.292,1.292,0,0,1-1.38,1.29c-1.789.026-3.578.03-5.366,0-.933-.016-1.357-.491-1.358-1.452q-.014-4.716,0-9.432c0-.985.451-1.413,1.455-1.427C289.188,848.046,290.055,848.055,290.922,848.055Z" transform="translate(15.63 15.283)" fill="#f4f4f4"/>
    <path id="Path_61" data-name="Path 61" d="M293.821,847.418c-.719,1.07-1.366,2.034-2.016,3s-1.315,1.212-2,.763c-.7-.466-.725-1.207-.061-2.2.739-1.1,1.464-2.211,2.23-3.292a.78.78,0,0,0,.011-1.062c-.83-1.17-1.616-2.369-2.406-3.567a1.281,1.281,0,0,1,.212-1.923c.639-.43,1.33-.246,1.862.527.7,1.026,1.389,2.065,2.085,3.1.335-.055.393-.362.536-.566.572-.82,1.113-1.662,1.678-2.489s1.259-1.018,1.912-.558c.63.444.706,1.142.184,1.929-.777,1.173-1.552,2.349-2.366,3.495a.817.817,0,0,0-.017,1.124c.822,1.141,1.592,2.319,2.37,3.49.544.819.455,1.558-.212,1.988-.635.41-1.326.207-1.859-.571C295.266,849.587,294.583,848.553,293.821,847.418Z" transform="translate(16.97 10.168)" fill="#f4f4f4"/>
    <path id="Path_62" data-name="Path 62" d="M282.533,851.383a1.293,1.293,0,0,1-1.21-1.9c.806-2.09,1.639-4.17,2.462-6.255.435-1.106.883-2.205,1.3-3.316a1.289,1.289,0,0,1,2.5-.009c1.235,3.141,2.483,6.277,3.713,9.418a1.285,1.285,0,0,1-.638,1.829c-.689.267-1.352-.1-1.709-.942-.011-.025-.019-.05-.03-.075-.338-.756-.362-1.915-1.018-2.2a8.41,8.41,0,0,0-2.888-.117c-.371-.011-.426.24-.524.494-.285.73-.58,1.455-.872,2.182A1.275,1.275,0,0,1,282.533,851.383Zm3.86-7.688a4.665,4.665,0,0,0-.633,1.572c1.344.168,1.346.168.872-1.014C286.561,844.079,286.483,843.908,286.393,843.694Z" transform="translate(12.463 10.179)" fill="#f4f4f4"/>
    <path id="Path_63" data-name="Path 63" d="M272.364,854.147c0-1.544-.008-3.086,0-4.63.008-.992.451-1.443,1.432-1.449q2.681-.019,5.36,0a1.266,1.266,0,0,1,1.425,1.22c.014.744-.507,1.238-1.382,1.252-1.244.02-2.49.03-3.735-.006-.507-.014-.633.143-.636.641-.009,1.77-.03,1.77,1.748,1.77h.164c1.138,0,1.722.424,1.726,1.245s-.558,1.243-1.715,1.251c-1.909.011-1.909.011-1.91,1.942,0,.541.011,1.082,0,1.623a1.259,1.259,0,0,1-1.269,1.375,1.247,1.247,0,0,1-1.2-1.358C272.355,857.4,272.366,855.771,272.364,854.147Z" transform="translate(7.519 15.287)" fill="#f7f7f7"/>
    <path id="Path_64" data-name="Path 64" d="M279.067,846c0-1.327-.022-2.656.009-3.983.012-.471-.139-.614-.591-.572a6.293,6.293,0,0,1-1.137,0,1.229,1.229,0,0,1-1.22-1.26,1.137,1.137,0,0,1,1.149-1.23c2.03-.05,4.064-.045,6.094,0a1.178,1.178,0,0,1,1.184,1.215,1.277,1.277,0,0,1-1.213,1.284c-.026,0-.055,0-.081,0-.532.053-1.279-.246-1.542.128s-.1,1.087-.106,1.65c-.006,2.087,0,4.173,0,6.26a5.649,5.649,0,0,1-.013.65,1.262,1.262,0,1,1-2.523-.073C279.049,848.71,279.067,847.355,279.067,846Z" transform="translate(9.627 10.171)" fill="#f0f0f0"/>
    <path id="Path_65" data-name="Path 65" d="M282.628,852.06c-1.837,0-1.825,0-1.754-1.849.016-.406.1-.583.549-.565.811.031,1.623-.011,2.436.014a1.255,1.255,0,0,1,1.315,1.252,1.235,1.235,0,0,1-1.326,1.145C283.441,852.071,283.035,852.06,282.628,852.06Z" transform="translate(12.27 16.174)" fill="url(#linear-gradient-3)"/>
    <path id="Path_66" data-name="Path 66" d="M284.756,841.985c.09.214.168.385.239.558.474,1.182.473,1.182-.872,1.014A4.664,4.664,0,0,1,284.756,841.985Z" transform="translate(14.1 11.889)" fill="url(#linear-gradient-4)"/>
  </g>
</svg>
