<svg xmlns="http://www.w3.org/2000/svg" xmlns:xlink="http://www.w3.org/1999/xlink" width="62.462" height="72.561" viewBox="0 0 62.462 72.561">
  <defs>
    <linearGradient id="linear-gradient" y1="0.5" x2="1" y2="0.5" gradientUnits="objectBoundingBox">
      <stop offset="0" stop-color="#e90010"/>
      <stop offset="0" stop-color="#6c7500"/>
      <stop offset="1" stop-color="#b2c300"/>
    </linearGradient>
  </defs>
  <g id="Group_38" data-name="Group 38" transform="translate(-1128.522 -1616.976)">
    <path id="Path_95" data-name="Path 95" d="M1154.118,1689.537h-10.63a1.821,1.821,0,0,0,1.012-1.888c-.06-1.059-.04-2.125-.005-3.187a2.491,2.491,0,0,0-.566-1.69c-3.949-5.118-7.872-10.257-11.826-15.371a3.626,3.626,0,0,1-.761-2.768c.3-2.792.542-5.59.811-8.385.228-2.373.446-4.746.7-7.117a1.846,1.846,0,0,1,2.123-1.69,1.964,1.964,0,0,1,1.659,2.193c.007,3.825.059,7.652-.021,11.476a7.565,7.565,0,0,0,1.766,5.214c1.617,1.967,3.123,4.027,4.672,6.05a1.433,1.433,0,0,0,1.523.659,1.347,1.347,0,0,0,1.085-1.084,1.511,1.511,0,0,0-.363-1.312c-.761-.993-1.549-1.966-2.273-2.984a1.7,1.7,0,0,1,1.177-2.722,1.846,1.846,0,0,1,1.728.9c1.749,2.316,3.487,4.64,5.274,6.926a9.287,9.287,0,0,1,2.019,5.969c-.019,2.928.021,5.856-.02,8.784A2.134,2.134,0,0,0,1154.118,1689.537Z" fill="#f9f9f9"/>
    <path id="Path_96" data-name="Path 96" d="M1175.946,1689.537h-10.63a2.085,2.085,0,0,0,.963-2.017c-.032-3.071-.011-6.142-.012-9.212a8.268,8.268,0,0,1,1.665-5.085c1.88-2.513,3.787-5.007,5.7-7.5a1.719,1.719,0,1,1,2.7,2.1c-.695.924-1.406,1.837-2.11,2.754a1.862,1.862,0,0,0-.4.735,1.43,1.43,0,0,0,.746,1.606,1.4,1.4,0,0,0,1.815-.5c1.69-2.183,3.346-4.393,5.054-6.563a6.465,6.465,0,0,0,1.428-4.192c-.021-2.811-.008-5.622-.006-8.433,0-1.346-.02-2.693.024-4.038a1.813,1.813,0,0,1,1.772-1.767,1.843,1.843,0,0,1,1.952,1.574c.052.278.084.56.111.842.464,4.864.909,9.73,1.4,14.592a4.133,4.133,0,0,1-.885,3.154c-3.94,5.067-7.831,10.173-11.748,15.259a2.249,2.249,0,0,0-.517,1.495c.026,1.086.048,2.175-.005,3.259A1.908,1.908,0,0,0,1175.946,1689.537Z" fill="#fafafa"/>
    <path id="Path_97" data-name="Path 97" d="M1175.946,1689.537a1.908,1.908,0,0,1-.994-1.929c.053-1.084.031-2.173.005-3.259a2.249,2.249,0,0,1,.517-1.495c3.917-5.086,7.808-10.192,11.748-15.259a4.133,4.133,0,0,0,.885-3.154c-.492-4.862-.937-9.728-1.4-14.592-.027-.282-.059-.564-.111-.842a1.843,1.843,0,0,0-1.952-1.574,1.813,1.813,0,0,0-1.772,1.767c-.044,1.345-.022,2.692-.024,4.038,0,2.811-.015,5.622.006,8.433a6.465,6.465,0,0,1-1.428,4.192c-1.708,2.17-3.364,4.38-5.054,6.563a1.4,1.4,0,0,1-1.815.5,1.43,1.43,0,0,1-.746-1.606,1.862,1.862,0,0,1,.4-.735c.7-.917,1.415-1.83,2.11-2.754a1.719,1.719,0,1,0-2.7-2.1c-1.909,2.49-3.816,4.984-5.7,7.5a8.268,8.268,0,0,0-1.665,5.085c0,3.07-.02,6.141.012,9.212a2.085,2.085,0,0,1-.963,2.017h-.992a2.148,2.148,0,0,1-.911-2.03c.042-2.975.035-5.95.011-8.925a11.746,11.746,0,0,1,2.54-7.48c1.716-2.221,3.507-4.4,5.077-6.717a4.689,4.689,0,0,1,7.98-.121,3.333,3.333,0,0,0,.993-2.554c-.011-4.085-.022-8.17,0-12.254a4.682,4.682,0,0,1,5-4.858,4.633,4.633,0,0,1,4.389,3.989c.372,3.424.672,6.857,1,10.286.17,1.761.3,3.528.517,5.283a6.563,6.563,0,0,1-1.394,5.09c-3.811,4.9-7.569,9.834-11.356,14.748a1.582,1.582,0,0,0-.381,1.09c.034.872-.03,1.749.021,2.619a1.741,1.741,0,0,1-1.015,1.834Z" fill="url(#linear-gradient)"/>
    <path id="Path_98" data-name="Path 98" d="M1154.118,1689.537a2.134,2.134,0,0,1-.92-2.028c.041-2.928,0-5.856.02-8.784a9.287,9.287,0,0,0-2.019-5.969c-1.787-2.286-3.525-4.61-5.274-6.926a1.846,1.846,0,0,0-1.728-.9,1.7,1.7,0,0,0-1.177,2.722c.724,1.018,1.512,1.991,2.273,2.984a1.511,1.511,0,0,1,.363,1.312,1.347,1.347,0,0,1-1.085,1.084,1.433,1.433,0,0,1-1.523-.659c-1.549-2.023-3.055-4.083-4.672-6.05a7.565,7.565,0,0,1-1.766-5.214c.08-3.824.028-7.651.021-11.476a1.964,1.964,0,0,0-1.659-2.193,1.846,1.846,0,0,0-2.123,1.69c-.25,2.371-.468,4.744-.7,7.117-.269,2.795-.513,5.593-.811,8.385a3.626,3.626,0,0,0,.761,2.768c3.954,5.114,7.877,10.253,11.826,15.371a2.491,2.491,0,0,1,.566,1.69c-.035,1.062-.055,2.128.005,3.187a1.821,1.821,0,0,1-1.012,1.888h-.85a1.751,1.751,0,0,1-.985-1.92,6.84,6.84,0,0,0-1.85-5.631c-3.182-3.885-6.066-8.015-9.253-11.9a8.668,8.668,0,0,1-1.929-7.081c.541-4.305.852-8.64,1.27-12.961a9.085,9.085,0,0,1,.408-2.432,4.724,4.724,0,0,1,9.1,1.077,12.345,12.345,0,0,1,.069,1.413c.005,3.872.015,7.744-.006,11.616a3.34,3.34,0,0,0,.98,2.55,4.593,4.593,0,0,1,5.439-1.933,4.35,4.35,0,0,1,2.09,1.511c1.946,2.551,3.9,5.093,5.824,7.662a11.54,11.54,0,0,1,2.257,7.152c-.008,2.951-.023,5.9.012,8.853a2.1,2.1,0,0,1-.953,2.02Z" fill="url(#linear-gradient)"/>
    <path id="Path_99" data-name="Path 99" d="M1179.643,1630.693v-7.8c0-1.25-.3-1.64-1.515-1.912q-8.87-1.976-17.732-3.942a1.977,1.977,0,0,0-.905-.015q-8.9,2-17.8,3.979c-1.191.272-1.478.647-1.478,1.861,0,4.317.015,8.641,0,12.958a25.309,25.309,0,0,0,.485,5.421c2.244,10.51,8.3,17.849,18.269,21.946a2.369,2.369,0,0,0,1.9.015,29.23,29.23,0,0,0,18.644-24.594C1179.776,1635.805,1179.562,1632.988,1179.643,1630.693Z" fill="url(#linear-gradient)"/>
    <path id="Path_100" data-name="Path 100" d="M1169.994,1631.948a1.829,1.829,0,0,1-.652,1.355q-5.807,5.259-11.62,10.5a1.608,1.608,0,0,1-2.558-.2c-1.313-1.525-2.608-3.066-3.9-4.608a1.63,1.63,0,1,1,2.465-2.117c.813.915,1.617,1.838,2.371,2.8.415.542.652.644,1.22.119,3.1-2.863,6.233-5.675,9.367-8.5a6.064,6.064,0,0,1,.813-.678A1.629,1.629,0,0,1,1169.994,1631.948Z" fill="#fff"/>
  </g>
</svg>
