<svg xmlns="http://www.w3.org/2000/svg" width="84.998" height="84.744" viewBox="1606.075 46.404 84.998 84.744"><path d="M1606.075 67.886c.317-.778.562-1.595.964-2.327 2.37-4.309 5.37-8.175 8.696-11.767 1.973-2.131 4.144-4.092 6.343-5.995 3.055-2.644 6.111-1.09 7.689 1.069 3.963 5.422 7.652 11.032 10.472 17.158.428.93.735 1.92 1.039 2.901.482 1.556.182 3.023-.876 4.22-1.01 1.142-2.164 2.158-3.284 3.198-.755.701-1.53 1.388-2.353 2.005-.57.426-.657.827-.412 1.489 2.217 5.995 5.647 11.171 10.369 15.481 3.741 3.415 8 5.979 12.742 7.76.759.285 1.238.253 1.788-.432 1.253-1.561 2.598-3.049 3.935-4.541 1.842-2.056 4.08-2.695 6.606-1.48 3.122 1.504 6.25 3.024 9.238 4.771 3.071 1.795 5.981 3.866 8.955 5.827 1.343.886 2.305 2.068 2.826 3.617.391 1.164.381 2.288-.3 3.303-.815 1.219-1.635 2.462-2.625 3.535-4.42 4.791-9.496 8.783-14.969 12.316-2.166 1.398-4.33 1.315-6.673.846-7.109-1.426-13.624-4.313-19.723-8.128-14.048-8.788-25.295-20.321-33.485-34.76-2.962-5.221-5.202-10.746-6.342-16.674-.106-.549-.2-1.1-.278-1.654-.077-.553-.128-1.111-.19-1.667l-.152-.071Zm19.201-15.575c-.133.078-.218.112-.281.169a75.207 75.207 0 0 0-12.806 15.13c-.18.283-.232.723-.185 1.068.694 5.044 2.417 9.767 4.767 14.241 8.011 15.247 19.584 27.136 34.335 35.937 5.463 3.26 11.283 5.707 17.644 6.632.415.06.963-.034 1.294-.273 2.648-1.912 5.357-3.758 7.853-5.857 2.583-2.171 4.949-4.603 7.42-6.93-.222-.249-.288-.347-.377-.418a15.026 15.026 0 0 0-.701-.536c-4.951-3.578-10.191-6.664-15.691-9.323-.832-.402-1.254-.272-1.824.39-1.747 2.028-3.553 4.007-5.365 5.977-.793.862-1.803 1.005-2.924.73-4.756-1.167-9.04-3.36-13.009-6.156-8.023-5.654-13.609-13.139-16.777-22.462-.8-2.352-.471-4.136 1.467-5.708 1.76-1.428 3.414-2.983 5.134-4.461.416-.358.507-.649.252-1.185a102.173 102.173 0 0 0-9.57-16.161c-.203-.28-.437-.537-.656-.804Z" fill="#fff" fill-rule="evenodd" data-name="Path 55"/></svg>