<svg xmlns="http://www.w3.org/2000/svg" xmlns:xlink="http://www.w3.org/1999/xlink" width="113.706" height="79.193" viewBox="0 0 113.706 79.193">
  <defs>
    <linearGradient id="linear-gradient" x1="-0.019" y1="0.365" x2="0.981" y2="0.365" gradientUnits="objectBoundingBox">
      <stop offset="0" stop-color="#6c7500"/>
      <stop offset="1" stop-color="#afc000"/>
    </linearGradient>
    <linearGradient id="linear-gradient-2" x1="-0.107" y1="0.5" x2="11.847" y2="0.5" xlink:href="#linear-gradient"/>
    <linearGradient id="linear-gradient-3" x1="-1.269" y1="0.5" x2="10.426" y2="0.5" xlink:href="#linear-gradient"/>
    <linearGradient id="linear-gradient-4" x1="-2.174" y1="0.5" x2="8.578" y2="0.5" xlink:href="#linear-gradient"/>
    <linearGradient id="linear-gradient-5" x1="-3.742" y1="0.5" x2="8.539" y2="0.5" xlink:href="#linear-gradient"/>
    <linearGradient id="linear-gradient-6" x1="-4.205" y1="0.5" x2="6.546" y2="0.5" xlink:href="#linear-gradient"/>
    <linearGradient id="linear-gradient-7" x1="-5.734" y1="0.5" x2="5.882" y2="0.5" xlink:href="#linear-gradient"/>
    <linearGradient id="linear-gradient-8" x1="-7.384" y1="0.5" x2="5.154" y2="0.5" xlink:href="#linear-gradient"/>
    <linearGradient id="linear-gradient-9" x1="-9.998" y1="0.5" x2="4.703" y2="0.5" xlink:href="#linear-gradient"/>
    <linearGradient id="linear-gradient-10" x1="-11.214" y1="0.5" x2="3.487" y2="0.5" xlink:href="#linear-gradient"/>
  </defs>
  <g id="Group_22050" data-name="Group 22050" transform="translate(-79 -1524.442)">
    <path id="Path_188" data-name="Path 188" d="M117.131,1351.64l1.994-1.809a1.5,1.5,0,0,1,2.215.229l1.583,2.179a1.5,1.5,0,0,0,1.963.414l2.327-1.356a1.5,1.5,0,0,1,2.119.685l1.094,2.46a1.5,1.5,0,0,0,1.836.813l2.556-.842a1.5,1.5,0,0,1,1.932,1.11l.559,2.633a1.494,1.494,0,0,0,1.626,1.177l2.674-.291a1.5,1.5,0,0,1,1.66,1.487l0,2.691a1.5,1.5,0,0,0,1.348,1.491l2.677.27a1.5,1.5,0,0,1,1.314,1.8l-.562,2.633a1.494,1.494,0,0,0,1.007,1.736l2.564.823a1.494,1.494,0,0,1,.909,2.034l-1.094,2.458a1.5,1.5,0,0,0,.622,1.907l2.338,1.337a1.5,1.5,0,0,1,.468,2.179l-1.585,2.176a1.5,1.5,0,0,0,.214,2l2.007,1.792a1.5,1.5,0,0,1,0,2.23l-2,1.8a1.5,1.5,0,0,0-.206,2l1.591,2.171a1.5,1.5,0,0,1-.46,2.18l-2.331,1.345a1.5,1.5,0,0,0-.618,1.909l1.1,2.456a1.494,1.494,0,0,1-.9,2.036l-2.56.832a1.5,1.5,0,0,0-1,1.741l.57,2.631a1.5,1.5,0,0,1-1.306,1.8l-2.677.281a1.5,1.5,0,0,0-1.341,1.493l.01,2.691a1.5,1.5,0,0,1-1.651,1.5l-2.679-.283a1.494,1.494,0,0,0-1.62,1.183l-.551,2.635a1.5,1.5,0,0,1-1.928,1.117l-2.558-.832a1.5,1.5,0,0,0-1.832.82l-1.086,2.462a1.5,1.5,0,0,1-2.119.693l-2.329-1.346a1.5,1.5,0,0,0-1.963.42L121.482,1428a1.494,1.494,0,0,1-2.215.237l-2-1.8a1.5,1.5,0,0,0-2.007,0l-1.992,1.809a1.5,1.5,0,0,1-2.217-.231l-1.581-2.177a1.5,1.5,0,0,0-1.965-.414l-2.325,1.356a1.5,1.5,0,0,1-2.121-.686l-1.094-2.458a1.493,1.493,0,0,0-1.834-.813l-2.558.842a1.5,1.5,0,0,1-1.932-1.111l-.557-2.633a1.5,1.5,0,0,0-1.626-1.177l-2.677.291a1.5,1.5,0,0,1-1.658-1.487v-2.693a1.5,1.5,0,0,0-1.346-1.489l-2.679-.27a1.5,1.5,0,0,1-1.312-1.8l.559-2.633a1.5,1.5,0,0,0-1.007-1.736l-2.562-.821a1.5,1.5,0,0,1-.911-2.034l1.1-2.458a1.5,1.5,0,0,0-.624-1.907L78,1398.37a1.5,1.5,0,0,1-.468-2.18l1.583-2.177a1.494,1.494,0,0,0-.214-1.995l-2.007-1.8a1.5,1.5,0,0,1,0-2.227l2-1.8a1.493,1.493,0,0,0,.206-2l-1.589-2.171a1.5,1.5,0,0,1,.458-2.182L80.3,1378.5a1.5,1.5,0,0,0,.616-1.911l-1.1-2.454a1.5,1.5,0,0,1,.9-2.038l2.56-.83a1.5,1.5,0,0,0,1-1.741l-.57-2.63a1.5,1.5,0,0,1,1.306-1.805l2.679-.281a1.494,1.494,0,0,0,1.339-1.493l-.01-2.693a1.5,1.5,0,0,1,1.653-1.493l2.677.283a1.5,1.5,0,0,0,1.622-1.183l.549-2.635a1.5,1.5,0,0,1,1.928-1.117l2.56.832a1.5,1.5,0,0,0,1.832-.82l1.086-2.464a1.5,1.5,0,0,1,2.117-.693l2.331,1.347a1.493,1.493,0,0,0,1.961-.422l1.574-2.183a1.5,1.5,0,0,1,2.217-.237l2,1.8A1.5,1.5,0,0,0,117.131,1351.64Z" transform="translate(19.656 175)" fill="url(#linear-gradient)"/>
    <rect id="Rectangle_22" data-name="Rectangle 22" width="113.706" height="24.439" transform="translate(79 1551.82)" fill="#fff"/>
    <g id="Group_82" data-name="Group 82" transform="translate(84.404 1556.219)">
      <path id="Path_189" data-name="Path 189" d="M81.294,1378.13a5.33,5.33,0,0,1-1.87,1.57,6.686,6.686,0,0,1-3.169.664,5.056,5.056,0,0,1-5.451-5.5l-.008-4.617a5.5,5.5,0,0,1,1.439-4.074,5.176,5.176,0,0,1,3.825-1.447,5.321,5.321,0,0,1,3.752,1.167,4.234,4.234,0,0,1,1.227,3.346l-.021.062-2.766,0a2.443,2.443,0,0,0-.526-1.732,2.09,2.09,0,0,0-1.578-.539,2.135,2.135,0,0,0-1.772.794,3.752,3.752,0,0,0-.634,2.391l.008,4.638a3.8,3.8,0,0,0,.653,2.423,2.25,2.25,0,0,0,1.849.788,3.613,3.613,0,0,0,1.346-.2,1.808,1.808,0,0,0,.753-.541l-.006-3.069-2.319,0,0-2.036,5.262-.01Z" transform="translate(-70.796 -1364.722)" fill="url(#linear-gradient-2)"/>
      <path id="Path_190" data-name="Path 190" d="M87.514,1364.812l.019,9.931a5.388,5.388,0,0,1-1.481,4.043,5.881,5.881,0,0,1-7.743.008,5.4,5.4,0,0,1-1.491-4.033l-.017-9.93,2.932-.006.019,9.93a3.765,3.765,0,0,0,.653,2.375,2.329,2.329,0,0,0,3.544,0,3.781,3.781,0,0,0,.638-2.383l-.019-9.93Z" transform="translate(-64.312 -1364.625)" fill="url(#linear-gradient-3)"/>
      <path id="Path_191" data-name="Path 191" d="M90.176,1376.718l-3.8.006-.851,3.292-3.07,0,4.284-15.211,3.049-.006,4.34,15.2-3.08.006Zm-3.2-2.312,2.589,0-1.271-4.823h-.064Z" transform="translate(-58.209 -1364.634)" fill="url(#linear-gradient-4)"/>
      <path id="Path_192" data-name="Path 192" d="M91.6,1373.9l.01,6.1-2.945.006-.027-15.192,4.552-.008a5.094,5.094,0,0,1,3.569,1.172,4.208,4.208,0,0,1,1.306,3.286,3.728,3.728,0,0,1-.545,2.049,3.826,3.826,0,0,1-1.578,1.381A2.939,2.939,0,0,1,97.658,1374a4.552,4.552,0,0,1,.526,2.3l0,1.108a6.668,6.668,0,0,0,.15,1.335,1.8,1.8,0,0,0,.524,1.023v.218l-3.049.006a1.743,1.743,0,0,1-.466-1.089,11.559,11.559,0,0,1-.1-1.51v-1.065a2.935,2.935,0,0,0-.485-1.8,1.616,1.616,0,0,0-1.379-.634Zm0-2.3,1.587,0a1.809,1.809,0,0,0,1.445-.572,2.371,2.371,0,0,0,.493-1.614,2.66,2.66,0,0,0-.493-1.691,1.715,1.715,0,0,0-1.433-.624l-1.608,0Z" transform="translate(-51.529 -1364.637)" fill="url(#linear-gradient-5)"/>
      <path id="Path_193" data-name="Path 193" d="M101.578,1376.7l-3.8.006-.851,3.292-3.07,0,4.286-15.211,3.049,0,4.338,15.194-3.08.006Zm-3.2-2.312,2.587,0-1.271-4.823h-.062Z" transform="translate(-45.899 -1364.655)" fill="url(#linear-gradient-6)"/>
      <path id="Path_194" data-name="Path 194" d="M110.848,1379.974l-2.945.006-4.841-9.694-.064.013.019,9.689-2.945,0-.027-15.2,2.945-.006,4.841,9.7.062-.008-.017-9.7,2.945-.006Z" transform="translate(-39.218 -1364.671)" fill="url(#linear-gradient-7)"/>
      <path id="Path_195" data-name="Path 195" d="M115.8,1367.066l-3.573.006.023,12.9-2.955.006-.023-12.9-3.477.006,0-2.307,10-.019Z" transform="translate(-33.011 -1364.681)" fill="url(#linear-gradient-8)"/>
      <path id="Path_196" data-name="Path 196" d="M118.9,1373.24l-4.646.01.008,4.417,5.565-.01,0,2.3-8.51.014-.027-15.2,8.489-.017,0,2.308-5.544.008.006,3.885,4.646-.009Z" transform="translate(-27.07 -1364.691)" fill="url(#linear-gradient-9)"/>
      <path id="Path_197" data-name="Path 197" d="M123.892,1373.233l-4.646.008.008,4.417,5.565-.011,0,2.3-8.51.015-.027-15.2,8.489-.015,0,2.308-5.544.008.006,3.885,4.646-.008Z" transform="translate(-21.681 -1364.701)" fill="url(#linear-gradient-10)"/>
    </g>
  </g>
</svg>
