<svg xmlns="http://www.w3.org/2000/svg" width="62.462" height="72.561" viewBox="1128.522 1616.976 62.462 72.561"><g data-name="Group 38"><path d="M1154.118 1689.537h-10.63c.755-.406 1.061-1.016 1.012-1.888-.06-1.059-.04-2.125-.005-3.187.021-.649-.168-1.174-.566-1.69-3.949-5.118-7.872-10.257-11.826-15.371-.651-.842-.873-1.722-.761-2.768.298-2.792.542-5.59.811-8.385.228-2.373.446-4.746.696-7.117.118-1.121 1.027-1.816 2.123-1.69 1.015.118 1.656.945 1.659 2.193.007 3.825.059 7.652-.021 11.476-.041 1.993.5 3.672 1.766 5.214 1.617 1.967 3.123 4.027 4.672 6.05.389.508.87.806 1.523.659.576-.129.948-.491 1.085-1.084.117-.508-.065-.924-.363-1.312-.761-.993-1.549-1.966-2.273-2.984-.792-1.112-.148-2.574 1.177-2.722.76-.086 1.287.316 1.728.899 1.749 2.316 3.487 4.64 5.274 6.926 1.378 1.765 2.034 3.739 2.019 5.969-.019 2.928.021 5.856-.02 8.784-.012.862.186 1.545.92 2.028Z" fill="#f9f9f9" fill-rule="evenodd" data-name="Path 95"/><path d="M1175.946 1689.537h-10.63c.759-.464.972-1.151.963-2.017-.032-3.071-.011-6.142-.012-9.212-.001-1.878.542-3.586 1.665-5.085a796.713 796.713 0 0 1 5.696-7.497c.684-.892 1.687-1.06 2.48-.463.822.619.915 1.638.217 2.567-.695.924-1.406 1.837-2.11 2.754-.172.225-.344.447-.405.735-.14.666.16 1.32.746 1.606.643.313 1.312.151 1.815-.499 1.69-2.183 3.346-4.393 5.054-6.563.978-1.242 1.439-2.619 1.428-4.192-.021-2.811-.008-5.622-.006-8.433.002-1.346-.02-2.693.024-4.038.033-.999.808-1.727 1.772-1.767.992-.041 1.766.579 1.952 1.574.052.278.084.56.111.842.464 4.864.909 9.73 1.401 14.592.121 1.196-.133 2.187-.885 3.154-3.94 5.067-7.831 10.173-11.748 15.259-.348.451-.531.919-.517 1.495.026 1.086.048 2.175-.005 3.259-.043.866.247 1.5.994 1.929Z" fill="#fafafa" fill-rule="evenodd" data-name="Path 96"/><path d="M1175.946 1689.537c-.747-.429-1.037-1.063-.994-1.929.053-1.084.031-2.173.005-3.259-.014-.576.169-1.044.517-1.495 3.917-5.086 7.808-10.192 11.748-15.259.752-.967 1.006-1.958.885-3.154-.492-4.862-.937-9.728-1.4-14.592a9.547 9.547 0 0 0-.112-.842c-.186-.995-.96-1.615-1.952-1.574-.964.04-1.739.768-1.772 1.767-.044 1.345-.022 2.692-.024 4.038-.002 2.811-.015 5.622.006 8.433.011 1.573-.45 2.95-1.428 4.192-1.708 2.17-3.364 4.38-5.054 6.563-.503.65-1.172.812-1.815.499-.586-.286-.886-.94-.746-1.606.061-.288.233-.51.405-.735.704-.917 1.415-1.83 2.11-2.754.698-.929.605-1.948-.217-2.567-.793-.597-1.796-.429-2.48.463a796.713 796.713 0 0 0-5.696 7.497c-1.123 1.499-1.666 3.207-1.665 5.085 0 3.07-.02 6.141.012 9.212.009.866-.204 1.553-.963 2.017h-.992c-.728-.488-.923-1.169-.911-2.03.042-2.975.035-5.95.011-8.925-.022-2.795.835-5.272 2.54-7.48 1.716-2.221 3.507-4.395 5.077-6.717 1.893-2.802 5.784-3.251 7.98-.121.727-.7.996-1.563.993-2.554-.01-4.085-.022-8.17.002-12.254.017-2.922 2.139-4.958 4.998-4.858 2.182.076 4.153 1.814 4.389 3.989.372 3.424.672 6.857 1.002 10.286.17 1.761.299 3.528.517 5.283.237 1.904-.202 3.559-1.394 5.09-3.811 4.896-7.569 9.834-11.356 14.748-.256.333-.398.656-.381 1.09.034.872-.03 1.749.021 2.619.05.853-.258 1.455-1.015 1.834h-.851Z" fill-rule="evenodd" fill="url(&quot;#a&quot;)" data-name="Path 97"/><path d="M1154.118 1689.537c-.734-.483-.932-1.166-.92-2.028.041-2.928.001-5.856.02-8.784.015-2.23-.641-4.204-2.019-5.969-1.787-2.286-3.525-4.61-5.274-6.926-.441-.583-.968-.985-1.728-.899-1.325.148-1.969 1.61-1.177 2.722.724 1.018 1.512 1.991 2.273 2.984.298.388.48.804.363 1.312-.137.593-.509.955-1.085 1.084-.653.147-1.134-.151-1.523-.659-1.549-2.023-3.055-4.083-4.672-6.05-1.266-1.542-1.807-3.221-1.766-5.214.08-3.824.028-7.651.021-11.476-.003-1.248-.644-2.075-1.659-2.193-1.096-.126-2.005.569-2.123 1.69-.25 2.371-.468 4.744-.696 7.117-.269 2.795-.513 5.593-.811 8.385-.112 1.046.11 1.926.761 2.768 3.954 5.114 7.877 10.253 11.826 15.371.398.516.587 1.041.566 1.69-.035 1.062-.055 2.128.005 3.187.049.872-.257 1.482-1.012 1.888h-.85c-.758-.42-1.115-1.058-.985-1.92.333-2.195-.445-3.915-1.85-5.631-3.182-3.885-6.066-8.015-9.253-11.896-1.767-2.151-2.267-4.388-1.929-7.081.541-4.305.852-8.64 1.27-12.961.079-.818.107-1.646.408-2.432.783-2.046 2.874-3.284 5.082-2.995 2.072.273 3.771 1.984 4.018 4.072.055.467.068.942.069 1.413.005 3.872.015 7.744-.006 11.616-.005.997.264 1.848.98 2.55 1.603-2.261 3.772-2.502 5.439-1.933a4.35 4.35 0 0 1 2.09 1.511c1.946 2.551 3.903 5.093 5.824 7.662 1.581 2.113 2.265 4.525 2.257 7.152-.008 2.951-.023 5.902.012 8.853.01.865-.201 1.551-.953 2.02h-.993Z" fill-rule="evenodd" fill="url(&quot;#b&quot;)" data-name="Path 98"/><path d="M1179.643 1630.693v-7.803c0-1.25-.301-1.64-1.515-1.912-5.913-1.317-11.819-2.626-17.732-3.942a1.977 1.977 0 0 0-.905-.015c-5.935 1.331-11.863 2.648-17.798 3.979-1.191.272-1.478.647-1.478 1.861 0 4.317.015 8.641 0 12.958-.007 1.824.103 3.641.485 5.421 2.244 10.51 8.304 17.849 18.269 21.946.655.272 1.229.272 1.898.015 4.413-1.707 8.222-4.295 11.355-7.84 4.237-4.788 6.686-10.37 7.289-16.754.265-2.802.051-5.619.132-7.914Z" fill-rule="evenodd" fill="url(&quot;#c&quot;)" data-name="Path 99"/><path d="M1169.994 1631.948c-.017.55-.246.991-.652 1.355-3.871 3.506-7.741 7.012-11.62 10.502-.881.787-1.77.711-2.558-.203a404.976 404.976 0 0 1-3.896-4.608c-.686-.821-.635-1.77.093-2.397.72-.618 1.66-.525 2.372.28a58.11 58.11 0 0 1 2.371 2.803c.415.542.652.644 1.22.119 3.1-2.863 6.233-5.675 9.367-8.503.262-.237.516-.492.813-.678 1.067-.669 2.456.085 2.49 1.33Z" fill="#fff" fill-rule="evenodd" data-name="Path 100"/></g><defs><linearGradient x1="0" y1=".5" x2="1" y2=".5" id="a"><stop stop-color="#e90010" offset="0"/><stop stop-color="#6c7500" offset="0"/><stop stop-color="#b2c300" offset="1"/></linearGradient><linearGradient x1="0" y1=".5" x2="1" y2=".5" id="b"><stop stop-color="#e90010" offset="0"/><stop stop-color="#6c7500" offset="0"/><stop stop-color="#b2c300" offset="1"/></linearGradient><linearGradient x1="0" y1=".5" x2="1" y2=".5" id="c"><stop stop-color="#e90010" offset="0"/><stop stop-color="#6c7500" offset="0"/><stop stop-color="#b2c300" offset="1"/></linearGradient></defs></svg>