<svg width="33" height="33" viewBox="0 0 33 33" fill="none" xmlns="http://www.w3.org/2000/svg">
<g opacity="0.8">
<path d="M16.5 19.2844C15 19.2844 13.7 18.0844 13.7 16.4844C13.7 14.9844 14.9 13.6844 16.5 13.6844C18 13.6844 19.3 14.8844 19.3 16.4844C19.3 17.9844 18 19.2844 16.5 19.2844Z" fill="url(#paint0_linear_4840_682)"/>
<path fill-rule="evenodd" clip-rule="evenodd" d="M19.9 9.68437H13.1C12.3 9.78437 11.9 9.88437 11.6 9.98437C11.2 10.0844 10.9 10.2844 10.6 10.5844C10.3626 10.8218 10.2505 11.0591 10.1149 11.3461C10.0792 11.4217 10.0417 11.501 10 11.5844C9.98453 11.6308 9.96667 11.6796 9.94752 11.7319C9.84291 12.0177 9.7 12.4081 9.7 13.0844V19.8844C9.8 20.6844 9.9 21.0844 10 21.3844C10.1 21.7844 10.3 22.0844 10.6 22.3844C10.8374 22.6218 11.0748 22.7339 11.3617 22.8695C11.4374 22.9052 11.5165 22.9426 11.6 22.9844C11.6464 22.9998 11.6952 23.0177 11.7475 23.0368C12.0333 23.1415 12.4238 23.2844 13.1 23.2844H19.9C20.7 23.1844 21.1 23.0844 21.4 22.9844C21.8 22.8844 22.1 22.6844 22.4 22.3844C22.6374 22.147 22.7495 21.9096 22.8851 21.6227C22.9209 21.547 22.9583 21.4678 23 21.3844C23.0155 21.338 23.0333 21.2892 23.0525 21.2369C23.1571 20.951 23.3 20.5606 23.3 19.8844V13.0844C23.2 12.2844 23.1 11.8844 23 11.5844C22.9 11.1844 22.7 10.8844 22.4 10.5844C22.1626 10.347 21.9252 10.2348 21.6383 10.0993C21.5627 10.0636 21.4833 10.026 21.4 9.98437C21.3536 9.9689 21.3048 9.95104 21.2525 9.93189C20.9667 9.82728 20.5762 9.68437 19.9 9.68437ZM16.5 12.1844C14.1 12.1844 12.2 14.0844 12.2 16.4844C12.2 18.8844 14.1 20.7844 16.5 20.7844C18.9 20.7844 20.8 18.8844 20.8 16.4844C20.8 14.0844 18.9 12.1844 16.5 12.1844ZM21.9 12.0844C21.9 12.6367 21.4523 13.0844 20.9 13.0844C20.3477 13.0844 19.9 12.6367 19.9 12.0844C19.9 11.5321 20.3477 11.0844 20.9 11.0844C21.4523 11.0844 21.9 11.5321 21.9 12.0844Z" fill="url(#paint1_linear_4840_682)"/>
<path fill-rule="evenodd" clip-rule="evenodd" d="M0.5 16.4844C0.5 7.64782 7.66344 0.484375 16.5 0.484375C25.3366 0.484375 32.5 7.64782 32.5 16.4844C32.5 25.3209 25.3366 32.4844 16.5 32.4844C7.66344 32.4844 0.5 25.3209 0.5 16.4844ZM13.1 8.18437H19.9C20.8 8.28437 21.4 8.38437 21.9 8.58437C22.5 8.88437 22.9 9.08437 23.4 9.58437C23.9 10.0844 24.2 10.5844 24.4 11.0844C24.6 11.5844 24.8 12.1844 24.8 13.0844V19.8844C24.7 20.7844 24.6 21.3844 24.4 21.8844C24.1 22.4844 23.9 22.8844 23.4 23.3844C22.9 23.8844 22.4 24.1844 21.9 24.3844C21.4 24.5844 20.8 24.7844 19.9 24.7844H13.1C12.2 24.6844 11.6 24.5844 11.1 24.3844C10.5 24.0844 10.1 23.8844 9.6 23.3844C9.1 22.8844 8.8 22.3844 8.6 21.8844C8.4 21.3844 8.2 20.7844 8.2 19.8844V13.0844C8.3 12.1844 8.4 11.5844 8.6 11.0844C8.9 10.4844 9.1 10.0844 9.6 9.58437C10.1 9.08437 10.6 8.78437 11.1 8.58437C11.6 8.38437 12.2 8.18437 13.1 8.18437Z" fill="url(#paint2_linear_4840_682)"/>
</g>
<defs>
<linearGradient id="paint0_linear_4840_682" x1="15.6881" y1="7.25128" x2="30.2851" y2="30.2406" gradientUnits="userSpaceOnUse">
<stop stop-color="#F1914B"/>
<stop offset="1" stop-color="#E040A6"/>
</linearGradient>
<linearGradient id="paint1_linear_4840_682" x1="15.6881" y1="7.25128" x2="30.2851" y2="30.2406" gradientUnits="userSpaceOnUse">
<stop stop-color="#F1914B"/>
<stop offset="1" stop-color="#E040A6"/>
</linearGradient>
<linearGradient id="paint2_linear_4840_682" x1="15.6881" y1="7.25128" x2="30.2851" y2="30.2406" gradientUnits="userSpaceOnUse">
<stop stop-color="#F1914B"/>
<stop offset="1" stop-color="#E040A6"/>
</linearGradient>
</defs>
</svg>
