<svg xmlns="http://www.w3.org/2000/svg" width="350.179" height="77.901" viewBox="0 0 350.179 77.901">
  <g id="Group_21981" data-name="Group 21981" transform="translate(-492.619 325.083)">
    <path id="Path_46999" data-name="Path 46999" d="M159.1,43.837c-4.811,0-6.779-4-6.779-8.458,0-4.517,1.968-8.515,6.779-8.515s6.777,4,6.777,8.515c0,4.462-1.97,8.458-6.777,8.458m0,7.3c9.962,0,17.547-5.794,17.547-15.756,0-10.019-7.585-15.814-17.547-15.814S141.55,25.359,141.55,35.379c0,9.962,7.59,15.756,17.552,15.756" transform="translate(479.95 -316.188)" fill="#e3001b"/>
    <path id="Path_47000" data-name="Path 47000" d="M155.24,33.393H161.2V45.677c0,7.181,2.26,11.292,11.586,11.292a50.448,50.448,0,0,0,6.545-.576l-.349-6.779a19.847,19.847,0,0,1-3.183.407c-3.3,0-4.17-1.856-4.17-5.5V33.393h7.3V26.1h-7.3l-.005-10.438-10.246,3.659V26.1H155.24Z" transform="translate(500.406 -322.025)" fill="#e3001b"/>
    <path id="Path_47001" data-name="Path 47001" d="M179.365,56.25h10.426V41.307h.115l8.341,14.943h12.626L199.523,39.915l10.483-13.841H198.6l-8.69,12.683h-.115V15.676l-10.426,3.609Z" transform="translate(536.455 -322)" fill="#e3001b"/>
    <path id="Path_47002" data-name="Path 47002" d="M130.42,56.25h10.426V41.307h.115L149.3,56.25H161.93L150.576,39.915l10.486-13.841H149.651l-8.69,12.683h-.115V15.676l-10.426,3.44Z" transform="translate(463.318 -322)" fill="#e3001b"/>
    <path id="Path_47003" data-name="Path 47003" d="M175.248,41.047c0-2.933,2.816-4.046,6.39-4.046,1.584,0,3.108.117,4.455.177,0,3.577-2.522,7.208-6.505,7.208-2.464,0-4.34-1.23-4.34-3.34m21.281,9.673a37.419,37.419,0,0,1-.586-7.211V32.135c0-9.319-6.744-12.661-14.539-12.661a31.573,31.573,0,0,0-12.194,2.17l.177,7.151a19.85,19.85,0,0,1,9.733-2.29c3.809,0,6.917,1.117,6.974,5.278a30.894,30.894,0,0,0-4.924-.412c-5.63,0-15.769,1.117-15.769,10.436,0,6.625,5.393,9.615,11.431,9.615,4.338,0,7.268-1.7,9.673-5.51h.117c0,1.584.175,3.163.232,4.806Z" transform="translate(515.59 -316.324)" fill="#e3001b"/>
    <path id="Path_47004" data-name="Path 47004" d="M89.879,47.105c0-21.513,20.276-38.95,45.291-38.95s45.288,17.437,45.288,38.95-20.278,38.95-45.288,38.95-45.291-17.44-45.291-38.95" transform="translate(402.74 -333.238)" fill="#002c62"/>
    <path id="Path_47005" data-name="Path 47005" d="M105.855,15.288l10.521-3.477.052,56.882-10.611,3.554Z" transform="translate(426.556 -327.774)" fill="#e3001b"/>
    <path id="Path_47006" data-name="Path 47006" d="M129.008,45.068c-4.572,5.512-8.989,11.142-17.27,11.142-11.691,0-17.235-11.3-17.235-20.757,0-9.082,4.333-19.829,15.724-19.829,4.939,0,9.7,3.021,12.531,6.218l0,7.707a25.557,25.557,0,0,0-11.142-3.218c-7.221-.12-13.591,3.013-13.479,10.139.08,4.914,4.939,8.251,9.778,8.251,7.413,0,11.9-6.769,15.651-11.913,1.05-1.339,4-5.288,4.46-5.924,4.168-5.822,8.992-11.139,17.273-11.139,9.75,0,15.222,7.862,16.771,15.951h-4.4a10.461,10.461,0,0,0-8.53-4.228c-7.66,0-12.242,7.049-16.068,12.239,0,0-2.983,4.061-4.061,5.36m33.311-5.106c-.985,8.139-5.547,16.355-15.514,16.37-5.819.012-10.364-3.971-13.509-8.847V41.843c3.938,1.953,7.617,4.053,12.082,4.116,5.5.082,10.478-2.033,12.536-6Z" transform="translate(409.648 -322.079)" fill="#fff"/>
    <path id="Path_47007" data-name="Path 47007" d="M255.224,40.6c.387-3.639,2.482-7.829,7.555-7.829,4.465,0,7,3.529,7,7.829Zm17.921,10.421a16.622,16.622,0,0,1-8.658,2.814,9.2,9.2,0,0,1-9.264-9.373H275.3c0-9.044-3.033-15.881-12.406-15.881-7.939,0-13.177,5.9-13.177,14.227,0,9.151,4.574,15.217,14.556,15.217a21.549,21.549,0,0,0,8.877-1.821ZM233.5,57.364h5.183V33.437h7.445V29.244h-7.445V26.214c0-3.806.551-6.672,5.018-6.672a8.229,8.229,0,0,1,2.482.329l.219-4.19a21.333,21.333,0,0,0-3.472-.329c-7.665,0-9.431,4.465-9.431,11.3v2.592h-6.615v4.193H233.5Zm-12.514-40.25h-5.844v5.844h5.844Zm-5.515,40.25h5.183V29.244H215.47Zm-15.327,0h5.183V16.012h-5.183Z" transform="translate(567.503 -322.485)" fill="#002c62"/>
  </g>
</svg>
