<svg xmlns="http://www.w3.org/2000/svg" width="425.999" height="94.769" viewBox="38.907 41.391 425.999 94.769"><g data-name="Group 10"><path d="M217.044 105.542c-5.852 0-8.246-4.862-8.246-10.288 0-5.495 2.394-10.361 8.246-10.361 5.846 0 8.244 4.866 8.244 10.361 0 5.426-2.398 10.288-8.244 10.288m0 8.878c12.118 0 21.346-7.048 21.346-19.166 0-12.192-9.228-19.238-21.346-19.238-12.119 0-21.352 7.046-21.352 19.238 0 12.118 9.233 19.166 21.352 19.166Z" fill="#fff" fill-rule="evenodd" data-name="Path 46"/><path d="M237.231 85.738h7.255v14.943c0 8.736 2.749 13.739 14.095 13.739 3.169 0 5.566-.423 7.962-.703l-.425-8.248c-1.267.212-2.604.496-3.871.496-4.019 0-5.075-2.259-5.075-6.695V85.738h8.88v-8.875h-8.88l-.006-12.698-12.468 4.449v8.249h-7.467v8.875Z" fill="#fff" fill-rule="evenodd" data-name="Path 47"/><path d="M310.436 113.573h12.684v-18.18h.14l10.147 18.18h15.358L334.959 93.7l12.754-16.838h-13.884l-10.57 15.43h-.139v-28.08l-12.684 4.39v44.97Z" fill="#fff" fill-rule="evenodd" data-name="Path 48"/><path d="M161.92 113.573h12.684v-18.18h.14l10.149 18.18h15.36L186.441 93.7l12.757-16.838h-13.883l-10.572 15.43h-.14v-28.08l-12.683 4.184v45.176Z" fill="#fff" fill-rule="evenodd" data-name="Path 49"/><path d="M280.046 101.982c0-3.568 3.424-4.923 7.771-4.923 1.927 0 3.781.144 5.421.215 0 4.352-3.068 8.771-7.915 8.771-2.997 0-5.277-1.498-5.277-4.063m25.888 11.767c-.572-2.925-.714-5.846-.714-8.771V91.14c0-11.337-8.204-15.402-17.686-15.402-5.495 0-10.27.784-14.837 2.64l.216 8.698c3.565-1.995 7.702-2.783 11.84-2.783 4.635 0 8.415 1.357 8.485 6.42-1.64-.285-3.92-.5-5.99-.5-6.849 0-19.184 1.356-19.184 12.694 0 8.06 6.56 11.696 13.909 11.696 5.275 0 8.841-2.068 11.767-6.7h.142c0 1.925.211 3.847.282 5.846h11.77Z" fill="#fff" fill-rule="evenodd" data-name="Path 50"/><path d="M38.907 88.776c0-26.172 24.667-47.385 55.098-47.385 30.425 0 55.092 21.213 55.092 47.385 0 26.167-24.667 47.384-55.092 47.384-30.431 0-55.098-21.217-55.098-47.384" fill="#003884" fill-rule="evenodd" data-name="Path 51"/><path d="m87.314 56.718 12.799-4.23.063 69.198-12.907 4.324.045-69.292Z" fill="#e90010" fill-rule="evenodd" data-name="Path 52"/><path d="M94.911 99.874c-5.562 6.704-10.936 13.554-21.01 13.554-14.221 0-20.965-13.754-20.965-25.254 0-11.047 5.269-24.121 19.127-24.121 6.009 0 11.798 3.675 15.243 7.564l-.007 9.377c-2.882-1.937-9.337-3.843-13.553-3.913-8.784-.147-16.533 3.664-16.395 12.334.094 5.976 6.007 10.035 11.894 10.035 9.015 0 14.475-8.234 19.04-14.491 1.277-1.629 4.866-6.433 5.426-7.205 5.069-7.082 10.936-13.552 21.01-13.552 11.862 0 18.52 9.562 20.406 19.404h-5.351c-2.153-3.189-6.294-5.144-10.377-5.144-9.319 0-14.893 8.576-19.549 14.891 0 0-3.627 4.94-4.939 6.521m40.523-6.212c-1.197 9.901-6.748 19.894-18.872 19.915-7.08.014-12.607-4.832-16.436-10.763v-6.866c4.791 2.378 9.267 4.932 14.7 5.009 6.695.1 12.748-2.474 15.25-7.295h5.358Z" fill="#fff" fill-rule="evenodd" data-name="Path 53"/><path d="M440.49 93.947c.47-4.427 3.019-9.525 9.19-9.525 5.433 0 8.519 4.293 8.519 9.525H440.49Zm21.8 12.677c-1.542 1.275-6.372 3.421-10.531 3.421-5.969 0-11.269-4.628-11.269-11.403h24.416c0-11-3.689-19.317-15.092-19.317-9.658 0-16.031 7.177-16.031 17.305 0 11.134 5.567 18.513 17.708 18.513 5.634 0 8.384-1.341 10.799-2.214v-6.305Zm-48.228 7.714h6.305V85.227h9.056v-5.098h-9.056V76.44c0-4.628.671-8.116 6.105-8.116 1.072 0 2.281.134 3.018.402l.268-5.097c-1.274-.202-2.616-.403-4.226-.403-9.323 0-11.47 5.433-11.47 13.751v3.152h-8.049v5.098h8.049v29.111Zm-15.226-48.966h-7.11v7.111h7.11v-7.111Zm-6.707 48.966h6.305V80.129h-6.305v34.209Zm-18.647 0h6.305V64.031h-6.305v50.307Z" fill="#fff" fill-rule="evenodd" data-name="Path 54"/></g></svg>