<svg xmlns="http://www.w3.org/2000/svg" xmlns:xlink="http://www.w3.org/1999/xlink" width="89.697" height="95.261" viewBox="0 0 89.697 95.261">
  <defs>
    <linearGradient id="linear-gradient" x1="0.5" x2="0.5" y2="1" gradientUnits="objectBoundingBox">
      <stop offset="0" stop-color="#6c7500"/>
      <stop offset="1" stop-color="#afc000"/>
    </linearGradient>
  </defs>
  <g id="Group_22077" data-name="Group 22077" transform="translate(-1067 -839)">
    <circle id="Ellipse_339" data-name="Ellipse 339" cx="24.359" cy="24.359" r="24.359" transform="translate(1100.003 848.429)" fill="url(#linear-gradient)"/>
    <g id="tax_4_" data-name="tax (4)" transform="translate(1067 839)">
      <path id="Path_47226" data-name="Path 47226" d="M270.023,130.581a1.434,1.434,0,0,0,1.934-.37l16.735-24.654a1.393,1.393,0,1,0-2.3-1.564l-16.735,24.654A1.393,1.393,0,0,0,270.023,130.581Z" transform="translate(-222.164 -84.184)" fill="#fff"/>
      <path id="Path_47227" data-name="Path 47227" d="M347.728,194.616c2.9,0,5.256-2.9,5.256-6.461-.3-8.575-10.217-8.573-10.513,0C342.472,191.718,344.83,194.616,347.728,194.616Zm0-10.136c1.34,0,2.471,1.683,2.471,3.675s-1.131,3.675-2.471,3.675-2.471-1.683-2.471-3.675S346.389,184.48,347.728,184.48Z" transform="translate(-281.657 -147.978)" fill="#fff"/>
      <path id="Path_47228" data-name="Path 47228" d="M254.356,109.844c0-3.563-2.358-6.461-5.256-6.461-6.971.345-6.968,12.579,0,12.922C252,116.3,254.356,113.406,254.356,109.844Zm-7.727,0c0-1.992,1.132-3.675,2.471-3.675s2.471,1.683,2.471,3.675-1.132,3.675-2.471,3.675S246.629,111.836,246.629,109.844Z" transform="translate(-201.368 -84.185)" fill="#fff"/>
      <path id="Path_47229" data-name="Path 47229" d="M62,64.241C96.179,74.43,119.844,31.635,93.226,7.992A1.393,1.393,0,1,0,91.408,10.1C116.117,32.114,93.451,71.665,62,61.305V51.841c0-1.194-.722-2.874-4.163-4.1a26.942,26.942,0,0,0-12.552-.946C32.148,21.155,59.027-6.613,85,5.879a1.393,1.393,0,0,0,1.223-2.5C58.206-10.129,28.932,19.4,42.454,47.365c-.416.114-.817.238-1.195.373-3.441,1.228-4.163,2.909-4.163,4.1v9.271a22.535,22.535,0,0,0-9.647-1.821,1.393,1.393,0,0,0,0,2.786,22.713,22.713,0,0,1,7.339,1.077c1.908.682,2.309,1.37,2.309,1.478s-.4.8-2.314,1.479a23.351,23.351,0,0,1-14.7,0c-1.912-.682-2.314-1.372-2.314-1.479,0-.126.489-.92,2.812-1.644a1.393,1.393,0,0,0-.829-2.659c-3.941,1.228-4.768,3.018-4.768,4.3V89.81c0,1.194.722,2.874,4.163,4.1a26.144,26.144,0,0,0,16.573,0,9.087,9.087,0,0,0,2.77-1.475,9.086,9.086,0,0,0,2.77,1.475,26.145,26.145,0,0,0,16.573,0,9.087,9.087,0,0,0,2.77-1.475,9.086,9.086,0,0,0,2.77,1.475,26.144,26.144,0,0,0,16.573,0c3.441-1.228,4.163-2.909,4.163-4.1V77.22c0-1.194-.722-2.874-4.163-4.1a26.144,26.144,0,0,0-16.573,0A12.085,12.085,0,0,0,62,73.7c0-1.816,0-7.2,0-9.1,0-.05,0-.308,0-.362ZM81.324,83.515c0,.108-.4.8-2.314,1.479a23.352,23.352,0,0,1-14.7,0C62.4,84.312,62,83.623,62,83.515V80.74a12.114,12.114,0,0,0,1.378.584,26.144,26.144,0,0,0,16.573,0,12.08,12.08,0,0,0,1.378-.584ZM59.21,58.136c0,.108-.4.8-2.314,1.479a23.351,23.351,0,0,1-14.7,0c-1.912-.682-2.314-1.372-2.314-1.479V55.36a12.117,12.117,0,0,0,1.378.584,26.145,26.145,0,0,0,16.573,0,12.082,12.082,0,0,0,1.378-.584Zm-17.951,4.1a25.4,25.4,0,0,0,17.951-.584v2.876c0,.108-.4.8-2.314,1.479a23.353,23.353,0,0,1-14.7,0c-1.912-.682-2.314-1.372-2.314-1.479V61.655A12.1,12.1,0,0,0,41.26,62.239ZM37.1,77.22c0,.108-.4.8-2.314,1.479a23.352,23.352,0,0,1-14.7,0c-1.912-.682-2.314-1.372-2.314-1.479V74.445a12.116,12.116,0,0,0,1.378.584,26.144,26.144,0,0,0,16.573,0,12.081,12.081,0,0,0,1.378-.584ZM17.768,80.739a12.115,12.115,0,0,0,1.378.584,26.144,26.144,0,0,0,16.573,0,12.079,12.079,0,0,0,1.378-.584v2.776c0,.108-.4.8-2.314,1.479a23.352,23.352,0,0,1-14.7,0c-1.912-.682-2.314-1.372-2.314-1.479Zm22.114,0a12.115,12.115,0,0,0,1.378.584,26.145,26.145,0,0,0,16.573,0,12.079,12.079,0,0,0,1.378-.584v2.776c0,.108-.4.8-2.314,1.479a23.351,23.351,0,0,1-14.7,0c-1.912-.682-2.314-1.372-2.314-1.479ZM56.9,78.7a23.353,23.353,0,0,1-14.7,0c-1.912-.682-2.314-1.372-2.314-1.479V74.445a12.116,12.116,0,0,0,1.378.584,26.145,26.145,0,0,0,16.573,0,12.082,12.082,0,0,0,1.378-.584V77.22C59.21,77.328,58.808,78.017,56.9,78.7Zm2.314-7.774c0,.108-.4.8-2.314,1.479a23.353,23.353,0,0,1-14.7,0c-1.912-.682-2.314-1.372-2.314-1.479V68.05a12.116,12.116,0,0,0,1.378.584,26.145,26.145,0,0,0,16.573,0,12.08,12.08,0,0,0,1.378-.584ZM42.2,50.362a23.36,23.36,0,0,1,14.7,0c1.912.682,2.314,1.372,2.314,1.479s-.4.8-2.314,1.479a23.353,23.353,0,0,1-14.7,0c-1.912-.682-2.314-1.372-2.314-1.479S40.284,51.044,42.2,50.362ZM19.146,68.734A25.4,25.4,0,0,0,37.1,68.15v2.776c0,.108-.4.8-2.314,1.479a23.352,23.352,0,0,1-14.7,0c-1.912-.682-2.314-1.372-2.314-1.479V68.15A12.089,12.089,0,0,0,19.146,68.734ZM34.782,91.289a23.352,23.352,0,0,1-14.7,0c-1.912-.682-2.314-1.372-2.314-1.479V87.034a24.9,24.9,0,0,0,19.328,0V89.81C37.1,89.917,36.694,90.607,34.782,91.289Zm22.114,0a23.353,23.353,0,0,1-14.7,0c-1.912-.682-2.314-1.372-2.314-1.479V87.034a24.9,24.9,0,0,0,19.328,0V89.81C59.21,89.917,58.808,90.607,56.9,91.289Zm22.114,0a23.352,23.352,0,0,1-14.7,0C62.4,90.607,62,89.917,62,89.81V87.034a24.9,24.9,0,0,0,19.328,0V89.81C81.324,89.917,80.922,90.607,79.01,91.289ZM64.31,75.741a23.352,23.352,0,0,1,14.7,0c1.912.682,2.314,1.372,2.314,1.479s-.4.8-2.314,1.479a23.352,23.352,0,0,1-14.7,0C62.4,78.017,62,77.328,62,77.22S62.4,76.423,64.31,75.741Z" transform="translate(-14.983 0)" fill="#7b8600"/>
    </g>
  </g>
</svg>
