<svg xmlns="http://www.w3.org/2000/svg" width="66.906" height="87.795" viewBox="1134.26 1917.53 66.906 87.795"><g data-name="Group 27"><path d="M1176.47 1917.53c.429.302.957.231 1.428.383a10.034 10.034 0 0 1 3.873 2.28c5.415 5.125 10.831 10.25 16.248 15.372 2.129 2.013 3.149 4.478 3.147 7.408-.011 17.514-.002 35.028-.007 52.542-.002 5.743-4.072 9.805-9.819 9.807-15.713.004-31.426.003-47.139.001-5.86-.001-9.908-4.04-9.908-9.89-.002-22.6.042-45.2-.033-67.799-.017-5.265 3.368-8.979 7.346-9.869.147-.033.361 0 .402-.235h34.463Zm-37.034 43.922c0 11.373-.002 22.747.001 34.12.001 2.812 1.79 4.605 4.599 4.606 15.802.002 31.603.003 47.405-.001 2.757 0 4.573-1.802 4.574-4.544.004-17.203-.002-34.406.017-51.61.001-.64-.147-.793-.788-.789-4.829.03-9.658.02-14.487.015-3.791-.004-6.338-2.549-6.343-6.339-.005-4.458-.019-8.916.017-13.374.006-.705-.153-.883-.872-.881-9.773.028-19.545.018-29.318.019-3.099 0-4.805 1.715-4.805 4.828v33.95Zm53.651-23.47-13.53-12.798c0 4.024-.003 7.848.001 11.672.001 1.001.252 1.248 1.268 1.249 3.882.003 7.764.003 11.645-.003.184-.001.391.083.616-.12Z" fill-rule="evenodd" fill="url(&quot;#a&quot;)" data-name="Path 68"/><path d="M1139.436 1961.452v-33.95c0-3.113 1.706-4.828 4.805-4.828 9.773-.001 19.545.009 29.318-.019.719-.002.878.176.872.881-.036 4.458-.022 8.916-.017 13.374.005 3.79 2.552 6.335 6.343 6.339 4.83.005 9.658.015 14.487-.015.641-.004.789.15.788.789-.02 17.204-.013 34.407-.017 51.61-.001 2.742-1.817 4.544-4.574 4.544-15.802.004-31.603.003-47.405.001-2.809-.001-4.598-1.794-4.599-4.606-.003-11.373-.001-22.747-.001-34.12Zm27.779-4.484h.6c5.997 0 11.995.002 17.993-.001 1.304-.001 2.241-.587 2.651-1.636.692-1.769-.591-3.503-2.615-3.505-9.282-.005-18.564-.002-27.847-.002h-9.511c-1.174 0-2.04.525-2.503 1.599-.749 1.736.551 3.539 2.553 3.542 6.226.009 12.452.003 18.679.003Zm-.011 8.574h-.429c-6.055 0-12.11-.002-18.165.001-1.299 0-2.238.589-2.648 1.639-.69 1.765.597 3.5 2.621 3.501 10.139.006 20.28.003 30.418.003 2.313 0 4.627.002 6.94 0 1.173-.002 2.04-.527 2.5-1.604.744-1.742-.555-3.534-2.558-3.537-6.227-.009-12.453-.003-18.679-.003Zm-12.673 18.862c1.997 0 3.994.004 5.992-.001 1.696-.005 2.903-1.102 2.878-2.604-.025-1.481-1.203-2.536-2.856-2.538a5857.94 5857.94 0 0 0-11.899-.001c-1.708.002-2.884 1.077-2.865 2.602.019 1.493 1.179 2.536 2.843 2.541 1.969.005 3.938.001 5.907.001Z" fill-rule="evenodd" fill="url(&quot;#b&quot;)" data-name="Path 69"/><path d="M1193.087 1937.982c-.225.203-.432.119-.616.12-3.881.006-7.763.006-11.645.003-1.016-.001-1.267-.248-1.268-1.249-.004-3.824-.001-7.648-.001-11.672l13.53 12.798Z" fill="#e5e5e5" fill-rule="evenodd" data-name="Path 70"/><path d="M1167.215 1956.968c-6.227 0-12.453.006-18.679-.003-2.002-.003-3.302-1.806-2.553-3.542.463-1.074 1.329-1.599 2.503-1.599h9.51c9.284 0 18.566-.003 27.848.002 2.024.002 3.307 1.736 2.615 3.505-.41 1.049-1.347 1.635-2.651 1.636-5.998.003-11.996.001-17.993.001h-.6Z" fill="#fff" fill-rule="evenodd" data-name="Path 71"/><path d="M1167.204 1965.542c6.226 0 12.452-.006 18.68.003 2.002.003 3.301 1.795 2.557 3.537-.46 1.077-1.327 1.602-2.5 1.603-2.313.003-4.627.001-6.94.001-10.139 0-20.279.003-30.418-.003-2.024-.001-3.311-1.736-2.621-3.501.41-1.05 1.349-1.639 2.648-1.639 6.055-.003 12.11-.001 18.165-.001h.429Z" fill="#fff" fill-rule="evenodd" data-name="Path 72"/><path d="M1154.531 1984.404c-1.969 0-3.938.004-5.907-.001-1.664-.005-2.824-1.048-2.843-2.54-.019-1.526 1.157-2.601 2.865-2.603 3.967-.003 7.933-.004 11.899.001 1.653.002 2.831 1.057 2.856 2.538.025 1.502-1.182 2.599-2.878 2.604-1.998.005-3.995.001-5.992.001Z" fill="#fff" fill-rule="evenodd" data-name="Path 73"/></g><defs><linearGradient x1="0" y1=".5" x2="1" y2=".5" id="a"><stop stop-color="#e90010" offset="0"/><stop stop-color="#6c7500" offset="0"/><stop stop-color="#b2c300" offset="1"/></linearGradient><linearGradient x1="0" y1=".5" x2="1" y2=".5" id="b"><stop stop-color="#e90010" offset="0"/><stop stop-color="#6c7500" offset="0"/><stop stop-color="#b2c300" offset="1"/></linearGradient></defs></svg>