<svg xmlns="http://www.w3.org/2000/svg" width="98.204" height="98.193" viewBox="1538.734 1616.976 98.204 98.193"><g data-name="Group 36"><path d="M1583.811 1616.976h7.673c.083.26.306.162.479.182 1.268.148 2.548.227 3.804.447 12.434 2.177 22.696 8.128 30.526 18.025 8.587 10.853 11.931 23.272 10.205 36.982-1.151 9.14-4.706 17.343-10.602 24.424-9.65 11.589-22.062 17.727-37.162 18.116-10.035.258-19.335-2.404-27.697-7.989-12.135-8.103-19.402-19.394-21.767-33.82-.176-1.078-.09-2.201-.536-3.234v-8.056c.256-.079.18-.302.198-.476.206-2.001.513-3.984.928-5.954 4.15-19.679 20.827-35.281 40.719-38.114 1.079-.154 2.2-.089 3.232-.533Zm44.704 49.087c-.015-22.435-18.215-40.64-40.646-40.655-22.465-.016-40.719 18.231-40.705 40.69.014 22.427 18.221 40.64 40.644 40.657 22.462.017 40.722-18.236 40.707-40.692Z" fill-rule="evenodd" fill="url(&quot;#a&quot;)" data-name="Path 83"/><path d="M1628.515 1666.063c.015 22.456-18.245 40.709-40.707 40.692-22.423-.018-40.63-18.23-40.644-40.657-.014-22.459 18.24-40.706 40.705-40.69 22.431.015 40.631 18.22 40.646 40.655Zm-2.958-.023c-.096-20.847-17.13-37.835-37.781-37.68-20.887.157-37.833 17.172-37.654 37.808.181 20.863 17.038 37.676 37.734 37.634 20.798-.041 37.796-17.067 37.701-37.762Z" fill="#f4f4f4" fill-rule="evenodd" data-name="Path 84"/><path d="M1625.557 1666.04c.095 20.695-16.903 37.721-37.701 37.762-20.696.042-37.553-16.771-37.734-37.634-.179-20.636 16.767-37.651 37.654-37.808 20.651-.155 37.685 16.833 37.781 37.68Zm-42.496 9.948c2.78-.57 4.254-2.461 4.012-4.934-.22-2.255-2.136-3.823-4.699-3.836a478.554 478.554 0 0 0-4.31 0c-1.413.006-1.91.494-1.913 1.888-.007 2.299-.003 4.598-.002 6.897 0 1.405-.014 2.81.008 4.215.012.797.43 1.332 1.22 1.495.668.138 1.186-.153 1.535-.722.225-.37.2-.797.201-1.211v-3.637l4.508 4.807c.261.278.511.578.91.667.688.153 1.28-.005 1.677-.613.427-.653.305-1.293-.192-1.843-.935-1.034-1.898-2.042-2.955-3.173Zm24.383-8.772c-1.055 0-2.11-.017-3.165.005-1.036.023-1.614.56-1.62 1.606-.024 3.771-.024 7.543.001 11.315.007.99.572 1.574 1.55 1.592 2.14.039 4.283.037 6.424.004 1.013-.015 1.614-.654 1.585-1.54-.027-.839-.629-1.401-1.598-1.429-.958-.027-1.918-.006-2.877-.006-2.243-.001-2.222.001-2.119-2.224.022-.491.192-.579.622-.572.766.014 1.537.02 2.296-.058.771-.079 1.195-.591 1.232-1.355.04-.818-.409-1.325-1.181-1.517-.303-.076-.635-.049-.954-.051-2.071-.008-2.052-.006-2.013-2.132.009-.534.143-.72.698-.706 1.438.036 2.877.029 4.315.002.969-.018 1.563-.589 1.58-1.432.017-.894-.591-1.477-1.612-1.497-1.054-.02-2.109-.004-3.164-.005Zm-12.538 0c-1.023 0-2.046-.011-3.069.003-1.186.016-1.713.52-1.716 1.683-.012 3.708-.011 7.416-.001 11.123.003 1.132.503 1.694 1.602 1.712 2.11.034 4.219.03 6.329 0 .985-.014 1.654-.689 1.628-1.521-.026-.843-.694-1.427-1.702-1.448-.96-.019-1.918-.004-2.877-.004-2.117 0-2.098 0-2.069-2.09.007-.532.134-.738.693-.712.732.035 1.473.03 2.201-.043.807-.08 1.253-.6 1.302-1.404.046-.758-.517-1.38-1.324-1.503-.251-.038-.51-.024-.766-.026-2.17-.01-2.148-.009-2.108-2.143.01-.553.176-.707.712-.695 1.438.031 2.877.028 4.315.002 1-.018 1.653-.653 1.624-1.504-.028-.823-.662-1.404-1.61-1.423-1.054-.022-2.11-.005-3.164-.007Zm4.999-6.784c.899 1.339 1.705 2.558 2.532 3.764.629.918 1.443 1.155 2.192.673.788-.509.893-1.38.251-2.345-.918-1.382-1.827-2.77-2.796-4.117-.362-.503-.322-.844.02-1.326.96-1.352 1.874-2.738 2.791-4.121.616-.929.525-1.752-.217-2.275-.771-.543-1.593-.311-2.255.658-.666.974-1.304 1.968-1.98 2.936-.168.24-.237.603-.632.666-.82-1.222-1.628-2.447-2.459-3.657-.626-.912-1.441-1.13-2.196-.622-.744.502-.85 1.358-.249 2.268.932 1.412 1.859 2.827 2.837 4.206.334.471.308.797-.013 1.252-.903 1.275-1.759 2.585-2.63 3.883-.784 1.166-.758 2.04.072 2.589.803.53 1.592.231 2.354-.899.766-1.135 1.53-2.272 2.378-3.533Zm-18.626 4.69c.543-.035 1.025-.386 1.289-1.045.342-.857.692-1.712 1.027-2.572.116-.3.181-.596.619-.584 1.148.031 2.43-.279 3.404.14.775.331.804 1.698 1.202 2.59.013.03.023.059.035.089.422.993 1.204 1.423 2.016 1.11.832-.32 1.143-1.156.752-2.157-1.452-3.706-2.921-7.404-4.379-11.107-.269-.685-.718-1.155-1.481-1.15-.759.006-1.207.462-1.471 1.16-.496 1.31-1.024 2.608-1.538 3.911-.97 2.458-1.952 4.911-2.902 7.377-.452 1.171.155 2.208 1.427 2.238Zm-17.823 9.284c0 1.915-.012 3.831.005 5.747.009.95.592 1.58 1.417 1.603.86.025 1.472-.627 1.498-1.622.017-.638.004-1.277.004-1.916 0-2.277 0-2.277 2.251-2.29 1.366-.008 2.027-.49 2.023-1.474-.004-.968-.693-1.464-2.036-1.467h-.191c-2.097-.001-2.073-.001-2.062-2.09.003-.585.152-.77.75-.753 1.467.041 2.937.029 4.405.006 1.031-.016 1.646-.6 1.629-1.477-.017-.861-.661-1.431-1.681-1.437a495.939 495.939 0 0 0-6.321 0c-1.157.008-1.68.541-1.689 1.71-.013 1.82-.003 3.64-.002 5.46Zm10.39-15.642c0 1.598-.021 3.196.009 4.793.017.915.669 1.547 1.494 1.549.787.002 1.385-.58 1.483-1.464.027-.252.014-.51.014-.766.001-2.46-.004-4.921.003-7.381.002-.665-.196-1.495.125-1.947.312-.44 1.192-.087 1.819-.15.032-.003.064-.002.096-.006.847-.104 1.49-.75 1.43-1.514-.063-.843-.555-1.416-1.396-1.433a163.838 163.838 0 0 0-7.187.006c-.826.021-1.334.577-1.356 1.45-.019.809.561 1.411 1.44 1.487.444.039.897.045 1.341.004.533-.05.71.119.697.675-.038 1.565-.013 3.131-.012 4.697Z" fill-rule="evenodd" fill="url(&quot;#b&quot;)" data-name="Path 85"/><path d="M1583.061 1675.988c1.057 1.131 2.02 2.139 2.955 3.173.497.55.619 1.19.192 1.843-.398.608-.989.766-1.677.613-.399-.089-.649-.389-.91-.667l-4.508-4.807v3.637c0 .414.024.842-.201 1.211-.349.57-.867.86-1.535.722-.79-.163-1.208-.698-1.22-1.495-.022-1.405-.008-2.81-.008-4.215-.001-2.299-.005-4.598.002-6.897.003-1.394.5-1.882 1.913-1.888 1.436-.006 2.873-.007 4.31 0 2.563.013 4.478 1.581 4.699 3.836.242 2.473-1.232 4.364-4.012 4.934Zm-1.898-2.998c.479 0 .958.013 1.436-.003.913-.03 1.53-.571 1.564-1.352.036-.792-.621-1.446-1.55-1.475-.957-.031-1.917.019-2.873-.018-.523-.02-.629.19-.647.667-.082 2.181-.097 2.181 2.07 2.181Z" fill="#f5f5f5" fill-rule="evenodd" data-name="Path 86"/><path d="M1607.444 1667.217c1.055 0 2.11-.016 3.164.004 1.021.02 1.63.603 1.612 1.497-.017.843-.611 1.414-1.58 1.432a98.547 98.547 0 0 1-4.315-.002c-.555-.014-.689.172-.698.706-.039 2.126-.058 2.124 2.013 2.132.319.002.651-.025.954.051.772.192 1.22.699 1.181 1.517-.037.764-.461 1.276-1.232 1.355-.759.078-1.53.072-2.296.058-.43-.007-.6.081-.622.572-.103 2.225-.124 2.223 2.119 2.224.959 0 1.919-.021 2.877.006.969.028 1.571.59 1.598 1.429.029.886-.572 1.525-1.585 1.54-2.141.033-4.284.035-6.424-.004-.978-.018-1.543-.602-1.55-1.592a869.666 869.666 0 0 1 0-11.315c.005-1.046.583-1.583 1.62-1.606 1.054-.022 2.109-.005 3.164-.004Z" fill="#f2f2f2" fill-rule="evenodd" data-name="Path 87"/><path d="M1594.906 1667.217c1.054.001 2.11-.016 3.164.006.948.019 1.582.6 1.61 1.423.029.85-.624 1.486-1.624 1.504-1.438.026-2.877.029-4.315-.002-.536-.012-.702.142-.712.695-.04 2.134-.062 2.133 2.108 2.143.256.002.515-.012.766.026.807.123 1.37.745 1.324 1.503-.049.805-.495 1.324-1.302 1.404-.728.073-1.469.078-2.201.043-.559-.026-.686.18-.693.712-.029 2.09-.048 2.09 2.069 2.09.959 0 1.918-.015 2.877.004 1.008.02 1.676.605 1.702 1.448.026.832-.643 1.507-1.628 1.521-2.11.03-4.22.034-6.329 0-1.099-.018-1.599-.58-1.602-1.712-.01-3.707-.011-7.415.001-11.123.003-1.163.53-1.667 1.716-1.683 1.023-.014 2.046-.003 3.069-.002Z" fill="#f4f4f4" fill-rule="evenodd" data-name="Path 88"/><path d="M1599.905 1660.432c-.848 1.261-1.612 2.398-2.378 3.533-.762 1.13-1.551 1.429-2.354.899-.83-.55-.856-1.423-.072-2.589.871-1.298 1.727-2.608 2.63-3.883.321-.455.347-.781.013-1.252-.978-1.379-1.905-2.794-2.837-4.206-.601-.91-.495-1.766.249-2.268.755-.508 1.57-.29 2.196.622.831 1.21 1.639 2.435 2.459 3.657.395-.063.464-.426.632-.666.676-.968 1.314-1.962 1.98-2.936.662-.969 1.484-1.201 2.255-.658.742.523.833 1.346.217 2.275-.917 1.383-1.83 2.769-2.791 4.121-.342.482-.382.823-.02 1.326.969 1.346 1.878 2.735 2.796 4.117.642.965.537 1.836-.251 2.345-.749.482-1.563.245-2.192-.673-.827-1.206-1.633-2.425-2.532-3.764Z" fill="#f4f4f4" fill-rule="evenodd" data-name="Path 89"/><path d="M1581.28 1665.122c-1.273-.03-1.88-1.067-1.428-2.238.95-2.466 1.932-4.919 2.902-7.377.514-1.303 1.042-2.601 1.538-3.911.264-.698.712-1.154 1.47-1.16.764-.005 1.213.465 1.482 1.15 1.458 3.703 2.927 7.401 4.379 11.107.391 1.001.08 1.836-.752 2.157-.812.313-1.594-.117-2.016-1.11-.012-.03-.022-.06-.035-.089-.398-.892-.427-2.259-1.202-2.59-.974-.419-2.256-.109-3.404-.14-.438-.012-.503.284-.619.584-.335.86-.685 1.715-1.027 2.572-.264.659-.746 1.01-1.289 1.045Zm4.549-9.066c-.4.587-.586 1.209-.746 1.852 1.586.2 1.587.2 1.027-1.194-.082-.205-.173-.406-.281-.658Z" fill="#f4f4f4" fill-rule="evenodd" data-name="Path 90"/><path d="M1563.455 1674.406c0-1.82-.01-3.64.003-5.46.009-1.169.532-1.702 1.689-1.71 2.107-.014 4.214-.013 6.321 0 1.02.006 1.664.576 1.681 1.437.017.877-.598 1.461-1.629 1.477a101.13 101.13 0 0 1-4.405-.006c-.598-.017-.747.168-.75.754-.011 2.088-.035 2.088 2.062 2.09h.191c1.343.002 2.032.498 2.036 1.466.004.984-.657 1.466-2.023 1.474-2.251.013-2.251.013-2.251 2.29 0 .64.013 1.278-.004 1.916-.026.995-.638 1.647-1.498 1.622-.825-.024-1.408-.653-1.417-1.603-.017-1.916-.005-3.832-.006-5.747Z" fill="#f7f7f7" fill-rule="evenodd" data-name="Path 91"/><path d="M1573.845 1658.764c0-1.566-.025-3.132.013-4.697.013-.556-.164-.725-.697-.675a7.501 7.501 0 0 1-1.341-.004c-.879-.076-1.459-.678-1.44-1.487.022-.873.53-1.429 1.356-1.45 2.395-.058 4.792-.053 7.187-.006.841.017 1.333.59 1.397 1.433.058.764-.584 1.41-1.431 1.514-.032.004-.064.003-.096.006-.627.063-1.507-.29-1.819.15-.321.452-.123 1.282-.125 1.947-.007 2.46-.002 4.921-.003 7.381 0 .256.013.514-.014.766-.098.884-.696 1.466-1.483 1.464-.825-.002-1.477-.634-1.494-1.549-.03-1.597-.01-3.195-.01-4.793Z" fill="#f0f0f0" fill-rule="evenodd" data-name="Path 92"/><path d="M1581.163 1672.99c-2.167 0-2.152 0-2.07-2.181.018-.478.124-.687.647-.667.956.037 1.916-.013 2.873.018.929.029 1.586.683 1.55 1.475-.035.781-.651 1.321-1.564 1.352-.478.016-.957.003-1.436.003Z" fill-rule="evenodd" fill="url(&quot;#c&quot;)" data-name="Path 93"/><path d="M1585.829 1656.056c.108.252.199.453.281.658.56 1.394.559 1.394-1.027 1.194.16-.643.346-1.265.746-1.852Z" fill-rule="evenodd" fill="url(&quot;#d&quot;)" data-name="Path 94"/></g><defs><linearGradient x1="0" y1=".5" x2="1" y2=".5" id="a"><stop stop-color="#e90010" offset="0"/><stop stop-color="#6c7500" offset="0"/><stop stop-color="#b2c300" offset="1"/></linearGradient><linearGradient x1="0" y1=".5" x2="1" y2=".5" id="b"><stop stop-color="#e90010" offset="0"/><stop stop-color="#6c7500" offset="0"/><stop stop-color="#b2c300" offset="1"/></linearGradient><linearGradient x1="0" y1=".5" x2="1" y2=".5" id="c"><stop stop-color="#e90010" offset="0"/><stop stop-color="#6c7500" offset="0"/><stop stop-color="#b2c300" offset="1"/></linearGradient><linearGradient x1="0" y1=".5" x2="1" y2=".5" id="d"><stop stop-color="#e90010" offset="0"/><stop stop-color="#6c7500" offset="0"/><stop stop-color="#b2c300" offset="1"/></linearGradient></defs></svg>