<svg xmlns="http://www.w3.org/2000/svg" width="141.701" height="95.471" viewBox="0 0 141.701 95.471">
  <g id="Group_21982" data-name="Group 21982" transform="translate(-295.544 342.964)">
    <path id="Path_47008" data-name="Path 47008" d="M59.672,48.171h-18.7c-.015-.36-.044-.7-.044-1.039q0-11.663,0-23.326c0-1.348,0-1.348-1.386-1.338-.377,0-.754,0-1.283,0,2.03-2.89,3.964-5.646,5.966-8.5.206.25,4.164,5.681,6.1,8.5-.947,0-1.721.013-2.5,0-.447-.011-.631.153-.631.621q.02,10.15.018,20.3a1.672,1.672,0,0,0,.121.355H48.7l7.839,0c2.23,0,3.125.895,3.129,3.12v1.309" transform="translate(341.174 -326.3)" fill="#002c62"/>
    <path id="Path_47009" data-name="Path 47009" d="M54.83,45.272c-.022-.39-.057-.708-.057-1.026q0-12.551-.007-25.1a2.625,2.625,0,0,1,2.69-2.9c3.436,0,6.878.09,10.3.344A10.037,10.037,0,0,1,73.776,19a8.9,8.9,0,0,1,1.355,10.827,8.776,8.776,0,0,1-6.069,3.8,70.408,70.408,0,0,1-7.071.592c-.708.039-.919.228-.9.925.042,1.807-.046,3.62.029,5.427a4.572,4.572,0,0,1-4.359,4.692c-.612.053-1.234.009-1.927.009M61.182,20.76V29.7c2-.011,3.912.186,5.786-.5a4.2,4.2,0,0,0,.377-7.777c-1.932-.932-4.032-.75-6.164-.667" transform="translate(360.862 -323.583)" fill="#002c62"/>
    <path id="Path_47010" data-name="Path 47010" d="M55.81,40.206H49.6V39.114q0-7.746,0-15.487a2.847,2.847,0,0,1,3.118-3.149c1.006-.018,2.011,0,3.089,0Z" transform="translate(354.703 -318.55)" fill="#002c62"/>
    <path id="Path_47011" data-name="Path 47011" d="M27.813,45.279V20.737h4.622s4.392-.417,4.622-4.484H16.812s-3.791,0-4.53,4.484h9.06V45.279Z" transform="translate(310.193 -323.58)" fill="#e50019"/>
    <path id="Path_47012" data-name="Path 47012" d="M51.572,17.251c0-.289,0-.579,0-.87a10.518,10.518,0,0,0-3.087-.327,3.969,3.969,0,0,0-2.855,1.441,5.255,5.255,0,0,0-.564,2.934l.033,10.6a24.206,24.206,0,0,1-.71,6.646c-1.541,5.153-8.961,4.839-11.593,1.068-1.441-2.061-1.287-4.771-1.285-7.286l.007-11.277a5.061,5.061,0,0,0-.5-2.688,3.783,3.783,0,0,0-2.859-1.414,7.93,7.93,0,0,0-2.7.309c-.292.083-.408.182-.436.491-.044.471-.009.965-.013,1.438q-.026,2.881-.05,5.765l-.066,7.262a30.9,30.9,0,0,0,.314,5.822A10.377,10.377,0,0,0,27.606,42.4c2.4,2.6,6.225,3.254,9.76,3.388a21.694,21.694,0,0,0,6.764-.6A10.174,10.174,0,0,0,49.712,41.5c1.923-2.7,1.976-6.262,1.954-9.578q-.046-7.338-.094-14.673" transform="translate(325.218 -323.845)" fill="#002c62"/>
    <path id="Path_47013" data-name="Path 47013" d="M56.958,19.754a3.858,3.858,0,0,1-7.7,0,3.858,3.858,0,0,1,7.7,0" transform="translate(354.298 -323.677)" fill="#002c62"/>
    <path id="Path_47014" data-name="Path 47014" d="M56.958,19.754a3.858,3.858,0,0,1-7.7,0,3.858,3.858,0,0,1,7.7,0Z" transform="translate(354.298 -323.677)" fill="none" stroke="#fff" stroke-width="0.19"/>
    <path id="Path_47015" data-name="Path 47015" d="M17.738,27.973a2.167,2.167,0,1,0-4.309,0,2.167,2.167,0,1,0,4.309,0m-1,0c0,.658-.546.925-1.156.925s-1.162-.268-1.162-.925.546-.925,1.162-.925,1.156.27,1.156.925" transform="translate(311.561 -312.46)" fill="#e50019" fill-rule="evenodd"/>
    <path id="Path_47016" data-name="Path 47016" d="M15.243,27.425v-.813H16.92c.98,0,1.541-.309,1.541-1.583a6.582,6.582,0,0,0-.079-.892l-.925.046a2.7,2.7,0,0,1,.055.434c0,.452-.252.57-.75.57h-1.52v-1h-1v1l-1.425,0,.5,1.4h.927v.838Z" transform="translate(310.837 -314.178)" fill="#e50019" fill-rule="evenodd"/>
    <path id="Path_47017" data-name="Path 47017" d="M18.365,24.228V22.8H16.324V22.79l2.041-1.14V19.926l-2.23,1.55-1.89-1.432V21.6l1.732,1.186V22.8H12.824l.493,1.423Z" transform="translate(310.84 -319.199)" fill="#e50019" fill-rule="evenodd"/>
    <path id="Path_47018" data-name="Path 47018" d="M18.365,31.831V30.408H16.324V30.39l2.041-1.138V27.529l-2.23,1.55-1.89-1.432V29.2l1.732,1.186v.018H12.824l.469,1.423Z" transform="translate(310.84 -310.131)" fill="#e50019" fill-rule="evenodd"/>
    <path id="Path_47019" data-name="Path 47019" d="M17.681,22.119a5.128,5.128,0,0,1-.985.079H15.144c-1.272,0-1.73.921-1.73,1.987a4.307,4.307,0,0,0,.3,1.664l.976-.024a2.713,2.713,0,0,1-.314-1.329c0-.52.153-.945.721-.952a4.1,4.1,0,0,0-.057.671c0,.77.153,2.153,1.425,2.153.906,0,1.313-.735,1.313-1.561a1.431,1.431,0,0,0-.752-1.32v-.015c.217,0,.432-.024.656-.033Zm-1.32,2.905c-.4,0-.553-.384-.553-.873,0-.215.015-.423.024-.607a.938.938,0,0,1,.985.888c0,.335-.169.592-.456.592" transform="translate(311.543 -316.583)" fill="#e50019" fill-rule="evenodd"/>
    <text id="Term_With_Unit_Linked_Insurance_Plan" data-name="Term With Unit Linked Insurance Plan" transform="translate(331.351 -269.069)" fill="#1a1818" font-size="5" font-family="Roboto-Medium, Roboto" font-weight="500"><tspan x="0" y="0" letter-spacing="-0.043em">T</tspan><tspan y="0">erm With Unit Lin</tspan><tspan y="0" letter-spacing="-0.009em">k</tspan><tspan y="0">ed Insu</tspan><tspan y="0" letter-spacing="-0.014em">r</tspan><tspan y="0">ance Plan</tspan></text>
    <path id="Path_47020" data-name="Path 47020" d="M78.05,41.09S84.613,32.217,84.8,22.6C65.478,21.492,50.092,12.38,46.158,9.29,30.812,20.475,10.012,23.249,7.425,22.418c0,0-1.71,42.755,40.1,67.852,0,0,4.021-.693,13.334-6.286a23.522,23.522,0,0,1-13.68,11.487S-1.357,75.294.029,15.947c0,0,27.456,1.708,46.129-15.947,5.591,6.24,21.955,16.5,44,15.807,0,0-.555,13.452-12.11,25.284" transform="translate(295.544 -342.964)" fill="#e50019"/>
    <text id="_" data-name="₹" transform="translate(405.632 -301.863)" fill="#fff" font-size="6" font-family="Roboto-Regular, Roboto"><tspan x="0" y="0">₹</tspan></text>
  </g>
</svg>
