<svg xmlns="http://www.w3.org/2000/svg" xmlns:xlink="http://www.w3.org/1999/xlink" width="157.121" height="157.12" viewBox="0 0 157.121 157.12">
  <defs>
    <clipPath id="clip-path">
      <rect id="Rectangle_69" data-name="Rectangle 69" width="157.121" height="157.12" fill="none"/>
    </clipPath>
    <clipPath id="clip-path-2">
      <rect id="Rectangle_71" data-name="Rectangle 71" width="88.617" height="88.21" transform="translate(0 0)" fill="none"/>
    </clipPath>
  </defs>
  <g id="Group_110" data-name="Group 110" transform="translate(-891 -924)">
    <g id="Group_90" data-name="Group 90" transform="translate(891 924)">
      <g id="Group_86" data-name="Group 86" clip-path="url(#clip-path)">
        <path id="Path_176" data-name="Path 176" d="M78.56,156.3A77.745,77.745,0,1,0,.815,78.559,77.745,77.745,0,0,0,78.56,156.3" fill="#fff"/>
        <circle id="Ellipse_13" data-name="Ellipse 13" cx="77.745" cy="77.745" r="77.745" transform="translate(0.816 0.815)" fill="none" stroke="#a7a7a7" stroke-width="1.631"/>
      </g>
    </g>
    <g id="Group_96" data-name="Group 96" transform="translate(925 958)">
      <g id="Group_95" data-name="Group 95" clip-path="url(#clip-path-2)">
        <path id="Path_187" data-name="Path 187" d="M80.935,43.615A36.245,36.245,0,1,1,44.688,7.368,36.247,36.247,0,0,1,80.935,43.615Z" fill="none" stroke="#002c62" stroke-width="1.584"/>
        <path id="Path_188" data-name="Path 188" d="M1.375,44.308V82.627A4.121,4.121,0,0,0,5.5,86.75h32.65c2.015.292,4.851-.263,6.946-.263A41.628,41.628,0,0,0,87.241,44.308a42.933,42.933,0,0,0-85.866,0" fill="none" stroke="#e50019" stroke-width="2.751"/>
        <path id="Path_189" data-name="Path 189" d="M55.3,39.956c-.174-.06-.327-.1-.463-.155-.51-.235-1.011-.488-1.521-.716a2.655,2.655,0,0,0-1.334-.295,6.811,6.811,0,0,0-1.157.257,7.593,7.593,0,0,0-.77.3c.2.006.39-.051.574-.035a13.527,13.527,0,0,1,1.556.2c.792.172,1.575.4,2.361.593a.931.931,0,0,0,.754-.149m-15.74-.6c-.229-.092-.457-.187-.685-.276a3.117,3.117,0,0,0-2.649.041c-.479.244-.973.466-1.464.688a3.242,3.242,0,0,1-.422.136v.089a2.033,2.033,0,0,0,.653.082c.618-.117,1.227-.269,1.835-.437a6.313,6.313,0,0,1,2.732-.323m2.6-.491a.47.47,0,0,0-.013.063c.023.032.045.067.07.1.178.193.361.381.532.58a.43.43,0,0,1,.115.241c-.007.174-.054.348-.077.523a2.96,2.96,0,0,1-.649,1.572c-.159.193-.33.377-.5.564a.217.217,0,0,0,.146-.035,3.135,3.135,0,0,0,1.391-2.329.7.7,0,0,1,.542-.609,6.663,6.663,0,0,1,2.114.01.757.757,0,0,1,.646.564c.165.428.355.846.536,1.27a.618.618,0,0,1,.079-.031,4.793,4.793,0,0,1-.193-.6A3.317,3.317,0,0,0,46.814,40c-.12-.272.041-.374.174-.522.194-.216.384-.441.574-.66a.532.532,0,0,0-.032-.069,7.016,7.016,0,0,1-5.371.111m7.016,1.685a3.112,3.112,0,0,0,2.935,1.2,2.617,2.617,0,0,0,1.828-1.376l-.89-.079a.989.989,0,0,1-.584.71,2.005,2.005,0,0,1-1.064.26,1.237,1.237,0,0,1-1.109-.574,2.245,2.245,0,0,1-.149-.539c-.425-.183-.641.165-.967.4m-13.443-.1a2.571,2.571,0,0,0,2.152,1.35,3.162,3.162,0,0,0,2.551-1.261c-.238-.181-.447-.343-.669-.514-.1.583-.11.65-.31.821a1.44,1.44,0,0,1-1.375.38c-.552-.142-1.1-.266-1.338-.887-.041-.108-.241-.26-.317-.234a4.483,4.483,0,0,0-.694.345M53,35.735a.579.579,0,0,0-.567-.3,9.121,9.121,0,0,0-2.732.221,12.27,12.27,0,0,0-1.188.441.506.506,0,0,0-.171.555.3.3,0,0,0,.377.164,9.424,9.424,0,0,0,1.261-.332A10.613,10.613,0,0,1,53,35.735m-17.3-.1c.009.015.019.028.028.041.457.035.916.07,1.376.114a8.5,8.5,0,0,1,1.955.475c.526.175,1.049.365,1.575.533a.962.962,0,0,0,.424,0c.194-.029.257-.165.232-.358a.619.619,0,0,0-.453-.51,7.635,7.635,0,0,0-2.421-.507,21.986,21.986,0,0,0-2.555.136.473.473,0,0,0-.161.073M35.127,37.4c-.13-.057-.263-.124-.4-.168a1.05,1.05,0,0,0-.314-.044c-.155,0-.339.082-.459.025a1.071,1.071,0,0,0-1.008.019c-.678.317-.685.3-.853,1.042a1.551,1.551,0,0,0,.615,1.5.593.593,0,0,1,.361.511c.029.453.5.57.723.878a9.353,9.353,0,0,1-.212-.932,4.163,4.163,0,0,1,.374-1.987,1.186,1.186,0,0,1,.824-.738c.12-.032.24-.077.348-.108m19.239-.079c0,.012,0,.022-.006.034a.941.941,0,0,0,.155.061,1.472,1.472,0,0,1,1.252,1.061,3.473,3.473,0,0,1,.009,2.694.927.927,0,0,0-.028.184c.06-.08.085-.1.1-.137a19.216,19.216,0,0,1,1.28-1.885c.279-.384.666-.77.469-1.325a1.6,1.6,0,0,0-.386-.751,1.4,1.4,0,0,0-1.043-.177c-.307.047-.608.114-.912.155s-.6.057-.894.086m-22.921,7.8c.006-.013.012-.026.019-.038-.216-.634-.469-1.258-.637-1.9-.235-.9-.4-1.822-.609-2.728-.076-.333.026-.716-.256-1a.185.185,0,0,1-.032-.121c.006-.171.009-.342.025-.513s.048-.362.07-.549c-.063-.006-.1-.019-.12-.006-.457.2-.869.453-.926,1.014a5.289,5.289,0,0,0-.031.834c.031.418.111.833.145,1.254A4.271,4.271,0,0,0,30.32,44.13c.355.351.748.665,1.125,1m2.519-5.6a.687.687,0,0,0,.06.038,5.5,5.5,0,0,0,.564-.171c.561-.247,1.106-.519,1.667-.763a2.934,2.934,0,0,1,2.009-.219c.454.13.9.3,1.341.466A2.186,2.186,0,0,1,40.809,40c.136.27.187.552-.231,1.014a3.465,3.465,0,0,1-3.733.945,2.921,2.921,0,0,1-1.525-1.3c-.082-.152-.168-.184-.3-.155a1.369,1.369,0,0,1-1-.168,1.8,1.8,0,0,0,.035.232,3.023,3.023,0,0,0,1.131,1.73,4.88,4.88,0,0,0,4.1.922,4.411,4.411,0,0,0,2.072-1.033,3.386,3.386,0,0,0,1.087-2.269.2.2,0,0,0-.057-.146,6.17,6.17,0,0,0-2.776-1.841,6.238,6.238,0,0,0-2.9-.346c-.641.1-1.281.222-1.918.355a.493.493,0,0,0-.4.336c-.041.13-.118.244-.159.374-.1.292-.18.59-.266.884m21.663.105a1.033,1.033,0,0,0,0-.212c-.13-.381-.269-.761-.39-1.144a.505.505,0,0,0-.409-.343c-.716-.145-1.438-.3-2.164-.389a5.575,5.575,0,0,0-1.844.142,6.6,6.6,0,0,0-3.562,2.051c-.041.044-.1.107-.089.158a4.611,4.611,0,0,0,.111.624,3.178,3.178,0,0,0,1.15,1.794,4.647,4.647,0,0,0,3.382.989,4.979,4.979,0,0,0,2.021-.606,3.438,3.438,0,0,0,1.6-1.711,6.515,6.515,0,0,0,.193-.675,1.352,1.352,0,0,1-.986.193c-.1-.019-.225-.066-.31.1a2.9,2.9,0,0,1-2.374,1.556,3.39,3.39,0,0,1-2.921-1.163c-.216-.228-.412-.488-.286-.814a1.8,1.8,0,0,1,.7-.967,7.9,7.9,0,0,1,1.2-.6,3.014,3.014,0,0,1,2.136-.168c.52.184,1.027.4,1.537.615.422.177.84.364,1.312.57M26.5,68.543a10.408,10.408,0,0,0,.979.72c.957.548,1.93,1.077,2.906,1.59.564.3,1.144.568,1.727.831.745.335,1.49.684,2.254.969.912.342,1.844.634,2.769.932.438.139.888.244,1.357.371-.526-3.312-1.043-6.585-1.56-9.84-.469.219-.906.441-1.356.631a16.665,16.665,0,0,0-2.953,1.486,4.2,4.2,0,0,1-1.033.5c-1.138.39-2.292.732-3.426,1.122-.558.19-1.09.446-1.664.687m24.629,5.4c.086-.019.152-.025.21-.041,1.124-.346,2.253-.669,3.365-1.046.665-.225,1.309-.519,1.952-.805.8-.352,1.591-.716,2.377-1.1.545-.263,1.074-.561,1.6-.853s1.068-.573,1.585-.89a10.907,10.907,0,0,0,.893-.666c-.377-.158-.719-.3-1.055-.444a23.268,23.268,0,0,0-3.178-1.118,5.808,5.808,0,0,1-1.845-.71,10.618,10.618,0,0,0-1.885-1.049c-.821-.355-1.635-.719-2.469-1.087q-.77,4.854-1.553,9.808M37.057,28.69a11.089,11.089,0,0,1-1.128,6.462c.12-.01.184-.013.247-.022a4.853,4.853,0,0,1,.732-.1,11.9,11.9,0,0,1,2.64.121,5.02,5.02,0,0,1,1.67.535,1.145,1.145,0,0,1,.405.466.83.83,0,0,1-.145,1.027,15.093,15.093,0,0,0,2.4.776,3.443,3.443,0,0,0,1.8-.038c.548-.161,1.093-.336,1.635-.513.25-.086.494-.2.751-.3a1.044,1.044,0,0,1,.3-1.42,6.3,6.3,0,0,1,2.155-.608,12.625,12.625,0,0,1,1.559-.054c.073,0,.146,0,.263,0a2.341,2.341,0,0,0-.218-.279c-.637-.6-1.252-1.23-1.927-1.784a28.541,28.541,0,0,0-2.466-1.816,19.1,19.1,0,0,0-2.2-1.217c-.7-.336-1.419-.618-2.142-.887a11.6,11.6,0,0,0-3.353-.716,6.624,6.624,0,0,0-2.988.37M56.67,42.4c-.089.1-.14.152-.19.209A5.881,5.881,0,0,1,53.555,44.5a8.968,8.968,0,0,1-3.768.108,5.491,5.491,0,0,1-4.31-3.343c-.171-.38-.352-.583-.77-.529a.455.455,0,0,1-.086-.01c-.142-.009-.209.048-.244.2a4.282,4.282,0,0,1-2.624,3.093,8.778,8.778,0,0,1-4.192.675,6.022,6.022,0,0,1-4.319-2.086,1.186,1.186,0,0,1-.124-.218l-.1.069a3.1,3.1,0,0,0-.073,1.2c.158.58.276,1.17.4,1.756a16.653,16.653,0,0,0,.463,2.152,10.659,10.659,0,0,0,3.635,5.061,6.957,6.957,0,0,0,1.318.944.738.738,0,0,1,.333.26,4.353,4.353,0,0,0,.953.944c.539.46,1.053.951,1.617,1.372a9.027,9.027,0,0,0,2.592,1.214,1.942,1.942,0,0,0,1.432-.048,12.449,12.449,0,0,0,3.445-2.1,8.383,8.383,0,0,0,1.448-1.356,1.669,1.669,0,0,1,.406-.348c.193-.134.409-.232.6-.368A11.709,11.709,0,0,0,53.7,51.168a21.5,21.5,0,0,0,2.4-3.416,1.642,1.642,0,0,0,.136-.4c.13-.519.251-1.045.39-1.565.035-.127.174-.228.2-.358a3.578,3.578,0,0,0,.089-.8c-.007-.475-.038-.95-.086-1.426a7.984,7.984,0,0,0-.158-.805M39.513,56.425c0,.311.006.593,0,.872-.013.45-.038.9-.064,1.343-.012.292-.041.583-.047.875a9.372,9.372,0,0,1-.482,2.77c-.012.038-.016.091-.044.117-.333.326-.155.713-.1,1.068.168,1.118.355,2.234.539,3.352.19,1.144.387,2.289.571,3.436.133.827.24,1.66.377,2.487.133.8.285,1.6.44,2.4a1.026,1.026,0,0,1-.665,1.128,1.9,1.9,0,0,1-1.154-.07,39.825,39.825,0,0,1-5.5-1.67c-.83-.355-1.651-.735-2.456-1.144q-1.911-.974-3.793-2.006c-.555-.307-1.065-.69-1.594-1.045-.314-.209-.631-.419-.929-.65a5.411,5.411,0,0,1-.751-.665,1.041,1.041,0,0,1,.409-1.7c.362-.127.682-.358,1.04-.5,1.014-.412,2.025-.833,3.061-1.188.786-.27,1.616-.412,2.408-.669a10.585,10.585,0,0,0,1.262-.618c.716-.348,1.419-.725,2.151-1.033a8.3,8.3,0,0,0,2.745-1.695,1.479,1.479,0,0,0,.361-.941c.1-.878.158-1.759.222-2.64.028-.374.038-.754.044-1.131.006-.492,0-.983,0-1.474a1.305,1.305,0,0,0-.52-1.071,18.616,18.616,0,0,1-1.806-1.54,12.112,12.112,0,0,1-3.014-4.9,9.546,9.546,0,0,1-.24-1.131.494.494,0,0,0-.238-.371,10.181,10.181,0,0,1-2.367-1.968,4.117,4.117,0,0,1-1.059-2.227,16.025,16.025,0,0,1-.238-2.773,5.233,5.233,0,0,1,.054-.574,1.649,1.649,0,0,1,.793-1.125c.307-.2.637-.38.963-.557a.269.269,0,0,0,.165-.26,7.961,7.961,0,0,1,.5-2.6c.19-.475.46-.922.685-1.388a.254.254,0,0,0-.007-.209,5.178,5.178,0,0,1-.548-1.756,8.187,8.187,0,0,1-.089-1.673,7.793,7.793,0,0,1,.317-1.749,5.11,5.11,0,0,1,1.03-1.873A9.01,9.01,0,0,1,32.633,25c.187-.168.1-.364.07-.538a7.433,7.433,0,0,1-.038-1.68,7.185,7.185,0,0,1,.83-2.751,8.892,8.892,0,0,1,1.423-1.961,12.453,12.453,0,0,1,2.1-1.778,10.656,10.656,0,0,1,2.624-1.318c.805-.263,1.619-.51,2.446-.7a13,13,0,0,1,1.829-.237c.561-.045,1.125-.048,1.689-.045a14.431,14.431,0,0,1,2.323.238,12.435,12.435,0,0,1,2.563.748,10.613,10.613,0,0,1,2.694,1.572A9.13,9.13,0,0,1,55.218,18.8a6.137,6.137,0,0,1,.827,2.063,6.741,6.741,0,0,1,.162,1.258,6.4,6.4,0,0,1-.279,1.927.264.264,0,0,0,.032.209,13.007,13.007,0,0,1,1.99,3.635,12.812,12.812,0,0,1,.8,3.1c.072.662.1,1.328.123,2a6.631,6.631,0,0,1-.1.821c-.01.1-.019.235.038.3a5.388,5.388,0,0,1,.9,1.369.946.946,0,0,0,.377.488.62.62,0,0,1,.269.77,1.363,1.363,0,0,0,.032.64c.1.586.228,1.166.288,1.756a14.437,14.437,0,0,1,.083,1.961c-.019.65-.13,1.293-.2,1.943a16.6,16.6,0,0,1-.71,3.14,16.287,16.287,0,0,1-.665,1.731,14.946,14.946,0,0,1-1.632,2.966A17.508,17.508,0,0,1,56.4,52.334a1.585,1.585,0,0,0-.463.653.268.268,0,0,1-.329.209.354.354,0,0,1-.311-.358c.013-.282.057-.561.1-.843.016-.124.045-.247.077-.428-.206.238-.378.434-.549.628a17.048,17.048,0,0,1-2.2,2.126c-.222.174-.492.329-.577.634a2.062,2.062,0,0,0-.076.481c-.007.748-.025,1.5,0,2.244.025.662.1,1.322.162,1.981.028.31.066.621.088.934a1.923,1.923,0,0,0,.755,1.373A8.481,8.481,0,0,0,55.4,63.289a15.282,15.282,0,0,1,2.5,1.245,5.024,5.024,0,0,0,1.673.615A22.084,22.084,0,0,1,63.2,66.344c.77.336,1.537.681,2.294,1.039a1.031,1.031,0,0,1,.235,1.67,6.685,6.685,0,0,1-.862.732c-.637.463-1.277.919-1.937,1.341-.408.26-.858.453-1.283.684-.713.387-1.417.8-2.136,1.173-.669.348-1.347.672-2.031.992a17.973,17.973,0,0,1-1.705.729c-1.03.354-2.073.672-3.115.979-.739.219-1.49.393-2.234.589a1.224,1.224,0,0,1-1.138-.168.957.957,0,0,1-.358-.969c.187-1.071.387-2.143.564-3.217.165-.989.307-1.984.469-2.972.238-1.483.488-2.967.732-4.446.086-.536.171-1.072.25-1.6a.355.355,0,0,0-.031-.225,3.643,3.643,0,0,1-.5-1.553c-.117-.786-.168-1.581-.222-2.376-.044-.653-.051-1.306-.073-1.959,0-.092.01-.18.016-.307-.26.209-.494.4-.735.586a12.912,12.912,0,0,1-2.849,1.648,3.97,3.97,0,0,1-2.8.162,9.592,9.592,0,0,1-2.513-1.078c-.545-.361-1.03-.814-1.54-1.226-.054-.041-.107-.089-.174-.143" fill="#002c62"/>
        <path id="Path_190" data-name="Path 190" d="M41.83,51.005a.333.333,0,0,0-.016.051c.46.092.922.184,1.382.272a5.686,5.686,0,0,1,.805.165,1.924,1.924,0,0,0,1.346.083,5.358,5.358,0,0,1,1.281-.26,9.432,9.432,0,0,0,1.217-.292c-.555-.2-1.059-.351-1.534-.564a.823.823,0,0,0-.735.025,1.765,1.765,0,0,1-1.426.042A1.15,1.15,0,0,0,43.2,50.5c-.447.2-.916.342-1.372.507m6.183.536c-.473.085-.935.171-1.4.25a5.263,5.263,0,0,0-.77.127,3.057,3.057,0,0,1-1.879.057,2.44,2.44,0,0,0-.786-.149,2.16,2.16,0,0,1-.526-.07c-.349-.076-.7-.165-1.049-.247a.141.141,0,0,0,.016.054.483.483,0,0,0,.05.092,4.4,4.4,0,0,0,2.745,1.825,2.268,2.268,0,0,0,1.473-.18,8.046,8.046,0,0,0,1.243-.764,3.054,3.054,0,0,0,.881-.995m-3.125,2.332A3.718,3.718,0,0,1,42,52.834a5.709,5.709,0,0,1-.745-.872,2.523,2.523,0,0,0-.887-.779,2.572,2.572,0,0,1-.485-.4c-.114-.095-.136-.231-.038-.316a.8.8,0,0,1,.368-.14.3.3,0,0,1,.2.076,1.444,1.444,0,0,0,1.322.149c.444-.149.878-.326,1.309-.51a1.4,1.4,0,0,1,1.261.079,1.009,1.009,0,0,0,1,.01,1.4,1.4,0,0,1,1.28-.086c.4.168.8.327,1.2.476a1.528,1.528,0,0,0,1.445-.13.365.365,0,0,1,.456-.013c.143.1.187.244.066.374a1.486,1.486,0,0,1-.434.393,2.635,2.635,0,0,0-1.068.954,4.354,4.354,0,0,1-2.646,1.762,3.066,3.066,0,0,1-.719.009" fill="#002c62"/>
        <path id="Path_191" data-name="Path 191" d="M44.808,48.378a2.4,2.4,0,0,1-1.832-.779.809.809,0,0,1-.209-.9c.016-.057.133-.137.168-.124.086.038.212.117.219.19.05.682.6.929,1.093,1.125a1.431,1.431,0,0,0,1.47-.181,3.631,3.631,0,0,0,.5-.389,2.842,2.842,0,0,0,.235-.479c.054-.1.126-.238.218-.263.152-.041.168.1.2.235a.793.793,0,0,1-.326.881,5.524,5.524,0,0,1-1,.6,2.516,2.516,0,0,1-.735.089" fill="#002c62"/>
      </g>
    </g>
  </g>
</svg>
