<svg xmlns="http://www.w3.org/2000/svg" xmlns:xlink="http://www.w3.org/1999/xlink" width="342.924" height="77.065" viewBox="0 0 342.924 77.065">
  <defs>
    <clipPath id="clip-path">
      <rect id="Rectangle_39" data-name="Rectangle 39" width="342.924" height="77.065" transform="translate(0 0)" fill="none"/>
    </clipPath>
  </defs>
  <g id="Group_43" data-name="Group 43" transform="translate(0 0)">
    <g id="Group_42" data-name="Group 42" clip-path="url(#clip-path)">
      <path id="Path_94" data-name="Path 94" d="M142.806,52.166c-4.692,0-6.611-3.953-6.611-8.366,0-4.469,1.919-8.425,6.611-8.425s6.608,3.956,6.608,8.425c0,4.413-1.922,8.366-6.608,8.366m0,7.22c9.714,0,17.112-5.731,17.112-15.586,0-9.914-7.4-15.644-17.112-15.644s-17.118,5.73-17.118,15.644c0,9.855,7.4,15.586,17.118,15.586" fill="#fff"/>
      <path id="Path_95" data-name="Path 95" d="M158.989,36.063H164.8V48.214c0,7.1,2.2,11.173,11.3,11.173a48.272,48.272,0,0,0,6.382-.572l-.34-6.707a19.053,19.053,0,0,1-3.1.4c-3.221,0-4.068-1.836-4.068-5.445v-11h7.119V28.846h-7.119l-.005-10.326-9.995,3.618v6.708h-5.985Z" fill="#fff"/>
      <path id="Path_96" data-name="Path 96" d="M217.674,58.7h10.169V43.914h.112L236.089,58.7H248.4l-11.068-16.16,10.224-13.692H236.428l-8.473,12.548h-.112V18.558l-10.169,3.571Z" fill="#fff"/>
      <path id="Path_97" data-name="Path 97" d="M98.615,58.7h10.167V43.914h.113L117.031,58.7h12.313l-11.071-16.16L128.5,28.845H117.37L108.9,41.393h-.113V18.558l-10.167,3.4Z" fill="#fff"/>
      <path id="Path_98" data-name="Path 98" d="M193.312,49.272c0-2.9,2.744-4,6.23-4,1.545,0,3.031.116,4.345.174,0,3.539-2.459,7.133-6.344,7.133-2.4,0-4.231-1.218-4.231-3.3m20.753,9.568a37.382,37.382,0,0,1-.572-7.132V40.455c0-9.22-6.577-12.525-14.179-12.525a30.383,30.383,0,0,0-11.893,2.147l.172,7.073a19.15,19.15,0,0,1,9.493-2.262c3.715,0,6.745,1.1,6.8,5.22a29.713,29.713,0,0,0-4.8-.407c-5.49,0-15.379,1.1-15.379,10.323,0,6.554,5.259,9.511,11.15,9.511,4.229,0,7.087-1.682,9.433-5.449h.115c0,1.566.168,3.129.226,4.754Z" fill="#fff"/>
      <path id="Path_99" data-name="Path 99" d="M0,38.533C0,17.251,19.775,0,44.17,0S88.335,17.251,88.335,38.533,68.561,77.065,44.17,77.065,0,59.812,0,38.533" fill="#002c62"/>
      <path id="Path_100" data-name="Path 100" d="M38.806,12.463l10.26-3.439.051,56.271L38.769,68.812Z" fill="#e50019"/>
      <path id="Path_101" data-name="Path 101" d="M44.9,47.558C40.437,53.01,36.128,58.58,28.053,58.58c-11.4,0-16.807-11.184-16.807-20.536,0-8.984,4.224-19.616,15.333-19.616,4.817,0,9.458,2.989,12.22,6.151l-.005,7.626a24.623,24.623,0,0,0-10.866-3.183C20.887,28.9,14.675,32,14.785,39.053c.075,4.859,4.816,8.16,9.536,8.16,7.226,0,11.6-6.7,15.263-11.784,1.024-1.324,3.9-5.231,4.35-5.859C48,23.811,52.7,18.55,60.777,18.55c9.509,0,14.847,7.776,16.358,15.779H72.846a10.158,10.158,0,0,0-8.32-4.183c-7.47,0-11.938,6.974-15.671,12.11,0,0-2.907,4.016-3.959,5.3m32.486-5.052c-.96,8.052-5.41,16.179-15.13,16.195-5.675.011-10.107-3.93-13.176-8.752V44.365c3.841,1.934,7.43,4.011,11.785,4.074,5.367.081,10.219-2.012,12.225-5.933Z" fill="#fff"/>
      <path id="Path_102" data-name="Path 102" d="M323.27,42.685c.378-3.614,2.43-7.777,7.4-7.777,4.373,0,6.857,3.5,6.857,7.777Zm17.549,10.352a16.12,16.12,0,0,1-8.477,2.793,9.076,9.076,0,0,1-9.072-9.31h19.654c0-8.983-2.969-15.775-12.148-15.775-7.776,0-12.9,5.861-12.9,14.132,0,9.091,4.481,15.116,14.254,15.116a20.817,20.817,0,0,0,8.694-1.808ZM302,59.336h5.075V35.566h7.289V31.4h-7.289V28.39c0-3.779.54-6.627,4.914-6.627a7.914,7.914,0,0,1,2.429.329l.216-4.163a20.555,20.555,0,0,0-3.4-.328c-7.506,0-9.233,4.436-9.233,11.227V31.4h-6.48v4.163H302ZM289.74,19.353h-5.724v5.805h5.724Zm-5.4,39.983h5.076V31.4H284.34Zm-15.01,0H274.4V18.258H269.33Z" fill="#fff"/>
    </g>
  </g>
</svg>
