<svg xmlns="http://www.w3.org/2000/svg" xmlns:xlink="http://www.w3.org/1999/xlink" width="207.657" height="46.667" viewBox="0 0 207.657 46.667">
  <defs>
    <clipPath id="clip-path">
      <rect id="Rectangle_39" data-name="Rectangle 39" width="207.657" height="46.667" fill="none"/>
    </clipPath>
  </defs>
  <g id="Group_43" data-name="Group 43" transform="translate(0 0)">
    <g id="Group_42" data-name="Group 42" transform="translate(0 0)" clip-path="url(#clip-path)">
      <path id="Path_94" data-name="Path 94" d="M136.054,42.7c-2.841,0-4-2.394-4-5.066,0-2.706,1.162-5.1,4-5.1s4,2.4,4,5.1c0,2.672-1.164,5.066-4,5.066m0,4.372c5.882,0,10.362-3.47,10.362-9.438,0-6-4.48-9.473-10.362-9.473s-10.366,3.47-10.366,9.473c0,5.968,4.482,9.438,10.366,9.438" transform="translate(-49.578 -11.106)" fill="#fff"/>
      <path id="Path_95" data-name="Path 95" d="M158.989,29.143h3.522V36.5c0,4.3,1.335,6.766,6.842,6.766a29.231,29.231,0,0,0,3.865-.346l-.206-4.061a11.538,11.538,0,0,1-1.88.244c-1.95,0-2.463-1.112-2.463-3.3V29.143h4.311v-4.37h-4.311l0-6.253-6.052,2.191v4.062h-3.624Z" transform="translate(-62.713 -7.305)" fill="#fff"/>
      <path id="Path_96" data-name="Path 96" d="M217.674,42.865h6.158V33.913h.068l4.926,8.952h7.456l-6.7-9.786,6.191-8.291h-6.739l-5.131,7.6h-.068V18.558l-6.158,2.162Z" transform="translate(-85.862 -7.32)" fill="#fff"/>
      <path id="Path_97" data-name="Path 97" d="M98.615,42.865h6.157V33.913h.068l4.927,8.952h7.456l-6.7-9.786,6.193-8.291h-6.74l-5.132,7.6h-.068V18.558l-6.157,2.06Z" transform="translate(-38.899 -7.32)" fill="#fff"/>
      <path id="Path_98" data-name="Path 98" d="M189.523,40.854c0-1.757,1.662-2.424,3.773-2.424.936,0,1.835.07,2.631.105,0,2.143-1.489,4.319-3.842,4.319-1.456,0-2.562-.738-2.562-2m12.567,5.794a22.636,22.636,0,0,1-.346-4.319V35.515c0-5.583-3.983-7.585-8.586-7.585a18.4,18.4,0,0,0-7.2,1.3l.1,4.283a11.6,11.6,0,0,1,5.748-1.37c2.25,0,4.084.668,4.118,3.161a17.993,17.993,0,0,0-2.908-.246c-3.324,0-9.313.668-9.313,6.251,0,3.969,3.185,5.759,6.752,5.759a6.174,6.174,0,0,0,5.712-3.3h.07c0,.948.1,1.895.137,2.879Z" transform="translate(-72.463 -11.017)" fill="#fff"/>
      <path id="Path_99" data-name="Path 99" d="M0,23.334C0,10.446,11.975,0,26.747,0S53.491,10.446,53.491,23.334,41.517,46.667,26.747,46.667,0,36.219,0,23.334" transform="translate(0 0)" fill="#002c62"/>
      <path id="Path_100" data-name="Path 100" d="M38.792,11.106,45,9.024,45.036,43.1l-6.266,2.13Z" transform="translate(-15.293 -3.559)" fill="#e50019"/>
      <path id="Path_101" data-name="Path 101" d="M31.623,36.068c-2.7,3.3-5.309,6.674-10.2,6.674-6.9,0-10.177-6.772-10.177-12.436,0-5.44,2.558-11.878,9.285-11.878a10.5,10.5,0,0,1,7.4,3.725l0,4.618a14.911,14.911,0,0,0-6.58-1.927c-4.264-.071-8.025,1.805-7.959,6.074.045,2.942,2.916,4.941,5.775,4.941,4.376,0,7.026-4.055,9.243-7.136.62-.8,2.362-3.168,2.634-3.548,2.46-3.487,5.308-6.673,10.2-6.673,5.758,0,8.991,4.709,9.906,9.555h-2.6a6.151,6.151,0,0,0-5.038-2.533c-4.523,0-7.229,4.223-9.49,7.333,0,0-1.76,2.432-2.4,3.211m19.672-3.059c-.581,4.876-3.276,9.8-9.162,9.807-3.436.007-6.12-2.38-7.979-5.3V34.134c2.326,1.171,4.5,2.429,7.136,2.467,3.25.049,6.188-1.218,7.4-3.593Z" transform="translate(-4.436 -7.269)" fill="#fff"/>
      <path id="Path_102" data-name="Path 102" d="M301.993,32.791c.229-2.188,1.471-4.709,4.48-4.709,2.648,0,4.152,2.122,4.152,4.709Zm10.627,6.269a9.762,9.762,0,0,1-5.133,1.691,5.5,5.5,0,0,1-5.494-5.638h11.9c0-5.44-1.8-9.553-7.356-9.553-4.709,0-7.815,3.549-7.815,8.558,0,5.505,2.713,9.153,8.632,9.153a12.605,12.605,0,0,0,5.265-1.095Zm-23.509,3.814h3.073V28.48H296.6V25.959h-4.414V24.134c0-2.288.327-4.013,2.976-4.013a4.792,4.792,0,0,1,1.471.2l.131-2.521a12.447,12.447,0,0,0-2.059-.2c-4.545,0-5.591,2.686-5.591,6.8v1.559h-3.924V28.48h3.924Zm-7.422-24.212h-3.466v3.515h3.466Zm-3.27,24.212h3.074V25.959h-3.074Zm-9.089,0H272.4V18H269.33Z" transform="translate(-106.237 -6.943)" fill="#fff"/>
    </g>
  </g>
</svg>
