<svg width="92" height="92" viewBox="0 0 92 92" fill="none" xmlns="http://www.w3.org/2000/svg">
<g clip-path="url(#clip0_337_86)">
<path d="M91.2049 45.6029C91.2049 54.6218 88.5305 63.4381 83.5199 70.9369C78.5093 78.4358 71.3876 84.2805 63.0553 87.7318C54.723 91.1832 45.5543 92.0862 36.7088 90.3267C27.8632 88.5673 19.7381 84.2243 13.3608 77.847C6.98356 71.4697 2.64059 63.3446 0.8811 54.4991C-0.878386 45.6535 0.0246234 36.4849 3.47598 28.1526C6.92734 19.8203 12.772 12.6985 20.2709 7.68791C27.7698 2.67732 36.5861 0.00292969 45.6049 0.00292969C51.5932 0.00292969 57.5228 1.18241 63.0553 3.47402C68.5877 5.76564 73.6146 9.12451 77.849 13.3589C82.0833 17.5932 85.4422 22.6201 87.7338 28.1526C90.0254 33.685 91.2049 39.6147 91.2049 45.6029Z" fill="white"/>
<path d="M51.6015 22.204H39.6025V44.309H51.6015V22.204Z" fill="#E50019"/>
<path d="M45.5993 56.031L33.4883 40.985H57.7163L45.5993 56.031Z" fill="#E50019"/>
<path d="M59.0574 65.9779H32.1484V69.0019H59.0574V65.9779Z" fill="#E50019"/>
</g>
<defs>
<clipPath id="clip0_337_86">
<rect width="91.205" height="91.206" fill="white"/>
</clipPath>
</defs>
</svg>
