<svg xmlns="http://www.w3.org/2000/svg" xmlns:xlink="http://www.w3.org/1999/xlink" width="157.121" height="157.12" viewBox="0 0 157.121 157.12">
  <defs>
    <clipPath id="clip-path">
      <rect id="Rectangle_69" data-name="Rectangle 69" width="157.121" height="157.12" fill="none"/>
    </clipPath>
    <clipPath id="clip-path-2">
      <rect id="Rectangle_73" data-name="Rectangle 73" width="54.606" height="92.787" transform="translate(0 0)" fill="none"/>
    </clipPath>
  </defs>
  <g id="Group_112" data-name="Group 112" transform="translate(-1502 -924)">
    <g id="Group_91" data-name="Group 91" transform="translate(1502 924)">
      <g id="Group_86" data-name="Group 86" clip-path="url(#clip-path)">
        <path id="Path_176" data-name="Path 176" d="M78.56,156.3A77.745,77.745,0,1,0,.815,78.559,77.745,77.745,0,0,0,78.56,156.3" fill="#fff"/>
        <circle id="Ellipse_13" data-name="Ellipse 13" cx="77.745" cy="77.745" r="77.745" transform="translate(0.816 0.815)" fill="none" stroke="#a7a7a7" stroke-width="1.631"/>
      </g>
    </g>
    <g id="Group_103" data-name="Group 103" transform="translate(1553 956)">
      <g id="Group_102" data-name="Group 102" clip-path="url(#clip-path-2)">
        <path id="Path_208" data-name="Path 208" d="M33.934,32.988a6.627,6.627,0,1,0-6.618,6.707,6.708,6.708,0,0,0,6.618-6.707m6.4,20.4a11.82,11.82,0,0,0-1.586-4.577,13.515,13.515,0,0,0-5.33-5.159,13.076,13.076,0,0,0-13.74.974,13.586,13.586,0,0,0-4.609,5.821,12.065,12.065,0,0,0-.806,2.941Zm-7.792-12.87L33,40.73A19,19,0,0,1,38.134,44.1a14.861,14.861,0,0,1,4.4,7.888c.083.377.141.756.213,1.136.015.089.044.174.073.288h.392c1.187,0,2.374-.006,3.561.01a3.914,3.914,0,0,1,.848.12.973.973,0,0,1,.783.874,1.164,1.164,0,0,1-.52,1.24,1.591,1.591,0,0,1-.817.247c-.266.01-.531,0-.8,0q-8.954.006-17.9.007-6.631,0-13.268.006c-2.421,0-4.84.016-7.257.019a2.156,2.156,0,0,1-.976-.18,1.145,1.145,0,0,1-.66-1.232,1.071,1.071,0,0,1,.8-1.022,3.811,3.811,0,0,1,.922-.108c1.139-.012,2.282-.006,3.421-.006h.414a16.046,16.046,0,0,1,10.369-12.86c-.116-.1-.215-.187-.32-.269A9.85,9.85,0,0,1,19.323,37.3a9.138,9.138,0,0,1-1.038-4.412,9.1,9.1,0,0,1,7.382-8.92A9.06,9.06,0,0,1,36.32,32.412a8.9,8.9,0,0,1-3.548,7.907c-.063.047-.12.1-.23.2" fill="#002c62"/>
        <path id="Path_209" data-name="Path 209" d="M27.2,69.855H13.829c-2.016,0-4.032.01-6.045,0a2.511,2.511,0,0,1-.811-.133,1.1,1.1,0,0,1-.781-1.275,1.119,1.119,0,0,1,.965-1.073,4.009,4.009,0,0,1,.756-.073q9.534,0,19.071,0,9.776.009,19.551.044a4.827,4.827,0,0,1,1.026.1A1.048,1.048,0,0,1,48.4,68.5a1.062,1.062,0,0,1-.7,1.158,2.845,2.845,0,0,1-.94.184c-3.579.012-7.162.006-10.745.006H27.2Z" fill="#002c62"/>
        <path id="Path_210" data-name="Path 210" d="M27.226,63.059q-9.709,0-19.418-.006a2.541,2.541,0,0,1-.839-.146,1.106,1.106,0,0,1-.76-1.263,1.128,1.128,0,0,1,.969-1.073A3.674,3.674,0,0,1,7.9,60.5q9.572,0,19.14,0,9.69.006,19.38.029a8.579,8.579,0,0,1,.865.038,1.165,1.165,0,0,1,1.107,1.513,1.119,1.119,0,0,1-.959.886,2.9,2.9,0,0,1-.683.079c-1.165.007-2.327,0-3.488,0H27.226Z" fill="#002c62"/>
        <path id="Path_211" data-name="Path 211" d="M32.955,82.187a4.718,4.718,0,1,1-9.435-.07,4.718,4.718,0,1,1,9.435.07" fill="#002c62"/>
        <path id="Path_212" data-name="Path 212" d="M32.208,6.734h4.561a2.587,2.587,0,0,1,1.757.617,2.322,2.322,0,0,1-.393,3.767,3.072,3.072,0,0,1-1.532.361H33.734c-1.947,0-3.894.006-5.84-.007a4.192,4.192,0,0,1-1.089-.139A2.222,2.222,0,0,1,25.1,9.067a2.274,2.274,0,0,1,1.864-2.254,3.679,3.679,0,0,1,.719-.076c1.51-.006,3.016,0,4.526,0" fill="#002c62"/>
        <path id="Path_213" data-name="Path 213" d="M21.88,9.093a2.354,2.354,0,1,1-4.707,0,2.354,2.354,0,0,1,4.707,0" fill="#002c62"/>
        <path id="Path_214" data-name="Path 214" d="M7.584,3.152A4.51,4.51,0,0,0,3.111,7.688V85.1a4.511,4.511,0,0,0,4.473,4.536H47.022A4.51,4.51,0,0,0,51.494,85.1V7.688a4.509,4.509,0,0,0-4.472-4.536ZM47.022,92.787H7.584a7.489,7.489,0,0,1-5.362-2.25A7.69,7.69,0,0,1,0,85.1V7.688A7.678,7.678,0,0,1,2.222,2.253,7.48,7.48,0,0,1,7.584,0H47.022a7.48,7.48,0,0,1,5.362,2.253,7.678,7.678,0,0,1,2.222,5.435V85.1a7.69,7.69,0,0,1-2.222,5.438,7.489,7.489,0,0,1-5.362,2.25" fill="#002c62"/>
        <path id="Path_215" data-name="Path 215" d="M47.852,55.925H7a1.279,1.279,0,0,1,0-2.557h40.85a1.279,1.279,0,0,1,0,2.557" fill="#e50019"/>
        <path id="Path_216" data-name="Path 216" d="M47.852,63.073H7a1.279,1.279,0,0,1,0-2.557h40.85a1.279,1.279,0,0,1,0,2.557" fill="#e50019"/>
        <path id="Path_217" data-name="Path 217" d="M47.852,69.871H7a1.279,1.279,0,0,1,0-2.557h40.85a1.279,1.279,0,0,1,0,2.557" fill="#e50019"/>
      </g>
    </g>
  </g>
</svg>
