<svg xmlns="http://www.w3.org/2000/svg" xmlns:xlink="http://www.w3.org/1999/xlink" width="157.121" height="157.12" viewBox="0 0 157.121 157.12">
  <defs>
    <clipPath id="clip-path">
      <rect id="Rectangle_69" data-name="Rectangle 69" width="157.121" height="157.12" fill="none"/>
    </clipPath>
    <clipPath id="clip-path-2">
      <rect id="Rectangle_72" data-name="Rectangle 72" width="95.948" height="84.757" fill="none"/>
    </clipPath>
  </defs>
  <g id="Group_111" data-name="Group 111" transform="translate(-1196 -924)">
    <g id="Group_101" data-name="Group 101">
      <g id="Group_89" data-name="Group 89" transform="translate(1196 924)">
        <g id="Group_86" data-name="Group 86" clip-path="url(#clip-path)">
          <path id="Path_176" data-name="Path 176" d="M78.56,156.3A77.745,77.745,0,1,0,.815,78.559,77.745,77.745,0,0,0,78.56,156.3" fill="#fff"/>
          <circle id="Ellipse_13" data-name="Ellipse 13" cx="77.745" cy="77.745" r="77.745" transform="translate(0.816 0.815)" fill="none" stroke="#a7a7a7" stroke-width="1.631"/>
        </g>
      </g>
      <g id="Group_100" data-name="Group 100" transform="translate(0 -5)">
        <g id="Group_99" data-name="Group 99" transform="translate(1229 960)">
          <g id="Group_98" data-name="Group 98" transform="translate(0 0)">
            <g id="Group_97" data-name="Group 97" transform="translate(0 0)" clip-path="url(#clip-path-2)">
              <path id="Path_192" data-name="Path 192" d="M21.424,29.278h-7.3a.962.962,0,0,1-.963-.963V17.152H10.479a.962.962,0,0,1-.824-1.458l7.3-12.126a.961.961,0,0,1,1.649,0l7.233,12.02a.962.962,0,0,1-.751,1.565h-2.7V28.315a.962.962,0,0,1-.963.963" transform="translate(0.23 0.075)" fill="#e50019" fill-rule="evenodd"/>
              <path id="Path_193" data-name="Path 193" d="M37.42,22.435H31.25a.963.963,0,0,1-.963-.963V12.18H28.165a.963.963,0,0,1-.824-1.459L33.51.467a.962.962,0,0,1,1.65,0l6.108,10.148a.963.963,0,0,1-.752,1.565H38.383v9.292a.963.963,0,0,1-.963.963" transform="translate(0.657 0)" fill="#e50019" fill-rule="evenodd"/>
              <path id="Path_194" data-name="Path 194" d="M94.881,62.679,16.783,83.6A1.293,1.293,0,0,1,15.2,82.69L4.5,42.77a1.293,1.293,0,0,1,.916-1.584l78.1-20.927a1.293,1.293,0,0,1,1.584.916l10.7,39.92a1.294,1.294,0,0,1-.915,1.584" transform="translate(0.108 0.488)" fill="#002c62" fill-rule="evenodd"/>
              <path id="Path_195" data-name="Path 195" d="M82.053,63.018,22.9,78.075A1.457,1.457,0,0,1,21.13,77.1c-1.079-3.828-5.727-7.454-9.757-6.428A1.457,1.457,0,0,1,9.6,69.7L5.416,54.871A1.37,1.37,0,0,1,6.44,53.186a7.167,7.167,0,0,0,5.35-8.8c-.207-.734-.56-2.242.212-2.439L71.744,26.488a1.457,1.457,0,0,1,1.774.973c1.078,3.827,6.206,7.166,10.236,6.141a1.457,1.457,0,0,1,1.774.973L89.71,49.406a1.369,1.369,0,0,1-1.023,1.685C84.658,52.117,82,57.505,83.076,61.333a1.368,1.368,0,0,1-1.023,1.685" transform="translate(0.13 0.639)" fill="#fff" fill-rule="evenodd"/>
              <path id="Path_196" data-name="Path 196" d="M28.351,62.063a5,5,0,1,1,3.536-6.125,5.007,5.007,0,0,1-3.536,6.125" transform="translate(0.533 1.262)" fill="#247130" fill-rule="evenodd"/>
              <path id="Path_197" data-name="Path 197" d="M72.614,50.2a5,5,0,1,1,3.536-6.125A5.008,5.008,0,0,1,72.614,50.2" transform="translate(1.603 0.975)" fill="#247130" fill-rule="evenodd"/>
              <path id="Path_198" data-name="Path 198" d="M51.294,59.181a4.7,4.7,0,0,1-5.744-3.316,1.295,1.295,0,1,1,2.5-.67,2.1,2.1,0,1,0,1.485-2.573,4.69,4.69,0,1,1,3.316-5.744,1.295,1.295,0,1,1-2.5.67,2.1,2.1,0,1,0-1.485,2.573,4.69,4.69,0,1,1,2.427,9.06" transform="translate(1.054 1.049)" fill="#409134" fill-rule="evenodd"/>
              <path id="Path_199" data-name="Path 199" d="M47.733,46.111a1.293,1.293,0,0,1-1.584-.915l-.574-2.138a1.295,1.295,0,1,1,2.5-.67l.573,2.137a1.294,1.294,0,0,1-.916,1.585" transform="translate(1.1 1.001)" fill="#409134" fill-rule="evenodd"/>
              <path id="Path_200" data-name="Path 200" d="M51.724,61.005a1.294,1.294,0,0,1-1.585-.916l-.573-2.136a1.294,1.294,0,0,1,2.5-.67l.574,2.137a1.294,1.294,0,0,1-.916,1.584" transform="translate(1.197 1.361)" fill="#409134" fill-rule="evenodd"/>
              <path id="Path_201" data-name="Path 201" d="M13.007,49.739A3.951,3.951,0,1,1,15.8,44.9a3.956,3.956,0,0,1-2.793,4.839" transform="translate(0.194 1.014)" fill="#409134" fill-rule="evenodd"/>
              <path id="Path_202" data-name="Path 202" d="M20.665,78.318a3.951,3.951,0,1,1,2.794-4.838,3.955,3.955,0,0,1-2.794,4.838" transform="translate(0.379 1.705)" fill="#409134" fill-rule="evenodd"/>
              <path id="Path_203" data-name="Path 203" d="M82.148,83.793H1.295A1.3,1.3,0,0,1,0,82.5V41.172a1.3,1.3,0,0,1,1.295-1.3H82.148a1.3,1.3,0,0,1,1.295,1.3V82.5a1.3,1.3,0,0,1-1.295,1.295" transform="translate(0 0.964)" fill="#002c62" fill-rule="evenodd"/>
              <path id="Path_204" data-name="Path 204" d="M71.591,81.521H11.774a1.481,1.481,0,0,1-1.414-1.541c0-4.441-3.315-8.053-7.39-8.053a1.481,1.481,0,0,1-1.414-1.541v-17.2a1.482,1.482,0,0,1,1.414-1.541c4.075,0,7.39-3.612,7.39-8.054a1.482,1.482,0,0,1,1.414-1.541H71.59A1.481,1.481,0,0,1,73,43.585c0,4.441,3.316,8.054,7.391,8.054a1.483,1.483,0,0,1,1.414,1.541v17.2A1.482,1.482,0,0,1,80.4,71.926C76.32,71.926,73,75.538,73,79.979a1.48,1.48,0,0,1-1.413,1.541" transform="translate(0.038 1.016)" fill="#fff" fill-rule="evenodd"/>
              <path id="Path_205" data-name="Path 205" d="M17.941,66.436a5,5,0,1,1,5-5,5.008,5.008,0,0,1-5,5" transform="translate(0.313 1.364)" fill="#002c62" fill-rule="evenodd"/>
              <path id="Path_206" data-name="Path 206" d="M63.765,66.436a5,5,0,1,1,5-5,5.008,5.008,0,0,1-5,5" transform="translate(1.42 1.364)" fill="#002c62" fill-rule="evenodd"/>
              <path id="Path_207" data-name="Path 207" d="M41.055,75.136a13.5,13.5,0,1,0-13.5-13.5,13.527,13.527,0,0,0,13.5,13.5" transform="translate(0.666 1.163)" fill="#002c62" fill-rule="evenodd"/>
            </g>
          </g>
        </g>
        <path id="rupee_3_" data-name="rupee (3)" d="M17.266,6.048V4H6V6.048H9.585A3.066,3.066,0,0,1,12.468,8.1H6v2.048h6.468a3.066,3.066,0,0,1-2.883,2.048H6v2.472l5.721,5.721h2.9L8.472,14.242H9.585a5.128,5.128,0,0,0,5.016-4.1h2.665V8.1H14.6a5.053,5.053,0,0,0-.946-2.048Z" transform="translate(1259.87 1011.305)" fill="#fff"/>
      </g>
    </g>
  </g>
</svg>
