<svg xmlns="http://www.w3.org/2000/svg" xmlns:xlink="http://www.w3.org/1999/xlink" width="43.976" height="52.81" viewBox="0 0 43.976 52.81">
  <defs>
    <clipPath id="clip-path">
      <rect id="Rectangle_88" data-name="Rectangle 88" width="43.976" height="52.81" transform="translate(0 0)" fill="none"/>
    </clipPath>
  </defs>
  <g id="Group_122" data-name="Group 122" transform="translate(0 0)">
    <path id="Path_241" data-name="Path 241" d="M1.624,2.893,1.9,50.144l38.508,1.315,2.339-7.188L40.838,13.826,30.409,1.292Z" fill="#edf4f6"/>
    <g id="Group_121" data-name="Group 121">
      <g id="Group_120" data-name="Group 120" clip-path="url(#clip-path)">
        <path id="Path_242" data-name="Path 242" d="M42.173,10.5a5.625,5.625,0,0,1,1.8,4.375c-.042,10.831-.021,21.662-.021,32.493,0,3.223-.674,4.255-3.548,5.439H3.548C.712,51.65,0,50.586,0,47.494Q0,26.4,0,5.314C0,2.223.712,1.159,3.548,0H30.781ZM40.2,48.058V18.991a1.661,1.661,0,0,0-1.664-1.66c-1.909.005-3.785.015-5.654,0a6.588,6.588,0,0,1-6.544-6.648c0-.5.011-1.005.011-1.507,0-1.336,0-2.671,0-4.023A1.66,1.66,0,0,0,24.686,3.5H4.881A1.659,1.659,0,0,0,3.222,5.156v42.9a1.659,1.659,0,0,0,1.659,1.659H38.538A1.659,1.659,0,0,0,40.2,48.058m.641-33.894L29.57,2.89v8.791a2.483,2.483,0,0,0,2.483,2.483Z" fill="#e50019"/>
        <path id="Path_243" data-name="Path 243" d="M21.982,38.886c-3.635,0-7.271.021-10.906-.011a2.29,2.29,0,0,1-2.284-2.393,2.339,2.339,0,0,1,2.158-2.411,9.762,9.762,0,0,1,1.055-.018H29.244c1.1,0,2.19-.013,3.284,0a2.423,2.423,0,1,1,.009,4.829c-3.519.01-7.037,0-10.555,0" fill="#002c62"/>
        <path id="Path_244" data-name="Path 244" d="M22.019,26.062q-5.337,0-10.674,0a2.263,2.263,0,0,1-2.552-2.316,2.3,2.3,0,0,1,2.587-2.427q10.616-.009,21.231,0a2.287,2.287,0,0,1,2.55,2.337c.028,1.5-.932,2.4-2.585,2.406q-5.279.01-10.557,0" fill="#002c62"/>
      </g>
    </g>
  </g>
</svg>
