<svg xmlns="http://www.w3.org/2000/svg" xmlns:xlink="http://www.w3.org/1999/xlink" width="157.121" height="157.12" viewBox="0 0 157.121 157.12">
  <defs>
    <clipPath id="clip-path">
      <rect id="Rectangle_69" data-name="Rectangle 69" width="157.121" height="157.12" fill="none"/>
    </clipPath>
    <clipPath id="clip-path-2">
      <rect id="Rectangle_70" data-name="Rectangle 70" width="67.801" height="92.787" transform="translate(0 0)" fill="none"/>
    </clipPath>
  </defs>
  <g id="Group_109" data-name="Group 109" transform="translate(-585 -924)">
    <g id="Group_94" data-name="Group 94">
      <g id="Group_88" data-name="Group 88" transform="translate(585 924)">
        <g id="Group_86" data-name="Group 86" clip-path="url(#clip-path)">
          <path id="Path_176" data-name="Path 176" d="M78.56,156.3A77.745,77.745,0,1,0,.815,78.559,77.745,77.745,0,0,0,78.56,156.3" fill="#fff"/>
          <circle id="Ellipse_13" data-name="Ellipse 13" cx="77.745" cy="77.745" r="77.745" transform="translate(0.816 0.815)" fill="none" stroke="#a7a7a7" stroke-width="1.631"/>
        </g>
      </g>
      <g id="Group_93" data-name="Group 93" transform="translate(630 956)">
        <g id="Group_92" data-name="Group 92" clip-path="url(#clip-path-2)">
          <path id="Path_177" data-name="Path 177" d="M65.061,13.736c0-2.784.01-5.5,0-8.207a2.551,2.551,0,0,0-2.846-2.785q-28.33-.006-56.666,0A2.536,2.536,0,0,0,2.774,5.508c-.014,2.5,0,5.009,0,7.515a6.656,6.656,0,0,0,.068.713ZM63.4,0c.3.116.6.238.91.35A5.2,5.2,0,0,1,67.781,5.1c.01.241.01.482.01.723q0,37.2.01,74.39a5.534,5.534,0,0,1-1.936,4.577,4.861,4.861,0,0,1-1.409.792,1.2,1.2,0,0,1-1.6-.652,1.173,1.173,0,0,1,.465-1.725c1.464-.707,1.756-1.868,1.753-3.356q-.042-31.077-.017-62.157V16.552H2.77c0,1.083.01,2.186-.007,3.29-.006.357.038.835-.166,1.039-.363.367-.927.822-1.352.771S.4,21.024.087,20.6c-.146-.2-.044-.584-.044-.886,0-4.411.1-8.822-.037-13.23C-.093,3.28,1.082.883,4.611,0Z" fill="#002c62"/>
          <path id="Path_178" data-name="Path 178" d="M.041,53.54v-27a6.18,6.18,0,0,1,.024-.9,1.251,1.251,0,0,1,1.2-1.158,1.214,1.214,0,0,1,1.393.914,4.66,4.66,0,0,1,.108,1.253Q2.774,53.372,2.8,80.1a4.71,4.71,0,0,0,.574,2.2,2.416,2.416,0,0,0,2.323.958q4.595-.01,9.189,0,12.378,0,24.752,0a5.01,5.01,0,0,1,1.084.071,1.214,1.214,0,0,1,1.025,1.3,1.23,1.23,0,0,1-1.059,1.281,3.848,3.848,0,0,1-.812.057q-17.11.006-34.217,0A5.219,5.219,0,0,1,.177,81.885a7.711,7.711,0,0,1-.129-1.708Q.033,66.862.041,53.54" fill="#002c62"/>
          <path id="Path_179" data-name="Path 179" d="M33.927,55.489c6,0,12-.017,18,.017.819,0,1.077-.244,1.006-1.029a10.257,10.257,0,0,1,0-1.99c.1-.93-.258-1.164-1.172-1.161-9.06.034-18.12.02-27.18.02-2.849,0-5.7.041-8.544-.02-.954-.024-1.236.295-1.148,1.189a9.95,9.95,0,0,1,0,1.99c-.078.821.255,1,1.036,1,6-.031,12-.014,18-.014m-.017,2.717q-9.051,0-18.1,0c-2.547,0-3.627-1.087-3.63-3.65,0-.968-.027-1.936.01-2.9a3,3,0,0,1,2.992-3.019c.21-.013.424-.006.635-.006q18.1,0,36.2-.007a3.385,3.385,0,0,1,3.1,1.338c.775,1.124.782,5.834,0,6.941a3.187,3.187,0,0,1-2.832,1.311c-6.126-.017-12.249-.007-18.375-.007" fill="#002c62"/>
          <path id="Path_180" data-name="Path 180" d="M33.912,40.109c5.976,0,11.95-.017,17.923.02.9.007,1.189-.271,1.1-1.127a16.2,16.2,0,0,1-.013-1.722c0-1.294,0-1.3-1.264-1.3H18.084c-.758,0-1.518.044-2.272-.01s-.965.251-.914.944c.048.662.007,1.328.01,1.993,0,1.2,0,1.2,1.172,1.2q8.919,0,17.832,0m-.092,2.72q-9.006,0-18.008,0c-2.547,0-3.627-1.093-3.634-3.65,0-.907-.013-1.814,0-2.717a2.988,2.988,0,0,1,3.181-3.189c.968-.024,1.939-.007,2.911-.007q16.87,0,33.741-.007a3.456,3.456,0,0,1,2.944,1.1c1.019,1.24,1.016,6.147-.007,7.373a3.3,3.3,0,0,1-2.76,1.1c-5.152-.017-10.307-.007-15.462-.007Z" fill="#002c62"/>
          <path id="Path_181" data-name="Path 181" d="M58.918,88.491c-.812-1.4-1.6-2.754-2.381-4.109-1.012-1.766-.682-2.982,1.073-4.008.843-.492,1.685-.984,2.632-1.541-4.364-2.506-8.568-4.921-12.877-7.4v14.82c.927-.533,1.756-1,2.588-1.481,1.745-.991,3.012-.652,4.027,1.077.788,1.351,1.576,2.706,2.394,4.112.866-.5,1.668-.964,2.544-1.47M58.8,82.833c.846,1.464,1.65,2.842,2.438,4.231a2.472,2.472,0,0,1-1,3.817c-.859.51-1.721,1.009-2.6,1.491a2.428,2.428,0,0,1-3.569-.958c-.853-1.423-1.675-2.862-2.564-4.387-1.05.6-2.062,1.182-3.077,1.756-2.061,1.164-3.827.18-3.834-2.157q-.021-7.788,0-15.58c.007-2.289,1.783-3.308,3.773-2.17q6.774,3.876,13.536,7.78c2.017,1.165,2,3.209-.024,4.394-.992.581-1.987,1.151-3.08,1.783" fill="#e50019"/>
          <path id="Path_182" data-name="Path 182" d="M33.866,71.771c1.029,0,2.058.013,3.087,0a1.927,1.927,0,0,0,2.072-2.017,1.9,1.9,0,0,0-2.065-2.01q-3.041-.031-6.085,0a1.9,1.9,0,0,0-2.068,2,1.925,1.925,0,0,0,2.061,2.024c1,.017,2,0,3,0m.1-6.748c1.121,0,2.245-.034,3.362.007a4.732,4.732,0,0,1-.054,9.447q-3.363.066-6.728,0a4.732,4.732,0,0,1-.034-9.447c1.148-.041,2.3-.007,3.454-.007" fill="#e50019"/>
          <path id="Path_183" data-name="Path 183" d="M33.959,21.741q6.316,0,12.636,0c1,0,1.627.517,1.61,1.325A1.321,1.321,0,0,1,47,24.437a4.606,4.606,0,0,1-.815.021H21.642c-.21,0-.424.013-.635,0a1.381,1.381,0,0,1-1.389-1.382,1.34,1.34,0,0,1,1.433-1.321c1.576-.024,3.152-.01,4.727-.01Z" fill="#002c62"/>
          <path id="Path_184" data-name="Path 184" d="M7.346,9.675A1.428,1.428,0,1,0,5.92,8.249,1.425,1.425,0,0,0,7.346,9.675" fill="#e50019"/>
          <path id="Path_185" data-name="Path 185" d="M12.806,9.675A1.428,1.428,0,1,0,11.38,8.249a1.425,1.425,0,0,0,1.426,1.426" fill="#e50019"/>
          <path id="Path_186" data-name="Path 186" d="M18.265,9.675a1.428,1.428,0,1,0-1.426-1.426,1.425,1.425,0,0,0,1.426,1.426" fill="#e50019"/>
        </g>
      </g>
    </g>
  </g>
</svg>
