<svg xmlns="http://www.w3.org/2000/svg" width="63.413" height="63.638" viewBox="0 0 63.413 63.638">
  <g id="Group_126" data-name="Group 126" transform="translate(-907.105 -407.586)">
    <g id="Group_124" data-name="Group 124" transform="translate(907.105 407.586)">
      <g id="Group_125" data-name="Group 125">
        <path id="Path_245" data-name="Path 245" d="M48.458,45.76a16.6,16.6,0,1,1-16.6-16.6,16.6,16.6,0,0,1,16.6,16.6" fill="#e50019"/>
        <path id="Path_246" data-name="Path 246" d="M48.458,45.76a16.6,16.6,0,1,1-16.6-16.6A16.6,16.6,0,0,1,48.458,45.76Z" fill="none" stroke="#e50019" stroke-width="2.557"/>
        <path id="Path_247" data-name="Path 247" d="M33.012.717,35.321,5.4a1.288,1.288,0,0,0,.969.7l5.163.75a1.287,1.287,0,0,1,.714,2.2L38.43,12.687a1.288,1.288,0,0,0-.37,1.139l.882,5.142a1.287,1.287,0,0,1-1.867,1.357L32.457,17.9a1.288,1.288,0,0,0-1.2,0l-4.618,2.428a1.287,1.287,0,0,1-1.867-1.357l.882-5.142a1.285,1.285,0,0,0-.37-1.139L21.55,9.045a1.287,1.287,0,0,1,.713-2.2l5.163-.75a1.286,1.286,0,0,0,.969-.7L30.7.717a1.287,1.287,0,0,1,2.308,0" fill="#e50019"/>
        <path id="Path_248" data-name="Path 248" d="M7.236,14.524l1.41,2.856a.783.783,0,0,0,.591.43l3.152.458a.786.786,0,0,1,.436,1.34l-2.281,2.223a.787.787,0,0,0-.226.7l.538,3.139a.785.785,0,0,1-1.139.828L6.9,25.012a.787.787,0,0,0-.731,0L3.347,26.494a.785.785,0,0,1-1.14-.828l.538-3.139a.784.784,0,0,0-.226-.7L.238,19.608a.786.786,0,0,1,.436-1.34l3.152-.458a.783.783,0,0,0,.591-.43l1.41-2.856a.786.786,0,0,1,1.409,0" fill="#002c62"/>
        <path id="Path_249" data-name="Path 249" d="M57.586,14.524,59,17.38a.783.783,0,0,0,.591.43l3.152.458a.786.786,0,0,1,.436,1.34l-2.281,2.223a.787.787,0,0,0-.226.7l.538,3.139a.785.785,0,0,1-1.139.828l-2.82-1.482a.787.787,0,0,0-.731,0L53.7,26.494a.785.785,0,0,1-1.14-.828l.538-3.139a.784.784,0,0,0-.226-.7l-2.281-2.223a.786.786,0,0,1,.436-1.34l3.152-.458a.783.783,0,0,0,.591-.43l1.41-2.856a.786.786,0,0,1,1.409,0" fill="#002c62"/>
      </g>
    </g>
    <path id="rupee_3_" data-name="rupee (3)" d="M23.666,7.212V4H6V7.212h5.621a4.807,4.807,0,0,1,4.521,3.212H6v3.212H16.142a4.809,4.809,0,0,1-4.521,3.212H6v3.877L14.971,29.7h4.542L9.877,20.06h1.744a8.041,8.041,0,0,0,7.866-6.424h4.179V10.424H19.488A7.924,7.924,0,0,0,18,7.212Z" transform="translate(925.178 438.113)" fill="#fff"/>
  </g>
</svg>
