<svg xmlns="http://www.w3.org/2000/svg" xmlns:xlink="http://www.w3.org/1999/xlink" width="68.871" height="68.727" viewBox="0 0 68.871 68.727">
  <defs>
    <clipPath id="clip-path">
      <rect id="Rectangle_83" data-name="Rectangle 83" width="68.871" height="68.727" transform="translate(0 0)" fill="none"/>
    </clipPath>
  </defs>
  <g id="Group_117" data-name="Group 117" transform="translate(0 0)">
    <g id="Group_116" data-name="Group 116" clip-path="url(#clip-path)">
      <path id="Path_231" data-name="Path 231" d="M53.99,34.2V19.158H2.321V49.98a3.29,3.29,0,0,0,3.62,3.653c3.038.017,6.077,0,9.116,0H30.906V55.56h-.623c-8.435,0-16.862-.042-25.3.016a4.508,4.508,0,0,1-4.766-3.5.542.542,0,0,0-.075-.142V9.771a14.623,14.623,0,0,1,.964-1.942A3.823,3.823,0,0,1,4.263,6.218c1.2-.042,2.4-.008,3.67-.008v.631c0,1.278-.025,2.565,0,3.844a4.467,4.467,0,0,0,3.4,4.433,7.532,7.532,0,0,0,4.491-.166,4.616,4.616,0,0,0,2.873-4.525c.009-1.386,0-2.773,0-4.2H37.432c.008.2.025.39.025.581.008,1.171,0,2.342.008,3.512a4.65,4.65,0,0,0,4.882,5.015,6.663,6.663,0,0,0,3.172-.457,4.644,4.644,0,0,0,2.706-4.466c.008-1.2,0-2.416,0-3.62V6.3a30.179,30.179,0,0,1,4.417.041,3.993,3.993,0,0,1,3.3,3.919c.009.233.017.473.017.714V34.527" fill="#e50019"/>
      <path id="Path_232" data-name="Path 232" d="M56.051,20.342V51.953a3.658,3.658,0,0,1-3.658,3.658H3.8A3.657,3.657,0,0,1,.146,51.953V20.342" fill="#002c62" fill-rule="evenodd"/>
      <rect id="Rectangle_77" data-name="Rectangle 77" width="56.89" height="1.886" transform="translate(0 19.01)" fill="#edf4f6"/>
      <path id="Path_233" data-name="Path 233" d="M50.756,68.727c-.838-.17-1.681-.322-2.513-.515a15.843,15.843,0,0,1-6-2.838,16.281,16.281,0,0,1-5.779-8A16.471,16.471,0,0,1,36.02,48.4a16.156,16.156,0,0,1,2.725-6.053,16.664,16.664,0,0,1,15.461-6.767,16.168,16.168,0,0,1,7.37,2.757,16.584,16.584,0,0,1,7.082,11.212c.057.357.141.711.213,1.066v2.964c-.064.284-.147.565-.189.852A16.618,16.618,0,0,1,55.378,68.4c-.553.106-1.1.217-1.658.326ZM66.389,52.1a14.163,14.163,0,1,0-14.15,14.145A14.193,14.193,0,0,0,66.389,52.1" fill="#e50019"/>
      <rect id="Rectangle_78" data-name="Rectangle 78" width="9.684" height="6.855" transform="translate(6.757 25.789)" fill="#edf4f6"/>
      <rect id="Rectangle_79" data-name="Rectangle 79" width="9.684" height="6.855" transform="translate(22.853 25.789)" fill="#edf4f6"/>
      <rect id="Rectangle_80" data-name="Rectangle 80" width="9.684" height="6.855" transform="translate(38.693 25.789)" fill="#edf4f6"/>
      <rect id="Rectangle_81" data-name="Rectangle 81" width="9.684" height="6.855" transform="translate(6.757 39.48)" fill="#edf4f6"/>
      <rect id="Rectangle_82" data-name="Rectangle 82" width="9.684" height="6.855" transform="translate(22.853 39.48)" fill="#edf4f6"/>
      <path id="Path_234" data-name="Path 234" d="M50.962,66.413c-.721-.147-1.447-.277-2.164-.443a13.656,13.656,0,0,1-5.163-2.443,14.027,14.027,0,0,1-4.975-6.888,14.175,14.175,0,0,1-.384-7.728A13.9,13.9,0,0,1,40.622,43.7a14.347,14.347,0,0,1,13.31-5.826,13.913,13.913,0,0,1,6.345,2.374,14.276,14.276,0,0,1,6.1,9.652c.05.308.122.612.183.918V53.37c-.055.244-.126.486-.163.733A14.305,14.305,0,0,1,54.942,66.132c-.477.092-.952.187-1.428.281Z" fill="#edf4f6"/>
      <path id="Path_235" data-name="Path 235" d="M14.139,0c.082.089.161.185.245.266a2.083,2.083,0,0,1,.581,1.576c0,2.98.008,5.961,0,8.941-.005,1.064-.5,1.805-1.168,1.831-.344.014-.688.017-1.032,0-.608-.037-1.108-.779-1.113-1.742-.016-3.035-.011-6.07-.005-9.105A2.153,2.153,0,0,1,12.487,0Z" fill="#e50019"/>
      <path id="Path_236" data-name="Path 236" d="M43.688,0c.082.089.161.185.245.266a2.083,2.083,0,0,1,.581,1.576c0,2.98.008,5.961,0,8.941,0,1.064-.5,1.805-1.168,1.831-.344.014-.688.017-1.032,0-.608-.037-1.108-.779-1.113-1.742-.016-3.035-.011-6.07,0-9.105A2.153,2.153,0,0,1,42.036,0Z" fill="#e50019"/>
      <path id="Path_237" data-name="Path 237" d="M55.81,46.7H53.816a3.757,3.757,0,0,1,.436,1.131l2.333,0a.244.244,0,0,1,.19.234v.055l-.028.047c-.85,1.44-.85,1.44-.925,1.476l-.04.023H54.331a5.138,5.138,0,0,1-.6,1.622,4.166,4.166,0,0,1-1.5,1.412,5.442,5.442,0,0,1-2.147.681c.079.11.2.284.4.545l4.276,5.858v.34a.234.234,0,0,1-.241.238H52.551l-.059-.075c-5.075-6.7-5.075-6.7-5.075-6.8l.016-1.42.079-.2.158.023a6.151,6.151,0,0,0,1.008.072c1.8,0,2.884-.633,3.319-1.939a1.454,1.454,0,0,0,.083-.36H47.195a.24.24,0,0,1-.241-.253v-.055l.028-.048c.9-1.483.9-1.483,1.036-1.483h3.73a2.46,2.46,0,0,0-1.108-.886,3.557,3.557,0,0,0-1.2-.245h-2.46V46.4L47,46.352c.882-1.487.882-1.487,1.017-1.487h8.777v.249l-.024.067a8.075,8.075,0,0,1-.906,1.472Z" fill="#e50019"/>
    </g>
  </g>
</svg>
