<svg xmlns="http://www.w3.org/2000/svg" xmlns:xlink="http://www.w3.org/1999/xlink" width="57.773" height="57.773" viewBox="0 0 57.773 57.773">
  <defs>
    <clipPath id="clip-path">
      <rect id="Rectangle_87" data-name="Rectangle 87" width="57.773" height="57.773" transform="translate(0 0)" fill="none"/>
    </clipPath>
  </defs>
  <g id="Group_119" data-name="Group 119" transform="translate(0 0)">
    <g id="Group_118" data-name="Group 118" clip-path="url(#clip-path)">
      <path id="Path_238" data-name="Path 238" d="M57.773,28.887A28.886,28.886,0,1,1,28.886,0,28.887,28.887,0,0,1,57.773,28.887" fill="#002c62"/>
      <path id="Path_239" data-name="Path 239" d="M52.412,28.887A23.525,23.525,0,1,1,28.887,5.362,23.525,23.525,0,0,1,52.412,28.887" fill="#e50019"/>
      <rect id="Rectangle_84" data-name="Rectangle 84" width="7.375" height="3.984" transform="translate(23.504 23.19)" fill="#edf4f6"/>
      <rect id="Rectangle_85" data-name="Rectangle 85" width="3.984" height="17.17" transform="translate(26.895 23.189)" fill="#edf4f6"/>
      <rect id="Rectangle_86" data-name="Rectangle 86" width="11.703" height="4.88" transform="translate(23.035 40.06)" fill="#edf4f6"/>
      <path id="Path_240" data-name="Path 240" d="M31.242,16.274a3.441,3.441,0,1,1-3.44-3.44,3.44,3.44,0,0,1,3.44,3.44" fill="#edf4f6" fill-rule="evenodd"/>
      <circle id="Ellipse_14" data-name="Ellipse 14" cx="24.624" cy="24.624" r="24.624" transform="translate(4.263 4.263)" fill="none" stroke="#edf4f6" stroke-width="2.173"/>
    </g>
  </g>
</svg>
