<svg xmlns="http://www.w3.org/2000/svg" xmlns:xlink="http://www.w3.org/1999/xlink" width="65" height="65" viewBox="0 0 65 65">
  <defs>
    <clipPath id="clip-path">
      <rect id="Rectangle_2269" data-name="Rectangle 2269" width="40.111" height="40.039" fill="#fff"/>
    </clipPath>
  </defs>
  <g id="Group_16241" data-name="Group 16241" transform="translate(-299 -325)">
    <circle id="Ellipse_29" data-name="Ellipse 29" cx="32.5" cy="32.5" r="32.5" transform="translate(299 325)" fill="#036"/>
    <g id="Group_16225" data-name="Group 16225" transform="translate(311.758 338.461)">
      <g id="Group_8733" data-name="Group 8733" clip-path="url(#clip-path)">
        <path id="Path_8484" data-name="Path 8484" d="M35.066,8.289c-.036.309-.07.619-.108.928-.087.71.117.986.819,1.206a8.824,8.824,0,0,1,1.425.549,2.567,2.567,0,0,1,1.388,3.379,8.952,8.952,0,0,1-.637,1.385,1,1,0,0,0,.279,1.417,9.379,9.379,0,0,1,1.288,1.291,2.449,2.449,0,0,1-.02,3.212A8.778,8.778,0,0,1,38.227,22.9a.946.946,0,0,0-.282,1.371,5.577,5.577,0,0,1,.8,2.13,2.207,2.207,0,0,1-.887,2.213,8.544,8.544,0,0,1-1.971.954c-.851.307-1.007.529-.926,1.435a6.076,6.076,0,0,1-.046,1.768,2.825,2.825,0,0,1-3.22,2.218c-.3-.017-.595-.053-.89-.1a.954.954,0,0,0-1.137.764,8.1,8.1,0,0,1-.605,1.577,2.6,2.6,0,0,1-3.294,1.295,9.3,9.3,0,0,1-1.436-.631.961.961,0,0,0-1.446.364,4.184,4.184,0,0,1-1.513,1.407,2.5,2.5,0,0,1-2.813-.125,8.8,8.8,0,0,1-1.4-1.351,1.006,1.006,0,0,0-1.487-.246,4.242,4.242,0,0,1-2.19.735,2.494,2.494,0,0,1-2.308-1.2,8.982,8.982,0,0,1-.781-1.82A.993.993,0,0,0,9.219,34.9,7.4,7.4,0,0,1,7.4,34.882,2.694,2.694,0,0,1,5.032,32.01,12.189,12.189,0,0,1,5.123,30.7a.9.9,0,0,0-.8-1.059,6.876,6.876,0,0,1-1.367-.453,2.673,2.673,0,0,1-1.486-3.469,7.609,7.609,0,0,1,.562-1.28c.418-.783.363-1.1-.342-1.613A3.773,3.773,0,0,1,.068,20.658a3.331,3.331,0,0,1,1.6-3.441c.738-.472.815-.8.382-1.576a5.108,5.108,0,0,1-.73-2.109,2.363,2.363,0,0,1,1.1-2.336,7.682,7.682,0,0,1,1.866-.774c.623-.186.87-.464.831-1.122A10.61,10.61,0,0,1,5.1,7.523,2.575,2.575,0,0,1,7.524,5.135a10.433,10.433,0,0,1,1.7.005.958.958,0,0,0,1.18-.814,7.663,7.663,0,0,1,.5-1.348,2.764,2.764,0,0,1,3.548-1.447,6.93,6.93,0,0,1,1.262.6,1.008,1.008,0,0,0,1.423-.254A8.857,8.857,0,0,1,18.39.611a2.6,2.6,0,0,1,3.346,0A6.492,6.492,0,0,1,22.9,1.83a.976.976,0,0,0,1.358.352,11,11,0,0,1,1.47-.66,2.618,2.618,0,0,1,3.355,1.328,7.136,7.136,0,0,1,.57,1.457c.2.69.467.874,1.2.837a8.454,8.454,0,0,1,1.987.031c1.423.273,2.207,1.445,2.222,3.115M7.956,6.915c-.771-.034-1.105.295-1.075,1.056a5,5,0,0,0,.057.506,3.219,3.219,0,0,1-2.487,3.879c-.177.052-.357.092-.534.14a.942.942,0,0,0-.632,1.476,11.428,11.428,0,0,1,.563,1.142,2.844,2.844,0,0,1-.686,3.312,10.806,10.806,0,0,1-.867.754.97.97,0,0,0-.025,1.667,11.993,11.993,0,0,1,1.063.98A2.662,2.662,0,0,1,3.9,24.782c-.181.459-.42.9-.645,1.337a.946.946,0,0,0,.634,1.422,9.875,9.875,0,0,1,1.249.411A2.706,2.706,0,0,1,6.9,30.224a11.266,11.266,0,0,1-.018,1.734c-.042.906.354,1.279,1.26,1.178a10.014,10.014,0,0,1,1.147-.07,2.651,2.651,0,0,1,2.8,1.964c.148.4.27.806.434,1.2a.937.937,0,0,0,1.453.492,9.9,9.9,0,0,1,1.028-.51,2.851,2.851,0,0,1,3.486.739c.258.264.488.554.739.825a1.006,1.006,0,0,0,1.618-.018,7.726,7.726,0,0,1,.953-1.029,4.777,4.777,0,0,1,1.346-.764,2.991,2.991,0,0,1,2.128.379c.38.155.74.363,1.127.5a.833.833,0,0,0,1.146-.623c.034-.123.057-.248.087-.372a3.19,3.19,0,0,1,3.637-2.771c.3.01.594.066.892.073.777.018,1.064-.281,1.019-1.046-.027-.452-.089-.9-.086-1.356a2.786,2.786,0,0,1,1.9-2.793c.409-.159.834-.277,1.246-.426a.935.935,0,0,0,.547-1.43c-.054-.1-.116-.2-.171-.294-1.159-2.07-.827-3.535,1.11-4.908a.969.969,0,0,0,.1-1.662c-.327-.295-.677-.566-.986-.878a2.47,2.47,0,0,1-.824-2.267,8.793,8.793,0,0,1,.727-2.015c.372-.772.2-1.316-.622-1.59-.39-.13-.788-.24-1.167-.395A2.791,2.791,0,0,1,33.1,9.3c0-.523.077-1.045.092-1.569a.72.72,0,0,0-.77-.819,6.185,6.185,0,0,0-.935.046,3.179,3.179,0,0,1-3.767-2.475c-.044-.149-.075-.3-.112-.453-.207-.84-.69-1.074-1.486-.724-.506.222-1.007.459-1.523.656a2.391,2.391,0,0,1-2.646-.5,15.267,15.267,0,0,1-1.078-1.147,1.017,1.017,0,0,0-1.65-.039c-.38.4-.74.827-1.152,1.193a2.5,2.5,0,0,1-2.467.545,5.742,5.742,0,0,1-1.482-.619,1.033,1.033,0,0,0-1.687.629,14.232,14.232,0,0,1-.578,1.5A2.243,2.243,0,0,1,9.949,6.9c-.659.058-1.328.011-1.993.011" transform="translate(0 0)" fill="#fff"/>
        <path id="Path_8485" data-name="Path 8485" d="M76.759,64.169A12.727,12.727,0,1,1,63.972,76.852,12.753,12.753,0,0,1,76.759,64.169M87.651,76.893A10.925,10.925,0,1,0,76.706,87.8,10.959,10.959,0,0,0,87.651,76.893" transform="translate(-56.694 -56.868)" fill="#fff"/>
        <path id="Path_8486" data-name="Path 8486" d="M124.673,143c.185-.223.326-.421.5-.591q2.951-2.954,5.912-5.9a1.794,1.794,0,0,1,.542-.4.88.88,0,0,1,1.024.319.862.862,0,0,1,.007,1.068,2.34,2.34,0,0,1-.287.313q-3.437,3.432-6.876,6.862c-.652.65-1.078.649-1.733,0-1.116-1.113-2.238-2.221-3.345-3.343a.922.922,0,0,1,.395-1.621.983.983,0,0,1,.947.362l2.92,2.93" transform="translate(-106.417 -120.575)" fill="#fff"/>
      </g>
    </g>
  </g>
</svg>
