<svg xmlns="http://www.w3.org/2000/svg" width="65" height="65" viewBox="0 0 65 65"><defs><clipPath id="c7yka"><path fill="#fff" d="M0 32.5C0 14.55 14.55 0 32.5 0S65 14.55 65 32.5 50.45 65 32.5 65C14.551 65 0 50.45 0 32.5z"/></clipPath><clipPath id="c7ykb"><path d="M12.758 53.5V13.461h40.11V53.5z"/></clipPath></defs><g><g><g><path fill="none" stroke="#ccc" stroke-miterlimit="20" stroke-width="2" d="M0 32.5C0 14.55 14.55 0 32.5 0S65 14.55 65 32.5 50.45 65 32.5 65C14.551 65 0 50.45 0 32.5z" clip-path="url(&quot;#c7yka&quot;)"/></g><g><g><g><path fill="#f5f5f5" d="M12.758 53.5V13.461h40.11V53.5z"/></g><g clip-path="url(#c7ykb)"><path fill="#036" d="M20.714 20.377c-.77-.034-1.105.295-1.074 1.055.007.17.033.339.057.507.28 1.96-.592 3.322-2.487 3.879-.177.052-.357.092-.535.14-.737.197-.99.8-.631 1.475.199.375.407.75.563 1.143.493 1.246.277 2.363-.686 3.312-.273.268-.567.516-.867.754-.64.509-.649 1.132-.025 1.667.365.314.739.626 1.063.98.786.862 1 1.859.568 2.954-.18.459-.42.896-.645 1.337-.319.626-.045 1.231.635 1.422.422.118.848.238 1.249.41.998.431 1.639 1.18 1.758 2.273.062.571.01 1.157-.018 1.734-.042.906.355 1.28 1.26 1.178.38-.042.765-.072 1.147-.07 1.467.005 2.293.589 2.804 1.964.148.398.27.806.434 1.197.278.662.822.833 1.453.491.337-.181.674-.368 1.028-.51 1.399-.557 2.44-.332 3.486.74.257.264.488.554.74.824.502.54 1.133.529 1.617-.018.31-.35.589-.745.953-1.029.404-.314.865-.599 1.346-.764.75-.257 1.445.1 2.128.379.38.155.74.363 1.127.496.547.19.992-.07 1.146-.623.034-.122.057-.248.087-.372.476-1.978 1.602-2.84 3.637-2.77.298.01.594.065.892.072.777.019 1.064-.281 1.018-1.046-.027-.452-.09-.904-.085-1.356.01-1.343.624-2.298 1.895-2.793.409-.16.834-.277 1.247-.426.663-.241.88-.817.547-1.43-.054-.1-.115-.196-.17-.295-1.16-2.07-.828-3.535 1.109-4.908.659-.467.698-1.12.096-1.662-.327-.295-.677-.567-.986-.879-.62-.626-1.004-1.388-.823-2.267.142-.693.418-1.373.727-2.015.372-.771.197-1.316-.622-1.59-.39-.13-.788-.24-1.167-.395-1.24-.508-1.849-1.457-1.853-2.782-.002-.523.077-1.045.092-1.568.015-.51-.259-.8-.77-.819-.31-.011-.625.01-.935.046-1.93.224-3.223-.621-3.767-2.475-.043-.149-.074-.302-.112-.453-.207-.84-.69-1.074-1.486-.724-.506.222-1.007.46-1.523.656-.978.374-1.877.212-2.646-.501a15.268 15.268 0 0 1-1.077-1.147c-.502-.572-1.127-.593-1.65-.04-.38.403-.74.828-1.152 1.194-.71.63-1.562.806-2.467.545-.513-.148-1.036-.336-1.483-.62-.743-.472-1.403-.224-1.686.63a14.23 14.23 0 0 1-.579 1.503c-.373.806-1.02 1.3-1.908 1.378-.66.059-1.329.012-1.994.012m27.11 1.373c-.036.31-.07.62-.107.929-.087.71.117.985.818 1.206.485.152.976.315 1.425.548 1.4.727 1.875 1.885 1.388 3.38-.156.48-.4.936-.637 1.385-.31.586-.225.972.28 1.416.455.402.922.812 1.287 1.29.795 1.041.787 2.18-.02 3.213-.362.464-.821.86-1.273 1.243-.493.418-.603.814-.282 1.37.384.668.71 1.35.803 2.131.108.907-.15 1.702-.887 2.213-.594.411-1.287.707-1.972.954-.85.306-1.006.528-.925 1.434.052.585.073 1.2-.046 1.768-.317 1.506-1.54 2.315-3.22 2.218a10.574 10.574 0 0 1-.89-.095c-.586-.084-.96.19-1.137.764-.167.537-.333 1.09-.606 1.576-.72 1.286-1.883 1.735-3.293 1.295-.497-.154-.97-.393-1.436-.63-.631-.322-1.056-.229-1.446.364a4.184 4.184 0 0 1-1.513 1.406c-.963.522-1.931.508-2.813-.125-.522-.375-.971-.866-1.4-1.35-.46-.52-.896-.623-1.487-.246-.67.425-1.384.713-2.19.734-.994.026-1.797-.375-2.308-1.198-.346-.555-.565-1.196-.78-1.82-.208-.598-.54-.813-1.18-.765-.605.045-1.232.09-1.822-.014-1.522-.27-2.32-1.27-2.365-2.872-.012-.437.056-.876.092-1.314.047-.595-.217-.916-.797-1.059-.465-.115-.939-.244-1.367-.452-1.432-.7-1.965-1.951-1.486-3.47.14-.442.343-.87.562-1.28.418-.783.363-1.097-.342-1.613-.761-.557-1.404-1.211-1.625-2.164-.293-1.257.368-2.653 1.6-3.441.739-.473.815-.802.382-1.576-.369-.659-.671-1.34-.73-2.11-.076-.993.271-1.817 1.104-2.335.565-.352 1.223-.583 1.866-.775.624-.185.87-.464.831-1.122-.035-.591-.086-1.192-.021-1.777.15-1.352 1.063-2.245 2.423-2.387.56-.058 1.132-.028 1.696.005.696.042.985-.156 1.18-.814.137-.459.285-.924.505-1.347.73-1.41 2.03-1.94 3.548-1.448.44.143.858.368 1.262.598.557.317.998.233 1.423-.254.39-.446.784-.909 1.252-1.264 1.073-.815 2.27-.816 3.346-.001.445.336.825.776 1.169 1.22.384.495.795.628 1.358.351.482-.237.962-.497 1.47-.66 1.443-.462 2.624.004 3.355 1.328.25.453.424.957.57 1.457.2.69.466.874 1.199.837.662-.033 1.346-.092 1.987.03 1.423.273 2.207 1.446 2.222 3.115"/></g><g clip-path="url(#c7ykb)"><path fill="#ed3237" d="M43.715 33.486c-.003-5.978-4.91-10.883-10.907-10.9-5.999-.016-10.945 4.912-10.944 10.905.001 5.975 4.91 10.882 10.906 10.9 5.996.019 10.947-4.915 10.945-10.905M32.823 20.762c7.077.067 12.758 5.762 12.719 12.75-.04 7.056-5.84 12.81-12.807 12.704-7.106-.109-12.774-5.809-12.699-12.771.077-7.066 5.807-12.75 12.787-12.683"/></g><g clip-path="url(#c7ykb)"><path fill="#ed3237" d="M31.015 35.883c.185-.223.325-.421.495-.59 1.967-1.97 3.937-3.937 5.912-5.899.158-.156.34-.313.541-.397.362-.15.799.004 1.024.319.25.351.25.714.007 1.068-.08.116-.186.213-.287.313-2.291 2.288-4.583 4.575-6.876 6.862-.652.65-1.078.649-1.733-.004-1.116-1.113-2.237-2.221-3.345-3.343-.585-.592-.37-1.445.394-1.621.392-.09.686.1.947.362.943.945 1.885 1.89 2.92 2.93"/></g></g></g></g></g></svg>