<svg xmlns="http://www.w3.org/2000/svg" width="65" height="65" viewBox="0 0 65 65"><defs><clipPath id="c31wa"><path fill="#fff" d="M0 32.5C0 14.55 14.55 0 32.5 0S65 14.55 65 32.5 50.45 65 32.5 65 0 50.45 0 32.5z"/></clipPath></defs><g><g><g><path fill="none" stroke="#ccc" stroke-miterlimit="20" stroke-width="2" d="M0 32.5C0 14.55 14.55 0 32.5 0S65 14.55 65 32.5 50.45 65 32.5 65 0 50.45 0 32.5z" clip-path="url(&quot;#c31wa&quot;)"/></g><g><g><path fill="#036" d="M35.71 56.823H24.75a.763.763 0 0 1-.764-.763V39.784h-3.222A.763.763 0 0 1 20 39.02V27.013a5.902 5.902 0 0 1 5.895-5.894h8.67a5.902 5.902 0 0 1 5.895 5.894v8.323a.763.763 0 1 1-1.527 0v-8.323a4.373 4.373 0 0 0-4.368-4.368h-8.67a4.373 4.373 0 0 0-4.368 4.368v11.244h3.222c.422 0 .764.342.764.764v16.275h9.434v-5.49a.763.763 0 1 1 1.527 0v6.254a.763.763 0 0 1-.764.763z"/></g><g><path fill="#036" d="M30.23 56.823a.763.763 0 0 1-.763-.763V45.173a.763.763 0 1 1 1.527 0V56.06a.764.764 0 0 1-.764.763z"/></g><g><path fill="#036" d="M24.75 39.349a.763.763 0 0 1-.764-.764V28.491a.763.763 0 1 1 1.527 0v10.094a.763.763 0 0 1-.764.764z"/></g><g><path fill="#036" d="M35.71 34.936a.763.763 0 0 1-.763-.763v-5.734a.763.763 0 1 1 1.527 0v5.734a.763.763 0 0 1-.764.763z"/></g><g><path fill="#036" d="M33.425 14.153a3.527 3.527 0 0 1-3.523 3.523 3.527 3.527 0 0 1-3.523-3.523 3.527 3.527 0 0 1 3.523-3.523 3.528 3.528 0 0 1 3.523 3.523zm1.63 0A5.158 5.158 0 0 0 29.902 9a5.158 5.158 0 0 0-5.153 5.153 5.158 5.158 0 0 0 5.153 5.153 5.158 5.158 0 0 0 5.153-5.153z"/></g><g><path fill="#036" d="M40.19 56.823H20.764a.763.763 0 1 1 0-1.527H40.19a.763.763 0 1 1 0 1.527z"/></g><g><path fill="#ed3237" d="M30.837 36.779c3.225-.442 5.154-1.355 5.97-1.825.817.47 2.745 1.383 5.97 1.825v6.687c0 1.84-1.01 3.54-2.575 4.327l-3.395 1.71-3.395-1.71c-1.565-.787-2.575-2.486-2.575-4.327v-6.687zm6.312 14.26l3.738-1.882c2.076-1.045 3.416-3.279 3.416-5.691v-7.362a.763.763 0 0 0-.68-.759c-4.345-.476-6.327-1.88-6.363-1.906a.769.769 0 0 0-.906 0c-.02.015-2 1.429-6.364 1.906a.762.762 0 0 0-.68.759v7.362c0 2.412 1.341 4.646 3.416 5.691l3.738 1.883a.76.76 0 0 0 .685 0z"/></g><g><path fill="#ed3237" d="M36.806 38.273c.526.279 1.51.694 3.03.933v3.48c0 .912-.497 1.75-1.268 2.139l-1.762.887-1.762-.887c-.77-.387-1.267-1.227-1.267-2.14v-3.48c1.521-.238 2.504-.653 3.03-.932zm.001 9.057a.741.741 0 0 0 .343-.082l2.105-1.06c1.28-.646 2.108-2.02 2.108-3.504v-4.147a.763.763 0 0 0-.68-.759c-2.326-.254-3.395-.99-3.425-1.011a.772.772 0 0 0-.902 0c-.01.008-1.078.755-3.425 1.012a.762.762 0 0 0-.68.759v4.147c0 1.485.826 2.86 2.107 3.504l2.106 1.06a.76.76 0 0 0 .343.081z"/></g></g></g></g></svg>