<svg xmlns="http://www.w3.org/2000/svg" width="65" height="65" viewBox="0 0 65 65">
  <g id="Group_16239" data-name="Group 16239" transform="translate(-524 -144)">
    <g id="guarantee" transform="matrix(0.208, -0.978, 0.978, 0.208, 529.992, 194.254)">
      <path id="Path_38437" data-name="Path 38437" d="M105.95,108.49a2.67,2.67,0,0,0-1.9.786l-3.832,3.832a.883.883,0,0,0,1.249,1.249l1.291-1.291,1.306,1.306-1.291,1.291a.883.883,0,0,0,1.249,1.249l3.832-3.832a2.687,2.687,0,0,0-1.9-4.589Zm.653,3.34-1.291,1.291-1.306-1.306,1.291-1.291A.923.923,0,0,1,106.6,111.83Z" transform="translate(-91.1 -98.909)" fill="#ef3e43"/>
      <path id="Path_38438" data-name="Path 38438" d="M363.954,367.849l1.306-1.306.948.948a.883.883,0,1,0,1.249-1.249l-.948-.948,1.306-1.306,1.611,1.611a.883.883,0,0,0,1.249-1.249l-2.235-2.235a.888.888,0,0,0-1.249,0l-5.109,5.109a.888.888,0,0,0,0,1.249l2.235,2.235a.883.883,0,0,0,1.249-1.249Z" transform="translate(-329.841 -329.903)" fill="#ef3e43"/>
      <path id="Path_38439" data-name="Path 38439" d="M328.33,322.82a.88.88,0,0,0,.624-.259l4.485-4.485.493.493a.883.883,0,1,0,1.249-1.249l-2.235-2.235a.883.883,0,1,0-1.249,1.249l.493.493-4.485,4.485a.883.883,0,0,0,.625,1.508Z" transform="translate(-298.5 -287.025)" fill="#ef3e43"/>
      <path id="Path_38440" data-name="Path 38440" d="M4.618,7.145,5.561,6.2a.888.888,0,0,0,0-1.249l-.639-.639A.883.883,0,1,0,3.674,5.564l.014.014L3.369,5.9A.923.923,0,0,1,2.064,4.591L4.618,2.036a.922.922,0,0,1,1.529.941.883.883,0,1,0,1.681.543A2.689,2.689,0,0,0,3.369.788L.815,3.342a2.689,2.689,0,0,0,3.8,3.8Z" transform="translate(0 0)" fill="#ef3e43"/>
      <path id="Path_38441" data-name="Path 38441" d="M267.418,272.56l5.109-5.109a.883.883,0,1,0-1.249-1.249l-2.464,2.464,1.372-4.115a.883.883,0,0,0-1.462-.9l-5.109,5.109a.883.883,0,0,0,1.249,1.249l2.464-2.464-1.372,4.115a.883.883,0,0,0,1.462.9Z" transform="translate(-240.069 -240.129)" fill="#ef3e43"/>
      <path id="Path_38442" data-name="Path 38442" d="M160.814,154.513a.888.888,0,0,0-1.249,0l-5.109,5.109a.883.883,0,0,0,1.249,1.249l1.93-1.93.267.267-1.1,3.314a.883.883,0,0,0,1.676.559l.938-2.814a2.691,2.691,0,0,0,2.68-4.476Zm.028,3.832a.933.933,0,0,1-1.3.006l-.017-.017-.642-.642,1.306-1.306.653.653A.924.924,0,0,1,160.842,158.344Z" transform="translate(-140.549 -140.633)" fill="#ef3e43"/>
      <path id="Path_38443" data-name="Path 38443" d="M54.991,53.645a2.707,2.707,0,0,0,3.8,0l3.832-3.832a.883.883,0,0,0-1.249-1.249L57.545,52.4a.923.923,0,0,1-1.306-1.306l3.832-3.832a.883.883,0,1,0-1.249-1.249l-3.832,3.832a2.692,2.692,0,0,0,0,3.8Z" transform="translate(-49.386 -41.71)" fill="#ef3e43"/>
      <path id="Path_38444" data-name="Path 38444" d="M211.251,225.445a.883.883,0,0,0,1.249,0l3.832-3.832a2.689,2.689,0,1,0-3.8-3.8l-3.832,3.832a.883.883,0,0,0,1.249,1.249l1.291-1.291,1.306,1.306-1.292,1.292A.883.883,0,0,0,211.251,225.445Zm1.235-5.095,1.291-1.291a.923.923,0,1,1,1.306,1.306l-1.291,1.291Z" transform="translate(-190 -197.863)" fill="#ef3e43"/>
      <path id="Path_38445" data-name="Path 38445" d="M417.66,411.359l-2.235-2.235a.888.888,0,0,0-1.249,0l-5.109,5.109a.883.883,0,0,0,0,1.249l2.235,2.235a.883.883,0,1,0,1.249-1.249l-1.611-1.611,1.306-1.306.948.948a.883.883,0,0,0,1.249-1.249l-.948-.948L414.8,411l1.611,1.611a.883.883,0,1,0,1.249-1.249Z" transform="translate(-372.676 -372.76)" fill="#ef3e43"/>
      <path id="Path_38446" data-name="Path 38446" d="M158.615,19.294l4.262,1.115a.883.883,0,0,0,.757-.151L166.612,18l2.977,2.257a.884.884,0,0,0,.757.151l3.614-.946,1.887,3.225a.883.883,0,0,0,.642.429l3.7.509.509,3.7a.883.883,0,0,0,.429.642l3.224,1.887-.946,3.614a.883.883,0,0,0,.151.757l2.257,2.977-2.257,2.977a.883.883,0,0,0-.151.757l1.115,4.262a.883.883,0,1,0,1.709-.447l-1.007-3.847,2.4-3.169a.883.883,0,0,0,0-1.067l-2.4-3.169,1.007-3.847a.883.883,0,0,0-.408-.986l-3.432-2.008-.542-3.939a.883.883,0,0,0-.754-.754l-3.939-.542-2.008-3.432a.883.883,0,0,0-.986-.408l-3.847,1.007-3.169-2.4a.883.883,0,0,0-1.067,0l-3.169,2.4-3.847-1.007a.883.883,0,0,0-.447,1.709Z" transform="translate(-143.976 -14.596)" fill="#036"/>
      <path id="Path_38447" data-name="Path 38447" d="M45.165,184.555,40.9,183.439a.882.882,0,0,0-.757.151l-2.977,2.257-2.977-2.257a.883.883,0,0,0-.757-.151l-3.614.946-1.887-3.225a.883.883,0,0,0-.642-.429l-3.7-.509-.509-3.7a.883.883,0,0,0-.429-.642l-3.225-1.887.946-3.614a.883.883,0,0,0-.151-.757l-2.257-2.977,2.257-2.977a.883.883,0,0,0,.151-.757l-1.115-4.262a.883.883,0,1,0-1.709.447l1.007,3.847-2.4,3.169a.883.883,0,0,0,0,1.067l2.4,3.169-1.007,3.847a.883.883,0,0,0,.408.986l3.432,2.008.542,3.939a.883.883,0,0,0,.755.755l3.939.542,2.008,3.432a.883.883,0,0,0,.986.408l3.847-1.007,3.169,2.4a.883.883,0,0,0,1.067,0l3.169-2.4,3.847,1.007a.883.883,0,0,0,.447-1.709Z" transform="translate(-14.533 -144.036)" fill="#036"/>
      <path id="Path_38448" data-name="Path 38448" d="M228.9,104.079c2.556-10.62-7.373-20.547-17.991-17.991a.887.887,0,0,0-.428,1.485l16.933,16.933a.883.883,0,0,0,1.485-.428Zm-1.454-2.039-14.5-14.5A13.3,13.3,0,0,1,227.446,102.041Z" transform="translate(-191.629 -78.115)" fill="#036"/>
      <path id="Path_38449" data-name="Path 38449" d="M86.052,210.924c-2.556,10.62,7.373,20.547,17.991,17.991a.887.887,0,0,0,.428-1.485L87.537,210.5a.883.883,0,0,0-1.485.428Zm1.454,2.039,14.5,14.5A13.3,13.3,0,0,1,87.506,212.962Z" transform="translate(-78.051 -191.671)" fill="#036"/>
    </g>
    <g id="Ellipse_30" data-name="Ellipse 30" transform="translate(524 144)" fill="none" stroke="#ccc" stroke-width="1">
      <circle cx="32.5" cy="32.5" r="32.5" stroke="none"/>
      <circle cx="32.5" cy="32.5" r="32" fill="none"/>
    </g>
  </g>
</svg>
