<svg xmlns="http://www.w3.org/2000/svg" xmlns:xlink="http://www.w3.org/1999/xlink" width="65" height="65" viewBox="0 0 65 65">
  <defs>
    <clipPath id="clip-path">
      <rect id="Rectangle_15178" data-name="Rectangle 15178" width="7.295" height="11.418" fill="#ed1c24" stroke="#ed3438" stroke-width="0.5"/>
    </clipPath>
  </defs>
  <g id="Group_16240" data-name="Group 16240" transform="translate(-746 -144)">
    <g id="Ellipse_30" data-name="Ellipse 30" transform="translate(746 144)" fill="none" stroke="#ccc" stroke-width="1">
      <circle cx="32.5" cy="32.5" r="32.5" stroke="none"/>
      <circle cx="32.5" cy="32.5" r="32" fill="none"/>
    </g>
    <g id="Group_16228" data-name="Group 16228" transform="translate(-124 -54)">
      <g id="XMLID_49_" transform="translate(881 209)">
        <g id="XMLID_50_" transform="translate(0)">
          <path id="XMLID_69_" d="M394.173,49.186a.853.853,0,1,0-.6-.25A.859.859,0,0,0,394.173,49.186Z" transform="translate(-359.775 -43.431)" fill="#036"/>
          <path id="XMLID_72_" d="M43.646,17.407A22.323,22.323,0,0,0,37.913,6.821a.853.853,0,1,0-1.226,1.186,20.657,20.657,0,0,1,4.61,7.419,11.1,11.1,0,0,0-11.748.5,39.082,39.082,0,0,0-2.423-10.67,13.571,13.571,0,0,0-1.838-3.263,20.41,20.41,0,0,1,5.44,1.723.853.853,0,0,0,.735-1.539A22.34,22.34,0,0,0,7.78,4.967,22.451,22.451,0,0,0,.021,17.407a.853.853,0,0,0,1.415.811,9.382,9.382,0,0,1,12.821,0,.853.853,0,0,0,1.166,0,9.346,9.346,0,0,1,5.558-2.493v7.01a11.086,11.086,0,1,0-5.1,20.931H33.944a.853.853,0,0,0,.853-.853V27.974a.853.853,0,0,0-.853-.853H25.531a11.17,11.17,0,0,0-2.845-3.291V15.725a9.346,9.346,0,0,1,5.558,2.493.853.853,0,0,0,1.166,0,9.382,9.382,0,0,1,12.821,0,.853.853,0,0,0,1.415-.811ZM33.091,41.961H21.786a11.176,11.176,0,0,0,3.325-3.241h7.981Zm-6.185-8.187h6.185v3.241H26.044a11,11,0,0,0,.862-3.241Zm6.185-4.947v3.241H26.959a11.016,11.016,0,0,0-.642-3.241Zm-7.826,3.753A9.382,9.382,0,1,1,15.884,23.2,9.392,9.392,0,0,1,25.265,32.579ZM14.118,15.924a11.1,11.1,0,0,0-11.754-.495A20.5,20.5,0,0,1,18.379,1.99,13.57,13.57,0,0,0,16.54,5.254,39.079,39.079,0,0,0,14.118,15.924Zm7.716-1.943a11.048,11.048,0,0,0-5.981,1.75,36.821,36.821,0,0,1,2.262-9.821c1.112-2.672,2.468-4.2,3.719-4.2s2.606,1.532,3.719,4.2a36.824,36.824,0,0,1,2.262,9.821A11.048,11.048,0,0,0,21.834,13.981Z" transform="translate(0)" fill="#036"/>
        </g>
      </g>
      <g id="Group_16227" data-name="Group 16227" transform="translate(893.971 236.921)">
        <g id="Group_16197" data-name="Group 16197" transform="translate(0 0)" clip-path="url(#clip-path)">
          <path id="Path_38452" data-name="Path 38452" d="M7.295.866H4.436a2.6,2.6,0,0,1,.97,1.767H7.295V3.5H5.423C5.25,5.267,3.846,6.394,1.629,6.463c1.351,1.4,2.824,3.171,4.28,4.955H4.245C2.894,9.79,1.629,8.282,0,6.549V5.475H.953c1.871,0,2.876-.78,3-1.975H0V2.634H3.9c-.243-1-1.161-1.507-2.668-1.507H0V0H7.295Z" transform="translate(0 0)" fill="#ed1c24" stroke="#ed3438" stroke-width="0.5"/>
        </g>
      </g>
    </g>
  </g>
</svg>
