<svg xmlns="http://www.w3.org/2000/svg" width="65" height="65" viewBox="0 0 65 65">
  <g id="Group_16249" data-name="Group 16249" transform="translate(-1802 -325)">
    <circle id="Ellipse_40" data-name="Ellipse 40" cx="32.5" cy="32.5" r="32.5" transform="translate(1802 325)" fill="#036"/>
    <g id="Line" transform="translate(1812 335.016)">
      <path id="Path_38487" data-name="Path 38487" d="M22.728,10A12.728,12.728,0,1,0,35.456,22.728,12.742,12.742,0,0,0,22.728,10Zm0,23.637a10.91,10.91,0,1,1,10.91-10.91A10.922,10.922,0,0,1,22.728,33.637Z" transform="translate(-0.727 -0.728)" fill="#fff"/>
      <path id="Path_38488" data-name="Path 38488" d="M28.176,19.266l-6.63,6.63L18.551,22.9a.909.909,0,0,0-1.286,1.286L20.9,27.825a.909.909,0,0,0,1.286,0l7.273-7.273a.909.909,0,0,0-1.286-1.286Z" transform="translate(-1.363 -1.546)" fill="#fff"/>
      <path id="Path_38489" data-name="Path 38489" d="M40.065,19.042a.933.933,0,0,1-.243-1.22c.888-1.413,2.178-4.38-2.264-5.468a.918.918,0,0,1-.692-1.034c.426-1.995-.171-4.891-4.186-4.186a.914.914,0,0,1-1.034-.692c-.3-1.529-1.6-4.627-5.468-2.265a.939.939,0,0,1-1.22-.244c-.6-1.136-3.233-3.754-5.918,0a.957.957,0,0,1-1.22.243C16.06,2.915,13.213,2.6,12.353,6.441a.922.922,0,0,1-1.035.691c-1.54-.293-4.92-.2-4.183,4.186a.9.9,0,0,1-.691,1.035c-1.794.268-4.559,1.709-2.266,5.468a.884.884,0,0,1-.243,1.22c-1.592.8-3.415,3.667,0,5.921a.9.9,0,0,1,.243,1.206c-2.294,3.758.472,5.2,2.266,5.468a.9.9,0,0,1,.691,1.035C6.4,37.05,9.779,37.146,11.32,36.853a.921.921,0,0,1,1.035.691c.86,3.842,3.707,3.526,5.468,2.264a.957.957,0,0,1,1.22.243c2.686,3.755,5.317,1.136,5.918,0a.94.94,0,0,1,1.22-.244c3.87,2.362,5.167-.735,5.468-2.265a.914.914,0,0,1,1.034-.692c4.015.705,4.611-2.191,4.186-4.186a.917.917,0,0,1,.692-1.034c4.443-1.088,3.153-4.056,2.264-5.468a.92.92,0,0,1,.241-1.218c1.187-.821,3.755-3.124,0-5.9Zm-1.3,9.059a.944.944,0,0,1-.585,1.413c-1.289.425-3.665.775-3.031,4.538.121.715-.262,1.144-1.082,1.081-1.247-.1-3.816-.6-4.537,3.032a.92.92,0,0,1-1.413.586c-2.447-1.236-3.427-1.394-5.352,1.065a1.021,1.021,0,0,1-1.53,0c-1.035-1.179-2.206-2.992-5.353-1.064a.944.944,0,0,1-1.413-.585c-.628-1.724-.814-3.561-4.537-3.031a.92.92,0,0,1-1.081-1.081c.2-1.48.42-3.857-3.033-4.538A.956.956,0,0,1,5.235,28.1c1.379-2.256,1.188-3.667-1.085-5.362a.966.966,0,0,1,.02-1.508c2.214-1.584,2.444-3.1,1.065-5.352a.956.956,0,0,1,.585-1.413c3.453-.682,3.228-3.058,3.033-4.538A.921.921,0,0,1,9.934,8.849c3.724.529,3.909-1.307,4.537-3.031a.944.944,0,0,1,1.413-.585c3.147,1.928,4.319.115,5.353-1.064a1.021,1.021,0,0,1,1.53,0c1.926,2.458,2.9,2.3,5.352,1.065a.92.92,0,0,1,1.413.586c.721,3.632,3.289,3.127,4.537,3.032.821-.063,1.2.365,1.082,1.081-.634,3.764,1.742,4.113,3.031,4.538a.944.944,0,0,1,.585,1.413c-2.022,3.247.115,4.538,1.065,5.353a.98.98,0,0,1,.085,1.459c-1.136.785-3.172,2.157-1.15,5.4Z" transform="translate(0 0)" fill="#fff"/>
    </g>
  </g>
</svg>
