<svg xmlns="http://www.w3.org/2000/svg" xmlns:xlink="http://www.w3.org/1999/xlink" width="65" height="65" viewBox="0 0 65 65">
  <defs>
    <clipPath id="clip-path">
      <rect id="Rectangle_15178" data-name="Rectangle 15178" width="6.065" height="9.494" fill="#ed1c24" stroke="#ed3438" stroke-width="0.5"/>
    </clipPath>
  </defs>
  <g id="Group_16253" data-name="Group 16253" transform="translate(-2052 -145)">
    <g id="Ellipse_39" data-name="Ellipse 39" transform="translate(2052 145)" fill="none" stroke="#ccc" stroke-width="1">
      <circle cx="32.5" cy="32.5" r="32.5" stroke="none"/>
      <circle cx="32.5" cy="32.5" r="32" fill="none"/>
    </g>
    <g id="Group_16251" data-name="Group 16251" transform="translate(115 -3)">
      <g id="contribute_1_" data-name="contribute (1)" transform="translate(1952.332 158.333)">
        <path id="Path_38490" data-name="Path 38490" d="M5.336,45.668a12.467,12.467,0,0,1-1.9-.563,2.334,2.334,0,0,0-1.97,4.231c.39.182,4.028,1.776,11.756,1.776,10.613,0,16.112-4.205,16.341-4.385a2.333,2.333,0,0,0-1.156-4.153,2.3,2.3,0,0,0-1.717.476,10.519,10.519,0,0,1-1.382.821,43.458,43.458,0,0,1-2.217-11.1c.049-.027.1-.051.15-.078a2.333,2.333,0,0,0,.856-3.17,2.3,2.3,0,0,0-1.407-1.1,2.333,2.333,0,0,0-1.779.224c-.04.023-3.928,2.17-12.911,3.393A65.971,65.971,0,0,0,4.467,21.4,2.332,2.332,0,0,0,.193,23.268a74.562,74.562,0,0,1,5.143,22.4Zm22.308-1.391A.778.778,0,0,1,28.6,45.5c-.213.166-5.3,4.055-15.38,4.055-7.52,0-10.956-1.563-11.1-1.629a.778.778,0,0,1,.331-1.482.787.787,0,0,1,.334.074C2.925,46.582,6.173,48,13.222,48c9.557,0,14.374-3.687,14.422-3.724ZM9.5,40.068l9.638-1.354q.274,1.524.632,2.947L9.818,43.039C9.732,42.051,9.631,41.06,9.5,40.068Zm9.06-5.486c.091.913.2,1.774.317,2.6l-9.6,1.352c-.1-.637-.19-1.274-.3-1.907a68.27,68.27,0,0,0,7.083-1.364c.782-.2,1.633-.418,2.507-.675ZM9.936,44.6l10.241-1.416q.344,1.213.751,2.322a30.226,30.226,0,0,1-7.705.945c-1.174,0-2.232-.043-3.189-.111C10.007,45.755,9.974,45.176,9.936,44.6Zm13.952-.078c-.439.18-.922.365-1.465.544-.342-.927-.663-1.9-.94-2.956a42.889,42.889,0,0,1-.95-4.389c-.184-1.124-.333-2.319-.457-3.62.507-.177,1.011-.369,1.508-.585a44.183,44.183,0,0,0,2.3,11.007ZM21.682,30a.778.778,0,0,1,.593-.073.756.756,0,0,1,.467.366.767.767,0,0,1-.282,1.055,26.89,26.89,0,0,1-6.785,2.407,67.182,67.182,0,0,1-7,1.343c-.1-.513-.2-1.027-.311-1.537C17.655,32.275,21.684,30,21.682,30ZM1.609,22.053a.773.773,0,0,1,1.432-.029A69.5,69.5,0,0,1,8.466,46.189q-.856-.1-1.556-.215A76.179,76.179,0,0,0,1.62,22.646a.778.778,0,0,1-.012-.593Z" transform="translate(0.002 -4.446)" fill="#036"/>
        <path id="Path_38491" data-name="Path 38491" d="M36.361,0H22.367a3.869,3.869,0,0,0-3.48,2.151L16.463,7a8.556,8.556,0,1,0,8.593,9.441L36.224,9.333h.136a1.556,1.556,0,0,0,1.556-1.556V1.556A1.556,1.556,0,0,0,36.361,0ZM16.554,22.556a7,7,0,0,1,0-14c.115,0,.233,0,.348.006a6.922,6.922,0,0,1,5.281,2.858l-.929.972a2.793,2.793,0,0,0-.285,3.578,2.722,2.722,0,0,0,2.224,1.118c.063,0,.127-.008.191-.012a7.008,7.008,0,0,1-6.83,5.48Zm6.723-12.28a8.6,8.6,0,0,0-1.6-1.556l.4-.53a1.011,1.011,0,0,1,.823-.412h2.777c-.569.585-1.346,1.394-2.4,2.5Zm13.084-2.5H36a.772.772,0,0,0-.418.122l-11.7,7.449a1.206,1.206,0,0,1-1.512-1.867l5.665-5.933.009-.012h0l.741-.778a.778.778,0,0,0-1.126-1.073l-.511.537H22.9a2.594,2.594,0,0,0-2.069,1.035l-.483.646a8.58,8.58,0,0,0-2.22-.747l2.15-4.309a2.322,2.322,0,0,1,2.088-1.291H36.361Z" transform="translate(-1.774 0)" fill="#036"/>
      </g>
      <g id="Group_16250" data-name="Group 16250" transform="translate(1963.587 169.12)">
        <g id="Group_16197" data-name="Group 16197" transform="translate(0 0)" clip-path="url(#clip-path)">
          <path id="Path_38452" data-name="Path 38452" d="M6.065.72H3.688A2.159,2.159,0,0,1,4.495,2.19h1.57v.72H4.509C4.365,4.38,3.2,5.316,1.354,5.374,2.478,6.54,3.7,8.01,4.913,9.494H3.53C2.406,8.14,1.354,6.886,0,5.446V4.552H.792c1.556,0,2.391-.648,2.492-1.642H0V2.19H3.241C3.04,1.354,2.276.936,1.023.936H0V0H6.065Z" transform="translate(0 0)" fill="#ed1c24" stroke="#ed3438" stroke-width="0.5"/>
        </g>
      </g>
    </g>
  </g>
</svg>
