<svg xmlns="http://www.w3.org/2000/svg" width="84.997" height="59.763" viewBox="1761.768 58.894 84.997 59.763"><path d="M1846.765 112.017c-.486 1.186-.794 2.491-1.494 3.533-1.48 2.203-3.729 3.105-6.35 3.106-7.191.003-14.382.001-21.573.001-15.875 0-31.75.001-47.625-.001-3.242 0-5.762-1.31-7.162-4.287-.489-1.039-.75-2.283-.754-3.435a9763.96 9763.96 0 0 1-.026-44.306c.006-4.474 3.225-7.718 7.687-7.721 23.204-.018 46.408-.016 69.613-.001 3.936.003 6.854 2.493 7.564 6.326.019.106.079.204.12.306v46.479Zm-8.628-47.907-.12-.163h-67.591c.107.138.152.209.21.267 9.412 9.365 18.814 18.741 28.26 28.071a8.176 8.176 0 0 0 2.827 1.809c3.128 1.156 5.848.299 8.172-2.015 9.215-9.171 18.434-18.339 27.654-27.505.176-.175.39-.31.588-.464Zm-67.286 49.5h66.843l-20.96-21.388c-1.21 1.235-2.323 2.381-3.448 3.514-2.292 2.308-5.043 3.649-8.309 3.82-3.808.2-7.036-1.134-9.719-3.817-1.13-1.129-2.24-2.279-3.445-3.507l-20.962 21.378Zm-4.04-46.214v42.796l21.033-21.428-21.033-21.368Zm74.951-.039-20.953 21.288 20.953 21.356V67.357Z" fill="#fff" fill-rule="evenodd" data-name="Path 56"/></svg>