<svg xmlns="http://www.w3.org/2000/svg" width="85.333" height="85.352" viewBox="680.852 1616.976 85.333 85.352"><g data-name="Group 40"><path d="M766.185 1700.473c-.663 1.442-1.805 1.857-3.352 1.855-26.275-.031-52.55-.022-78.824-.022-2 0-3.155-.915-3.156-2.5-.001-1.583 1.155-2.487 3.154-2.507.655-.007 1.524.297 1.904-.137.321-.365.104-1.213.105-1.847.003-5.027.001-10.054.002-15.081.001-1.955.961-2.925 2.895-2.927 3.083-.002 6.166-.002 9.249.001 1.881.001 2.854.984 2.855 2.884.002 5.444.014 10.887-.017 16.33-.003.671.187.827.82.799a38.848 38.848 0 0 1 3.499.001c.604.028.714-.169.712-.736-.02-7.415-.013-14.831-.013-22.246 0-2.117.918-3.032 3.04-3.033 3.055 0 6.111-.003 9.166.001 1.777.003 2.791 1.007 2.792 2.779.004 7.471.009 14.942-.012 22.413-.001.622.112.863.795.824a33.844 33.844 0 0 1 3.414-.004c.628.028.825-.12.823-.795-.028-7.388-.018-14.775-.018-22.163 0-3.138-.003-6.277.001-9.415.002-1.787.999-2.801 2.766-2.805 3.138-.005 6.277-.004 9.416 0 1.824.003 2.815 1 2.816 2.839.002 10.499.009 20.997-.017 31.495-.002.7.169.884.858.848 1.191-.063 2.388-.041 3.581-.006.482.014.649-.14.583-.603-.023-.163-.004-.332-.004-.5v-47.658c0-2.178.901-3.082 3.074-3.082h8.916c2.069.001 3.01.931 3.01 2.981 0 15.97.008 31.94-.022 47.909-.002.835.23 1.065 1.001.95.353-.052.723.015 1.082-.013 1.549-.121 2.588.534 3.106 2.004v1.167Z" fill-rule="evenodd" fill="url(&quot;#a&quot;)" data-name="Path 101"/><path d="M766.185 1635.475c-.043.03-.109.051-.126.093-.475 1.108-1.263 1.747-2.517 1.626-1.215-.118-2.022-.89-2.379-2.214-.713-2.647-1.425-5.294-2.141-7.941-.049-.183-.121-.36-.213-.63-1.441 2.373-2.92 4.613-4.548 6.752-8.118 10.665-18.161 19.119-29.75 25.766-8.687 4.982-17.916 8.57-27.776 10.456-4.344.831-8.725 1.308-13.152 1.289-1.589-.007-2.689-.979-2.73-2.408-.042-1.447 1.075-2.575 2.665-2.583a67.157 67.157 0 0 0 11.098-.996c8.591-1.483 16.696-4.39 24.385-8.446 11.981-6.321 22.334-14.641 30.709-25.342a65.701 65.701 0 0 0 3.994-5.731c.336-.537.651-1.087 1.071-1.79-1.375.359-2.595.671-3.812.996-1.899.508-3.795 1.028-5.695 1.534-1.613.429-3.009-.278-3.379-1.697-.372-1.426.467-2.691 2.105-3.132 4.893-1.318 9.788-2.626 14.682-3.937.126-.034.284.008.342-.164h1.167c1.185.458 1.731 1.365 2.027 2.574a253.52 253.52 0 0 0 2.197 8.255c.594 2.111 1.034 4.267 1.776 6.337v1.333Z" fill-rule="evenodd" fill="url(&quot;#b&quot;)" data-name="Path 102"/></g><defs><linearGradient x1="0" y1=".5" x2="1" y2=".5" id="a"><stop stop-color="#e90010" offset="0"/><stop stop-color="#6c7500" offset="0"/><stop stop-color="#b2c300" offset="1"/></linearGradient><linearGradient x1="0" y1=".5" x2="1" y2=".5" id="b"><stop stop-color="#e90010" offset="0"/><stop stop-color="#6c7500" offset="0"/><stop stop-color="#b2c300" offset="1"/></linearGradient></defs></svg>