<svg xmlns="http://www.w3.org/2000/svg" xmlns:xlink="http://www.w3.org/1999/xlink" width="28.599" height="30.335" viewBox="0 0 28.599 30.335">
  <defs>
    <linearGradient id="linear-gradient" y1="0.5" x2="1" y2="0.5" gradientUnits="objectBoundingBox">
      <stop offset="0" stop-color="#d61c24"/>
      <stop offset="0" stop-color="#6e7417"/>
      <stop offset="1" stop-color="#b6c227"/>
    </linearGradient>
    <linearGradient id="linear-gradient-2" x1="0" y1="0.5" x2="1" y2="0.5" xlink:href="#linear-gradient"/>
    <linearGradient id="linear-gradient-3" x1="0" y1="0.5" x2="1" y2="0.5" xlink:href="#linear-gradient"/>
    <linearGradient id="linear-gradient-4" x1="0" y1="0.5" x2="1" y2="0.5" xlink:href="#linear-gradient"/>
  </defs>
  <g id="Group_21058" data-name="Group 21058" transform="translate(-532.652 -2451.891)">
    <path id="Path_76" data-name="Path 76" d="M265.964,2020.283a11.534,11.534,0,1,0-11.555,11.531A11.542,11.542,0,0,0,265.964,2020.283Z" transform="translate(292 450.412)" fill="#030303"/>
    <path id="Path_77" data-name="Path 77" d="M269.251,2008.115c-.005.148-.106.221-.237.278-.338.148-.669.31-1.009.451a.566.566,0,0,0-.359.382c-.125.4-.278.791-.419,1.186-.042.119-.086.245-.236.246s-.2-.129-.239-.245c-.142-.394-.29-.787-.416-1.187a.573.573,0,0,0-.358-.384c-.34-.143-.672-.3-1.009-.449-.132-.058-.236-.126-.231-.288s.113-.206.228-.258c.309-.137.612-.288.927-.408a.718.718,0,0,0,.475-.51c.108-.372.252-.735.384-1.1.042-.115.083-.245.239-.242s.2.126.237.245c.133.376.278.748.4,1.129a.634.634,0,0,0,.41.45c.335.127.656.288.982.435A.329.329,0,0,1,269.251,2008.115Z" transform="translate(292 450.412)" fill="url(#linear-gradient)"/>
    <path id="Path_78" data-name="Path 78" d="M247.825,2001.479a.482.482,0,0,1,.1.091.524.524,0,0,1,.068.17,1.623,1.623,0,0,0,1.277,1.414.218.218,0,0,1,.2.207c0,.129-.091.172-.186.216a.4.4,0,0,1-.056.024,1.559,1.559,0,0,0-1.217,1.353c-.022.117-.038.294-.221.286-.159-.007-.151-.17-.2-.276a.079.079,0,0,1-.013-.028,1.535,1.535,0,0,0-1.221-1.348c-.108-.028-.22-.073-.224-.217s.109-.2.215-.224a1.605,1.605,0,0,0,1.254-1.4C247.621,2001.633,247.65,2001.5,247.825,2001.479Z" transform="translate(292 450.412)" fill="url(#linear-gradient-2)"/>
    <path id="Path_79" data-name="Path 79" d="M242.887,2008.042a1.121,1.121,0,0,1-1.107,1.128,1.121,1.121,0,1,1-.014-2.241A1.117,1.117,0,0,1,242.887,2008.042Z" transform="translate(292 450.412)" fill="url(#linear-gradient-3)"/>
    <path id="Path_80" data-name="Path 80" d="M262.762,2004.586a.739.739,0,0,1-.724-.789.749.749,0,1,1,.724.789Z" transform="translate(292 450.412)" fill="url(#linear-gradient-4)"/>
    <path id="Path_81" data-name="Path 81" d="M265.964,2020.283a11.534,11.534,0,1,1-11.515-11.531A11.558,11.558,0,0,1,265.964,2020.283Zm-11.515-.392h-7.955c-.795,0-.946.158-.926.964a7.568,7.568,0,0,0,.121,1.163,8.867,8.867,0,0,0,17.6-1.247c.019-.693-.163-.88-.857-.88Zm-8.2-3.231a.623.623,0,0,0,.763.735c.3-.071.449-.294.474-.7a1.726,1.726,0,0,1,3.449.087.619.619,0,1,0,1.234-.052,3.343,3.343,0,0,0-.055-.488,2.96,2.96,0,0,0-5.865.42Zm16.353,0a2.964,2.964,0,0,0-5.923.06.619.619,0,0,0,.8.662.645.645,0,0,0,.441-.664,1.723,1.723,0,0,1,3.442,0c.028.448.273.708.654.692S262.618,2017.119,262.606,2016.664Z" transform="translate(292 450.412)" fill="url(#linear-gradient)"/>
    <path id="Path_82" data-name="Path 82" d="M254.449,2019.891h7.986c.694,0,.876.187.857.88a8.867,8.867,0,0,1-17.6,1.247,7.568,7.568,0,0,1-.121-1.163c-.02-.806.131-.964.926-.964h7.955Zm5.635,5.787a1.429,1.429,0,0,1,.1-.164,7.684,7.684,0,0,0,1.837-4.19c.024-.2-.076-.188-.207-.188h-14.77a.154.154,0,0,1-.03,0c-.171-.022-.2.049-.18.211a7.724,7.724,0,0,0,.48,1.936,7.33,7.33,0,0,0,1.477,2.357C251.377,2022.152,257.524,2022.186,260.084,2025.678Zm-5.517,2.459a7.531,7.531,0,0,0,4.351-1.451c.206-.145.2-.243.058-.422a4.453,4.453,0,0,0-1.233-1.1,6.478,6.478,0,0,0-4.9-.7,5.066,5.066,0,0,0-2.943,1.776c-.158.2-.173.3.062.468A7.778,7.778,0,0,0,254.567,2028.137Z" transform="translate(292 450.412)" fill="#fff"/>
    <path id="Path_83" data-name="Path 83" d="M246.253,2016.66a2.96,2.96,0,0,1,5.865-.42,3.343,3.343,0,0,1,.055.488.619.619,0,1,1-1.234.052,1.726,1.726,0,0,0-3.449-.087c-.025.408-.177.631-.474.7A.623.623,0,0,1,246.253,2016.66Z" transform="translate(292 450.412)" fill="#fff"/>
    <path id="Path_84" data-name="Path 84" d="M262.606,2016.664c.012.455-.2.733-.583.749s-.626-.244-.654-.692a1.723,1.723,0,0,0-3.442,0,.645.645,0,0,1-.441.664.619.619,0,0,1-.8-.662,2.964,2.964,0,0,1,5.923-.06Z" transform="translate(292 450.412)" fill="#fff"/>
    <path id="Path_85" data-name="Path 85" d="M260.084,2025.678c-2.56-3.492-8.707-3.526-11.289-.038a7.33,7.33,0,0,1-1.477-2.357,7.724,7.724,0,0,1-.48-1.936c-.02-.162.009-.233.18-.211a.154.154,0,0,0,.03,0h14.77c.131,0,.231-.014.207.188a7.684,7.684,0,0,1-1.837,4.19A1.429,1.429,0,0,0,260.084,2025.678Z" transform="translate(292 450.412)" fill="url(#linear-gradient)"/>
    <path id="Path_86" data-name="Path 86" d="M254.567,2028.137a7.778,7.778,0,0,1-4.6-1.432c-.235-.164-.22-.271-.062-.468a5.066,5.066,0,0,1,2.943-1.776,6.478,6.478,0,0,1,4.9.7,4.453,4.453,0,0,1,1.233,1.1c.141.179.148.277-.058.422A7.531,7.531,0,0,1,254.567,2028.137Z" transform="translate(292 450.412)" fill="url(#linear-gradient)"/>
  </g>
</svg>
