<svg xmlns="http://www.w3.org/2000/svg" xmlns:xlink="http://www.w3.org/1999/xlink" width="21.995" height="26.61" viewBox="0 0 21.995 26.61">
  <defs>
    <linearGradient id="linear-gradient" y1="0.5" x2="1" y2="0.5" gradientUnits="objectBoundingBox">
      <stop offset="0" stop-color="#d61c24"/>
      <stop offset="0" stop-color="#6e7417"/>
      <stop offset="1" stop-color="#b6c227"/>
    </linearGradient>
    <linearGradient id="linear-gradient-5" x1="0" y1="0.5" x2="1" y2="0.5" xlink:href="#linear-gradient"/>
    <linearGradient id="linear-gradient-6" x1="0" y1="0.5" x2="1" y2="0.5" xlink:href="#linear-gradient"/>
    <linearGradient id="linear-gradient-8" x1="0" y1="0.5" x2="1" y2="0.5" xlink:href="#linear-gradient"/>
    <linearGradient id="linear-gradient-9" x1="0" y1="0.5" x2="1" y2="0.5" xlink:href="#linear-gradient"/>
    <linearGradient id="linear-gradient-10" x1="0.001" y1="0.5" x2="1" y2="0.5" xlink:href="#linear-gradient"/>
  </defs>
  <g id="Group_26" data-name="Group 26" transform="translate(-320.194 -2000.229)">
    <path id="Path_87" data-name="Path 87" d="M331.03,2026.839H320.194a.7.7,0,0,0,.273-.428c.189-1.65.395-3.3.58-4.948a2.818,2.818,0,0,1,2.032-2.438c.839-.242,1.682-.469,2.52-.713a.257.257,0,0,1,.341.129c.731,1.111,1.471,2.215,2.208,3.322.291.437.485.468.882.139.434-.359.865-.721,1.3-1.08.132-.11.265-.219.434-.358,0,.978,0,1.9,0,2.815,0,.339.155.539.417.547s.441-.2.441-.551c0-.849,0-1.7,0-2.547,0-.073-.04-.159.044-.229q.846.7,1.688,1.405c.384.32.588.293.865-.123q1.115-1.67,2.227-3.342c.069-.1.111-.193.285-.142.888.265,1.792.479,2.671.769a2.683,2.683,0,0,1,1.924,2.371c.205,1.621.393,3.245.575,4.869a.726.726,0,0,0,.287.533H331.352a.637.637,0,0,0,.273-.614c-.019-.346,0-.694-.005-1.042a.436.436,0,0,0-.416-.489c-.261-.008-.438.183-.441.49,0,.347.013.7-.006,1.041A.637.637,0,0,0,331.03,2026.839Z" fill="url(#linear-gradient)"/>
    <path id="Path_88" data-name="Path 88" d="M335.375,2011.623a4.154,4.154,0,0,1-.936,1.61,7.358,7.358,0,0,1-2.537,1.841,1.587,1.587,0,0,1-1.344.022,7.048,7.048,0,0,1-3.107-2.5,3.136,3.136,0,0,1-.556-1.866c.018-1.037.006-2.074,0-3.111a2.794,2.794,0,0,1,.1-.74,1.271,1.271,0,0,1,1.675-1.053,3.774,3.774,0,0,1,.934.316,3.429,3.429,0,0,0,3.168,0,3.525,3.525,0,0,1,1.279-.359,1.105,1.105,0,0,1,1.11.548,2.266,2.266,0,0,1,.319,1.2c.008.974,0,1.948.007,2.922a.254.254,0,0,1-.2.286c-.545.193-1.088.4-1.628.6a.273.273,0,0,1-.331-.045,1.245,1.245,0,0,0-1.58-.092,1.279,1.279,0,1,0,2,1.2.283.283,0,0,1,.225-.272C334.426,2011.98,334.873,2011.81,335.375,2011.623Z" fill="url(#linear-gradient)"/>
    <path id="Path_89" data-name="Path 89" d="M336.113,2006.195a2.2,2.2,0,0,0-2.755-1.169,3.905,3.905,0,0,0-.879.314,2.676,2.676,0,0,1-2.565,0,4.1,4.1,0,0,0-1.621-.421,1.98,1.98,0,0,0-1.975,1.278,3.151,3.151,0,0,0-.224.768c-.01.064-.011.134-.1.125s-.06-.1-.058-.147a7.607,7.607,0,0,1,.673-3.088,3.849,3.849,0,0,1,2.591-2.111,7.2,7.2,0,0,1,3.735,0,4.067,4.067,0,0,1,2.972,3.138A5.182,5.182,0,0,1,336.113,2006.195Z" fill="url(#linear-gradient)"/>
    <path id="Path_90" data-name="Path 90" d="M331.2,2000.229a8.129,8.129,0,0,1,3.714.765,5.091,5.091,0,0,1,2.712,3.885,9.463,9.463,0,0,1,.117,1.975c-.006.2-.062.256-.261.249-.424-.015-.418,0-.441-.418a7.882,7.882,0,0,0-.923-3.567,4.723,4.723,0,0,0-3.538-2.333,8,8,0,0,0-4.2.319,4.823,4.823,0,0,0-2.983,3.532,10.105,10.105,0,0,0-.32,2.275c0,.124-.013.214-.17.187-.107-.018-.254.064-.264-.155a7.034,7.034,0,0,1,.959-4.288,5.192,5.192,0,0,1,3.414-2.206A9.809,9.809,0,0,1,331.2,2000.229Z" fill="url(#linear-gradient)"/>
    <path id="Path_91" data-name="Path 91" d="M329.046,2015.262a3.308,3.308,0,0,0,4.29,0c0,.524,0,.99,0,1.456,0,.1-.073.139-.127.193-.623.626-1.252,1.247-1.871,1.877-.114.116-.173.125-.292,0-.625-.637-1.259-1.264-1.89-1.9a.265.265,0,0,1-.114-.2C329.048,2016.24,329.046,2015.781,329.046,2015.262Z" fill="url(#linear-gradient-5)"/>
    <path id="Path_92" data-name="Path 92" d="M335.666,2018.005a.4.4,0,0,1-.11.223c-.582.877-1.17,1.75-1.743,2.632-.116.179-.183.166-.331.039-.54-.467-1.093-.918-1.659-1.391.653-.649,1.3-1.29,1.944-1.933a.176.176,0,0,1,.189-.059Z" fill="url(#linear-gradient-6)"/>
    <path id="Path_93" data-name="Path 93" d="M326.682,2018.013c.591-.164,1.141-.313,1.688-.472a.22.22,0,0,1,.261.046c.635.64,1.275,1.275,1.926,1.924-.593.5-1.173.98-1.753,1.466-.066.055-.107.062-.163-.023C328,2019.982,327.348,2019.012,326.682,2018.013Z" fill="url(#linear-gradient)"/>
    <path id="Path_94" data-name="Path 94" d="M326.041,2009.251c0,.366,0,.731,0,1.1,0,.126-.013.19-.169.186-.481-.011-.963,0-1.445-.006a.507.507,0,0,1-.532-.544c-.006-.5-.007-1,0-1.5a.5.5,0,0,1,.52-.527c.49-.009.981,0,1.472-.007.144,0,.154.06.153.175C326.037,2008.5,326.041,2008.876,326.041,2009.251Z" fill="url(#linear-gradient-8)"/>
    <path id="Path_95" data-name="Path 95" d="M336.341,2009.216c0-.366.006-.732,0-1.1,0-.127.031-.168.162-.166.49.008.981,0,1.471.006a.5.5,0,0,1,.511.509q.015.775,0,1.552a.489.489,0,0,1-.485.505c-.508.013-1.017,0-1.525.008-.139,0-.133-.072-.132-.167C336.343,2009.983,336.341,2009.6,336.341,2009.216Z" fill="url(#linear-gradient-9)"/>
    <path id="Path_96" data-name="Path 96" d="M332.907,2012.243a.429.429,0,1,1-.427-.424A.431.431,0,0,1,332.907,2012.243Z" fill="url(#linear-gradient-10)"/>
  </g>
</svg>
