<svg xmlns="http://www.w3.org/2000/svg" xmlns:xlink="http://www.w3.org/1999/xlink" width="34.001" height="24.441" viewBox="0 0 34.001 24.441">
  <defs>
    <linearGradient id="linear-gradient" y1="0.5" x2="1" y2="0.5" gradientUnits="objectBoundingBox">
      <stop offset="0" stop-color="#d61c24"/>
      <stop offset="0" stop-color="#6e7417"/>
      <stop offset="1" stop-color="#b6c227"/>
    </linearGradient>
    <linearGradient id="linear-gradient-2" x1="0" y1="0.5" x2="1" y2="0.5" xlink:href="#linear-gradient"/>
    <linearGradient id="linear-gradient-3" x1="0" y1="0.5" x2="1" y2="0.5" xlink:href="#linear-gradient"/>
    <linearGradient id="linear-gradient-4" x1="0" y1="0.5" x2="1" y2="0.5" xlink:href="#linear-gradient"/>
    <linearGradient id="linear-gradient-7" x1="0" y1="0.5" x2="1" y2="0.5" xlink:href="#linear-gradient"/>
    <linearGradient id="linear-gradient-9" x1="-1.498" y1="-2.747" x2="0.637" y2="0.724" xlink:href="#linear-gradient"/>
    <linearGradient id="linear-gradient-10" x1="-0.929" y1="-1.822" x2="1.207" y2="1.65" xlink:href="#linear-gradient"/>
    <linearGradient id="linear-gradient-11" x1="-0.559" y1="-1.222" x2="1.577" y2="2.251" xlink:href="#linear-gradient"/>
    <linearGradient id="linear-gradient-12" x1="0.011" y1="-0.296" x2="2.146" y2="3.177" xlink:href="#linear-gradient"/>
    <linearGradient id="linear-gradient-13" x1="-0.459" y1="-1.069" x2="1.676" y2="2.427" xlink:href="#linear-gradient"/>
    <linearGradient id="linear-gradient-14" x1="-1.029" y1="-2.002" x2="1.107" y2="1.494" xlink:href="#linear-gradient"/>
  </defs>
  <g id="Group_41" data-name="Group 41" transform="translate(-276.118 -2089.976)">
    <path id="Path_119" data-name="Path 119" d="M286.287,2102.172q0,4.822-.006,9.646c0,.251.045.341.322.336q1.736-.026,3.472,0c.3,0,.36-.1.356-.376-.014-1.275-.008-2.549-.005-3.823,0-.468.162-.626.634-.626q2.034,0,4.069,0c.51,0,.659.151.66.67,0,1.286.007,2.572-.005,3.858,0,.235.067.3.3.294,1.158-.011,2.315-.017,3.473,0,.307,0,.385-.069.384-.382q-.015-9.575,0-19.151c0-.307-.07-.381-.379-.38q-6.418.018-12.838,0c-.335,0-.445.054-.443.425C286.294,2095.835,286.287,2099,286.287,2102.172Zm-.983,2.773c0-2.3,0-4.607.005-6.91,0-.233-.041-.321-.3-.319q-3.033.016-6.068,0c-.236,0-.286.07-.286.294q.011,6.927,0,13.854c0,.241.078.288.3.287,2.011-.007,4.022-.01,6.033,0,.269,0,.327-.077.326-.335C285.3,2109.528,285.3,2107.236,285.3,2104.945Zm15.606-.037c0,2.3,0,4.607-.006,6.911,0,.256.055.337.325.335q3-.018,6,0c.251,0,.336-.047.335-.321q-.014-6.892,0-13.786c0-.254-.05-.333-.321-.331q-3,.019-6,0c-.291,0-.339.092-.338.354C300.914,2100.348,300.91,2102.628,300.91,2104.908Zm-7.8,9.5h16.552c.094,0,.188,0,.281,0s.13-.044.145-.143c.127-.79-.148-1.12-.943-1.12H277.024c-.714,0-.875.18-.9.882-.015.339.105.387.4.387Q284.818,2114.4,293.111,2114.41Zm0-23.143q4,0,8,0c.277,0,.654.124.8-.055s.029-.533.057-.809c.032-.307-.053-.406-.387-.4q-8.206.018-16.413.01c-.29,0-.678-.1-.843.052-.194.174-.033.572-.068.87-.031.266.051.348.334.346C287.426,2091.263,290.267,2091.267,293.108,2091.267Zm1.7,18.957c0-.561-.007-1.122,0-1.682,0-.183-.047-.236-.232-.234q-1.472.013-2.943,0c-.186,0-.234.051-.232.234q.012,1.682,0,3.363c0,.215.083.247.268.245.957-.007,1.915-.01,2.873,0,.227,0,.272-.076.267-.282C294.8,2111.322,294.807,2110.772,294.807,2110.224Zm-13.523-14.747c-1.027,0-2.055-.005-3.083,0-.31,0-.736-.14-.9.063s-.032.6-.056.915c-.018.229.056.288.285.287q3.732-.012,7.463,0c.234,0,.342-.043.315-.3a3.286,3.286,0,0,1,0-.665c.024-.25-.068-.31-.311-.307C283.76,2095.484,282.522,2095.477,281.284,2095.477Zm23.644,0c-1.04,0-2.079,0-3.119,0-.288,0-.661-.127-.842.054s-.018.557-.062.842c-.05.334.1.372.388.37,2.23-.011,4.461-.005,6.692-.007.314,0,.735.111.912-.048.206-.184.035-.615.07-.935.027-.239-.069-.285-.29-.284C307.427,2095.483,306.177,2095.477,304.928,2095.477Z" fill="#030303"/>
    <path id="Path_120" data-name="Path 120" d="M286.287,2102.172c0-3.168.007-6.337-.011-9.505,0-.371.108-.426.443-.425q6.418.018,12.838,0c.309,0,.38.073.379.38q-.015,9.576,0,19.151c0,.313-.077.387-.384.382-1.158-.02-2.315-.014-3.473,0-.228,0-.3-.059-.3-.294.012-1.286.007-2.572.005-3.858,0-.519-.15-.67-.66-.67q-2.035,0-4.069,0c-.472,0-.633.158-.634.626,0,1.274-.009,2.548.005,3.823,0,.279-.052.381-.356.376q-1.736-.029-3.472,0c-.277,0-.322-.085-.322-.336Q286.295,2106.994,286.287,2102.172Zm9.944,3.895c.608,0,1.216,0,1.824,0,.442,0,.607-.168.609-.617q.006-1.069,0-2.14c0-.406-.167-.587-.57-.59q-1.858-.012-3.718,0c-.4,0-.571.184-.574.587q-.006,1.07,0,2.14c0,.46.166.618.641.62C295.038,2106.068,295.634,2106.067,296.231,2106.067Zm-6.269,0c.62,0,1.239,0,1.859,0,.421,0,.589-.173.592-.6q.006-1.07,0-2.139c0-.427-.166-.606-.589-.608q-1.841-.012-3.682,0c-.424,0-.589.18-.591.6q-.008,1.071,0,2.14c0,.442.168.6.622.6C288.769,2106.069,289.366,2106.067,289.962,2106.067Zm6.248-9.2c.62,0,1.239,0,1.859,0,.422-.005.591-.177.594-.6,0-.725.005-1.45,0-2.175,0-.4-.179-.57-.584-.571q-1.842-.006-3.683,0c-.422,0-.592.173-.594.6q-.006,1.071,0,2.14c0,.44.171.607.62.61C295.017,2096.866,295.614,2096.862,296.21,2096.862Zm-6.233-3.349c-.608,0-1.216,0-1.824,0-.428,0-.6.169-.6.589-.005.714,0,1.427,0,2.14,0,.446.168.617.612.618q1.826.006,3.649,0c.426,0,.6-.175.6-.593.005-.713,0-1.426,0-2.14,0-.445-.169-.612-.613-.615C291.193,2093.51,290.585,2093.512,289.977,2093.513Zm.007,7.94c.619,0,1.239,0,1.858,0,.408,0,.569-.166.571-.577q.008-1.088,0-2.174c0-.407-.167-.573-.575-.574q-1.859-.007-3.717,0c-.408,0-.567.165-.57.578q-.008,1.087,0,2.174c0,.415.16.57.574.573C288.745,2101.457,289.364,2101.453,289.984,2101.453Zm6.25-3.328c-.619,0-1.239,0-1.858,0-.409,0-.572.166-.575.574q-.006,1.086,0,2.173c0,.412.163.576.57.578q1.858.006,3.717,0c.413,0,.572-.161.575-.573q.008-1.087,0-2.174c0-.412-.164-.575-.571-.578C297.473,2098.121,296.853,2098.125,296.234,2098.125Z" fill="url(#linear-gradient)"/>
    <path id="Path_121" data-name="Path 121" d="M285.3,2104.945c0,2.291,0,4.583.006,6.874,0,.258-.057.337-.326.335-2.011-.012-4.022-.009-6.033,0-.22,0-.3-.046-.3-.287q.012-6.927,0-13.854c0-.224.05-.3.286-.294q3.035.014,6.068,0c.26,0,.3.086.3.319C285.3,2100.338,285.3,2102.641,285.3,2104.945Zm-3.334,3.749c.491,0,.982,0,1.472,0,.373,0,.6-.2.6-.494a.513.513,0,0,0-.575-.486q-1.491-.012-2.98,0a.5.5,0,0,0-.56.5c0,.286.221.476.573.481C280.988,2108.7,281.479,2108.694,281.97,2108.694Zm0-2.183c.491,0,.982.005,1.473,0,.371,0,.6-.2.591-.5s-.224-.479-.579-.482q-1.473-.011-2.945,0c-.371,0-.6.209-.59.5s.229.472.613.475C281.016,2106.515,281.495,2106.512,281.974,2106.511Zm0,3.39c-.491,0-.982,0-1.473,0-.352,0-.57.194-.574.478a.506.506,0,0,0,.559.5q1.49.012,2.98,0a.51.51,0,0,0,.575-.485c.006-.294-.223-.49-.6-.494C282.952,2109.9,282.461,2109.9,281.971,2109.9Zm0-5.571c.491,0,.982,0,1.473,0,.37,0,.6-.2.591-.5s-.224-.481-.576-.483q-1.473-.009-2.946,0c-.368,0-.6.207-.591.5s.225.472.576.477C280.991,2104.335,281.482,2104.33,281.973,2104.33Zm-.006-2.184c.5,0,1.006,0,1.508,0a.495.495,0,1,0-.009-.979q-1.49-.009-2.98,0a.506.506,0,0,0-.561.5c0,.285.224.478.57.482C280.986,2102.15,281.477,2102.146,281.967,2102.146Zm-.012-2.179c.514,0,1.028.006,1.543,0a.49.49,0,1,0,.016-.976q-1.524-.012-3.05,0a.492.492,0,1,0,.018.978C280.973,2099.972,281.464,2099.967,281.955,2099.967Z" fill="url(#linear-gradient-2)"/>
    <path id="Path_122" data-name="Path 122" d="M300.91,2104.908c0-2.28,0-4.56-.006-6.839,0-.262.047-.357.338-.354q3,.021,6,0c.271,0,.322.077.321.331q-.012,6.894,0,13.786c0,.274-.084.322-.335.321q-3-.015-6,0c-.27,0-.326-.079-.325-.335C300.914,2109.515,300.91,2107.212,300.91,2104.908Zm3.323,3.786c.491,0,.982,0,1.473,0,.359-.005.572-.183.584-.47s-.214-.507-.583-.51q-1.473-.012-2.946,0c-.368,0-.6.216-.585.509s.226.466.584.471C303.251,2108.7,303.742,2108.694,304.233,2108.694Zm-.034-2.183c.5,0,1.005.005,1.508,0,.357,0,.572-.185.583-.469s-.216-.508-.584-.511q-1.473-.011-2.945,0c-.368,0-.6.217-.585.511s.23.464.585.469C303.241,2106.516,303.72,2106.511,304.2,2106.511Zm.041,4.374c.491,0,.982.007,1.473,0,.353-.007.569-.2.577-.483s-.217-.495-.59-.5q-1.455-.008-2.91,0c-.381,0-.607.183-.614.476s.229.5.626.506C303.281,2110.889,303.761,2110.885,304.24,2110.885Zm-.047-6.555c.5,0,1.005,0,1.508,0,.371,0,.6-.2.589-.5s-.226-.479-.578-.481q-1.473-.009-2.946,0c-.367,0-.6.21-.59.5s.229.47.579.475C303.234,2104.334,303.714,2104.33,304.193,2104.33Zm.043-2.184c.5,0,1.005,0,1.508,0a.492.492,0,1,0,0-.977q-1.508-.012-3.016,0a.492.492,0,1,0,.005.977C303.231,2102.151,303.733,2102.146,304.236,2102.146Zm-.018-2.179c.5,0,1.005,0,1.508,0a.495.495,0,1,0,0-.979q-1.489-.008-2.981,0a.495.495,0,1,0,0,.979C303.236,2099.971,303.727,2099.967,304.218,2099.967Z" fill="url(#linear-gradient-3)"/>
    <path id="Path_123" data-name="Path 123" d="M293.111,2114.41q-8.293,0-16.587.007c-.3,0-.42-.048-.4-.387.03-.7.191-.882.9-.882h32.122c.8,0,1.07.33.943,1.12-.015.1-.04.148-.145.143s-.187,0-.281,0Z" fill="url(#linear-gradient-4)"/>
    <path id="Path_124" data-name="Path 124" d="M293.108,2091.267c-2.841,0-5.682,0-8.522.007-.283,0-.365-.08-.334-.346.035-.3-.126-.7.068-.87.165-.147.553-.052.843-.052q8.207,0,16.413-.01c.334,0,.419.1.387.4-.028.276.083.641-.057.809s-.525.054-.8.055Q297.106,2091.271,293.108,2091.267Z" fill="url(#linear-gradient)"/>
    <path id="Path_125" data-name="Path 125" d="M294.807,2110.224c0,.548-.008,1.1,0,1.646.005.206-.04.285-.267.282-.958-.012-1.916-.009-2.873,0-.185,0-.27-.03-.268-.245q.015-1.682,0-3.363c0-.183.046-.236.232-.234q1.472.013,2.943,0c.185,0,.236.051.232.234C294.8,2109.1,294.807,2109.663,294.807,2110.224Z" fill="url(#linear-gradient-3)"/>
    <path id="Path_126" data-name="Path 126" d="M281.284,2095.477c1.238,0,2.476.007,3.714-.005.243,0,.335.057.311.307a3.286,3.286,0,0,0,0,.665c.027.258-.081.3-.315.3q-3.73-.012-7.463,0c-.229,0-.3-.058-.285-.287.024-.312-.1-.721.056-.915s.589-.06.9-.063C279.229,2095.472,280.257,2095.477,281.284,2095.477Z" fill="url(#linear-gradient-7)"/>
    <path id="Path_127" data-name="Path 127" d="M304.928,2095.477c1.249,0,2.5.006,3.749-.005.221,0,.317.045.29.284-.035.32.136.751-.07.935-.177.159-.6.048-.912.048-2.231,0-4.462,0-6.692.007-.287,0-.438-.036-.388-.37.044-.285-.119-.661.062-.842s.554-.052.842-.054C302.849,2095.473,303.888,2095.477,304.928,2095.477Z" fill="url(#linear-gradient)"/>
    <path id="Path_128" data-name="Path 128" d="M296.231,2106.067c-.6,0-1.193,0-1.789,0-.475,0-.639-.16-.641-.62q0-1.071,0-2.14c0-.4.17-.584.574-.587q1.859-.012,3.718,0c.4,0,.568.184.57.59q.008,1.071,0,2.14c0,.449-.167.614-.609.617C297.447,2106.069,296.839,2106.067,296.231,2106.067Zm0-.983c.4,0,.794-.015,1.19.006.228.012.274-.07.262-.276-.017-.291-.012-.584,0-.875.006-.174-.037-.247-.231-.245q-1.224.015-2.45,0c-.2,0-.23.082-.224.249.009.3.013.607,0,.91-.009.181.042.242.23.236C295.417,2105.074,295.826,2105.084,296.234,2105.084Z" fill="url(#linear-gradient-9)"/>
    <path id="Path_129" data-name="Path 129" d="M289.962,2106.067c-.6,0-1.193,0-1.789,0-.454,0-.62-.161-.622-.6q-.008-1.069,0-2.14c0-.425.167-.6.591-.6q1.84-.009,3.682,0c.423,0,.587.181.589.608q.006,1.07,0,2.139c0,.426-.171.6-.592.6C291.2,2106.07,290.582,2106.067,289.962,2106.067Zm.015-.983c.42,0,.841-.006,1.261,0,.152,0,.2-.042.2-.2-.011-.326-.011-.654,0-.98.006-.172-.058-.217-.222-.216-.817.007-1.634.009-2.451,0-.19,0-.24.065-.233.243.011.3.017.607,0,.909-.013.213.076.247.26.242C289.184,2105.076,289.581,2105.084,289.977,2105.084Z" fill="url(#linear-gradient-10)"/>
    <path id="Path_130" data-name="Path 130" d="M296.21,2096.862c-.6,0-1.193,0-1.789,0-.449,0-.618-.17-.62-.61q-.006-1.069,0-2.14c0-.424.172-.6.594-.6q1.842-.006,3.683,0c.4,0,.581.174.584.571.006.725.005,1.45,0,2.175,0,.424-.172.6-.594.6C297.449,2096.867,296.83,2096.862,296.21,2096.862Zm.008-.982c.4,0,.793-.011,1.189.005.207.008.295-.04.28-.266a7.271,7.271,0,0,1,0-.874c.01-.2-.051-.258-.251-.255q-1.207.016-2.413,0c-.213,0-.252.075-.243.262.013.291.014.583,0,.874-.01.194.044.267.25.259C295.424,2095.869,295.821,2095.88,296.218,2095.88Z" fill="url(#linear-gradient-11)"/>
    <path id="Path_131" data-name="Path 131" d="M289.977,2093.512c.608,0,1.216,0,1.824,0,.444,0,.611.17.613.615,0,.714,0,1.427,0,2.14,0,.418-.176.591-.6.593q-1.824.006-3.649,0c-.444,0-.609-.172-.612-.618,0-.713,0-1.426,0-2.14,0-.42.174-.587.6-.589C288.761,2093.509,289.369,2093.513,289.977,2093.512Zm.008.983c-.409,0-.817,0-1.225,0-.149,0-.24.015-.232.2.013.326.012.653,0,.979-.006.177.07.211.228.21.816-.006,1.633-.009,2.449,0,.192,0,.237-.067.23-.243-.012-.3-.017-.607,0-.909.013-.213-.078-.247-.262-.242C290.778,2094.5,290.381,2094.5,289.985,2094.5Z" fill="url(#linear-gradient-12)"/>
    <path id="Path_132" data-name="Path 132" d="M289.984,2101.453c-.62,0-1.239,0-1.859,0-.414,0-.571-.158-.574-.573q-.008-1.087,0-2.174c0-.413.162-.577.57-.578q1.858-.007,3.717,0c.408,0,.573.167.575.574q.008,1.086,0,2.174c0,.411-.163.573-.571.577C291.223,2101.457,290.6,2101.453,289.984,2101.453Zm-.035-.983c.4,0,.794-.018,1.189.006.259.016.316-.078.3-.313a5.835,5.835,0,0,1,0-.8c.011-.194-.044-.261-.248-.256-.524.015-1.049,0-1.574.006-.347,0-.831-.122-1.008.056-.225.225-.046.7-.075,1.072-.014.178.041.244.23.237C289.156,2100.46,289.553,2100.47,289.949,2100.47Z" fill="url(#linear-gradient-13)"/>
    <path id="Path_133" data-name="Path 133" d="M296.234,2098.125c.619,0,1.239,0,1.858,0,.407,0,.568.166.571.578q.008,1.087,0,2.174c0,.412-.162.572-.575.573q-1.859.006-3.717,0c-.407,0-.567-.166-.57-.578q-.006-1.086,0-2.173c0-.408.166-.571.575-.574C294.995,2098.121,295.615,2098.125,296.234,2098.125Zm-.01,2.345c.408,0,.816-.008,1.224,0,.18,0,.247-.042.237-.231a8.9,8.9,0,0,1,0-.909c.01-.192-.06-.233-.238-.23-.525.011-1.05,0-1.574.007-.357.008-.846-.158-1.033.068s-.05.688-.056,1.048c0,.011,0,.023,0,.034-.027.173.053.217.216.212C295.407,2100.463,295.815,2100.47,296.224,2100.47Z" fill="url(#linear-gradient-14)"/>
    <path id="Path_134" data-name="Path 134" d="M281.97,2108.694c-.491,0-.982.006-1.473,0-.352-.005-.569-.2-.573-.481a.5.5,0,0,1,.56-.5q1.489-.015,2.98,0a.513.513,0,0,1,.575.486c.005.294-.224.49-.6.494C282.952,2108.7,282.461,2108.694,281.97,2108.694Z" fill="#e9e9e9"/>
    <path id="Path_135" data-name="Path 135" d="M281.974,2106.511c-.479,0-.958,0-1.437,0-.384,0-.606-.18-.613-.475s.219-.5.59-.5q1.471-.011,2.945,0c.355,0,.57.2.579.482s-.22.494-.591.5C282.956,2106.516,282.465,2106.511,281.974,2106.511Z" fill="#e9e9e9"/>
    <path id="Path_136" data-name="Path 136" d="M281.971,2109.9c.49,0,.981,0,1.472,0,.372,0,.6.2.6.494a.51.51,0,0,1-.575.485q-1.491.012-2.98,0a.506.506,0,0,1-.559-.5c0-.284.222-.473.574-.478C280.989,2109.9,281.48,2109.9,281.971,2109.9Z" fill="#e9e9e9"/>
    <path id="Path_137" data-name="Path 137" d="M281.973,2104.33c-.491,0-.982,0-1.473,0-.351-.005-.57-.193-.576-.477s.223-.5.591-.5q1.473-.008,2.946,0c.352,0,.569.2.576.483s-.221.493-.591.5C282.955,2104.334,282.464,2104.33,281.973,2104.33Z" fill="#e9e9e9"/>
    <path id="Path_138" data-name="Path 138" d="M281.967,2102.146c-.49,0-.981,0-1.472,0-.346,0-.568-.2-.57-.482a.506.506,0,0,1,.561-.5q1.49-.011,2.98,0a.495.495,0,1,1,.009.979C282.973,2102.15,282.47,2102.146,281.967,2102.146Z" fill="#e9e9e9"/>
    <path id="Path_139" data-name="Path 139" d="M281.955,2099.967c-.491,0-.982,0-1.473,0a.492.492,0,1,1-.018-.978q1.525-.011,3.05,0a.49.49,0,1,1-.016.976C282.983,2099.973,282.469,2099.967,281.955,2099.967Z" fill="#e9e9e9"/>
    <path id="Path_140" data-name="Path 140" d="M304.233,2108.694c-.491,0-.982,0-1.473,0-.358-.005-.572-.184-.584-.471s.217-.506.585-.509q1.473-.012,2.946,0c.369,0,.6.216.583.51s-.225.465-.584.47C305.215,2108.7,304.724,2108.694,304.233,2108.694Z" fill="#e9e9e9"/>
    <path id="Path_141" data-name="Path 141" d="M304.2,2106.511c-.479,0-.958.005-1.438,0-.355-.005-.573-.185-.585-.469s.217-.508.585-.511q1.472-.011,2.945,0c.368,0,.6.215.584.511s-.226.465-.583.469C305.2,2106.516,304.7,2106.511,304.2,2106.511Z" fill="#e9e9e9"/>
    <path id="Path_142" data-name="Path 142" d="M304.24,2110.885c-.479,0-.959,0-1.438,0-.4-.005-.634-.2-.626-.506s.233-.474.614-.476q1.455,0,2.91,0c.373,0,.6.2.59.5s-.224.476-.577.483C305.222,2110.892,304.731,2110.885,304.24,2110.885Z" fill="#e9e9e9"/>
    <path id="Path_143" data-name="Path 143" d="M304.193,2104.33c-.479,0-.959,0-1.438,0-.35-.005-.572-.193-.579-.475s.223-.5.59-.5q1.473-.008,2.946,0c.352,0,.569.195.578.481s-.218.495-.589.5C305.2,2104.334,304.7,2104.33,304.193,2104.33Z" fill="#e9e9e9"/>
    <path id="Path_144" data-name="Path 144" d="M304.236,2102.146c-.5,0-1.005,0-1.508,0a.492.492,0,1,1-.005-.977q1.509-.012,3.016,0a.492.492,0,1,1,0,.977C305.241,2102.151,304.739,2102.146,304.236,2102.146Z" fill="#e9e9e9"/>
    <path id="Path_145" data-name="Path 145" d="M304.218,2099.967c-.491,0-.982,0-1.473,0a.495.495,0,1,1,0-.979q1.491-.008,2.981,0a.495.495,0,1,1,0,.979C305.223,2099.972,304.72,2099.967,304.218,2099.967Z" fill="#e9e9e9"/>
    <path id="Path_146" data-name="Path 146" d="M296.234,2105.084c-.408,0-.817-.01-1.225.005-.188.006-.239-.055-.23-.236.014-.3.01-.607,0-.91-.006-.167.024-.252.224-.249q1.226.015,2.45,0c.194,0,.237.071.231.245-.011.291-.016.584,0,.875.012.206-.034.288-.262.276C297.028,2105.069,296.631,2105.084,296.234,2105.084Z" fill="#e9e9e9"/>
    <path id="Path_147" data-name="Path 147" d="M289.977,2105.084c-.4,0-.793-.008-1.19,0-.184.005-.273-.029-.26-.242.019-.3.013-.606,0-.909-.007-.178.043-.245.233-.243.817.01,1.634.008,2.451,0,.164,0,.228.044.222.216-.011.326-.011.654,0,.98.005.154-.045.2-.2.2C290.818,2105.078,290.4,2105.084,289.977,2105.084Z" fill="#e9e9e9"/>
    <path id="Path_148" data-name="Path 148" d="M296.218,2095.88c-.4,0-.794-.011-1.189.005-.206.008-.26-.065-.25-.259.014-.291.013-.583,0-.874-.009-.187.03-.266.243-.262q1.206.018,2.413,0c.2,0,.261.058.251.255a7.271,7.271,0,0,0,0,.874c.015.226-.073.274-.28.266C297.011,2095.869,296.614,2095.88,296.218,2095.88Z" fill="#e8e8e8"/>
    <path id="Path_149" data-name="Path 149" d="M289.985,2094.5c.4,0,.793.008,1.189,0,.184,0,.275.029.262.242-.018.3-.013.607,0,.909.007.176-.038.245-.23.243-.816-.011-1.633-.008-2.449,0-.158,0-.234-.033-.228-.21.012-.326.013-.653,0-.979-.008-.187.083-.2.232-.2C289.168,2094.5,289.576,2094.5,289.985,2094.5Z" fill="#e8e8e8"/>
    <path id="Path_150" data-name="Path 150" d="M289.949,2100.47c-.4,0-.793-.01-1.189,0-.189.007-.244-.059-.23-.237.029-.368-.15-.847.075-1.072.177-.178.661-.053,1.008-.056.525,0,1.05.009,1.574-.006.2-.005.259.062.248.256a5.835,5.835,0,0,0,0,.8c.018.235-.039.329-.3.313C290.743,2100.452,290.346,2100.47,289.949,2100.47Z" fill="#ededed"/>
    <path id="Path_151" data-name="Path 151" d="M296.224,2100.47c-.409,0-.817-.007-1.225,0-.163.005-.243-.039-.216-.212,0-.011,0-.023,0-.034.006-.36-.123-.831.056-1.048s.676-.06,1.033-.068c.524-.011,1.049,0,1.574-.007.178,0,.248.038.238.23a8.9,8.9,0,0,0,0,.909c.01.189-.057.236-.237.231C297.04,2100.462,296.632,2100.47,296.224,2100.47Z" fill="#ededed"/>
  </g>
</svg>
