<svg xmlns="http://www.w3.org/2000/svg" width="72.435" height="100.916" viewBox="267.203 1914.383 72.435 100.916"><g data-name="Group 31"><path d="M323.183 1997.334c-.361 3.492-1.348 6.79-3.515 9.656-.987 1.613-2.239 2.985-3.804 4.045-1.06.987-2.264 1.757-3.636 2.239-1.3.795-2.769 1.204-4.262 1.493a16.59 16.59 0 0 1-5.442.481c-2.118-.072-4.165-.385-6.115-1.204-2.288-.722-4.31-1.878-6.068-3.515-2.865-2.287-4.695-5.297-5.731-8.764-2.335-7.681-.891-14.471 4.864-20.226.241-.265.554-.482.843-.722 1.493-1.469 3.274-2.528 5.201-3.323 1.42-.746 2.913-1.228 4.502-1.396 1.638-.482 3.299-.506 4.984-.338 1.878.121 3.708.434 5.418 1.277a15.32 15.32 0 0 1 5.442 3.106c1.541 1.107 2.793 2.48 3.804 4.093 2.841 3.901 3.997 8.307 3.515 13.098Z" fill-rule="evenodd" fill="url(&quot;#a&quot;)" data-name="Path 77"/><path d="M307.46 1972.245c-.144.29-.457.193-.698.144-1.782-.313-3.588-.361-5.369-.24-1.349.24-2.697.457-4.021.698-1.782.578-3.564 1.18-5.177 2.143-.385.217-.65.241-1.011-.072-.482-.458-1.036-.843-1.565-1.252-1.301-.626-2.625-1.252-4.021-1.614-.458-.024-.795.049-.747.65.024.699 0 1.397 0 2.119 0 .867-.168 1.638-1.011 2.047-.843.409-1.613.169-2.288-.385-.24-.217-.505-.434-.746-.65-1.782-1.349-3.588-2.673-5.369-3.997-2.456-1.83-4.912-3.66-7.344-5.514-1.084-.795-1.204-2.095-.217-2.865 2.48-1.926 5.032-3.756 7.537-5.635 1.757-1.42 3.539-2.793 5.417-4.045.313-.265.602-.554.939-.794 1.445-.988 2.914-.313 3.058 1.396.072.891.048 1.806.024 2.697-.048.578.193.819.747.843 1.541.072 3.058.288 4.526.794a22.33 22.33 0 0 1 7.2 3.01c1.589.819 3.009 1.878 4.285 3.13 2.336 1.902 4.142 4.238 5.659 6.79.096.169.313.361.192.602Z" fill-rule="evenodd" fill="url(&quot;#b&quot;)" data-name="Path 78"/><path d="M314.443 1931.577c-1.108.121-2.239.096-3.347.121.434 2.095-.289 3.491-2.432 4.045-.241.072-.457.192-.698.313a42.7 42.7 0 0 0-7.007 5.44 561.11 561.11 0 0 1-3.587 4.48c-.386.53-.65 1.204-1.18 1.661-.145-.048-.265-.072-.385-.12-.025-4.912-.073-9.824-.025-14.736 0-.915-.192-1.324-1.155-1.204-.747.072-1.517.048-2.264 0-1.468-.12-2.287-1.637-1.372-2.793 1.902-2.432 3.756-4.936 5.851-7.223 1.035-1.493 2.215-2.865 3.395-4.238.554-.722 1.108-1.493 1.734-2.191.866-.987 2.07-1.011 2.913 0 1.156 1.348 2.239 2.793 3.347 4.214 1.18 1.3 2.263 2.672 3.299 4.093 1.42 1.734 2.889 3.443 4.237 5.201.987 1.276.289 2.793-1.324 2.937Z" fill-rule="evenodd" fill="url(&quot;#c&quot;)" data-name="Path 79"/><path d="M338.497 1944.266c-1.662 1.252-3.371 2.48-5.056 3.732-2.408 1.806-4.792 3.588-7.2 5.394-.915.82-1.806 1.854-3.202 1.228-1.3-.626-1.011-1.95-1.06-3.082-.024-.602-.024-1.18-.024-1.782-2.6.36-4.791 1.589-6.79 3.227a15.294 15.294 0 0 0-3.78 6.501c-.578 3.708-.12 7.464-.337 11.485-1.445-2.697-3.154-4.888-4.984-6.983a324.727 324.727 0 0 0-4.31-3.804c-1.541-.939-2.986-1.999-4.647-2.745-.458-.192-.602-.53-.482-.987 1.084-3.564 2.48-6.958 4.912-9.872 1.276-1.806 2.769-3.395 4.551-4.695 1.445-1.276 3.01-2.36 4.767-3.155 1.252-.818 2.673-1.3 4.07-1.757 2.263-.819 4.574-1.324 6.982-1.397.193-.939.072-1.854.072-2.793.024-.963.097-1.878 1.108-2.383.987-.506 1.709.072 2.432.625.168.145.313.314.481.458 2.48 1.854 4.985 3.732 7.465 5.586 1.685 1.252 3.395 2.48 5.056 3.732 1.493 1.156 1.493 2.336-.024 3.467Z" fill-rule="evenodd" fill="url(&quot;#d&quot;)" data-name="Path 80"/><path d="M296.192 1947.637c.048.361-.096.627-.361.867-.121-.337-.073-.65-.024-.987.12.048.24.072.385.12Z" fill-rule="evenodd" fill="url(&quot;#e&quot;)" data-name="Path 81"/></g><defs><linearGradient x1="0" y1=".5" x2="1" y2=".5" id="a"><stop stop-color="#e90010" offset="0"/><stop stop-color="#6c7500" offset="0"/><stop stop-color="#b2c300" offset="1"/></linearGradient><linearGradient x1="0" y1=".5" x2="1" y2=".5" id="b"><stop stop-color="#e90010" offset="0"/><stop stop-color="#6c7500" offset="0"/><stop stop-color="#b2c300" offset="1"/></linearGradient><linearGradient x1="0" y1=".5" x2="1" y2=".5" id="c"><stop stop-color="#e90010" offset="0"/><stop stop-color="#6c7500" offset="0"/><stop stop-color="#b2c300" offset="1"/></linearGradient><linearGradient x1="0" y1=".5" x2="1" y2=".5" id="d"><stop stop-color="#e90010" offset="0"/><stop stop-color="#6c7500" offset="0"/><stop stop-color="#b2c300" offset="1"/></linearGradient><linearGradient x1="0" y1=".5" x2="1" y2=".5" id="e"><stop stop-color="#e90010" offset="0"/><stop stop-color="#6c7500" offset="0"/><stop stop-color="#b2c300" offset="1"/></linearGradient></defs></svg>