<svg xmlns="http://www.w3.org/2000/svg" width="66.906" height="87.795" viewBox="1134.26 1917.53 66.906 87.795"><path d="M1176.47 1917.53c.429.302.957.231 1.428.383a10.034 10.034 0 0 1 3.873 2.28c5.415 5.125 10.831 10.25 16.248 15.372 2.129 2.013 3.149 4.478 3.147 7.408-.011 17.514-.002 35.028-.007 52.542-.002 5.743-4.072 9.805-9.819 9.807-15.713.004-31.426.003-47.139.001-5.86-.001-9.908-4.04-9.908-9.89-.002-22.6.042-45.2-.033-67.799-.017-5.265 3.368-8.979 7.346-9.869.147-.033.361 0 .402-.235h34.463Zm-37.034 43.922c0 11.373-.002 22.747.001 34.12.001 2.812 1.79 4.605 4.599 4.606 15.802.002 31.603.003 47.405-.001 2.757 0 4.573-1.802 4.574-4.544.004-17.203-.002-34.406.017-51.61.001-.64-.147-.793-.788-.789-4.829.03-9.658.02-14.487.015-3.791-.004-6.338-2.549-6.343-6.339-.005-4.458-.019-8.916.017-13.374.006-.705-.153-.883-.872-.881-9.773.028-19.545.018-29.318.019-3.099 0-4.805 1.715-4.805 4.828v33.95Zm53.651-23.47-13.53-12.798c0 4.024-.003 7.848.001 11.672.001 1.001.252 1.248 1.268 1.249 3.882.003 7.764.003 11.645-.003.184-.001.391.083.616-.12Z" fill-rule="evenodd" fill="url(&quot;#a&quot;)" data-name="Path 68"/><defs><linearGradient x1="0" y1=".5" x2="1" y2=".5" id="a"><stop stop-color="#e90010" offset="0"/><stop stop-color="#6c7500" offset="0"/><stop stop-color="#b2c300" offset="1"/></linearGradient></defs></svg>