<svg xmlns="http://www.w3.org/2000/svg" width="81.296" height="94.088" viewBox="1559.253 1914.383 81.296 94.088"><g data-name="Group 23"><path d="M1576.367 1961.41c.01-12.996 10.538-23.52 23.487-23.479 13.07.041 23.511 10.508 23.507 23.565-.004 12.918-10.507 23.416-23.44 23.429-13.052.013-23.565-10.482-23.554-23.515Zm38.701 12.538c13.253-19.714-8.752-41.468-28.127-27.115a8.13 8.13 0 0 0-1.689 1.691c-14.389 19.48 7.64 41.489 27.298 27.968a9.564 9.564 0 0 0 2.518-2.544Z" fill-rule="evenodd" fill="url(&quot;#a&quot;)" data-name="Path 63"/><path d="M1596.63 1994.514c-1.067-1.073-1.135-2.372-.222-3.271 1.462-1.437 3.937-.293 4.858 3.377a1.76 1.76 0 0 0 1.091 1.212c5.801 2.155 5.987 5.187.424 7.312a2.564 2.564 0 0 0-1.515 1.599c-1.16 3.556-3.458 4.55-4.896 3.06-.868-.899-.782-2.159.237-3.195.79-.803 1.596-1.59 2.52-2.509-1.466-.131-2.775-.219-4.076-.369-16.782-1.926-30.947-14.33-34.618-30.818-3.591-16.128 1.05-29.746 13.446-40.699.581-.513 1.185-1.012 2.023-.95.909.066 1.586.523 1.902 1.392.346.956.078 1.79-.69 2.426a41.669 41.669 0 0 0-4.877 4.739c-16.625 19.108-8.321 49.757 15.679 57.9 3.914 1.328 7.912 2.052 12.048 2.012-1.109-1.075-2.245-2.123-3.334-3.218Z" fill-rule="evenodd" fill="url(&quot;#b&quot;)" data-name="Path 64"/><path d="M1600.025 1925.373c1.032.992 2.083 1.966 3.091 2.981 1.056 1.062 1.112 2.392.191 3.273-1.489 1.422-4.033.257-4.703-3.503a1.223 1.223 0 0 0-.79-.948c-6.223-2.193-6.533-5.194-.979-7.473a3.169 3.169 0 0 0 1.781-1.916c1.138-3.306 3.366-4.186 4.762-2.719.852.897.754 2.154-.269 3.198-.787.803-1.592 1.588-2.53 2.52 1.932.155 3.69.187 5.417.503 15.96 2.924 26.899 11.956 32.316 27.232 5.631 15.878.353 33.708-12.715 44.334-1.228.999-2.522.974-3.353-.064-.811-1.015-.592-2.221.609-3.22 7.345-6.115 11.674-13.923 13.038-23.362 2.129-14.727-5.598-29.761-18.884-36.813-5.089-2.702-10.508-4.165-16.28-4.267-.191-.004-.382 0-.573 0l-.129.244Z" fill-rule="evenodd" fill="url(&quot;#c&quot;)" data-name="Path 65"/><path d="M1614.798 1974.342a7.776 7.776 0 0 1-1.855 1.875c-19.756 14.09-42.176-8.084-27.691-27.693a8.13 8.13 0 0 1 1.689-1.691c19.504-14.449 41.673 7.693 27.857 27.509Z" fill-rule="evenodd" fill="url(&quot;#d&quot;)" data-name="Path 66"/></g><defs><linearGradient x1="0" y1=".5" x2="1" y2=".5" id="a"><stop stop-color="#e90010" offset="0"/><stop stop-color="#6c7500" offset="0"/><stop stop-color="#b2c300" offset="1"/></linearGradient><linearGradient x1="0" y1=".5" x2="1" y2=".5" id="b"><stop stop-color="#e90010" offset="0"/><stop stop-color="#6c7500" offset="0"/><stop stop-color="#b2c300" offset="1"/></linearGradient><linearGradient x1="0" y1=".5" x2="1" y2=".5" id="c"><stop stop-color="#e90010" offset="0"/><stop stop-color="#6c7500" offset="0"/><stop stop-color="#b2c300" offset="1"/></linearGradient><linearGradient x1="0" y1=".5" x2="1" y2=".5" id="d"><stop stop-color="#e90010" offset="0"/><stop stop-color="#6c7500" offset="0"/><stop stop-color="#b2c300" offset="1"/></linearGradient></defs></svg>