<svg xmlns="http://www.w3.org/2000/svg" xmlns:xlink="http://www.w3.org/1999/xlink" width="83.593" height="79.718" viewBox="0 0 83.593 79.718">
  <defs>
    <linearGradient id="linear-gradient" y1="0.5" x2="1" y2="0.5" gradientUnits="objectBoundingBox">
      <stop offset="0" stop-color="#6c7500"/>
      <stop offset="1" stop-color="#afc000"/>
    </linearGradient>
    <linearGradient id="linear-gradient-4" x1="0" y1="0.5" x2="1" y2="0.5" xlink:href="#linear-gradient"/>
  </defs>
  <g id="Group_22054" data-name="Group 22054" transform="translate(-266.392 -2009.112)">
    <path id="Path_208" data-name="Path 208" d="M333.39,2043.76c2.116,0,4.073,0,6.029,0,1.333,0,1.688.345,1.691,1.641q0,15.327,0,30.654c0,1.385-.305,1.68-1.718,1.685-1.954,0-3.909,0-5.956,0-.017.363-.044.662-.044.961,0,2.81,0,5.62-.008,8.43,0,1.317-.368,1.695-1.653,1.695q-26.984.006-53.966,0c-1.375,0-1.686-.33-1.686-1.732q0-4.171,0-8.342v-1.014h-1.026c-1.73,0-3.462.006-5.192,0-1.146,0-1.533-.387-1.533-1.533q0-15.454,0-30.909c0-1.138.4-1.528,1.537-1.533,1.759-.006,3.518,0,5.279,0,.274,0,.55-.023.93-.042V2011.59c0-.37-.006-.74.008-1.107.037-.908.409-1.294,1.294-1.35.2-.013.4-.008.6-.008q20.981,0,41.964-.012a2.6,2.6,0,0,1,2.017.841q5.318,5.389,10.706,10.714a2.341,2.341,0,0,1,.735,1.809q-.025,10.05-.008,20.1Zm-54.8-32.17V2043.7H330.9v-20.577c-1.383,0-2.685,0-3.987,0-4.581-.009-7.506-2.929-7.512-7.5v-4.033Zm52.38,66.2H278.506v.876c0,2.185-.006,4.37.006,6.554.006,1.271-.189,1.188,1.184,1.188q25.015,0,50.033,0a2.489,2.489,0,0,0,.76-.023c.187-.064.457-.282.457-.434C330.975,2083.263,330.967,2080.571,330.967,2077.791Zm-9.055-64.2c-.912,5.819,2.395,7.784,6.924,6.982Z" transform="translate(2.083 0)" fill="url(#linear-gradient)"/>
    <path id="Path_209" data-name="Path 209" d="M273.267,2010.305h40.812v4.033c.006,4.571,2.93,7.491,7.512,7.5,1.3,0,2.6,0,3.987,0v20.577H273.267Zm26.072,20.124v.006q8.894,0,17.786,0c1,0,1.5-.424,1.487-1.226-.008-.76-.494-1.163-1.443-1.192-.17-.006-.341,0-.511,0q-17.277,0-34.55,0a2.042,2.042,0,0,0-1,.083,1.877,1.877,0,0,0-.864.995,1.456,1.456,0,0,0,.519,1.125,1.906,1.906,0,0,0,1.132.2Q290.617,2030.437,299.339,2030.429Zm-5.153-8.947c-4.222,0-8.444-.006-12.669.006-.845,0-1.3.411-1.333,1.113-.037.735.438,1.217,1.273,1.283.2.015.4.008.6.008q12.075,0,24.147,0a5.189,5.189,0,0,0,1.018-.052,1.138,1.138,0,0,0,.667-1.9,2.009,2.009,0,0,0-1.284-.442C302.463,2021.47,298.326,2021.482,294.187,2021.482Z" transform="translate(7.403 1.285)" fill="url(#linear-gradient)"/>
    <path id="Path_210" data-name="Path 210" d="M325.689,2042.181c0,2.781.008,5.473-.021,8.162,0,.152-.27.37-.457.434a2.489,2.489,0,0,1-.76.023q-25.015,0-50.033,0c-1.373,0-1.178.083-1.184-1.188-.012-2.185-.006-4.37-.006-6.554v-.876Z" transform="translate(7.36 35.609)" fill="url(#linear-gradient)"/>
    <path id="Path_211" data-name="Path 211" d="M294.207,2011.27l6.924,6.982C296.6,2019.054,293.3,2017.089,294.207,2011.27Z" transform="translate(29.788 2.324)" fill="#fff"/>
    <path id="Path_212" data-name="Path 212" d="M296.528,2045.479c-1.053,0-1.985.029-2.912-.022a.86.86,0,0,1-.573-.476c-.343-.777-.584-1.6-.951-2.366a1.087,1.087,0,0,0-.781-.532c-1.616-.05-3.234-.045-4.849,0a.986.986,0,0,0-.712.5c-.347.774-.577,1.6-.905,2.384a.87.87,0,0,1-.563.49c-.9.054-1.8.023-2.847.023.12-.361.2-.619.291-.868,1.757-4.517,3.526-9.03,5.265-13.553a.954.954,0,0,1,1.045-.735c2.488,0,2.476-.015,3.385,2.278q2.374,5.966,4.77,11.921C296.3,2044.8,296.391,2045.089,296.528,2045.479Zm-9.647-6.037H290.9l-1.944-5.221-.189.019Z" transform="translate(16.198 22.837)" fill="#fff"/>
    <path id="Path_213" data-name="Path 213" d="M289.174,2030.344c1.248,0,2.291-.035,3.325.027.23.013.5.329.654.569.872,1.352,1.715,2.725,2.65,4.222.9-1.464,1.755-2.789,2.542-4.149a1.164,1.164,0,0,1,1.213-.689c.845.045,1.695.01,2.675.01a6,6,0,0,1-.305.648c-1.292,2.031-2.573,4.073-3.9,6.083a.981.981,0,0,0,.021,1.286c1.389,2.035,2.741,4.1,4.106,6.153.17.255.326.52.6.952-1.275,0-2.411.016-3.547-.021-.154-.006-.326-.274-.442-.451-.835-1.284-1.657-2.575-2.486-3.863-.147-.229-.312-.447-.55-.79-.939,1.46-1.852,2.783-2.656,4.17a1.7,1.7,0,0,1-1.828,1c-.756-.077-1.524-.017-2.471-.017.212-.365.343-.619.5-.859,1.394-2.135,2.773-4.283,4.2-6.4a.985.985,0,0,0-.008-1.285C292.055,2034.816,290.682,2032.671,289.174,2030.344Z" transform="translate(24.096 22.837)" fill="#fff"/>
    <path id="Path_214" data-name="Path 214" d="M283.706,2045.389h-3.063v-12.461h-4.417v-2.573h11.861v2.542h-4.38Z" transform="translate(10.588 22.875)" fill="#fff"/>
    <path id="Path_215" data-name="Path 215" d="M295.727,2021.257q-8.723,0-17.445-.008a1.906,1.906,0,0,1-1.132-.2,1.456,1.456,0,0,1-.519-1.125,1.877,1.877,0,0,1,.864-.995,2.042,2.042,0,0,1,1-.083q17.274,0,34.55,0c.17,0,.341,0,.511,0,.949.029,1.435.432,1.443,1.192.008.8-.49,1.224-1.487,1.226q-8.891,0-17.786,0Z" transform="translate(11.015 10.457)" fill="#fff"/>
    <path id="Path_216" data-name="Path 216" d="M290.6,2015.688c4.139,0,8.276-.012,12.415.019a2.009,2.009,0,0,1,1.284.442,1.138,1.138,0,0,1-.667,1.9,5.189,5.189,0,0,1-1.018.052q-12.075,0-24.147,0c-.2,0-.4.006-.6-.008-.835-.066-1.31-.548-1.273-1.283.035-.7.488-1.111,1.333-1.113C282.157,2015.682,286.379,2015.688,290.6,2015.688Z" transform="translate(10.989 7.079)" fill="#fff"/>
    <path id="Path_217" data-name="Path 217" d="M284.057,2037.419l1.882-5.2.189-.019,1.944,5.221Z" transform="translate(19.022 24.859)" fill="url(#linear-gradient-4)"/>
    <rect id="Rectangle_24" data-name="Rectangle 24" width="83.593" height="3.141" transform="translate(266.392 2040.514)" fill="#fff"/>
    <rect id="Rectangle_25" data-name="Rectangle 25" width="83.593" height="3.141" transform="translate(266.392 2077.7)" fill="#fff"/>
  </g>
</svg>
