<svg xmlns="http://www.w3.org/2000/svg" width="76.745" height="76.718" viewBox="697.209 1926.482 76.745 76.718"><g data-name="Group 29"><path d="M714.939 1971.39c0-7.774.012-15.55-.02-23.323-.003-.758.164-.949.938-.947 13.153.027 26.306.026 39.459.001.752-.001.953.153.952.933-.027 15.273-.018 30.545-.022 45.817-.001 5.525-3.791 9.321-9.306 9.325-7.56.005-15.12.005-22.68 0-5.516-.003-9.317-3.802-9.32-9.312-.005-7.498-.001-14.996-.001-22.494Zm17.703 4.043c-1.283-1.286-2.418-2.431-3.561-3.567-1.399-1.391-3.162-1.495-4.406-.271-1.246 1.227-1.168 3.025.207 4.404 2.798 2.806 5.6 5.607 8.406 8.404 1.478 1.474 3.123 1.482 4.602.012 2.81-2.794 5.611-5.596 8.405-8.405 1.353-1.36 1.429-3.109.219-4.344-1.234-1.26-3.014-1.185-4.407.199-1.144 1.137-2.275 2.286-3.563 3.581v-1.098c0-4.054.004-8.108-.002-12.162-.003-1.926-1.251-3.268-2.995-3.244-1.707.024-2.901 1.346-2.903 3.239-.005 4.054-.002 8.108-.002 12.162v1.09Z" fill-rule="evenodd" fill="url(&quot;#a&quot;)" data-name="Path 74"/><path d="M735.638 1926.487h28.86c5.711.001 9.451 3.743 9.453 9.456.002 5.532.004 11.064 0 16.596-.004 5.576-3.785 9.346-9.374 9.352-.615.001-1.232-.037-1.843.012-.518.041-.595-.177-.594-.629.015-4.517.014-9.035.001-13.552-.001-.397.068-.542.513-.642 1.662-.373 2.637-1.748 2.425-3.286-.207-1.503-1.467-2.552-3.117-2.553-17.58-.004-35.16-.004-52.74 0-1.661 0-2.909 1.039-3.116 2.55-.211 1.542.761 2.917 2.423 3.289.442.099.518.238.517.639-.014 4.517-.006 9.035-.016 13.553-.001.226.182.609-.297.616-2.489.039-4.985.143-7.218-1.292-2.705-1.74-4.22-4.202-4.257-7.41a890.612 890.612 0 0 1-.008-17.978c.043-4.89 3.994-8.705 8.975-8.715 9.805-.021 19.609-.006 29.413-.006Z" fill-rule="evenodd" fill="url(&quot;#b&quot;)" data-name="Path 75"/><path d="M732.642 1975.433v-1.09c0-4.054-.003-8.108.002-12.162.002-1.893 1.196-3.215 2.903-3.239 1.744-.024 2.992 1.318 2.995 3.244.006 4.054.002 8.108.002 12.162v1.098c1.288-1.295 2.419-2.444 3.563-3.581 1.393-1.384 3.173-1.459 4.407-.199 1.21 1.235 1.134 2.984-.219 4.344a2156.598 2156.598 0 0 1-8.405 8.405c-1.479 1.47-3.124 1.462-4.602-.012a3897.22 3897.22 0 0 1-8.406-8.404c-1.375-1.379-1.453-3.177-.207-4.404 1.244-1.224 3.007-1.12 4.406.271 1.143 1.136 2.278 2.281 3.561 3.567Z" fill="#fff" fill-rule="evenodd" data-name="Path 76"/></g><defs><linearGradient x1="0" y1=".5" x2="1" y2=".5" id="a"><stop stop-color="#e90010" offset="0"/><stop stop-color="#6c7500" offset="0"/><stop stop-color="#b2c300" offset="1"/></linearGradient><linearGradient x1="0" y1=".5" x2="1" y2=".5" id="b"><stop stop-color="#e90010" offset="0"/><stop stop-color="#6c7500" offset="0"/><stop stop-color="#b2c300" offset="1"/></linearGradient></defs></svg>