<?xml version="1.0" ?><svg viewBox="0 0 24 24" xmlns="http://www.w3.org/2000/svg" xmlns:xlink="http://www.w3.org/1999/xlink"><defs><style>.cls-1{fill:none;}.cls-2{fill:#fff;}.cls-3{fill:url(#linear-gradient);}.cls-4{fill:url(#linear-gradient-2);}.cls-5{fill:url(#linear-gradient-3);}.cls-6{fill:url(#linear-gradient-4);}</style><linearGradient gradientUnits="userSpaceOnUse" id="linear-gradient" x1="9.58" x2="9.58" y1="17.71" y2="6.31"><stop offset="0" stop-color="#00e4ff"/><stop offset="0.99" stop-color="#0cf"/></linearGradient><linearGradient gradientUnits="userSpaceOnUse" id="linear-gradient-2" x1="13.03" x2="18.6" y1="11.87" y2="11.87"><stop offset="0.01" stop-color="#ffbc00"/><stop offset="1" stop-color="#ffe100"/></linearGradient><linearGradient gradientUnits="userSpaceOnUse" id="linear-gradient-3" x1="11.02" x2="11.02" y1="11.74" y2="5.4"><stop offset="0" stop-color="#00f055"/><stop offset="0.99" stop-color="#00e05a"/></linearGradient><linearGradient gradientUnits="userSpaceOnUse" id="linear-gradient-4" x1="11.26" x2="11.26" y1="18.6" y2="11.74"><stop offset="0.01" stop-color="#de1646"/><stop offset="1" stop-color="#ff2b43"/></linearGradient></defs><title/><g data-name="Layer 2" id="Layer_2"><g data-name="Layer 3" id="Layer_3"><rect class="cls-1" height="24" width="24"/><path class="cls-2" d="M1,12C1,4,4,1,12,1S23,4,23,12,20,23,12,23,1,20,1,12"/><path class="cls-3" d="M13,11.74,6.59,18.12A1.53,1.53,0,0,1,6.12,17V7a1.53,1.53,0,0,1,.49-1.13Z"/><path class="cls-4" d="M18.6,12a1.57,1.57,0,0,1-.84,1.38l-1.83,1-2.27-2.08L13,11.74l2.41-2.39,2.32,1.27A1.57,1.57,0,0,1,18.6,12Z"/><path class="cls-5" d="M13,11.74,6.61,5.86a1.79,1.79,0,0,1,.3-.22,1.69,1.69,0,0,1,1.7,0l6.83,3.73Z"/><path class="cls-6" d="M15.93,14.39l-7.32,4a1.76,1.76,0,0,1-.83.21,1.61,1.61,0,0,1-.87-.24,1.91,1.91,0,0,1-.32-.24L13,11.74l.63.57Z"/></g></g></svg>